<svg width="574" height="422" viewBox="0 0 574 422" fill="none" xmlns="http://www.w3.org/2000/svg">
<path d="M217.667 7.12897C216.035 2.64097 212.975 0.396973 208.487 0.396973H129.54C125.052 0.396973 121.992 2.64097 120.36 7.12897L0.408 401.257C-0.408 404.929 0 407.578 1.632 409.21C3.264 411.658 5.916 412.885 9.588 412.885H80.58C85.476 412.885 88.536 410.641 89.76 406.153L109.956 335.161H228.073L248.269 406.153C249.493 410.641 252.349 412.885 256.837 412.885H328.441H329.05C331.498 412.885 333.643 412.068 335.479 410.437C337.315 408.806 338.233 406.561 338.233 403.705C338.233 402.891 337.824 401.259 337.006 398.809L217.667 7.12897ZM128.316 258.661L168.708 114.229L209.712 258.661H128.316ZM545.087 144.829C525.911 127.285 498.984 118.513 464.306 118.513C442.682 118.513 422.69 122.083 404.329 129.222C385.968 136.362 369.853 146.868 355.981 160.74C352.714 164.004 352.105 167.676 354.145 171.756L376.789 210.923C378.014 213.37 380.256 215.003 383.521 215.819C386.375 216.636 389.029 215.819 391.477 213.371C410.245 194.195 431.052 184.607 453.901 184.607C483.276 184.607 497.963 198.684 497.963 226.835V244.583C480.828 231.119 459.612 224.39 434.317 224.39C422.893 224.39 411.571 226.327 400.351 230.202C389.129 234.078 379.132 239.994 370.363 247.95C361.59 255.906 354.451 266.107 348.943 278.553C343.435 290.995 340.681 305.58 340.681 322.311C340.681 338.628 343.33 352.911 348.634 365.151C353.941 377.391 361.078 387.693 370.057 396.057C379.032 404.419 389.028 410.745 400.042 415.029C411.06 419.313 422.482 421.455 434.314 421.455C446.146 421.455 457.569 419.619 468.585 415.947C479.604 412.275 489.396 406.972 497.961 400.035V405.543C497.961 407.991 498.879 410.136 500.715 411.972C502.554 413.808 504.694 414.726 507.144 414.726H564.669C567.117 414.726 569.261 413.808 571.098 411.972C572.934 410.136 573.852 407.993 573.852 405.543V219.493C573.853 187.261 564.265 162.373 545.087 144.829ZM497.964 343.116C488.988 356.988 474.708 363.927 455.124 363.927C443.292 363.927 433.909 360.153 426.975 352.605C420.037 345.057 416.571 335.162 416.571 322.92C416.571 310.683 420.038 300.687 426.975 292.935C433.91 285.183 443.292 281.307 455.124 281.307C460.836 281.307 467.978 282.632 476.544 285.285C485.112 287.938 492.252 293.955 497.964 303.339V343.116Z" fill="white"/>
</svg>
