<svg width="106" height="106" viewBox="0 0 106 106" fill="none" xmlns="http://www.w3.org/2000/svg">
<g clip-path="url(#clip0_15_2)">
<path fill-rule="evenodd" clip-rule="evenodd" d="M100.111 72.875H5.88889C2.65 72.875 0 75.8562 0 79.5C0 83.1438 2.65 86.125 5.88889 86.125H100.111C103.35 86.125 106 83.1438 106 79.5C106 75.8562 103.35 72.875 100.111 72.875ZM100.111 39.75H5.88889C2.65 39.75 0 42.7312 0 46.375V53C0 56.6438 2.65 59.625 5.88889 59.625H100.111C103.35 59.625 106 56.6438 106 53V46.375C106 42.7312 103.35 39.75 100.111 39.75ZM100.111 0H5.88889C2.65 0 0 2.98125 0 6.625V19.875C0 23.5188 2.65 26.5 5.88889 26.5H100.111C103.35 26.5 106 23.5188 106 19.875V6.625C106 2.98125 103.35 0 100.111 0ZM103.056 99.375H2.94444C1.29556 99.375 0 100.832 0 102.688C0 104.543 1.29556 106 2.94444 106H103.056C104.704 106 106 104.543 106 102.688C106 100.832 104.704 99.375 103.056 99.375Z" fill="white"/>
</g>
<defs>
<clipPath id="clip0_15_2">
<rect width="106" height="106" fill="white"/>
</clipPath>
</defs>
</svg>
