<svg  viewBox="0 0 12 12" fill="none" xmlns="http://www.w3.org/2000/svg">
<path d="M9.75314 11H4.73974C4.50596 11 4.32412 10.8474 4.32412 10.6512C4.32412 10.1062 4.01241 9.801 3.54484 9.3214C3.28507 9.0598 2.99934 8.75461 2.7136 8.38401C1.93431 7.31582 1.23296 6.09502 1.0771 5.61542C0.921242 5.13582 1.02514 4.85243 1.181 4.67803C1.36284 4.46003 1.67455 4.35103 2.03822 4.35103C2.53176 4.35103 3.05129 4.69983 3.49288 5.15762V2.04639C3.49288 1.4578 4.06436 1 4.73974 1C5.41512 1 5.9866 1.4796 5.9866 2.04639V3.02124C6.11648 2.97764 6.24636 2.95584 6.40222 2.95584C6.84381 2.95584 7.23346 3.15203 7.46724 3.43543C7.64907 3.34823 7.85688 3.30463 8.09067 3.30463C8.66214 3.30463 9.15569 3.63163 9.28557 4.06763C9.41545 4.02403 9.57131 4.00223 9.75314 4.00223C10.4545 4.00223 11 4.48183 11 5.04862V6.09502C11 6.98882 10.7922 7.73001 10.5844 8.42761C10.3766 9.147 10.1688 9.801 10.1688 10.6294C10.1688 10.8256 9.98693 11 9.75314 11ZM5.15536 10.3024H9.3635C9.41545 9.5394 9.59729 8.90721 9.77912 8.27501C9.98693 7.57741 10.1688 6.90162 10.1688 6.09502V4.98323C10.1688 4.78703 9.98693 4.63443 9.75314 4.63443C9.51936 4.63443 9.33753 4.78703 9.33753 4.98323V5.39742C9.33753 5.59362 9.15569 5.74622 8.92191 5.74622C8.68812 5.74622 8.50629 5.59362 8.50629 5.39742V4.28563C8.50629 4.08943 8.32445 3.93684 8.09067 3.93684C7.85688 3.93684 7.67505 4.08943 7.67505 4.28563V5.04862C7.67505 5.24482 7.49322 5.39742 7.25943 5.39742C7.02565 5.39742 6.84381 5.24482 6.84381 5.04862V3.93684C6.84381 3.74064 6.66198 3.58804 6.42819 3.58804C6.19441 3.58804 6.01257 3.74064 6.01257 3.93684V4.69983C6.01257 4.89603 5.83074 5.04862 5.59695 5.04862C5.36317 5.04862 5.18134 4.89603 5.18134 4.69983V1.95919C5.18134 1.763 4.9995 1.61039 4.76572 1.61039C4.53193 1.61039 4.3501 1.763 4.3501 1.95919V6.79261C4.3501 6.98881 4.16826 7.14141 3.93448 7.14141C3.70069 7.14141 3.51886 6.98881 3.51886 6.79261V6.50922C3.15519 5.70262 2.32396 5.00503 2.06419 5.00503C1.96029 5.00503 1.90834 5.02683 1.88236 5.09223C1.85639 5.13583 1.83041 5.24482 1.88236 5.39742C2.01224 5.76802 2.66165 6.90162 3.46691 8.01341C3.72667 8.36221 3.98643 8.62381 4.24619 8.88541C4.66181 9.3214 5.02548 9.7138 5.15536 10.3024Z" fill="#C0C0C0"/>
</svg>
