<svg width="7" height="8" viewBox="0 0 7 8" fill="none" xmlns="http://www.w3.org/2000/svg">
<path d="M3.20794 8C3.13461 8 3.07227 7.978 3.02094 7.934C2.97694 7.88267 2.95494 7.82033 2.95494 7.747V1.279H0.842941C0.769608 1.279 0.707275 1.257 0.655941 1.213C0.611941 1.16167 0.589941 1.09933 0.589941 1.026V0.563999C0.589941 0.483333 0.611941 0.421 0.655941 0.377C0.707275 0.325666 0.769608 0.299999 0.842941 0.299999H6.14494C6.22561 0.299999 6.28794 0.325666 6.33194 0.377C6.38328 0.421 6.40894 0.483333 6.40894 0.563999V1.026C6.40894 1.09933 6.38328 1.16167 6.33194 1.213C6.28794 1.257 6.22561 1.279 6.14494 1.279H4.04394V7.747C4.04394 7.82033 4.01827 7.88267 3.96694 7.934C3.92294 7.978 3.86061 8 3.77994 8H3.20794Z" fill="#C0C0C0"/>
</svg>
