<svg width="16" height="16" viewBox="0 0 16 16" fill="none" xmlns="http://www.w3.org/2000/svg">
<g clip-path="url(#clip0_1_4)">
<path d="M15 2V3H14V2H13V3H12V2H11V3H10V2H9V3H8V2H7V3H6V2H5V3H4V2H3V3H2V2H1V3H0V16H16V2H15ZM15 15H1V4H15V15Z" fill="white"/>
<path d="M15 0H16V1H15V0Z" fill="white"/>
<path d="M14 1H15V2H14V1Z" fill="white"/>
<path d="M13 0H14V1H13V0Z" fill="white"/>
<path d="M12 1H13V2H12V1Z" fill="white"/>
<path d="M11 0H12V1H11V0Z" fill="white"/>
<path d="M10 1H11V2H10V1Z" fill="white"/>
<path d="M9 0H10V1H9V0Z" fill="white"/>
<path d="M8 1H9V2H8V1Z" fill="white"/>
<path d="M7 0H8V1H7V0Z" fill="white"/>
<path d="M6 1H7V2H6V1Z" fill="white"/>
<path d="M5 0H6V1H5V0Z" fill="white"/>
<path d="M4 1H5V2H4V1Z" fill="white"/>
<path d="M3 0H4V1H3V0Z" fill="white"/>
<path d="M2 1H3V2H2V1Z" fill="white"/>
<path d="M1 0H2V1H1V0Z" fill="white"/>
<path d="M0 1H1V2H0V1Z" fill="white"/>
</g>
<defs>
<clipPath id="clip0_1_4">
<rect width="16" height="16" fill="white"/>
</clipPath>
</defs>
</svg>
