<svg width="16" height="16" viewBox="0 0 16 16" fill="none" xmlns="http://www.w3.org/2000/svg">
<g clip-path="url(#clip0_1_40)">
<path d="M0 0V14H1V13H2V14H3V13H4V14H5V13H6V14H7V13H8V14H9V13H10V14H11V13H12V14H13V13H14V14H15V13H16V0H0ZM15 12H1V1H15V12Z" fill="white"/>
<path d="M0 15H1V16H0V15Z" fill="white"/>
<path d="M1 14H2V15H1V14Z" fill="white"/>
<path d="M2 15H3V16H2V15Z" fill="white"/>
<path d="M3 14H4V15H3V14Z" fill="white"/>
<path d="M4 15H5V16H4V15Z" fill="white"/>
<path d="M5 14H6V15H5V14Z" fill="white"/>
<path d="M6 15H7V16H6V15Z" fill="white"/>
<path d="M7 14H8V15H7V14Z" fill="white"/>
<path d="M8 15H9V16H8V15Z" fill="white"/>
<path d="M9 14H10V15H9V14Z" fill="white"/>
<path d="M10 15H11V16H10V15Z" fill="white"/>
<path d="M11 14H12V15H11V14Z" fill="white"/>
<path d="M12 15H13V16H12V15Z" fill="white"/>
<path d="M13 14H14V15H13V14Z" fill="white"/>
<path d="M14 15H15V16H14V15Z" fill="white"/>
<path d="M15 14H16V15H15V14Z" fill="white"/>
</g>
<defs>
<clipPath id="clip0_1_40">
<rect width="16" height="16" fill="white"/>
</clipPath>
</defs>
</svg>
