<svg width="16" height="16" viewBox="0 0 16 16" fill="none" xmlns="http://www.w3.org/2000/svg">
<g clip-path="url(#clip0_672_4)">
<path d="M2 0V1H3V2H2V3H3V4H2V5H3V6H2V7H3V8H2V9H3V10H2V11H3V12H2V13H3V14H2V15H3V16H16V0H2ZM15 15H4V1H15V15Z" fill="white"/>
<path d="M0 0H1V1H0V0Z" fill="white"/>
<path d="M1 1H2V2H1V1Z" fill="white"/>
<path d="M0 2H1V3H0V2Z" fill="white"/>
<path d="M1 3H2V4H1V3Z" fill="white"/>
<path d="M0 4H1V5H0V4Z" fill="white"/>
<path d="M1 5H2V6H1V5Z" fill="white"/>
<path d="M0 6H1V7H0V6Z" fill="white"/>
<path d="M1 7H2V8H1V7Z" fill="white"/>
<path d="M0 8H1V9H0V8Z" fill="white"/>
<path d="M1 9H2V10H1V9Z" fill="white"/>
<path d="M0 10H1V11H0V10Z" fill="white"/>
<path d="M1 11H2V12H1V11Z" fill="white"/>
<path d="M0 12H1V13H0V12Z" fill="white"/>
<path d="M1 13H2V14H1V13Z" fill="white"/>
<path d="M0 14H1V15H0V14Z" fill="white"/>
<path d="M1 15H2V16H1V15Z" fill="white"/>
</g>
<defs>
<clipPath id="clip0_672_4">
<rect width="16" height="16" fill="white"/>
</clipPath>
</defs>
</svg>
