<svg width="16" height="16" viewBox="0 0 16 16" fill="none" xmlns="http://www.w3.org/2000/svg">
<g clip-path="url(#clip0_1_22)">
<path d="M14 2V1H13V0H0V16H14V15H13V14H14V13H13V12H14V11H13V10H14V9H13V8H14V7H13V6H14V5H13V4H14V3H13V2H14ZM12 15H1V1H12V15Z" fill="white"/>
<path d="M15 15H16V16H15V15Z" fill="white"/>
<path d="M14 14H15V15H14V14Z" fill="white"/>
<path d="M15 13H16V14H15V13Z" fill="white"/>
<path d="M14 12H15V13H14V12Z" fill="white"/>
<path d="M15 11H16V12H15V11Z" fill="white"/>
<path d="M14 10H15V11H14V10Z" fill="white"/>
<path d="M15 9H16V10H15V9Z" fill="white"/>
<path d="M14 8H15V9H14V8Z" fill="white"/>
<path d="M15 7H16V8H15V7Z" fill="white"/>
<path d="M14 6H15V7H14V6Z" fill="white"/>
<path d="M15 5H16V6H15V5Z" fill="white"/>
<path d="M14 4H15V5H14V4Z" fill="white"/>
<path d="M15 3H16V4H15V3Z" fill="white"/>
<path d="M14 2H15V3H14V2Z" fill="white"/>
<path d="M15 1H16V2H15V1Z" fill="white"/>
<path d="M14 0H15V1H14V0Z" fill="white"/>
</g>
<defs>
<clipPath id="clip0_1_22">
<rect width="16" height="16" fill="white"/>
</clipPath>
</defs>
</svg>
