<svg width="16" height="16" viewBox="0 0 16 16" fill="none" xmlns="http://www.w3.org/2000/svg">
<g clip-path="url(#clip0_5_31)">
<path d="M16 0H0V16H16V0ZM13 15V14H12V15H1V1H13V2H14V1H15V2H14V3H15V4H14V5H15V6H14V7H15V8H14V9H15V10H14V11H15V12H14V13H15V14H14V15H13Z" fill="white"/>
<path d="M13 3H14V4H13V3Z" fill="#119a22"/>
<path d="M12 2H13V3H12V2Z" fill="#119a22"/>
<path d="M12 4H13V5H12V4Z" fill="#119a22"/>
<path d="M12 6H13V7H12V6Z" fill="#119a22"/>
<path d="M13 5H14V6H13V5Z" fill="#119a22"/>
<path d="M13 7H14V8H13V7Z" fill="#119a22"/>
<path d="M13 9H14V10H13V9Z" fill="#119a22"/>
<path d="M12 8H13V9H12V8Z" fill="#119a22"/>
<path d="M12 10H13V11H12V10Z" fill="#119a22"/>
<path d="M12 12H13V13H12V12Z" fill="#119a22"/>
<path d="M13 11H14V12H13V11Z" fill="#119a22"/>
<path d="M13 13H14V14H13V13Z" fill="#119a22"/>
</g>
<defs>
<clipPath id="clip0_5_31">
<rect width="16" height="16" fill="white"/>
</clipPath>
</defs>
</svg>
