<svg width="16" height="16" viewBox="0 0 16 16" fill="none" xmlns="http://www.w3.org/2000/svg">
<g clip-path="url(#clip0_5_17)">
<path d="M0 16H16V0H0V16ZM3 1V2H4V1H15V15H3V14H2V15H1V14H2V13H1V12H2V11H1V10H2V9H1V8H2V7H1V6H2V5H1V4H2V3H1V2H2V1H3Z" fill="white"/>
<path d="M2 12H3V13H2V12Z" fill="#119a22"/>
<path d="M3 13H4V14H3V13Z" fill="#119a22"/>
<path d="M3 11H4V12H3V11Z" fill="#119a22"/>
<path d="M3 9H4V10H3V9Z" fill="#119a22"/>
<path d="M2 10H3V11H2V10Z" fill="#119a22"/>
<path d="M2 8H3V9H2V8Z" fill="#119a22"/>
<path d="M2 6H3V7H2V6Z" fill="#119a22"/>
<path d="M3 7H4V8H3V7Z" fill="#119a22"/>
<path d="M3 5H4V6H3V5Z" fill="#119a22"/>
<path d="M3 3H4V4H3V3Z" fill="#119a22"/>
<path d="M2 4H3V5H2V4Z" fill="#119a22"/>
<path d="M2 2H3V3H2V2Z" fill="#119a22"/>
</g>
<defs>
<clipPath id="clip0_5_17">
<rect width="16" height="16" fill="white"/>
</clipPath>
</defs>
</svg>
