<svg xmlns="http://www.w3.org/2000/svg">
    <symbol viewBox="0 0 64 64" id="logo">
        <g clip-path="url(#clip0_1601_5)">
        <rect width="64" height="64" rx="4" fill="#8E1053"/>
        <path d="M15.2828 50.6668V45.6715H28.6445V50.6668H15.2828ZM10.668 50.6668V13.3335H16.8927V50.6668H10.668ZM40.2249 18.2762V13.3335H44.7861V18.2762H40.2249ZM40.2249 36.7851V31.8424H44.7861V36.7851H40.2249ZM49.7766 26.5842V23.5344H56.0013V26.5842H49.7766ZM56.0013 23.587H49.7766C49.7766 21.9044 49.3294 20.6074 48.4351 19.6959C47.5407 18.7495 46.3065 18.2762 44.7324 18.2762V13.3335C46.9504 13.3335 48.9002 13.7717 50.5815 14.6481C52.2629 15.5244 53.5865 16.7338 54.5524 18.2762C55.5184 19.8186 56.0013 21.5889 56.0013 23.587ZM56.0013 26.5316C56.0013 28.5297 55.5184 30.3 54.5524 31.8424C53.5865 33.3848 52.2629 34.5942 50.5815 35.4706C48.9002 36.347 46.9504 36.7851 44.7324 36.7851V31.8424C46.3065 31.8424 47.5407 31.3867 48.4351 30.4753C49.3294 29.5288 49.7766 28.2142 49.7766 26.5316H56.0013ZM35.3417 50.6668V13.3335H41.5664V50.6668H35.3417Z" fill="white"/>
        </g>
        <defs>
        <clipPath id="clip0_1601_5">
        <rect width="64" height="64" fill="white"/>
        </clipPath>
        </defs>
    </symbol>

    <symbol viewBox="0 0 18 18" id="logo_p">
        <path d="M14.9984 3.31085L12.6266 0.939117C12.1101 0.422609 11.0898 0 10.3594 0H2.39062C1.66016 0 1.0625 0.597656 1.0625 1.32812V15.6719C1.0625 16.4023 1.66016 17 2.39062 17H14.6094C15.3398 17 15.9375 16.4023 15.9375 15.6719V5.57812C15.9375 4.84766 15.5149 3.82736 14.9984 3.31085ZM14.2471 4.06217C14.2991 4.11413 14.3509 4.17795 14.4012 4.25H11.6875V1.53637C11.7596 1.58668 11.8234 1.63847 11.8753 1.69044L14.2471 4.06217ZM14.875 15.6719C14.875 15.8158 14.7533 15.9375 14.6094 15.9375H2.39062C2.24666 15.9375 2.125 15.8158 2.125 15.6719V1.32812C2.125 1.18416 2.24666 1.0625 2.39062 1.0625H10.3594C10.4396 1.0625 10.5296 1.07263 10.625 1.09079V5.3125H14.8467C14.8649 5.40789 14.875 5.49787 14.875 5.57812V15.6719Z" />
        <path d="M4.449 5.61C4.563 5.61 4.641 5.634 4.683 5.682C4.731 5.724 4.755 5.802 4.755 5.916V10.947H7.338C7.452 10.947 7.53 10.971 7.572 11.019C7.62 11.061 7.644 11.139 7.644 11.253V11.694C7.644 11.808 7.62 11.889 7.572 11.937C7.53 11.979 7.452 12 7.338 12H3.936C3.822 12 3.741 11.979 3.693 11.937C3.645 11.889 3.621 11.808 3.621 11.694V5.916C3.621 5.802 3.645 5.724 3.693 5.682C3.741 5.634 3.822 5.61 3.936 5.61H4.449Z" />
        <path d="M11.321 7.61C11.975 7.61 12.491 7.796 12.869 8.168C13.253 8.54 13.445 9.05 13.445 9.698C13.445 10.346 13.253 10.856 12.869 11.228C12.491 11.594 11.975 11.777 11.321 11.777H9.755V13.694C9.755 13.808 9.731 13.889 9.683 13.937C9.641 13.979 9.563 14 9.449 14H8.936C8.822 14 8.741 13.979 8.693 13.937C8.645 13.889 8.621 13.808 8.621 13.694V7.916C8.621 7.802 8.645 7.724 8.693 7.682C8.741 7.634 8.822 7.61 8.936 7.61H11.321ZM11.213 10.724C11.543 10.724 11.798 10.634 11.978 10.454C12.164 10.274 12.257 10.022 12.257 9.698C12.257 9.374 12.164 9.122 11.978 8.942C11.798 8.756 11.543 8.663 11.213 8.663H9.755V10.724H11.213Z" />
    </symbol>

    <symbol viewBox="0 0 32 32" id="logo0">
        <path d="M12.9409 15.6787V27.1975V27.3049C12.9193 27.7665 12.757 28.1529 12.4324 28.4643C12.1078 28.7756 11.7183 28.9259 11.253 28.9259C10.8094 28.9259 10.4199 28.7756 10.1062 28.4643C9.78159 28.1529 9.6193 27.7772 9.59766 27.3371V15.6787C9.63011 15.2385 9.80323 14.8628 10.117 14.5622C10.4308 14.2616 10.8203 14.1113 11.2855 14.1113C11.7291 14.1113 12.1186 14.2616 12.454 14.5729C12.7786 14.8843 12.9409 15.2493 12.9409 15.6787ZM16.1543 17.246C15.5809 17.246 15.1048 17.3211 14.7045 17.4822C14.315 17.6432 13.9904 17.8686 13.7415 18.1692V15.1419C14.131 14.8413 14.5963 14.5944 15.1156 14.4012C15.6458 14.2079 16.295 14.1113 17.0848 14.1113C18.2208 14.1113 19.1513 14.3046 19.8654 14.691C20.5795 15.0775 21.1313 15.5713 21.5424 16.1725C21.9428 16.7737 22.2132 17.4285 22.3431 18.1263C22.4729 18.8241 22.5486 19.4789 22.5486 20.0801V27.2727C22.5486 27.7343 22.3864 28.1207 22.0618 28.4428C21.7372 28.7648 21.3477 28.9259 20.8824 28.9259C20.4172 28.9259 20.0169 28.7648 19.6923 28.4428C19.3569 28.1207 19.1946 27.7343 19.1946 27.2727V20.9067C19.1946 20.3914 19.1405 19.9083 19.0431 19.4574C18.9457 19.0066 18.7834 18.6201 18.5454 18.2873C18.3182 17.9653 18.0044 17.7076 17.6041 17.5144C17.2363 17.3319 16.7494 17.246 16.1543 17.246Z" />
        <path d="M16 5.50385C22.2342 5.50385 27 10.2111 27 16H30C30 8.82897 23.7119 3 16 3C8.28814 3 2 8.82897 2 16H5C4.98921 10.2111 9.76579 5.50385 16 5.50385Z"/>
        <path d="M3.5 18C4.32843 18 5 17.1046 5 16C5 14.8954 4.32843 14 3.5 14C2.67157 14 2 14.8954 2 16C2 17.1046 2.67157 18 3.5 18Z"/>
        <path d="M28.5 18C29.3284 18 30 17.1046 30 16C30 14.8954 29.3284 14 28.5 14C27.6716 14 27 14.8954 27 16C27 17.1046 27.6716 18 28.5 18Z"/>
    </symbol>

    <symbol viewBox="0 0 14 14" id="tip">
        <path d="M13 7C13 10.3137 10.3137 13 7 13C3.68629 13 1 10.3137 1 7C1 3.68629 3.68629 1 7 1C10.3137 1 13 3.68629 13 7ZM14 7C14 10.866 10.866 14 7 14C3.13401 14 0 10.866 0 7C0 3.13401 3.13401 0 7 0C10.866 0 14 3.13401 14 7ZM7.34234 8.57C7.34234 8.59 7.34234 8.64 7.35234 8.7H6.35234C6.35122 8.68537 6.35009 8.67099 6.34898 8.6568C6.34022 8.54486 6.33234 8.44424 6.33234 8.32C6.33234 7.72 6.56234 7.23 7.14234 6.81L7.60234 6.48C7.93234 6.24 8.07234 5.95 8.07234 5.61C8.07234 5.09 7.72234 4.6 6.99234 4.6C6.25234 4.6 5.86234 5.17 5.86234 5.74C5.86234 5.89 5.88234 6.08 5.92234 6.19L4.79234 6.11C4.75234 5.97 4.73234 5.81 4.73234 5.65C4.73234 4.65 5.48234 3.56 6.99234 3.56C8.47234 3.56 9.27234 4.54 9.27234 5.56C9.27234 6.35 8.85234 6.91 8.27234 7.32L7.84234 7.62C7.51234 7.85 7.34234 8.18 7.34234 8.57ZM6.86234 10.87C6.45234 10.87 6.13234 10.54 6.13234 10.14C6.13234 9.74 6.45234 9.4 6.86234 9.4C7.26234 9.4 7.59234 9.74 7.59234 10.14C7.59234 10.54 7.26234 10.87 6.86234 10.87Z"/>
    </symbol>

    <symbol viewBox="0 0 8 5" id="arrow-down">
        <path d="M4 3L7 0L8 1L4 5L0 1L1 0L4 3Z"></path>
    </symbol>

    <symbol viewBox="0 0 16 16" id="download">
        <path d="M14 14V12H16V15C16 15.5523 15.5523 16 15 16H1C0.447715 16 0 15.5523 0 15V12H2V14H14ZM9 0V8.3L11.6 5.6L13 7L8 12L3 7L4.4 5.6L7 8.3V0H9Z"></path>
    </symbol>

    <symbol viewBox="0 0 6 10" id="arrow_left">
        <path d="M2 5L6 1L5 0L0 5L5 10L6 9L2 5Z"></path>
    </symbol>

    <symbol viewBox="0 0 6 10" id="arrow_right">
        <path d="M4 5L0 1L1 0L6 5L1 10L0 9L4 5Z"></path>
    </symbol>

    <symbol viewBox="0 0 24 24" id="category">
        <path d="M4 11h6a1 1 0 0 0 1-1V4a1 1 0 0 0-1-1H4a1 1 0 0 0-1 1v6a1 1 0 0 0 1 1zm10 0h6a1 1 0 0 0 1-1V4a1 1 0 0 0-1-1h-6a1 1 0 0 0-1 1v6a1 1 0 0 0 1 1zM4 21h6a1 1 0 0 0 1-1v-6a1 1 0 0 0-1-1H4a1 1 0 0 0-1 1v6a1 1 0 0 0 1 1zm13 0c2.206 0 4-1.794 4-4s-1.794-4-4-4-4 1.794-4 4 1.794 4 4 4z"/>
    </symbol>

    <symbol viewBox="0 0 14 14" id="dot">
        <circle cx="6.711" cy="6.711" r="6.711"/>
    </symbol>
        <!-- <path d="M0 8c0-2.2 1.8-4 4-4s4 1.8 4 4-1.8 4-4 4-4-1.8-4-4z"/> -->

</svg>