<svg xmlns="http://www.w3.org/2000/svg">
    <symbol viewBox="0 0 16 16" id="search">
        <path d="M10 6.5C10 8.433 8.433 10 6.5 10C4.567 10 3 8.433 3 6.5C3 4.567 4.567 3 6.5 3C8.433 3 10 4.567 10 6.5ZM9.61752 11.0317C8.73148 11.6424 7.6575 12 6.5 12C3.46243 12 1 9.53757 1 6.5C1 3.46243 3.46243 1 6.5 1C9.53757 1 12 3.46243 12 6.5C12 7.6575 11.6424 8.73148 11.0317 9.61752L14.7071 13.2929L13.2929 14.7071L9.61752 11.0317Z" />
    </symbol>

    <symbol viewBox="0 0 14 14" fill="none" id="arrow-left">
        <path d="M8 11L4 7L8 3" stroke="currentColor" stroke-width="2" stroke-linecap="round" stroke-linejoin="round"/>
    </symbol>

    <symbol viewBox="0 0 14 14" fill="none" id="arrow-right">
        <path d="M5 3L9 7L5 11" stroke="currentColor" stroke-width="2" stroke-linecap="round" stroke-linejoin="round"/>
    </symbol>

    <symbol viewBox="0 0 14 14" fill="none" id="bell">
        <path d="M5.77148 12.0681C5.89037 12.2906 6.06744 12.4767 6.28381 12.6064C6.50018 12.7361 6.74771 12.8046 6.99998 12.8046C7.25225 12.8046 7.49979 12.7361 7.71616 12.6064C7.93252 12.4767 8.1096 12.2906 8.22848 12.0681" stroke="currentColor" stroke-linecap="round" stroke-linejoin="round"/>
        <path d="M4.4571 2.24944C4.95993 1.74658 5.60059 1.40413 6.29806 1.26538C6.99552 1.12664 7.71847 1.19784 8.37546 1.46998C9.03246 1.74213 9.594 2.20299 9.98907 2.79428C10.3841 3.38557 10.595 4.08074 10.595 4.79187C10.595 5.35273 10.6878 5.87923 10.8271 6.41873C10.8652 6.5413 10.9088 6.65644 10.9543 6.76509C11.1697 7.27116 11.7631 7.4448 12.206 7.77166C12.8662 8.26102 12.739 9.30752 12.1893 9.71423C12.1893 9.71423 11.3016 10.4822 6.99953 10.4822C2.69653 10.4822 1.80975 9.71423 1.80975 9.71423C1.26003 9.30752 1.13189 8.26102 1.79303 7.77166C2.23596 7.4448 2.82932 7.27116 3.04475 6.76509C3.25925 6.25994 3.4041 5.61366 3.4041 4.79187C3.4041 3.83823 3.78296 2.92359 4.4571 2.24944Z" stroke="currentColor" stroke-linecap="round" stroke-linejoin="round"/>
    </symbol>

    <symbol viewBox="0 0 18 18" id="close">
        <path d="M2 15L3 16L9 10L15 16L16 15L10 9L16 3L15 2L9 8L3 2L2 3L8 9L2 15Z" fill="currentColor" />
    </symbol>

    <symbol viewBox="0 0 60 60" id="editor_settings">
        <path d="M10.845 24.23c.402-1.337.94-2.616 1.6-3.82l-5.748-8.622 5.092-5.09 8.62 5.747a19.875 19.875 0 0 1 3.82-1.6L26.4 0h7.2l2.17 10.845c1.33.4 2.604.936 3.804 1.59l8.608-5.738 5.09 5.09-5.73 8.6a19.892 19.892 0 0 1 1.613 3.844L60 26.4v7.2l-10.845 2.17a19.87 19.87 0 0 1-1.604 3.828l5.723 8.584-5.09 5.092-8.585-5.723a19.88 19.88 0 0 1-3.83 1.605L33.6 60h-7.2l-2.17-10.845a19.888 19.888 0 0 1-3.844-1.613l-8.597 5.73-5.093-5.09 5.74-8.608a19.885 19.885 0 0 1-1.592-3.805L0 33.6v-7.2l10.845-2.17zM30 40c5.523 0 10-4.477 10-10s-4.477-10-10-10-10 4.477-10 10 4.477 10 10 10z"/>
    </symbol>

    <symbol viewBox="0 0 60 60" id="editor_remove">
        <path d="M25 4L22 8H12C9.79086 8 8 9.79086 8 12V15H52V12C52 9.79086 50.2091 8 48 8H38L35 4H25ZM11 18H49V53C49 55.2091 47.2091 57 45 57H15C12.7909 57 11 55.2091 11 53V18ZM38 24H42V51H38V24ZM32 24H28V51H32V24ZM18 24H22V51H18V24Z"/>
    </symbol>

    <symbol viewBox="0 0 60 60" id="editor_move">
        <path d="M27 15H19L30 4L41 15H33V27H45V19L56 30L45 41V33H33V45H41L30 56L19 45H27V33H15V41L4 30L15 19V27H27V15Z"/>
    </symbol>

    <symbol viewBox="0 0 60 60" id="editor_duplicate">
        <path d="M24 4C21.7909 4 20 5.79086 20 8V20H8C5.79086 20 4 21.7909 4 24V52C4 54.2091 5.79086 56 8 56H36C38.2091 56 40 54.2091 40 52V40H52C54.2091 40 56 38.2091 56 36V8C56 5.79086 54.2091 4 52 4H24ZM40 34H50V10H26V20H36C38.2091 20 40 21.7909 40 24V34ZM20 26H10V50H34V40V34V26H26H20Z"/>
    </symbol>

    <symbol viewBox="0 0 25 25" id="editor_drag">
        <path d="M12.5 17V8M12.5 8L9.5 11M12.5 8L15.5 11" stroke="currentColor" stroke-width="2"/>
        <path d="M15.5 11L12.5 8L9.5 11" stroke="currentColor" stroke-width="2" stroke-linecap="round"/>
        <circle cx="12.5" cy="12.5" r="11.5" stroke="currentColor" stroke-width="2"/>
    </symbol>

    <symbol viewBox="0 0 100 100" id="editor_drop_loader">
        <circle cx="50" cy="50" r="30" stroke="#000000" stroke-width="6" fill="none"></circle>
        <circle cx="50" cy="50" r="30" stroke="#ffffff" stroke-width="6" stroke-linecap="round" fill="none">
            <animateTransform attributeName="transform" type="rotate" repeatCount="indefinite" dur="1.5s" values="0 50 50;180 50 50;720 50 50" keyTimes="0;0.5;1"></animateTransform>
            <animate attributeName="stroke-dasharray" repeatCount="indefinite" dur="1.5s" values="19 170;95 95;19 170" keyTimes="0;0.5;1"></animate>
        </circle>
    </symbol>

    <!-- BUTTONS -->
    <symbol viewBox="0 0 14 14" fill="none" id="move-down">
        <path d="M2 5L7 10L12 5" stroke="currentColor" stroke-linecap="round" stroke-linejoin="round"/>
    </symbol>

    <symbol viewBox="0 0 14 14" fill="none" id="move-up">
        <path d="M12 9L7 4L2 9" stroke="currentColor" stroke-linecap="round" stroke-linejoin="round"/>
    </symbol>

    <symbol viewBox="0 0 14 14" id="plus-light">
        <path d="M7.5 1.5H6.5V6.5H1.5V7.5H6.5V12.5H7.5V7.5H12.5V6.5H7.5V1.5Z" />
    </symbol>

    <symbol viewBox="0 0 14 14" id="replace-light">
        <path d="M7 1C3.68629 1 1 3.68629 1 7H0C0 3.13401 3.13401 0 7 0C9.54704 0 11.7755 1.36025 13 3.39263V0H14V4.5V5H13.5L9 5V4L12.1974 4C11.1596 2.20599 9.2202 1 7 1ZM7 13C10.3137 13 13 10.3137 13 7H14C14 10.866 10.866 14 7 14C4.45296 14 2.22452 12.6397 1 10.6074V14H0V9.5V9H0.5H5V10H1.80256C2.84035 11.794 4.7798 13 7 13Z"/>
    </symbol>

    <symbol viewBox="0 0 14 14" id="minus-light">
        <path d="M12.5 6.5V7.5L1.5 7.5L1.5 6.5L12.5 6.5Z"/>
    </symbol>

    <symbol viewBox="0 0 16 16" id="button-more">
        <path d="M4 8C4 9.10457 3.10457 10 2 10C0.895431 10 0 9.10457 0 8C0 6.89543 0.895431 6 2 6C3.10457 6 4 6.89543 4 8ZM10 8C10 9.10457 9.10457 10 8 10C6.89543 10 6 9.10457 6 8C6 6.89543 6.89543 6 8 6C9.10457 6 10 6.89543 10 8ZM14 10C15.1046 10 16 9.10457 16 8C16 6.89543 15.1046 6 14 6C12.8954 6 12 6.89543 12 8C12 9.10457 12.8954 10 14 10Z"/>
    </symbol>

    <symbol viewBox="0 0 10 14" id="button-color">
        <path transform="rotate(-90 7 7)" d="M5 10c-2.895 0-5-1.962-5-5 0-3.038 2.105-5 5-5 3.793 0 5.207 3.217 9 5-3.793 1.783-5.207 5-9 5z" />
    </symbol>

    <symbol viewBox="0 0 16 16" id="button-add">
        <path d="M9 2H7V7H2V9H7V14H9V9H14V7H9V2Z"/>
    </symbol>

    <symbol viewBox="0 0 14 11" id="button-apply">
        <path transform="translate(1 1)" d="M4 8l-.707.707.707.707.707-.707L4 8zM-.707 4.707l4 4 1.414-1.414-4-4-1.414 1.414zm5.414 4l8-8-1.414-1.414-8 8 1.414 1.414z"/>
    </symbol>

    <symbol viewBox="0 0 16 16" id="button-remove">
        <path d="M7 2L6 3H4C3.44772 3 3 3.44772 3 4V5H13V4C13 3.44772 12.5523 3 12 3H10L9 2H7ZM4 6V13C4 13.5523 4.44772 14 5 14H11C11.5523 14 12 13.5523 12 13V6H4Z"/>
    </symbol>

    <symbol viewBox="0 0 14 14" id="button-remove-light">
        <path d="M6 1H8C8.55228 1 9 1.44772 9 2V3H5V2C5 1.44772 5.44772 1 6 1ZM4 3V2C4 0.895431 4.89543 0 6 0H8C9.10457 0 10 0.895431 10 2V3H11H12H13.5C13.7761 3 14 3.22386 14 3.5C14 3.77614 13.7761 4 13.5 4H12V12C12 13.1046 11.1046 14 10 14H4C2.89543 14 2 13.1046 2 12V4H0.5C0.223857 4 0 3.77614 0 3.5C0 3.22386 0.223858 3 0.5 3H2H3H4ZM10 4H9H5H4H3V12C3 12.5523 3.44772 13 4 13H10C10.5523 13 11 12.5523 11 12V4H10ZM5 6H6V11H5V6ZM9 6H8V11H9V6Z" />
    </symbol>

    <symbol viewBox="0 0 14 14" id="button-upload">
        <path d="M2 5L6 1L7 0L8 1L12 5H8V10H6V5H2ZM14 14V12H0V14H14Z" />
    </symbol>

    <symbol viewBox="0 0 16 16" id="button-text">
        <path d="M13 0H7V2H9V14H7V16H13V14H11V2H13V0ZM14 10V6H12V4H14C15.1046 4 16 4.89543 16 6V10C16 11.1046 15.1046 12 14 12H12V10H14ZM8 4V6H2V10H8V12H2C0.895431 12 0 11.1046 0 10V6C0 4.89543 0.895431 4 2 4H8Z"/>
    </symbol>

    <symbol viewBox="0 0 14 14" id="button-edit">
        <path d="M9.49997 1.80386C8.78253 1.38965 7.86514 1.63546 7.45093 2.3529L3.70093 8.84809L6.299 10.3481L10.049 3.8529C10.4632 3.13546 10.2174 2.21808 9.49997 1.80386ZM3.49997 12.1962L5.799 11.2141L3.20093 9.71412L3.49997 12.1962Z" />
    </symbol>

    <symbol viewBox="0 0 16 16" id="button-edit-content">
        <path d="M12 1.99997L12.2929 1.70708C12.6834 1.31655 13.3166 1.31655 13.7071 1.70708L14.2929 2.29286C14.6834 2.68339 14.6834 3.31655 14.2929 3.70708L14 3.99997L12 1.99997ZM1.52632 12.5L1 15L3.63158 14.5L1.52632 12.5ZM11 2.99997L2.5 11.5L4.5 13.5L13 4.99997L11 2.99997ZM15 15V14H7L6 15H15ZM15 12V13H8L9 12H15ZM15 11V9.99997H11L10 11H15Z"/>
    </symbol>

    <symbol viewBox="0 0 14 14" fill="none" id="button-edit-light">
        <rect x="8" y="13" width="6" height="1"/>
        <path d="M7 3L8.79289 1.20711C9.18342 0.816583 9.81658 0.816582 10.2071 1.20711L12.7929 3.79289C13.1834 4.18342 13.1834 4.81658 12.7929 5.20711L11 7M7 3L11 7M7 3L1.5 8.5M11 7L4.5 13.5H0.5V9.5L1.5 8.5M1.5 8.5L4 11" stroke="currentColor"/>
    </symbol>

    <symbol viewBox="0 0 16 16" id="button-settings">
        <path d="M15 8.76V7.16L13.06 6.52L12.61 5.43L13.49 3.59L12.36 2.46L10.55 3.37L9.46 2.92L8.77 1H7.17L6.54 2.94L5.43 3.39L3.59 2.51L2.46 3.64L3.37 5.45L2.92 6.54L1 7.22V8.81L2.94 9.45L3.39 10.54L2.51 12.38L3.64 13.51L5.45 12.6L6.54 13.05L7.23 15H8.82L9.45 13.03L10.56 12.58L12.4 13.46L13.53 12.33L12.61 10.52L13.08 9.43L15 8.74V8.76ZM8 10.99C6.34 10.99 5 9.65 5 7.99C5 6.33 6.34 4.99 8 4.99C9.66 4.99 11 6.33 11 7.99C11 9.65 9.66 10.99 8 10.99Z"/>
    </symbol>

    <symbol viewBox="0 0 14 14" fill="none" id="button-settings-light">
        <path d="M11.4396 5.14326L11.4461 5.16298L11.4543 5.18208C11.5282 5.35459 11.6861 5.58967 11.9781 5.681L13.5 6.22206V7.76447L12.0242 8.29409L12.0099 8.29922L11.9959 8.30521C11.7789 8.39834 11.6135 8.56184 11.5181 8.77705C11.4919 8.83267 11.4709 8.89482 11.4594 8.92939C11.3712 9.15133 11.3744 9.38766 11.469 9.60855L11.4724 9.61658L11.4761 9.62448L12.1448 11.0468L11.0646 12.1281L9.66076 11.4603L9.65201 11.4561L9.6431 11.4523C9.41439 11.3541 9.16903 11.3541 8.94032 11.4523L8.89812 11.4704L8.87208 11.4878L8.87122 11.4881L8.84699 11.4963L8.82724 11.5029L8.80811 11.5111C8.63562 11.5851 8.40125 11.743 8.30995 12.0344L7.78509 13.5H6.25871L5.7294 12.0359L5.7245 12.0223L5.71883 12.0091C5.62427 11.7882 5.45687 11.6206 5.23596 11.5258L5.21683 11.5176L5.20938 11.5151L5.19651 11.5088L5.19487 11.5079C5.18483 11.5029 5.16713 11.494 5.14817 11.4853C5.13203 11.4779 5.11098 11.4688 5.08638 11.4597C4.86265 11.3689 4.6239 11.3713 4.40098 11.467L4.39294 11.4704L4.38503 11.4741L2.96507 12.1431L1.88435 11.0612L2.53945 9.65195L2.54268 9.645L2.54569 9.63796C2.63859 9.42096 2.64331 9.18905 2.55985 8.97053C2.54257 8.91395 2.52251 8.86952 2.51073 8.84396C2.50533 8.83226 2.50294 8.82721 2.5013 8.82374C2.50023 8.82147 2.49948 8.81988 2.49842 8.81755L2.49511 8.80761L2.48693 8.78851C2.41315 8.61617 2.25546 8.38139 1.96404 8.28987L0.5 7.76447V6.23742L1.93718 5.75325L1.95621 5.74683L1.97468 5.73891C2.1956 5.64413 2.36299 5.47648 2.45755 5.25561L2.4733 5.21881L2.47996 5.19217C2.48036 5.19127 2.48082 5.19026 2.48135 5.18913L2.48849 5.1738L2.49957 5.1497C2.50591 5.13555 2.51467 5.11535 2.52353 5.09122C2.61412 4.86758 2.61172 4.629 2.51631 4.40616L2.51287 4.39813L2.50916 4.39023L1.84055 2.96794L2.92128 1.88607L4.32822 2.54147L4.33517 2.54471L4.34221 2.54773C4.56515 2.64338 4.80389 2.64579 5.02762 2.55498C5.05223 2.54593 5.07327 2.53676 5.08941 2.52936C5.10834 2.52067 5.12602 2.51182 5.13606 2.50679L5.13775 2.50594L5.15062 2.4996L5.15807 2.49712L5.1772 2.48891C5.34969 2.41491 5.58406 2.25697 5.67536 1.96564L6.20022 0.5H7.7261L8.2403 1.94685L8.24559 1.96171L8.25179 1.9762C8.34066 2.18377 8.49385 2.34434 8.69534 2.44159C8.77549 2.48853 8.84972 2.51449 8.89016 2.52795C9.11217 2.61633 9.34867 2.61312 9.56964 2.51832L9.57768 2.51487L9.58559 2.51115L11.0055 1.84223L12.086 2.92382L11.4174 4.34611L11.4137 4.35401L11.4102 4.36204C11.3124 4.59065 11.3124 4.83582 11.4102 5.06443L11.416 5.07793L11.4191 5.08414L11.422 5.09166C11.4266 5.10437 11.4317 5.11976 11.4396 5.14326ZM5.21428 11.5175L5.21425 11.5175L5.21428 11.5175ZM5.15552 2.49719C5.15577 2.49707 5.15575 2.49709 5.15548 2.49721L5.15552 2.49719ZM10.9432 1.77984L10.9433 1.77995C10.9433 1.77992 10.9433 1.77988 10.9432 1.77984L11.0308 1.69233L10.9432 1.77984Z" stroke="currentColor"/>
        <circle cx="7" cy="7" r="1.5" stroke="currentColor"/>
    </symbol>

    <symbol viewBox="0 0 16 16" id="button-decorator">
        <path d="M12 2H4C2.89543 2 2 2.89543 2 4V12C2 13.1046 2.89543 14 4 14H8.5L9 16H4C1.79086 16 0 14.2091 0 12V4C0 1.79086 1.79086 0 4 0H12C14.2091 0 16 1.79086 16 4V9L14 8.5V4C14 2.89543 13.1046 2 12 2ZM12 8V6C12 4.89543 11.1046 4 10 4H6C4.89543 4 4 4.89543 4 6V10C4 11.1046 4.89543 12 6 12H8L7.5 10H6V6H10V7.5L12 8ZM12.0641 13.4783L11.1213 15.364L9 9L15.364 11.1213L13.4783 12.0641L15.7071 14.2929L14.2929 15.7071L12.0641 13.4783Z"/>
    </symbol>

    <symbol viewBox="0 0 16 16" id="button-style">
        <path d="M8.728 13V3.322c-.473.31-1.064.742-1.648 1.277C5.742 5.825 4.728 7.33 4.728 9c0 1.457.527 2.403 1.204 3.005.714.635 1.723.995 2.796.995zm0 2c-3 0-6-2-6-6 0-5 6-8 6-8s6 3 6 8c0 4-3 6-6 6z"></path>
    </symbol>

    <symbol viewBox="0 0 16 16" id="button-layout">
        <path d="m7 0h3v2h-3zm1 5v2h6v-2zm-.5-2c-.82843 0-1.5.67157-1.5 1.5v3c0 .82843.67157 1.5 1.5 1.5h7c.8284 0 1.5-.67157 1.5-1.5v-3c0-.82843-.6716-1.5-1.5-1.5zm-5.5 9v2h6v-2zm-.5-2c-.828427 0-1.5.6716-1.5 1.5v3c0 .8284.671573 1.5 1.5 1.5h7c.82843 0 1.5-.6716 1.5-1.5v-3c0-.8284-.67157-1.5-1.5-1.5zm2.5-3h-3v2h3zm11-7h-3v2h3z" />
    </symbol>

    <symbol viewBox="0 0 14 14" id="button-toggle">
        <path d="M8 3l3-3v2.5h3v1h-3V6L8 3zm6 8a3 3 0 1 1-6 0 3 3 0 0 1 6 0zm-11 .5H0v-1h3V8l3 3-3 3v-2.5zM6 0H0v6h6V0z"/>
    </symbol>

    <symbol viewBox="0 0 16 16" id="button-move">
        <path d="M8 1L11 4H9V7H12V5L15 8L12 11V9H9V12H11L8 15L5 12H7V9H4V11L1 8L4 5V7H7V4H5L8 1Z"/>
    </symbol>

    <symbol viewBox="0 0 16 16" id="button-justify-start">
        <path d="M2 4V2h6v2H2zm0 5V7h12v2H2zm0 3v2h6v-2H2z" />
    </symbol>

    <symbol viewBox="0 0 16 16" id="button-justify-center">
        <path d="M5 2v2h6V2H5zM2 9V7h12v2H2zm3 5v-2h6v2H5z" />
    </symbol>

    <symbol viewBox="0 0 16 16" id="button-justify-end">
        <path d="M8 2v2h6V2H8zM2 9V7h12v2H2zm6 5v-2h6v2H8z" />
    </symbol>

    <symbol viewBox="0 0 16 16" id="button-unlock">
        <path d="M9.73244 4C9.38663 3.4022 8.74028 3 8 3C6.89543 3 6 3.89543 6 5V6H8H12C13.1046 6 14 6.89543 14 8V13C14 14.1046 13.1046 15 12 15H4C2.89543 15 2 14.1046 2 13V8C2 6.89543 2.89543 6 4 6V5C4 2.79086 5.79086 1 8 1C9.86384 1 11.4299 2.27477 11.874 4H9.73244ZM4 13L4 8H6H8H12V13H4ZM8 9C7.44772 9 7 9.44771 7 10V11C7 11.5523 7.44772 12 8 12C8.55228 12 9 11.5523 9 11V10C9 9.44772 8.55228 9 8 9Z"/>
    </symbol>

    <symbol viewBox="0 0 16 16" id="button-lock">
        <path d="M10 6V5C10 3.89543 9.10457 3 8 3C6.89543 3 6 3.89543 6 5V6H10ZM4 5V6C2.89543 6 2 6.89543 2 8V13C2 14.1046 2.89543 15 4 15H12C13.1046 15 14 14.1046 14 13V8C14 6.89543 13.1046 6 12 6V5C12 2.79086 10.2091 1 8 1C5.79086 1 4 2.79086 4 5ZM10 8H12V13H4L4 8H6H10ZM8 9C7.44772 9 7 9.44771 7 10V11C7 11.5523 7.44772 12 8 12C8.55228 12 9 11.5523 9 11V10C9 9.44772 8.55228 9 8 9Z"/>
    </symbol>

    <symbol viewBox="0 0 16 16" id="button-pointerevents">
        <path d="M12 2H4C2.89543 2 2 2.89543 2 4V12C2 13.1046 2.89543 14 4 14H8.5L9 16H4C1.79086 16 0 14.2091 0 12V4C0 1.79086 1.79086 0 4 0H12C14.2091 0 16 1.79086 16 4V9L14 8.5V4C14 2.89543 13.1046 2 12 2ZM12 8V6C12 4.89543 11.1046 4 10 4H6C4.89543 4 4 4.89543 4 6V10C4 11.1046 4.89543 12 6 12H8L7.5 10H6V6H10V7.5L12 8ZM12.0641 13.4783L11.1213 15.364L9 9L15.364 11.1213L13.4783 12.0641L15.7071 14.2929L14.2929 15.7071L12.0641 13.4783Z" />
    </symbol>

    <symbol viewBox="0 0 16 16" id="button-overflow">
        <path d="M2 5V4H3L3 2H2C0.895431 2 0 2.89543 0 4L0 5H2ZM2 7H0L0 9H2L2 7ZM2 11H0L0 12C0 13.1046 0.895431 14 2 14H3V12H2L2 11ZM5 12V14H7V12H5ZM9 12V14H11V12L9 12ZM13 12V14H14C15.1046 14 16 13.1046 16 12V11H14V12L13 12ZM14 9H16V7H14V9ZM14 5H16V4C16 2.89543 15.1046 2 14 2H13V4H14V5ZM11 4V2H9V4H11ZM7 4L7 2H5L5 4H7Z" />
    </symbol>

    <symbol viewBox="0 0 16 16" id="button-autowidth">
        <path d="M7 3H3V5H7V13H9V5H13V3H9H7ZM3 7L1 9L0 10L1 11L3 13V11H5V9H3V7ZM15 11L13 13V11H11V9H13V7L15 9L16 10L15 11Z" />
    </symbol>

    <symbol viewBox="0 0 20 16" id="size-limit">
        <path d="M8 6L7 5L9 3L7 1L8 0L10 2L12 0L13 1L11 3L13 5L12 6L10 4L8 6ZM0 12L5 8V11H15V8L20 12L15 16V13H5V16L0 12Z" />
    </symbol>

    <symbol viewBox="0 0 16 16" id="button-duplicate">
        <path d="M7 5V3H13V9H11V6.5C11 5.67157 10.3284 5 9.5 5H7ZM5 5H2.5C1.67157 5 1 5.67157 1 6.5V13.5C1 14.3284 1.67157 15 2.5 15H9.5C10.3284 15 11 14.3284 11 13.5V11H13.5C14.3284 11 15 10.3284 15 9.5V2.5C15 1.67157 14.3284 1 13.5 1H6.5C5.67157 1 5 1.67157 5 2.5V5ZM3 13V7H9V13H3Z"/>
    </symbol>

    <symbol viewBox="0 0 14 14" id="button-duplicate-light">
        <path d="M2 1H9C9.55228 1 10 1.44772 10 2V9C10 9.55228 9.55228 10 9 10H2C1.44772 10 1 9.55228 1 9V2C1 1.44772 1.44772 1 2 1ZM0 2C0 0.895431 0.895431 0 2 0H9C10.1046 0 11 0.895431 11 2V9C11 10.1046 10.1046 11 9 11H2C0.895431 11 0 10.1046 0 9V2ZM14 11.5V4H13V11.5C13 12.3284 12.3284 13 11.5 13H4V14H11.5C12.8807 14 14 12.8807 14 11.5Z"/>
    </symbol>

    <symbol viewBox="0 0 16 16" id="button-copy">
        <path d="M4 2C4 0.895431 4.89543 0 6 0H8V2H6V4H8C9.10457 4 10 4.89543 10 6V8H12V6H14V8C14 9.10457 13.1046 10 12 10H10V12C10 13.1046 9.10457 14 8 14H2C0.89543 14 0 13.1046 0 12V6C0 4.89543 0.895431 4 2 4H4V2ZM8 6H2L2 12H8V6ZM10 2H12V4H14V2C14 0.895431 13.1046 0 12 0H10V2Z"/>
    </symbol>

    <symbol viewBox="0 0 16 16" id="button-paste">
        <path d="M7 1C5.89543 1 5 1.89543 5 3V5L3 5C1.89543 5 1 5.89543 1 7V9L3 9L3 7H5L5 5H7L7 7L9 7L9 9H11L11 7C11 5.89543 10.1046 5 9 5L7 5V3H13V9H11V11H9V13H7.14286V15H9C10.1046 15 11 14.1046 11 13L11 11H13C14.1046 11 15 10.1046 15 9V3C15 1.89543 14.1046 1 13 1H7ZM3 15L5 15V13L3 13L3 11H1V13C1 14.1046 1.89543 15 3 15Z"/>
    </symbol>

    <symbol viewBox="0 0 16 16" id="button-clipboard">
        <path d="M8 3C8 3.55228 7.55228 4 7 4C6.44772 4 6 3.55228 6 3C6 2.44772 6.44772 2 7 2C7.55228 2 8 2.44772 8 3ZM10 4.5V4H11V5H13V4C13 2.89543 12.1046 2 11 2H9.82929C9.41746 0.834808 8.30622 0 7 0C5.69378 0 4.58254 0.834808 4.17071 2H3C1.89543 2 1 2.89543 1 4V12C1 13.1046 1.89543 14 3 14H6V12H3L3 4H4V4.5C4 5.32843 4.67157 6 5.5 6H7H8.5C9.32843 6 10 5.32843 10 4.5ZM10 9H13V14H10V9ZM8 9C8 7.89543 8.89543 7 10 7H13C14.1046 7 15 7.89543 15 9V14C15 15.1046 14.1046 16 13 16H10C8.89543 16 8 15.1046 8 14V9Z"/>
    </symbol>

    <symbol viewBox="0 0 16 16" id="button-gutter">
        <path d="M5 4L0 8L5 12V9H11V12L16 8L11 4V7H5V4Z"/>
    </symbol>

    <symbol viewBox="0 0 16 16" id="button-width">
        <path d="M5 4L0 8L5 12V9H11V12L16 8L11 4V7H5V4Z"/>
    </symbol>

    <symbol viewBox="0 0 16 16" id="button-fillspace_stretch">
        <path d="M8 2L10.2929 4.29285L4.29288 10.2928L2 8V14H8L5.70712 11.7072L11.7071 5.70715L14 8V2H8Z"/>
    </symbol>

    <symbol viewBox="0 0 16 16" id="button-fillspace_top">
        <path d="M14 3H2V1h12v2zM9 15V9h3L8 5 4 9h3v6h2z" />
    </symbol>

    <symbol viewBox="0 0 16 16" id="button-fillspace_bottom">
        <path d="M9 1v6h3l-4 4-4-4h3V1h2zm5 14v-2H2v2h12z" />
    </symbol>

    <symbol viewBox="0 0 16 16" id="button-fillspace_inline">
        <path d="M5 4L0 8L5 12V9H11V12L16 8L11 4V7H5V4Z" />
    </symbol>

    <symbol viewBox="0 0 16 16" id="button-change_type">
        <path d="M12 11C12 10.4477 12.4477 10 13 10C13.5523 10 14 10.4477 14 11C14 11.5523 13.5523 12 13 12C12.4477 12 12 11.5523 12 11ZM10 11C10 9.69378 10.8348 8.58254 12 8.17071L12 4L10 4L10 6L7 3L10 5.24537e-07L10 2L12 2C13.1046 2 14 2.89543 14 4L14 8.17071C15.1652 8.58254 16 9.69378 16 11C16 12.6569 14.6569 14 13 14C11.3431 14 10 12.6569 10 11ZM6 12L6 14L9 11L6 8L6 10L4 10L4 6L5 6C5.55228 6 6 5.55229 6 5L6 1C6 0.447717 5.55228 9.13368e-07 5 9.61651e-07L0.999999 1.31134e-06C0.447715 1.35962e-06 -1.18478e-06 0.447717 -1.1365e-06 1L-7.86805e-07 5C-7.38523e-07 5.55229 0.447715 6 0.999999 6L2 6L2 10C2 11.1046 2.89543 12 4 12L6 12ZM2 2L4 2L4 4L2 4L2 2Z"/>
    </symbol>

    <symbol viewBox="0 0 16 16" id="button-position_type">
        <path d="M0 2C0 0.895431 0.89543 0 2 0H4V2H2V4H0V2ZM0 14C0 15.1046 0.89543 16 2 16H4V14H2V12H0V14ZM14 0C15.1046 0 16 0.895431 16 2V4H14V2H12V0H14ZM16 14C16 15.1046 15.1046 16 14 16H12V14H14V12H16V14ZM6 4H8H9C10.6569 4 12 5.34315 12 7C12 8.65685 10.6569 10 9 10H8V12H6V10V8V6V4ZM9 8H8V6H9C9.55229 6 10 6.44772 10 7C10 7.55228 9.55229 8 9 8Z" />
    </symbol>

    <symbol viewBox="0 0 16 16" id="button-reload">
        <path d="M0 8C0 3.58933 3.58844 0 8 0C10.4324 0 12.6087 1.09482 14.0747 2.81424L16 1V6H11L12.5 4C11.3596 2.6 9.94231 2 8 2C4.56978 2 2 4.56889 2 8H0ZM16 8C16 12.4107 12.4116 16 8 16C5.56759 16 3.39125 14.9052 1.92535 13.1858L0 15V10H5L3.5 12C4.64044 13.4 6.05769 14 8 14C11.4302 14 14 11.4311 14 8H16Z" />
    </symbol>

    <symbol viewBox="0 0 16 16" id="button-target">
        <path d="M14.0041 8C14.0041 11.3137 11.3178 14 8.00409 14C4.69038 14 2.00409 11.3137 2.00409 8C2.00409 4.68629 4.69038 2 8.00409 2C11.3178 2 14.0041 4.68629 14.0041 8ZM16.0041 8C16.0041 12.4183 12.4224 16 8.00409 16C3.58581 16 0.00408936 12.4183 0.00408936 8C0.00408936 3.58172 3.58581 0 8.00409 0C12.4224 0 16.0041 3.58172 16.0041 8ZM10.0041 8C10.0041 9.10457 9.10866 10 8.00409 10C6.89952 10 6.00409 9.10457 6.00409 8C6.00409 6.89543 6.89952 6 8.00409 6C9.10866 6 10.0041 6.89543 10.0041 8ZM12.0041 8C12.0041 10.2091 10.2132 12 8.00409 12C5.79495 12 4.00409 10.2091 4.00409 8C4.00409 5.79086 5.79495 4 8.00409 4C10.2132 4 12.0041 5.79086 12.0041 8Z"/>
    </symbol>

    <!-- ELEMENTS -->
    <symbol viewBox="0 0 18 24" id="element-add-in-row">
        <path d="M1.0717e-07 8.98711C4.79788e-08 4.02342 4.02911 1.66601e-07 8.99981 1.07326e-07C13.9705 4.80511e-08 18 4.02342 18 8.98711C18 15.4891 11.918 17.4976 8.99981 24C6.08199 17.4976 1.84705e-07 15.489 1.0717e-07 8.98711Z"/>
        <path d="M10 5H8V8H5V10H8V13H10V10H13V8H10V5Z" fill="white"/>
    </symbol>

    <symbol viewBox="0 0 12 8" id="small-resize">
        <path d="M4 0L0 4L4 8V5H8V8L12 4L8 0V3H4V0Z" />
    </symbol>

    <symbol viewBox="0 0 17 14" id="hidden-none">
        <path d="M3 3H9H11H13C13 1.89543 12.1046 1 11 1H3C1.89543 1 1 1.89543 1 3V8C1 9.10457 1.89543 10 3 10H9V8H3L3 3ZM15 6H12V12H15V6ZM12 4C10.8954 4 10 4.89543 10 6V12C10 13.1046 10.8954 14 12 14H15C16.1046 14 17 13.1046 17 12V6C17 4.89543 16.1046 4 15 4H12ZM9 11H0V13H9V11Z"/>
    </symbol>

    <symbol viewBox="0 0 14 14" id="hidden-all">
        <path d="M7.35349 7.35355L13.8535 0.853553L13.1464 0.146446L6.64639 6.64645L0.146386 13.1464L0.853492 13.8536L7.35349 7.35355ZM7 12C6.10939 12 5.25368 11.8381 4.45938 11.5406L6.12507 9.87487C6.40095 9.95637 6.69449 10 6.99994 10C8.67994 10 9.99994 8.68 9.99994 7C9.99994 6.69455 9.9563 6.40101 9.87481 6.12513L12.0068 3.99309C12.8813 4.80906 13.5708 5.83633 14 7C12.9182 9.93333 10.1818 12 7 12ZM6.99994 4C7.30539 4 7.59893 4.04363 7.87481 4.12513L9.54053 2.45941C8.74626 2.16191 7.89058 2 7 2C3.81818 2 1.08182 4.06667 0 7C0.429152 8.16364 1.11867 9.19089 1.99309 10.0069L4.12507 7.87487C4.04357 7.59899 3.99994 7.30545 3.99994 7C3.99994 5.32 5.31994 4 6.99994 4Z" />
    </symbol>

    <symbol viewBox="0 0 14 14" id="hidden-desktop">
        <path d="M4 2H10V12H4L4 2ZM2 2C2 0.89543 2.89543 0 4 0H10C11.1046 0 12 0.895431 12 2V12C12 13.1046 11.1046 14 10 14H4C2.89543 14 2 13.1046 2 12V2ZM7 11C7.55228 11 8 10.5523 8 10C8 9.44771 7.55228 9 7 9C6.44772 9 6 9.44771 6 10C6 10.5523 6.44772 11 7 11Z"/>
    </symbol>

    <symbol viewBox="0 0 14 14" id="hidden-mobile">
        <path d="M3 3H11V8H3L3 3ZM1 3C1 1.89543 1.89543 1 3 1H11C12.1046 1 13 1.89543 13 3V8C13 9.10457 12.1046 10 11 10H3C1.89543 10 1 9.10457 1 8V3ZM14 11H0V13H14V11Z" />
    </symbol>

    <symbol viewBox="0 0 17 14" id="large-hidden-none">
        <path d="M3 3H9H11H13C13 1.89543 12.1046 1 11 1H3C1.89543 1 1 1.89543 1 3V8C1 9.10457 1.89543 10 3 10H9V8H3L3 3ZM15 6H12V12H15V6ZM12 4C10.8954 4 10 4.89543 10 6V12C10 13.1046 10.8954 14 12 14H15C16.1046 14 17 13.1046 17 12V6C17 4.89543 16.1046 4 15 4H12ZM9 11H0V13H9V11Z"/>
    </symbol>

    <symbol viewBox="0 0 16 16" id="large-hidden-all">
        <path d="M3.315 12.344C1.78678 11.2743 0.628445 9.75636 0 7.99999C1.236 4.58599 4.364 2.17999 8 2.17999C9.57546 2.18062 11.1172 2.63621 12.44 3.49199L14.868 1.13699C15.0668 0.952807 15.3744 0.954557 15.571 1.14099C15.767 1.33099 15.767 1.63899 15.576 1.82399L13.248 4.07999C14.5004 5.11606 15.451 6.47007 16 7.99999C14.764 11.414 11.636 13.82 8 13.82C6.66969 13.8202 5.35957 13.4947 4.184 12.872L2.132 14.862C1.93351 15.0464 1.62591 15.0451 1.429 14.859C1.33551 14.7703 1.28215 14.6474 1.28121 14.5185C1.28027 14.3897 1.33182 14.266 1.424 14.176L3.314 12.343L3.315 12.344ZM5.83 11.276C6.4831 11.6752 7.23458 11.8843 8 11.88C10.24 11.88 12 10.173 12 7.99999C12 7.21999 11.773 6.49799 11.377 5.89499L5.83 11.275V11.276ZM5.058 10.652C4.3749 9.93855 3.99557 8.98771 4 7.99999C4 5.82699 5.76 4.11999 8 4.11999C9.00752 4.11109 9.98235 4.47714 10.735 5.14699L5.058 10.652Z" />
    </symbol>

    <symbol viewBox="0 0 16 16" id="large-hidden-desktop">
        <path d="M5 2H11V14H5L5 2ZM3 2C3 0.895431 3.89543 0 5 0H11C12.1046 0 13 0.895431 13 2V14C13 15.1046 12.1046 16 11 16H5C3.89543 16 3 15.1046 3 14V2ZM8 13C8.55228 13 9 12.5523 9 12C9 11.4477 8.55228 11 8 11C7.44772 11 7 11.4477 7 12C7 12.5523 7.44772 13 8 13Z" />
    </symbol>

    <symbol viewBox="0 0 16 16" id="large-hidden-mobile">
        <path d="M3 3H13V10H3V3ZM1 3C1 1.89543 1.89543 1 3 1H13C14.1046 1 15 1.89543 15 3V10C15 11.1046 14.1046 12 13 12H3C1.89543 12 1 11.1046 1 10V3ZM16 13H0V15H16V13Z" />
    </symbol>

    <symbol viewBox="0 0 16 12" id="hide">
        <path d="M8 0C4.364 0 1.236 2.48 0 6c1.236 3.52 4.364 6 8 6s6.764-2.48 8-6c-1.236-3.52-4.364-6-8-6zm0 10c-2.24 0-4-1.76-4-4s1.76-4 4-4 4 1.76 4 4-1.76 4-4 4zM7 6c-.56 0-1-.44-1-1s.44-1 1-1 1 .44 1 1-.44 1-1 1z" />
    </symbol>

    <symbol viewBox="0 0 16 14" id="hide-on">
        <path d="M3.315 11.344A9.006 9.006 0 0 1 0 7c1.236-3.414 4.364-5.82 8-5.82a8.18 8.18 0 0 1 4.44 1.312L14.868.137a.514.514 0 0 1 .703.004c.196.19.196.498.005.683L13.248 3.08A9.058 9.058 0 0 1 16 7c-1.236 3.414-4.364 5.82-8 5.82a8.15 8.15 0 0 1-3.816-.948l-2.052 1.99a.514.514 0 0 1-.703-.003.474.474 0 0 1-.005-.683l1.89-1.833zm2.515-1.068A4.116 4.116 0 0 0 8 10.88c2.24 0 4-1.707 4-3.88 0-.78-.227-1.502-.623-2.105l-5.547 5.38zm-.772-.624A3.81 3.81 0 0 1 4 7c0-2.173 1.76-3.88 4-3.88a4.06 4.06 0 0 1 2.735 1.027L5.058 9.652z"/>
    </symbol>

    <symbol viewBox="0 0 12 12" id="insert-point">
        <path d="M2 0H10C10.5523 0 11 0.447715 11 1V6.55813C11 7.46948 10.5857 8.33142 9.87408 8.90073L6.62469 11.5002C6.25948 11.7924 5.74052 11.7924 5.3753 11.5002L2.12591 8.90073C1.41427 8.33142 1 7.46948 1 6.55813V1C1 0.447715 1.44772 0 2 0Z"/>
    </symbol>

    <symbol viewBox="0 0 16 16" id="style-copy-button">
        <path d="M10.7266 1.84667e-05C10.5229 0.00140517 10.3178 0.0807074 10.1617 0.236811L9.97594 0.422531C9.97246 0.425906 9.96853 0.428384 9.9651 0.431817L6.24564 4.1524L5.68533 4.71266L5.12501 5.27291L4.11118 6.28663C3.43978 6.95795 3.43978 8.06991 4.11118 8.74123L4.56469 9.19469L4.33097 9.42839C4.00508 9.75424 3.61196 9.93538 3.03698 10.2208C2.46199 10.5062 1.74168 10.8969 1.00157 11.6369C0.4362 12.2022 0.0890478 12.8552 0.0140467 13.5266C-0.060954 14.198 0.166657 14.8833 0.642469 15.359C1.1184 15.8349 1.80373 16.061 2.47511 15.9858C3.14649 15.9107 3.79815 15.5648 4.36347 15H4.36502C5.10514 14.26 5.49585 13.5397 5.78129 12.9648C6.06674 12.3899 6.2479 11.9968 6.57379 11.671L6.80751 11.4373L7.26103 11.8907C7.93242 12.562 9.0445 12.562 9.7159 11.8907L11.8519 9.75649L11.8504 9.75495L13.245 8.35895L15.5683 6.03436C15.573 6.02959 15.576 6.02373 15.5807 6.01889L15.7633 5.83626C16.0763 5.52326 16.0794 5.0186 15.7695 4.70956L15.5683 4.50837L11.4913 0.431817C11.4889 0.429432 11.4859 0.427983 11.4835 0.425626L11.287 0.229073C11.1328 0.0753464 10.9304 -0.00136824 10.7266 1.84667e-05ZM9.58278 3.05511C10.575 3.44576 9.47959 4.51344 9.72209 4.85814C9.93131 5.15608 10.4958 5.09962 11.2637 4.73432C11.6251 4.56237 11.8713 4.54047 12.0036 4.59039C12.9435 4.94618 10.4169 6.42036 11.2498 6.98772C11.3829 7.07885 11.8577 7.07642 12.4029 6.95677L12.259 7.10225L10.7282 8.63444L7.36628 5.27291L9.3212 3.31666L9.3243 3.31976L9.55957 3.07832L9.58278 3.05511ZM6.24564 6.39342L9.6091 9.75649L8.59526 10.7702C8.52964 10.8358 8.44729 10.8358 8.38166 10.7702L6.80751 9.19624L5.45315 10.5489C4.89144 11.1105 4.62885 11.7215 4.36193 12.2591C4.095 12.7967 3.82615 13.2978 3.24439 13.8795C2.88091 14.2426 2.54083 14.3848 2.29866 14.4119C2.05649 14.439 1.90611 14.3815 1.7631 14.2385C1.61998 14.0954 1.56271 13.945 1.58975 13.703C1.61678 13.461 1.75877 13.1224 2.1222 12.759C2.70397 12.1773 3.20511 11.9069 3.74279 11.64C4.28047 11.3731 4.89144 11.1105 5.45315 10.5489L6.80596 9.19469L5.23181 7.62072C5.16619 7.5551 5.16619 7.47276 5.23181 7.40714L6.24564 6.39342Z"/>
    </symbol>

    <symbol viewBox="0 0 16 16" id="style-paste-button">
        <path d="M10.1617 0.236811C10.3178 0.0807074 10.5229 0.00140517 10.7266 1.84667e-05C10.9304 -0.00136824 11.1328 0.0753464 11.287 0.229073L11.4835 0.425626C11.4847 0.426786 11.486 0.427727 11.4873 0.428667C11.4887 0.429636 11.4901 0.430606 11.4913 0.431817L15.5683 4.50837L15.7695 4.70956C16.0794 5.0186 16.0763 5.52326 15.7633 5.83626L15.5807 6.01889C15.5784 6.02123 15.5766 6.02381 15.5747 6.02638L15.5747 6.02639C15.5727 6.02915 15.5707 6.0319 15.5683 6.03436L15.0074 6.59552C13.986 6.23835 12.418 5.86449 11.5 6.50003C11.3442 6.60788 11.2232 6.72909 11.1233 6.85831C10.9468 6.55916 11.3253 6.11264 11.6842 5.68918C12.0879 5.21288 12.4669 4.76577 12.0036 4.59039C11.8713 4.54047 11.6251 4.56237 11.2637 4.73432C10.4958 5.09962 9.93131 5.15608 9.72209 4.85814C9.63343 4.73211 9.72361 4.50945 9.82521 4.25856C10.0015 3.82323 10.2122 3.30294 9.58278 3.05511L9.55957 3.07832L9.3243 3.31976L9.3212 3.31666L7.36628 5.27291L10.3202 8.22652C10.2315 8.32496 10.1271 8.41705 9.99999 8.50003C9.51225 8.81856 9.02063 8.79173 8.52552 8.67303L6.24564 6.39342L5.23181 7.40714C5.16619 7.47276 5.16619 7.5551 5.23181 7.62072L6.0722 8.46101C6.04814 8.47328 6.02407 8.48628 5.99999 8.50003C5.27337 8.91525 5.21563 9.63962 5.52252 10.4795L5.45315 10.5489C4.95347 11.0485 4.41479 11.3115 3.92342 11.5513C3.86242 11.5811 3.80216 11.6105 3.74279 11.64C3.20511 11.9069 2.70397 12.1773 2.1222 12.759C1.75877 13.1224 1.61678 13.461 1.58975 13.703C1.56271 13.945 1.61998 14.0954 1.7631 14.2385C1.90611 14.3815 2.05649 14.439 2.29866 14.4119C2.54083 14.3848 2.88091 14.2426 3.24439 13.8795C3.82615 13.2978 4.095 12.7967 4.36193 12.2591C4.3914 12.1997 4.42082 12.1394 4.4506 12.0785C4.69049 11.5871 4.95347 11.0485 5.45315 10.5489L5.52257 10.4796C5.69439 10.9497 5.98048 11.4561 6.32746 11.9646C6.15735 12.2047 6.0182 12.486 5.84349 12.8392L5.78129 12.9648C5.49585 13.5397 5.10514 14.26 4.36502 15H4.36347C3.79815 15.5648 3.14649 15.9107 2.47511 15.9858C1.80373 16.061 1.1184 15.8349 0.642469 15.359C0.166657 14.8833 -0.060954 14.198 0.0140467 13.5266C0.0890478 12.8552 0.4362 12.2022 1.00157 11.6369C1.74168 10.8969 2.46199 10.5062 3.03698 10.2208L3.16257 10.1586C3.67019 9.90757 4.02938 9.72995 4.33097 9.42839L4.56469 9.19469L4.11118 8.74123C3.43978 8.06991 3.43978 6.95795 4.11118 6.28663L5.12501 5.27291L5.68533 4.71266L6.24564 4.1524L9.9651 0.431817C9.96688 0.430043 9.96878 0.428524 9.97069 0.427005C9.97247 0.425584 9.97426 0.424162 9.97594 0.422531L10.1617 0.236811ZM11 9C11 8.44771 11.4477 8 12 8C12.5523 8 13 8.44771 13 9V11H15C15.5523 11 16 11.4477 16 12C16 12.5523 15.5523 13 15 13H13V15C13 15.5523 12.5523 16 12 16C11.4477 16 11 15.5523 11 15V13H9C8.44771 13 8 12.5523 8 12C8 11.4477 8.44771 11 9 11H11V9Z"/>
    </symbol>

    <!-- FREE -->
    <!--  zIndex  -->
    <symbol viewBox="0 0 16 16" id="bring-forward">
        <path d="M7.29289 3.29289C7.68342 2.90237 8.31658 2.90237 8.70711 3.29289L12.7071 7.29289C13.0976 7.68342 13.0976 8.31658 12.7071 8.70711C12.3166 9.09763 11.6834 9.09763 11.2929 8.70711L9 6.41421V12C9 12.5523 8.55228 13 8 13C7.44772 13 7 12.5523 7 12V6.41421L4.70711 8.70711C4.31658 9.09763 3.68342 9.09763 3.29289 8.70711C2.90237 8.31658 2.90237 7.68342 3.29289 7.29289L7.29289 3.29289Z" />
    </symbol>

    <symbol viewBox="0 0 16 16" id="bring-to-front">
        <path d="M7.29289 5.29289C7.68342 4.90237 8.31658 4.90237 8.70711 5.29289L12.7071 9.29289C13.0976 9.68342 13.0976 10.3166 12.7071 10.7071C12.3166 11.0976 11.6834 11.0976 11.2929 10.7071L9 8.41421V14C9 14.5523 8.55228 15 8 15C7.44772 15 7 14.5523 7 14V8.41421L4.70711 10.7071C4.31658 11.0976 3.68342 11.0976 3.29289 10.7071C2.90237 10.3166 2.90237 9.68342 3.29289 9.29289L7.29289 5.29289Z" />
        <rect x="1" y="1" width="14" height="2" rx="1"/>
    </symbol>

    <symbol viewBox="0 0 16 16" id="send-backward">
        <path d="M8.70711 12.7071C8.31658 13.0976 7.68342 13.0976 7.29289 12.7071L3.29289 8.70711C2.90237 8.31658 2.90237 7.68342 3.29289 7.29289C3.68342 6.90237 4.31658 6.90237 4.70711 7.29289L7 9.58579L7 4C7 3.44771 7.44772 3 8 3C8.55229 3 9 3.44771 9 4L9 9.58579L11.2929 7.29289C11.6834 6.90237 12.3166 6.90237 12.7071 7.29289C13.0976 7.68342 13.0976 8.31658 12.7071 8.70711L8.70711 12.7071Z" />
    </symbol>

    <symbol viewBox="0 0 16 16" id="send-to-back">
        <path d="M14 15C14.5523 15 15 14.5523 15 14C15 13.4477 14.5523 13 14 13L2 13C1.44772 13 1 13.4477 1 14C1 14.5523 1.44772 15 2 15L14 15ZM7.29289 10.7071C7.68342 11.0976 8.31658 11.0976 8.70711 10.7071L12.7071 6.70711C13.0976 6.31658 13.0976 5.68342 12.7071 5.29289C12.3166 4.90237 11.6834 4.90237 11.2929 5.29289L9 7.58579L9 2C9 1.44771 8.55229 0.999999 8 0.999999C7.44772 0.999999 7 1.44771 7 2L7 7.58579L4.70711 5.29289C4.31658 4.90237 3.68342 4.90237 3.29289 5.29289C2.90237 5.68342 2.90237 6.31658 3.29289 6.70711L7.29289 10.7071Z"/>
    </symbol>

    <!-- Aligners -->
    <symbol viewBox="0 0 16 16" id="justify-start">
        <path d="M3 1C2.44772 1 2 1.44772 2 2V14C2 14.5523 2.44772 15 3 15C3.55228 15 4 14.5523 4 14V2C4 1.44772 3.55228 1 3 1ZM10.7071 5.70711C11.0976 5.31658 11.0976 4.68342 10.7071 4.29289C10.3166 3.90237 9.68342 3.90237 9.29289 4.29289L6.29289 7.29289C5.90237 7.68342 5.90237 8.31658 6.29289 8.70711L9.29289 11.7071C9.68342 12.0976 10.3166 12.0976 10.7071 11.7071C11.0976 11.3166 11.0976 10.6834 10.7071 10.2929L9.41421 9H13C13.5523 9 14 8.55228 14 8C14 7.44772 13.5523 7 13 7H9.41421L10.7071 5.70711Z" />
    </symbol>

    <symbol viewBox="0 0 16 16" id="justify-center">
        <path d="M7 2C7 1.44772 7.44772 1 8 1C8.55229 1 9 1.44772 9 2V14C9 14.5523 8.55229 15 8 15C7.44772 15 7 14.5523 7 14V2ZM13.7071 5.29289C14.0976 5.68342 14.0976 6.31658 13.7071 6.70711L13.4142 7H15C15.5523 7 16 7.44772 16 8C16 8.55228 15.5523 9 15 9H13.4142L13.7071 9.29289C14.0976 9.68342 14.0976 10.3166 13.7071 10.7071C13.3166 11.0976 12.6834 11.0976 12.2929 10.7071L10.2929 8.70711C9.90237 8.31658 9.90237 7.68342 10.2929 7.29289L12.2929 5.29289C12.6834 4.90237 13.3166 4.90237 13.7071 5.29289ZM2.29289 6.70711C1.90237 6.31658 1.90237 5.68342 2.29289 5.29289C2.68342 4.90237 3.31658 4.90237 3.70711 5.29289L5.70711 7.29289C6.09763 7.68342 6.09763 8.31658 5.70711 8.70711L3.70711 10.7071C3.31658 11.0976 2.68342 11.0976 2.29289 10.7071C1.90237 10.3166 1.90237 9.68342 2.29289 9.29289L2.58579 9H1C0.447715 9 0 8.55228 0 8C0 7.44772 0.447715 7 1 7H2.58579L2.29289 6.70711Z" />
    </symbol>

    <symbol viewBox="0 0 16 16" id="justify-end">
        <path d="M13 15C13.5523 15 14 14.5523 14 14L14 2C14 1.44772 13.5523 1 13 1C12.4477 1 12 1.44772 12 2L12 14C12 14.5523 12.4477 15 13 15ZM5.29289 10.2929C4.90237 10.6834 4.90237 11.3166 5.29289 11.7071C5.68342 12.0976 6.31658 12.0976 6.70711 11.7071L9.70711 8.70711C10.0976 8.31658 10.0976 7.68342 9.70711 7.29289L6.70711 4.29289C6.31658 3.90237 5.68342 3.90237 5.29289 4.29289C4.90237 4.68342 4.90237 5.31658 5.29289 5.70711L6.58579 7L3 7C2.44772 7 2 7.44772 2 8C2 8.55229 2.44772 9 3 9L6.58579 9L5.29289 10.2929Z" />
    </symbol>

    <symbol viewBox="0 0 16 16" id="align-start">
        <path d="M15 3C15 2.44772 14.5523 2 14 2L2 2C1.44772 2 1 2.44771 1 3C1 3.55228 1.44772 4 2 4L14 4C14.5523 4 15 3.55228 15 3ZM10.2929 10.7071C10.6834 11.0976 11.3166 11.0976 11.7071 10.7071C12.0976 10.3166 12.0976 9.68342 11.7071 9.29289L8.70711 6.29289C8.31658 5.90237 7.68342 5.90237 7.29289 6.29289L4.29289 9.29289C3.90237 9.68342 3.90237 10.3166 4.29289 10.7071C4.68342 11.0976 5.31658 11.0976 5.70711 10.7071L7 9.41421L7 13C7 13.5523 7.44771 14 8 14C8.55228 14 9 13.5523 9 13L9 9.41421L10.2929 10.7071Z" />
    </symbol>

    <symbol viewBox="0 0 16 16" id="align-center">
        <path d="M14 7C14.5523 7 15 7.44772 15 8C15 8.55229 14.5523 9 14 9L2 9C1.44772 9 1 8.55228 1 8C1 7.44771 1.44772 7 2 7L14 7ZM10.7071 13.7071C10.3166 14.0976 9.68342 14.0976 9.29289 13.7071L9 13.4142L9 15C9 15.5523 8.55228 16 8 16C7.44771 16 7 15.5523 7 15L7 13.4142L6.70711 13.7071C6.31658 14.0976 5.68342 14.0976 5.29289 13.7071C4.90237 13.3166 4.90237 12.6834 5.29289 12.2929L7.29289 10.2929C7.68342 9.90237 8.31658 9.90237 8.70711 10.2929L10.7071 12.2929C11.0976 12.6834 11.0976 13.3166 10.7071 13.7071ZM9.29289 2.29289C9.68342 1.90237 10.3166 1.90237 10.7071 2.29289C11.0976 2.68342 11.0976 3.31658 10.7071 3.70711L8.70711 5.70711C8.31658 6.09763 7.68342 6.09763 7.29289 5.70711L5.29289 3.70711C4.90237 3.31658 4.90237 2.68342 5.29289 2.29289C5.68342 1.90237 6.31658 1.90237 6.70711 2.29289L7 2.58579L7 1C7 0.447715 7.44772 -3.30121e-07 8 -3.0598e-07C8.55228 -2.81839e-07 9 0.447715 9 1L9 2.58579L9.29289 2.29289Z" />
    </symbol>

    <symbol viewBox="0 0 16 16" id="align-end">
        <path d="M1 13C1 13.5523 1.44772 14 2 14L14 14C14.5523 14 15 13.5523 15 13C15 12.4477 14.5523 12 14 12L2 12C1.44772 12 1 12.4477 1 13ZM5.70711 5.29289C5.31658 4.90237 4.68342 4.90237 4.29289 5.29289C3.90237 5.68342 3.90237 6.31658 4.29289 6.70711L7.29289 9.70711C7.68342 10.0976 8.31658 10.0976 8.70711 9.70711L11.7071 6.70711C12.0976 6.31658 12.0976 5.68342 11.7071 5.29289C11.3166 4.90237 10.6834 4.90237 10.2929 5.29289L9 6.58579L9 3C9 2.44772 8.55228 2 8 2C7.44771 2 7 2.44772 7 3L7 6.58579L5.70711 5.29289Z" />
    </symbol>

    <symbol viewBox="0 0 16 16" id="dimensions">
        <path d="M4 5L1 8L4 11V5Z"/>
        <path d="M13 3H3C2.44772 3 2 3.44772 2 4V5L0 7V4C0 2.34315 1.34315 1 3 1H13C14.6569 1 16 2.34315 16 4V7L14 5V4C14 3.44772 13.5523 3 13 3ZM14 11V12C14 12.5523 13.5523 13 13 13H3C2.44772 13 2 12.5523 2 12V11L0 9V12C0 13.6569 1.34315 15 3 15H13C14.6569 15 16 13.6569 16 12V9L14 11Z"/>
        <path d="M12 5L15 8L12 11V5Z"/>
        <rect x="4" y="7" width="8" height="2"/>
    </symbol>

    <symbol viewBox="0 0 16 16" id="position-auto">
        <path d="M4.8 2H11.2C12.0731 2 12.6076 2.00156 13.0075 2.03423C13.1938 2.04945 13.3065 2.06857 13.375 2.08469C13.4076 2.09236 13.4276 2.09879 13.4384 2.10265C13.4488 2.10636 13.4532 2.10858 13.454 2.10899C13.6422 2.20487 13.7951 2.35785 13.891 2.54601C13.8914 2.54681 13.8936 2.55118 13.8973 2.56158C13.9012 2.57241 13.9076 2.59244 13.9153 2.625C13.9314 2.69345 13.9505 2.80617 13.9658 2.99247C13.9984 3.39239 14 3.92692 14 4.8V11.2C14 12.0731 13.9984 12.6076 13.9658 13.0075C13.9505 13.1938 13.9314 13.3065 13.9153 13.375C13.9076 13.4076 13.9012 13.4276 13.8973 13.4384C13.8936 13.4488 13.8914 13.4532 13.891 13.454C13.7951 13.6422 13.6422 13.7951 13.454 13.891C13.4532 13.8914 13.4488 13.8936 13.4384 13.8973C13.4276 13.9012 13.4076 13.9076 13.375 13.9153C13.3065 13.9314 13.1938 13.9505 13.0075 13.9658C12.6076 13.9984 12.0731 14 11.2 14H4.8C3.92692 14 3.39239 13.9984 2.99247 13.9658C2.80617 13.9505 2.69345 13.9314 2.625 13.9153C2.59244 13.9076 2.57241 13.9012 2.56158 13.8973C2.55118 13.8936 2.54681 13.8914 2.54601 13.891C2.35785 13.7951 2.20487 13.6422 2.10899 13.454C2.10858 13.4532 2.10636 13.4488 2.10265 13.4384C2.09879 13.4276 2.09236 13.4076 2.08469 13.375C2.06857 13.3065 2.04945 13.1938 2.03423 13.0075C2.00156 12.6076 2 12.0731 2 11.2V4.8C2 3.92692 2.00156 3.39239 2.03423 2.99247C2.04945 2.80617 2.06857 2.69345 2.08469 2.625C2.09236 2.59244 2.09879 2.57241 2.10265 2.56158C2.10636 2.55118 2.10858 2.54681 2.10899 2.54601C2.20487 2.35785 2.35785 2.20487 2.54601 2.10899C2.54681 2.10858 2.55118 2.10636 2.56158 2.10265C2.57241 2.09879 2.59244 2.09236 2.625 2.08469C2.69345 2.06857 2.80617 2.04945 2.99247 2.03423C3.39239 2.00156 3.92692 2 4.8 2ZM0 4.8C0 3.11984 0 2.27976 0.32698 1.63803C0.614601 1.07354 1.07354 0.614601 1.63803 0.32698C2.27976 0 3.11984 0 4.8 0H11.2C12.8802 0 13.7202 0 14.362 0.32698C14.9265 0.614601 15.3854 1.07354 15.673 1.63803C16 2.27976 16 3.11984 16 4.8V11.2C16 12.8802 16 13.7202 15.673 14.362C15.3854 14.9265 14.9265 15.3854 14.362 15.673C13.7202 16 12.8802 16 11.2 16H4.8C3.11984 16 2.27976 16 1.63803 15.673C1.07354 15.3854 0.614601 14.9265 0.32698 14.362C0 13.7202 0 12.8802 0 11.2V4.8ZM7.35197 4.60986L4.61597 10.9999H6.10997L6.67697 9.64986H9.32297L9.88997 10.9999H11.384L8.64797 4.60986H7.35197ZM7.18997 8.40786L7.99997 6.49086L8.80097 8.40786H7.18997Z" />
    </symbol>

    <symbol viewBox="0 0 16 16" id="position-start_start">
        <path d="M4.8 2H11.2C12.0731 2 12.6076 2.00156 13.0075 2.03423C13.1938 2.04945 13.3065 2.06857 13.375 2.08469C13.4076 2.09236 13.4276 2.09879 13.4384 2.10265C13.4488 2.10636 13.454 2.10899 13.454 2.10899C13.6422 2.20487 13.7951 2.35785 13.891 2.54601C13.891 2.54601 13.8936 2.55118 13.8973 2.56158C13.9012 2.57241 13.9076 2.59244 13.9153 2.625C13.9314 2.69345 13.9505 2.80617 13.9658 2.99247C13.9984 3.39239 14 3.92692 14 4.8V11.2C14 12.0731 13.9984 12.6076 13.9658 13.0075C13.9505 13.1938 13.9314 13.3065 13.9153 13.375C13.9076 13.4076 13.9012 13.4276 13.8973 13.4384C13.8936 13.4488 13.891 13.454 13.891 13.454C13.7951 13.6422 13.6422 13.7951 13.454 13.891C13.454 13.891 13.4488 13.8936 13.4384 13.8973C13.4276 13.9012 13.4076 13.9076 13.375 13.9153C13.3065 13.9314 13.1938 13.9505 13.0075 13.9658C12.6076 13.9984 12.0731 14 11.2 14H4.8C3.92692 14 3.39239 13.9984 2.99247 13.9658C2.80617 13.9505 2.69345 13.9314 2.625 13.9153C2.59244 13.9076 2.57241 13.9012 2.56158 13.8973C2.55118 13.8936 2.54601 13.891 2.54601 13.891C2.35785 13.7951 2.20487 13.6422 2.10899 13.454C2.10899 13.454 2.10636 13.4488 2.10265 13.4384C2.09879 13.4276 2.09236 13.4076 2.08469 13.375C2.06857 13.3065 2.04945 13.1938 2.03423 13.0075C2.00156 12.6076 2 12.0731 2 11.2V4.8C2 3.92692 2.00156 3.39239 2.03423 2.99247C2.04945 2.80617 2.06857 2.69345 2.08469 2.625C2.09236 2.59244 2.09879 2.57241 2.10265 2.56158C2.10636 2.55118 2.10899 2.54601 2.10899 2.54601C2.20487 2.35785 2.35785 2.20487 2.54601 2.10899C2.54601 2.10899 2.55118 2.10636 2.56158 2.10265C2.57241 2.09879 2.59244 2.09236 2.625 2.08469C2.69345 2.06857 2.80617 2.04945 2.99247 2.03423C3.39239 2.00156 3.92692 2 4.8 2ZM0 4.8C0 3.11984 0 2.27976 0.32698 1.63803C0.614601 1.07354 1.07354 0.614601 1.63803 0.32698C2.27976 0 3.11984 0 4.8 0H11.2C12.8802 0 13.7202 0 14.362 0.32698C14.9265 0.614601 15.3854 1.07354 15.673 1.63803C16 2.27976 16 3.11984 16 4.8V11.2C16 12.8802 16 13.7202 15.673 14.362C15.3854 14.9265 14.9265 15.3854 14.362 15.673C13.7202 16 12.8802 16 11.2 16H4.8C3.11984 16 2.27976 16 1.63803 15.673C1.07354 15.3854 0.614601 14.9265 0.32698 14.362C0 13.7202 0 12.8802 0 11.2V4.8Z" />
        <path opacity="0.5" d="M4 6C4 4.89543 4.89543 4 6 4C7.10457 4 8 4.89543 8 6C8 7.10457 7.10457 8 6 8C4.89543 8 4 7.10457 4 6Z" />
    </symbol>

    <symbol viewBox="0 0 16 16" id="position-start_center">
        <path d="M4.8 2H11.2C12.0731 2 12.6076 2.00156 13.0075 2.03423C13.1938 2.04945 13.3065 2.06857 13.375 2.08469C13.4076 2.09236 13.4276 2.09879 13.4384 2.10265C13.4488 2.10636 13.454 2.10899 13.454 2.10899C13.6422 2.20487 13.7951 2.35785 13.891 2.54601C13.891 2.54601 13.8936 2.55118 13.8973 2.56158C13.9012 2.57241 13.9076 2.59244 13.9153 2.625C13.9314 2.69345 13.9505 2.80617 13.9658 2.99247C13.9984 3.39239 14 3.92692 14 4.8V11.2C14 12.0731 13.9984 12.6076 13.9658 13.0075C13.9505 13.1938 13.9314 13.3065 13.9153 13.375C13.9076 13.4076 13.9012 13.4276 13.8973 13.4384C13.8936 13.4488 13.891 13.454 13.891 13.454C13.7951 13.6422 13.6422 13.7951 13.454 13.891C13.454 13.891 13.4488 13.8936 13.4384 13.8973C13.4276 13.9012 13.4076 13.9076 13.375 13.9153C13.3065 13.9314 13.1938 13.9505 13.0075 13.9658C12.6076 13.9984 12.0731 14 11.2 14H4.8C3.92692 14 3.39239 13.9984 2.99247 13.9658C2.80617 13.9505 2.69345 13.9314 2.625 13.9153C2.59244 13.9076 2.57241 13.9012 2.56158 13.8973C2.55118 13.8936 2.54601 13.891 2.54601 13.891C2.35785 13.7951 2.20487 13.6422 2.10899 13.454C2.10899 13.454 2.10636 13.4488 2.10265 13.4384C2.09879 13.4276 2.09236 13.4076 2.08469 13.375C2.06857 13.3065 2.04945 13.1938 2.03423 13.0075C2.00156 12.6076 2 12.0731 2 11.2V4.8C2 3.92692 2.00156 3.39239 2.03423 2.99247C2.04945 2.80617 2.06857 2.69345 2.08469 2.625C2.09236 2.59244 2.09879 2.57241 2.10265 2.56158C2.10636 2.55118 2.10899 2.54601 2.10899 2.54601C2.20487 2.35785 2.35785 2.20487 2.54601 2.10899C2.54601 2.10899 2.55118 2.10636 2.56158 2.10265C2.57241 2.09879 2.59244 2.09236 2.625 2.08469C2.69345 2.06857 2.80617 2.04945 2.99247 2.03423C3.39239 2.00156 3.92692 2 4.8 2ZM0 4.8C0 3.11984 0 2.27976 0.32698 1.63803C0.614601 1.07354 1.07354 0.614601 1.63803 0.32698C2.27976 0 3.11984 0 4.8 0H11.2C12.8802 0 13.7202 0 14.362 0.32698C14.9265 0.614601 15.3854 1.07354 15.673 1.63803C16 2.27976 16 3.11984 16 4.8V11.2C16 12.8802 16 13.7202 15.673 14.362C15.3854 14.9265 14.9265 15.3854 14.362 15.673C13.7202 16 12.8802 16 11.2 16H4.8C3.11984 16 2.27976 16 1.63803 15.673C1.07354 15.3854 0.614601 14.9265 0.32698 14.362C0 13.7202 0 12.8802 0 11.2V4.8Z" />
        <path opacity="0.5" d="M6 6C6 4.89543 6.89543 4 8 4C9.10457 4 10 4.89543 10 6C10 7.10457 9.10457 8 8 8C6.89543 8 6 7.10457 6 6Z" />
    </symbol>

    <symbol viewBox="0 0 16 16" id="position-start_end">
        <path d="M4.8 2H11.2C12.0731 2 12.6076 2.00156 13.0075 2.03423C13.1938 2.04945 13.3065 2.06857 13.375 2.08469C13.4076 2.09236 13.4276 2.09879 13.4384 2.10265C13.4488 2.10636 13.454 2.10899 13.454 2.10899C13.6422 2.20487 13.7951 2.35785 13.891 2.54601C13.891 2.54601 13.8936 2.55118 13.8973 2.56158C13.9012 2.57241 13.9076 2.59244 13.9153 2.625C13.9314 2.69345 13.9505 2.80617 13.9658 2.99247C13.9984 3.39239 14 3.92692 14 4.8V11.2C14 12.0731 13.9984 12.6076 13.9658 13.0075C13.9505 13.1938 13.9314 13.3065 13.9153 13.375C13.9076 13.4076 13.9012 13.4276 13.8973 13.4384C13.8936 13.4488 13.891 13.454 13.891 13.454C13.7951 13.6422 13.6422 13.7951 13.454 13.891C13.454 13.891 13.4488 13.8936 13.4384 13.8973C13.4276 13.9012 13.4076 13.9076 13.375 13.9153C13.3065 13.9314 13.1938 13.9505 13.0075 13.9658C12.6076 13.9984 12.0731 14 11.2 14H4.8C3.92692 14 3.39239 13.9984 2.99247 13.9658C2.80617 13.9505 2.69345 13.9314 2.625 13.9153C2.59244 13.9076 2.57241 13.9012 2.56158 13.8973C2.55118 13.8936 2.54601 13.891 2.54601 13.891C2.35785 13.7951 2.20487 13.6422 2.10899 13.454C2.10899 13.454 2.10636 13.4488 2.10265 13.4384C2.09879 13.4276 2.09236 13.4076 2.08469 13.375C2.06857 13.3065 2.04945 13.1938 2.03423 13.0075C2.00156 12.6076 2 12.0731 2 11.2V4.8C2 3.92692 2.00156 3.39239 2.03423 2.99247C2.04945 2.80617 2.06857 2.69345 2.08469 2.625C2.09236 2.59244 2.09879 2.57241 2.10265 2.56158C2.10636 2.55118 2.10899 2.54601 2.10899 2.54601C2.20487 2.35785 2.35785 2.20487 2.54601 2.10899C2.54601 2.10899 2.55118 2.10636 2.56158 2.10265C2.57241 2.09879 2.59244 2.09236 2.625 2.08469C2.69345 2.06857 2.80617 2.04945 2.99247 2.03423C3.39239 2.00156 3.92692 2 4.8 2ZM0 4.8C0 3.11984 0 2.27976 0.32698 1.63803C0.614601 1.07354 1.07354 0.614601 1.63803 0.32698C2.27976 0 3.11984 0 4.8 0H11.2C12.8802 0 13.7202 0 14.362 0.32698C14.9265 0.614601 15.3854 1.07354 15.673 1.63803C16 2.27976 16 3.11984 16 4.8V11.2C16 12.8802 16 13.7202 15.673 14.362C15.3854 14.9265 14.9265 15.3854 14.362 15.673C13.7202 16 12.8802 16 11.2 16H4.8C3.11984 16 2.27976 16 1.63803 15.673C1.07354 15.3854 0.614601 14.9265 0.32698 14.362C0 13.7202 0 12.8802 0 11.2V4.8Z" />
        <path opacity="0.5" d="M8 6C8 4.89543 8.89543 4 10 4C11.1046 4 12 4.89543 12 6C12 7.10457 11.1046 8 10 8C8.89543 8 8 7.10457 8 6Z" />
    </symbol>

    <symbol viewBox="0 0 16 16" id="position-center_start">
        <path d="M4.8 2H11.2C12.0731 2 12.6076 2.00156 13.0075 2.03423C13.1938 2.04945 13.3065 2.06857 13.375 2.08469C13.4076 2.09236 13.4276 2.09879 13.4384 2.10265C13.4488 2.10636 13.454 2.10899 13.454 2.10899C13.6422 2.20487 13.7951 2.35785 13.891 2.54601C13.891 2.54601 13.8936 2.55118 13.8973 2.56158C13.9012 2.57241 13.9076 2.59244 13.9153 2.625C13.9314 2.69345 13.9505 2.80617 13.9658 2.99247C13.9984 3.39239 14 3.92692 14 4.8V11.2C14 12.0731 13.9984 12.6076 13.9658 13.0075C13.9505 13.1938 13.9314 13.3065 13.9153 13.375C13.9076 13.4076 13.9012 13.4276 13.8973 13.4384C13.8936 13.4488 13.891 13.454 13.891 13.454C13.7951 13.6422 13.6422 13.7951 13.454 13.891C13.454 13.891 13.4488 13.8936 13.4384 13.8973C13.4276 13.9012 13.4076 13.9076 13.375 13.9153C13.3065 13.9314 13.1938 13.9505 13.0075 13.9658C12.6076 13.9984 12.0731 14 11.2 14H4.8C3.92692 14 3.39239 13.9984 2.99247 13.9658C2.80617 13.9505 2.69345 13.9314 2.625 13.9153C2.59244 13.9076 2.57241 13.9012 2.56158 13.8973C2.55118 13.8936 2.54601 13.891 2.54601 13.891C2.35785 13.7951 2.20487 13.6422 2.10899 13.454C2.10899 13.454 2.10636 13.4488 2.10265 13.4384C2.09879 13.4276 2.09236 13.4076 2.08469 13.375C2.06857 13.3065 2.04945 13.1938 2.03423 13.0075C2.00156 12.6076 2 12.0731 2 11.2V4.8C2 3.92692 2.00156 3.39239 2.03423 2.99247C2.04945 2.80617 2.06857 2.69345 2.08469 2.625C2.09236 2.59244 2.09879 2.57241 2.10265 2.56158C2.10636 2.55118 2.10899 2.54601 2.10899 2.54601C2.20487 2.35785 2.35785 2.20487 2.54601 2.10899C2.54601 2.10899 2.55118 2.10636 2.56158 2.10265C2.57241 2.09879 2.59244 2.09236 2.625 2.08469C2.69345 2.06857 2.80617 2.04945 2.99247 2.03423C3.39239 2.00156 3.92692 2 4.8 2ZM0 4.8C0 3.11984 0 2.27976 0.32698 1.63803C0.614601 1.07354 1.07354 0.614601 1.63803 0.32698C2.27976 0 3.11984 0 4.8 0H11.2C12.8802 0 13.7202 0 14.362 0.32698C14.9265 0.614601 15.3854 1.07354 15.673 1.63803C16 2.27976 16 3.11984 16 4.8V11.2C16 12.8802 16 13.7202 15.673 14.362C15.3854 14.9265 14.9265 15.3854 14.362 15.673C13.7202 16 12.8802 16 11.2 16H4.8C3.11984 16 2.27976 16 1.63803 15.673C1.07354 15.3854 0.614601 14.9265 0.32698 14.362C0 13.7202 0 12.8802 0 11.2V4.8Z" />
        <path opacity="0.5" d="M4 8C4 6.89543 4.89543 6 6 6C7.10457 6 8 6.89543 8 8C8 9.10457 7.10457 10 6 10C4.89543 10 4 9.10457 4 8Z" />
    </symbol>

    <symbol viewBox="0 0 16 16" id="position-center_center">
        <path d="M4.8 2H11.2C12.0731 2 12.6076 2.00156 13.0075 2.03423C13.1938 2.04945 13.3065 2.06857 13.375 2.08469C13.4076 2.09236 13.4276 2.09879 13.4384 2.10265C13.4488 2.10636 13.454 2.10899 13.454 2.10899C13.6422 2.20487 13.7951 2.35785 13.891 2.54601C13.891 2.54601 13.8936 2.55118 13.8973 2.56158C13.9012 2.57241 13.9076 2.59244 13.9153 2.625C13.9314 2.69345 13.9505 2.80617 13.9658 2.99247C13.9984 3.39239 14 3.92692 14 4.8V11.2C14 12.0731 13.9984 12.6076 13.9658 13.0075C13.9505 13.1938 13.9314 13.3065 13.9153 13.375C13.9076 13.4076 13.9012 13.4276 13.8973 13.4384C13.8936 13.4488 13.891 13.454 13.891 13.454C13.7951 13.6422 13.6422 13.7951 13.454 13.891C13.454 13.891 13.4488 13.8936 13.4384 13.8973C13.4276 13.9012 13.4076 13.9076 13.375 13.9153C13.3065 13.9314 13.1938 13.9505 13.0075 13.9658C12.6076 13.9984 12.0731 14 11.2 14H4.8C3.92692 14 3.39239 13.9984 2.99247 13.9658C2.80617 13.9505 2.69345 13.9314 2.625 13.9153C2.59244 13.9076 2.57241 13.9012 2.56158 13.8973C2.55118 13.8936 2.54601 13.891 2.54601 13.891C2.35785 13.7951 2.20487 13.6422 2.10899 13.454C2.10899 13.454 2.10636 13.4488 2.10265 13.4384C2.09879 13.4276 2.09236 13.4076 2.08469 13.375C2.06857 13.3065 2.04945 13.1938 2.03423 13.0075C2.00156 12.6076 2 12.0731 2 11.2V4.8C2 3.92692 2.00156 3.39239 2.03423 2.99247C2.04945 2.80617 2.06857 2.69345 2.08469 2.625C2.09236 2.59244 2.09879 2.57241 2.10265 2.56158C2.10636 2.55118 2.10899 2.54601 2.10899 2.54601C2.20487 2.35785 2.35785 2.20487 2.54601 2.10899C2.54601 2.10899 2.55118 2.10636 2.56158 2.10265C2.57241 2.09879 2.59244 2.09236 2.625 2.08469C2.69345 2.06857 2.80617 2.04945 2.99247 2.03423C3.39239 2.00156 3.92692 2 4.8 2ZM0 4.8C0 3.11984 0 2.27976 0.32698 1.63803C0.614601 1.07354 1.07354 0.614601 1.63803 0.32698C2.27976 0 3.11984 0 4.8 0H11.2C12.8802 0 13.7202 0 14.362 0.32698C14.9265 0.614601 15.3854 1.07354 15.673 1.63803C16 2.27976 16 3.11984 16 4.8V11.2C16 12.8802 16 13.7202 15.673 14.362C15.3854 14.9265 14.9265 15.3854 14.362 15.673C13.7202 16 12.8802 16 11.2 16H4.8C3.11984 16 2.27976 16 1.63803 15.673C1.07354 15.3854 0.614601 14.9265 0.32698 14.362C0 13.7202 0 12.8802 0 11.2V4.8Z" />
        <path opacity="0.5" d="M6 8C6 6.89543 6.89543 6 8 6C9.10457 6 10 6.89543 10 8C10 9.10457 9.10457 10 8 10C6.89543 10 6 9.10457 6 8Z" />
    </symbol>

    <symbol viewBox="0 0 16 16" id="position-center_end">
        <path d="M4.8 2H11.2C12.0731 2 12.6076 2.00156 13.0075 2.03423C13.1938 2.04945 13.3065 2.06857 13.375 2.08469C13.4076 2.09236 13.4276 2.09879 13.4384 2.10265C13.4488 2.10636 13.454 2.10899 13.454 2.10899C13.6422 2.20487 13.7951 2.35785 13.891 2.54601C13.891 2.54601 13.8936 2.55118 13.8973 2.56158C13.9012 2.57241 13.9076 2.59244 13.9153 2.625C13.9314 2.69345 13.9505 2.80617 13.9658 2.99247C13.9984 3.39239 14 3.92692 14 4.8V11.2C14 12.0731 13.9984 12.6076 13.9658 13.0075C13.9505 13.1938 13.9314 13.3065 13.9153 13.375C13.9076 13.4076 13.9012 13.4276 13.8973 13.4384C13.8936 13.4488 13.891 13.454 13.891 13.454C13.7951 13.6422 13.6422 13.7951 13.454 13.891C13.454 13.891 13.4488 13.8936 13.4384 13.8973C13.4276 13.9012 13.4076 13.9076 13.375 13.9153C13.3065 13.9314 13.1938 13.9505 13.0075 13.9658C12.6076 13.9984 12.0731 14 11.2 14H4.8C3.92692 14 3.39239 13.9984 2.99247 13.9658C2.80617 13.9505 2.69345 13.9314 2.625 13.9153C2.59244 13.9076 2.57241 13.9012 2.56158 13.8973C2.55118 13.8936 2.54601 13.891 2.54601 13.891C2.35785 13.7951 2.20487 13.6422 2.10899 13.454C2.10899 13.454 2.10636 13.4488 2.10265 13.4384C2.09879 13.4276 2.09236 13.4076 2.08469 13.375C2.06857 13.3065 2.04945 13.1938 2.03423 13.0075C2.00156 12.6076 2 12.0731 2 11.2V4.8C2 3.92692 2.00156 3.39239 2.03423 2.99247C2.04945 2.80617 2.06857 2.69345 2.08469 2.625C2.09236 2.59244 2.09879 2.57241 2.10265 2.56158C2.10636 2.55118 2.10899 2.54601 2.10899 2.54601C2.20487 2.35785 2.35785 2.20487 2.54601 2.10899C2.54601 2.10899 2.55118 2.10636 2.56158 2.10265C2.57241 2.09879 2.59244 2.09236 2.625 2.08469C2.69345 2.06857 2.80617 2.04945 2.99247 2.03423C3.39239 2.00156 3.92692 2 4.8 2ZM0 4.8C0 3.11984 0 2.27976 0.32698 1.63803C0.614601 1.07354 1.07354 0.614601 1.63803 0.32698C2.27976 0 3.11984 0 4.8 0H11.2C12.8802 0 13.7202 0 14.362 0.32698C14.9265 0.614601 15.3854 1.07354 15.673 1.63803C16 2.27976 16 3.11984 16 4.8V11.2C16 12.8802 16 13.7202 15.673 14.362C15.3854 14.9265 14.9265 15.3854 14.362 15.673C13.7202 16 12.8802 16 11.2 16H4.8C3.11984 16 2.27976 16 1.63803 15.673C1.07354 15.3854 0.614601 14.9265 0.32698 14.362C0 13.7202 0 12.8802 0 11.2V4.8Z" />
        <path opacity="0.5" d="M8 8C8 6.89543 8.89543 6 10 6C11.1046 6 12 6.89543 12 8C12 9.10457 11.1046 10 10 10C8.89543 10 8 9.10457 8 8Z" />
    </symbol>

    <symbol viewBox="0 0 16 16" id="position-end_start">
        <path d="M4.8 2H11.2C12.0731 2 12.6076 2.00156 13.0075 2.03423C13.1938 2.04945 13.3065 2.06857 13.375 2.08469C13.4076 2.09236 13.4276 2.09879 13.4384 2.10265C13.4488 2.10636 13.454 2.10899 13.454 2.10899C13.6422 2.20487 13.7951 2.35785 13.891 2.54601C13.891 2.54601 13.8936 2.55118 13.8973 2.56158C13.9012 2.57241 13.9076 2.59244 13.9153 2.625C13.9314 2.69345 13.9505 2.80617 13.9658 2.99247C13.9984 3.39239 14 3.92692 14 4.8V11.2C14 12.0731 13.9984 12.6076 13.9658 13.0075C13.9505 13.1938 13.9314 13.3065 13.9153 13.375C13.9076 13.4076 13.9012 13.4276 13.8973 13.4384C13.8936 13.4488 13.891 13.454 13.891 13.454C13.7951 13.6422 13.6422 13.7951 13.454 13.891C13.454 13.891 13.4488 13.8936 13.4384 13.8973C13.4276 13.9012 13.4076 13.9076 13.375 13.9153C13.3065 13.9314 13.1938 13.9505 13.0075 13.9658C12.6076 13.9984 12.0731 14 11.2 14H4.8C3.92692 14 3.39239 13.9984 2.99247 13.9658C2.80617 13.9505 2.69345 13.9314 2.625 13.9153C2.59244 13.9076 2.57241 13.9012 2.56158 13.8973C2.55118 13.8936 2.54601 13.891 2.54601 13.891C2.35785 13.7951 2.20487 13.6422 2.10899 13.454C2.10899 13.454 2.10636 13.4488 2.10265 13.4384C2.09879 13.4276 2.09236 13.4076 2.08469 13.375C2.06857 13.3065 2.04945 13.1938 2.03423 13.0075C2.00156 12.6076 2 12.0731 2 11.2V4.8C2 3.92692 2.00156 3.39239 2.03423 2.99247C2.04945 2.80617 2.06857 2.69345 2.08469 2.625C2.09236 2.59244 2.09879 2.57241 2.10265 2.56158C2.10636 2.55118 2.10899 2.54601 2.10899 2.54601C2.20487 2.35785 2.35785 2.20487 2.54601 2.10899C2.54601 2.10899 2.55118 2.10636 2.56158 2.10265C2.57241 2.09879 2.59244 2.09236 2.625 2.08469C2.69345 2.06857 2.80617 2.04945 2.99247 2.03423C3.39239 2.00156 3.92692 2 4.8 2ZM0 4.8C0 3.11984 0 2.27976 0.32698 1.63803C0.614601 1.07354 1.07354 0.614601 1.63803 0.32698C2.27976 0 3.11984 0 4.8 0H11.2C12.8802 0 13.7202 0 14.362 0.32698C14.9265 0.614601 15.3854 1.07354 15.673 1.63803C16 2.27976 16 3.11984 16 4.8V11.2C16 12.8802 16 13.7202 15.673 14.362C15.3854 14.9265 14.9265 15.3854 14.362 15.673C13.7202 16 12.8802 16 11.2 16H4.8C3.11984 16 2.27976 16 1.63803 15.673C1.07354 15.3854 0.614601 14.9265 0.32698 14.362C0 13.7202 0 12.8802 0 11.2V4.8Z" />
        <path opacity="0.5" d="M4 10C4 8.89543 4.89543 8 6 8C7.10457 8 8 8.89543 8 10C8 11.1046 7.10457 12 6 12C4.89543 12 4 11.1046 4 10Z" />
    </symbol>

    <symbol viewBox="0 0 16 16" id="position-end_center">
        <path d="M4.8 2H11.2C12.0731 2 12.6076 2.00156 13.0075 2.03423C13.1938 2.04945 13.3065 2.06857 13.375 2.08469C13.4076 2.09236 13.4276 2.09879 13.4384 2.10265C13.4488 2.10636 13.454 2.10899 13.454 2.10899C13.6422 2.20487 13.7951 2.35785 13.891 2.54601C13.891 2.54601 13.8936 2.55118 13.8973 2.56158C13.9012 2.57241 13.9076 2.59244 13.9153 2.625C13.9314 2.69345 13.9505 2.80617 13.9658 2.99247C13.9984 3.39239 14 3.92692 14 4.8V11.2C14 12.0731 13.9984 12.6076 13.9658 13.0075C13.9505 13.1938 13.9314 13.3065 13.9153 13.375C13.9076 13.4076 13.9012 13.4276 13.8973 13.4384C13.8936 13.4488 13.891 13.454 13.891 13.454C13.7951 13.6422 13.6422 13.7951 13.454 13.891C13.454 13.891 13.4488 13.8936 13.4384 13.8973C13.4276 13.9012 13.4076 13.9076 13.375 13.9153C13.3065 13.9314 13.1938 13.9505 13.0075 13.9658C12.6076 13.9984 12.0731 14 11.2 14H4.8C3.92692 14 3.39239 13.9984 2.99247 13.9658C2.80617 13.9505 2.69345 13.9314 2.625 13.9153C2.59244 13.9076 2.57241 13.9012 2.56158 13.8973C2.55118 13.8936 2.54601 13.891 2.54601 13.891C2.35785 13.7951 2.20487 13.6422 2.10899 13.454C2.10899 13.454 2.10636 13.4488 2.10265 13.4384C2.09879 13.4276 2.09236 13.4076 2.08469 13.375C2.06857 13.3065 2.04945 13.1938 2.03423 13.0075C2.00156 12.6076 2 12.0731 2 11.2V4.8C2 3.92692 2.00156 3.39239 2.03423 2.99247C2.04945 2.80617 2.06857 2.69345 2.08469 2.625C2.09236 2.59244 2.09879 2.57241 2.10265 2.56158C2.10636 2.55118 2.10899 2.54601 2.10899 2.54601C2.20487 2.35785 2.35785 2.20487 2.54601 2.10899C2.54601 2.10899 2.55118 2.10636 2.56158 2.10265C2.57241 2.09879 2.59244 2.09236 2.625 2.08469C2.69345 2.06857 2.80617 2.04945 2.99247 2.03423C3.39239 2.00156 3.92692 2 4.8 2ZM0 4.8C0 3.11984 0 2.27976 0.32698 1.63803C0.614601 1.07354 1.07354 0.614601 1.63803 0.32698C2.27976 0 3.11984 0 4.8 0H11.2C12.8802 0 13.7202 0 14.362 0.32698C14.9265 0.614601 15.3854 1.07354 15.673 1.63803C16 2.27976 16 3.11984 16 4.8V11.2C16 12.8802 16 13.7202 15.673 14.362C15.3854 14.9265 14.9265 15.3854 14.362 15.673C13.7202 16 12.8802 16 11.2 16H4.8C3.11984 16 2.27976 16 1.63803 15.673C1.07354 15.3854 0.614601 14.9265 0.32698 14.362C0 13.7202 0 12.8802 0 11.2V4.8Z" />
        <path opacity="0.5" d="M6 10C6 8.89543 6.89543 8 8 8C9.10457 8 10 8.89543 10 10C10 11.1046 9.10457 12 8 12C6.89543 12 6 11.1046 6 10Z" />
    </symbol>

    <symbol viewBox="0 0 16 16" id="position-end_end">
        <path d="M4.8 2H11.2C12.0731 2 12.6076 2.00156 13.0075 2.03423C13.1938 2.04945 13.3065 2.06857 13.375 2.08469C13.4076 2.09236 13.4276 2.09879 13.4384 2.10265C13.4488 2.10636 13.454 2.10899 13.454 2.10899C13.6422 2.20487 13.7951 2.35785 13.891 2.54601C13.891 2.54601 13.8936 2.55118 13.8973 2.56158C13.9012 2.57241 13.9076 2.59244 13.9153 2.625C13.9314 2.69345 13.9505 2.80617 13.9658 2.99247C13.9984 3.39239 14 3.92692 14 4.8V11.2C14 12.0731 13.9984 12.6076 13.9658 13.0075C13.9505 13.1938 13.9314 13.3065 13.9153 13.375C13.9076 13.4076 13.9012 13.4276 13.8973 13.4384C13.8936 13.4488 13.891 13.454 13.891 13.454C13.7951 13.6422 13.6422 13.7951 13.454 13.891C13.454 13.891 13.4488 13.8936 13.4384 13.8973C13.4276 13.9012 13.4076 13.9076 13.375 13.9153C13.3065 13.9314 13.1938 13.9505 13.0075 13.9658C12.6076 13.9984 12.0731 14 11.2 14H4.8C3.92692 14 3.39239 13.9984 2.99247 13.9658C2.80617 13.9505 2.69345 13.9314 2.625 13.9153C2.59244 13.9076 2.57241 13.9012 2.56158 13.8973C2.55118 13.8936 2.54601 13.891 2.54601 13.891C2.35785 13.7951 2.20487 13.6422 2.10899 13.454C2.10899 13.454 2.10636 13.4488 2.10265 13.4384C2.09879 13.4276 2.09236 13.4076 2.08469 13.375C2.06857 13.3065 2.04945 13.1938 2.03423 13.0075C2.00156 12.6076 2 12.0731 2 11.2V4.8C2 3.92692 2.00156 3.39239 2.03423 2.99247C2.04945 2.80617 2.06857 2.69345 2.08469 2.625C2.09236 2.59244 2.09879 2.57241 2.10265 2.56158C2.10636 2.55118 2.10899 2.54601 2.10899 2.54601C2.20487 2.35785 2.35785 2.20487 2.54601 2.10899C2.54601 2.10899 2.55118 2.10636 2.56158 2.10265C2.57241 2.09879 2.59244 2.09236 2.625 2.08469C2.69345 2.06857 2.80617 2.04945 2.99247 2.03423C3.39239 2.00156 3.92692 2 4.8 2ZM0 4.8C0 3.11984 0 2.27976 0.32698 1.63803C0.614601 1.07354 1.07354 0.614601 1.63803 0.32698C2.27976 0 3.11984 0 4.8 0H11.2C12.8802 0 13.7202 0 14.362 0.32698C14.9265 0.614601 15.3854 1.07354 15.673 1.63803C16 2.27976 16 3.11984 16 4.8V11.2C16 12.8802 16 13.7202 15.673 14.362C15.3854 14.9265 14.9265 15.3854 14.362 15.673C13.7202 16 12.8802 16 11.2 16H4.8C3.11984 16 2.27976 16 1.63803 15.673C1.07354 15.3854 0.614601 14.9265 0.32698 14.362C0 13.7202 0 12.8802 0 11.2V4.8Z" />
        <path opacity="0.5" d="M8 10C8 8.89543 8.89543 8 10 8C11.1046 8 12 8.89543 12 10C12 11.1046 11.1046 12 10 12C8.89543 12 8 11.1046 8 10Z" />
    </symbol>

    <symbol viewBox="0 0 12 7" id="position-justify">
        <path d="M12.0005 0L12.0005 7L11.0005 7L11.0005 4L1.00049 4L1.00049 7L0.000487975 7L0.000488106 4L0.00048815 3L0.000488281 -5.24536e-07L1.00049 -4.80825e-07L1.00049 3L11.0005 3L11.0005 -4.37109e-08L12.0005 0Z" />
    </symbol>

    <symbol viewBox="0 0 12 12" id="position-align">
        <path d="M3.00049 0H10.0005V1H7.00049V10H10.0005V11H7.00049H6.00049H3.00049V10H6.00049V1H3.00049V0Z"/>
    </symbol>

    <symbol viewBox="0 0 16 16" id="layers">
        <path d="M14 2H2V6H14V2ZM2 0C0.895431 0 0 0.895431 0 2V6C0 7.10457 0.895431 8 2 8H14C15.1046 8 16 7.10457 16 6V2C16 0.895431 15.1046 0 14 0H2ZM2 9H4V10H12V9H14V10C14 11.1046 13.1046 12 12 12H4C2.89543 12 2 11.1046 2 10V9ZM6 13H4V14C4 15.1046 4.89543 16 6 16H10C11.1046 16 12 15.1046 12 14V13H10V14H6V13Z" />
    </symbol>

    <!-- Outer border -->
    <symbol viewBox="0 0 14 12" id="element-contain-screen">
        <path d="M1 1H13V8H1V1ZM0 0H1H13H14V1V8V9H13H1H0V8V1V0ZM11 11H3V12H11V11Z"/>
    </symbol>

    <symbol viewBox="0 0 14 14" id="element-locked">
        <path d="M5 4C5 2.89543 5.89543 2 7 2C8.10457 2 9 2.89543 9 4V6H5V4ZM4 6V4C4 2.34315 5.34315 1 7 1C8.65685 1 10 2.34315 10 4V6H12H13V7V12V13H12H2H1V12V7V6H2H4ZM2 12V7H12V12H2Z"/>
    </symbol>

    <symbol viewBox="0 0 14 14" id="element-hidden-all">
        <path d="M10.4025 11.1096L12.6464 13.3536L13.3536 12.6464L8.72309 8.01598C8.89904 7.71823 9 7.3709 9 7C9 5.89543 8.10457 5 7 5C6.6291 5 6.28177 5.10096 5.98402 5.27691L1.35355 0.646446L0.646447 1.35355L2.74829 3.4554C0.8274 4.9315 0 7 0 7C0 7 2 12 7 12C8.34467 12 9.47236 11.6384 10.4025 11.1096ZM5.27691 5.98402L3.46208 4.16919C3.04609 4.47602 2.68286 4.81945 2.36829 5.16896C1.86562 5.72749 1.49998 6.28941 1.26065 6.71176C1.20031 6.81823 1.14841 6.91512 1.10472 7C1.14841 7.08487 1.20031 7.18177 1.26065 7.28824C1.49998 7.71059 1.86562 8.27251 2.36829 8.83103C3.37225 9.94654 4.87198 11 7 11C8.03045 11 8.91357 10.753 9.66442 10.3715L8.01598 8.72309C7.71823 8.89904 7.3709 9 7 9C5.89543 9 5 8.10457 5 7C5 6.6291 5.10097 6.28177 5.27691 5.98402ZM12.7394 7.28824C12.5151 7.68393 12.18 8.20212 11.7253 8.72526L12.4339 9.43391C13.5175 8.20632 14 7 14 7C14 7 12 2 7 2C6.35982 2 5.76883 2.08196 5.22491 2.22491L6.06996 3.06996C6.36568 3.02449 6.67554 3 7 3C9.12802 3 10.6278 4.05346 11.6317 5.16896C12.1344 5.72749 12.5 6.28941 12.7394 6.71176C12.7997 6.81823 12.8516 6.91512 12.8953 7C12.8516 7.08487 12.7997 7.18177 12.7394 7.28824ZM8 7C8 7.55228 7.55228 8 7 8C6.44772 8 6 7.55228 6 7C6 6.44772 6.44772 6 7 6C7.55228 6 8 6.44772 8 7Z" />
    </symbol>

    <symbol viewBox="0 0 14 10" id="element-hidden-mobile">
        <path d="M2.5 1H11.5C11.7761 1 12 1.22386 12 1.5V6.5C12 6.77614 11.7761 7 11.5 7H2.5C2.22386 7 2 6.77614 2 6.5V1.5C2 1.22386 2.22386 1 2.5 1ZM1 1.5C1 0.671573 1.67157 0 2.5 0H11.5C12.3284 0 13 0.671573 13 1.5V6.5C13 7.32843 12.3284 8 11.5 8H2.5C1.67157 8 1 7.32843 1 6.5V1.5ZM14 9H0V10H14V9Z"/>
    </symbol>

    <symbol viewBox="0 0 9 14" id="element-hidden-desktop">
        <path d="M1.5 1H7.5C7.77614 1 8 1.22386 8 1.5V12.5C8 12.7761 7.77614 13 7.5 13H1.5C1.22386 13 1 12.7761 1 12.5V1.5C1 1.22386 1.22386 1 1.5 1ZM0 1.5C0 0.671573 0.671573 0 1.5 0H7.5C8.32843 0 9 0.671573 9 1.5V12.5C9 13.3284 8.32843 14 7.5 14H1.5C0.671573 14 0 13.3284 0 12.5V1.5ZM6 11H3V12H6V11Z" />
    </symbol>

    <!-- Other -->
    <symbol viewBox="0 0 16 16" id="horizontal_gaps">
        <path d="M2 1H0V15H2V1ZM14 1H16V15H14V1ZM10 6H6V10H10V6ZM6 4C4.89543 4 4 4.89543 4 6V10C4 11.1046 4.89543 12 6 12H10C11.1046 12 12 11.1046 12 10V6C12 4.89543 11.1046 4 10 4H6Z"/>
    </symbol>

    <symbol viewBox="0 0 16 16" id="vertical_gaps">
        <path d="M15 2L15 0L1 -6.11959e-07L1 2L15 2ZM15 14L15 16L0.999999 16L0.999999 14L15 14ZM10 10L10 6L6 6L6 10L10 10ZM12 6C12 4.89543 11.1046 4 10 4L6 4C4.89543 4 4 4.89543 4 6L4 10C4 11.1046 4.89543 12 6 12L10 12C11.1046 12 12 11.1046 12 10L12 6Z"/>
    </symbol>

    <symbol viewBox="0 0 16 16" id="preset">
        <g clip-path="url(#clip0_3641_2068)">
            <path d="M2 2H5V5H2L2 2ZM0 2C0 0.89543 0.895431 0 2 0H5C6.10457 0 7 0.895431 7 2V5C7 6.10457 6.10457 7 5 7H2C0.89543 7 0 6.10457 0 5V2ZM11 2H14V5H11V2ZM9 2C9 0.89543 9.89543 0 11 0H14C15.1046 0 16 0.895431 16 2V5C16 6.10457 15.1046 7 14 7H11C9.89543 7 9 6.10457 9 5V2ZM14 11H11V14H14V11ZM11 9C9.89543 9 9 9.89543 9 11V14C9 15.1046 9.89543 16 11 16H14C15.1046 16 16 15.1046 16 14V11C16 9.89543 15.1046 9 14 9H11ZM2 11H5V14H2L2 11ZM0 11C0 9.89543 0.895431 9 2 9H5C6.10457 9 7 9.89543 7 11V14C7 15.1046 6.10457 16 5 16H2C0.89543 16 0 15.1046 0 14V11Z"/>
        </g>
        <defs>
            <clipPath id="clip0_3641_2068">
                <rect width="16" height="16" fill="white"/>
            </clipPath>
        </defs>
    </symbol>

    <symbol viewBox="0 0 14 14" id="element-type-static">
        <path d="M2 2H12V4H2L2 2ZM0 2C0 0.89543 0.895431 0 2 0H12C13.1046 0 14 0.895431 14 2V4C14 5.10457 13.1046 6 12 6H2C0.89543 6 0 5.10457 0 4V2ZM2 10H12V12H2L2 10ZM0 10C0 8.89543 0.895431 8 2 8H12C13.1046 8 14 8.89543 14 10V12C14 13.1046 13.1046 14 12 14H2C0.89543 14 0 13.1046 0 12V10Z" />
    </symbol>

    <symbol viewBox="0 0 14 14" id="element-type-free">
        <path d="M4 3C4 3.55228 3.55228 4 3 4C2.44772 4 2 3.55228 2 3C2 2.44772 2.44772 2 3 2C3.55228 2 4 2.44772 4 3ZM2 5.82929C0.834808 5.41746 0 4.30622 0 3C0 1.34315 1.34315 0 3 0C4.30622 0 5.41746 0.834808 5.82929 2H8.17071C8.58254 0.834808 9.69378 0 11 0C12.6569 0 14 1.34315 14 3C14 4.30622 13.1652 5.41746 12 5.82929V8.17071C13.1652 8.58254 14 9.69378 14 11C14 12.6569 12.6569 14 11 14C9.69378 14 8.58254 13.1652 8.17071 12H5.82929C5.41746 13.1652 4.30622 14 3 14C1.34315 14 0 12.6569 0 11C0 9.69378 0.834808 8.58254 2 8.17071V5.82929ZM4 8.17071V5.82929C4.85241 5.52801 5.52801 4.85241 5.82929 4H8.17071C8.47199 4.85241 9.14759 5.52801 10 5.82929V8.17071C9.14759 8.47199 8.47199 9.14759 8.17071 10H5.82929C5.52801 9.14759 4.85241 8.47199 4 8.17071ZM3 10C2.44772 10 2 10.4477 2 11C2 11.5523 2.44772 12 3 12C3.55228 12 4 11.5523 4 11C4 10.4477 3.55228 10 3 10ZM11 4C10.4477 4 10 3.55228 10 3C10 2.44772 10.4477 2 11 2C11.5523 2 12 2.44772 12 3C12 3.55228 11.5523 4 11 4ZM11 10C10.4477 10 10 10.4477 10 11C10 11.5523 10.4477 12 11 12C11.5523 12 12 11.5523 12 11C12 10.4477 11.5523 10 11 10Z" />
    </symbol>

    <symbol viewBox="0 0 16 16" id="guides">
        <path d="M4.00019 2H13.0002C13.5525 2 14.0002 2.44772 14.0002 3V13C14.0002 13.5523 13.5525 14 13.0002 14H4.00019H3.00019H0.170898C0.582735 15.1652 1.69397 16 3.00019 16H13.0002C14.657 16 16.0002 14.6569 16.0002 13V3C16.0002 1.34315 14.657 0 13.0002 0H3.00019C1.69397 0 0.582735 0.834808 0.170898 2H3.00019H4.00019ZM12 4H10V12H12V4ZM1 7C0.447715 7 0 7.44772 0 8C0 8.55229 0.447715 9 1 9H3V11C3 11.5523 3.44772 12 4 12C4.55228 12 5 11.5523 5 11V9H7C7.55228 9 8 8.55229 8 8C8 7.44772 7.55228 7 7 7H5V5C5 4.44772 4.55228 4 4 4C3.44772 4 3 4.44772 3 5V7H1Z"/>
    </symbol>

    <symbol viewBox="0 0 16 16" fill="none" id="horizontal-guide">
        <rect opacity="0.2" x="1" y="1" width="14" height="14" rx="1" stroke="currentColor" stroke-width="2"/>
        <rect x="3" y="7" width="10" height="2"/>
    </symbol>

    <symbol viewBox="0 0 16 16" fill="none" id="vertical-guide">
        <rect opacity="0.2" x="1" y="1" width="14" height="14" rx="1" stroke="currentColor" stroke-width="2"/>
        <rect x="7" y="3" width="2" height="10"/>
    </symbol>

    <symbol viewBox="0 0 16 16" id="classname">
        <path d="M6.70714 4.70706L3.41424 7.99995L6.70714 11.2928L5.29292 12.7071L1.29292 8.70706L0.585815 7.99995L1.29292 7.29285L5.29292 3.29285L6.70714 4.70706ZM9.29292 4.70706L12.5858 7.99995L9.29292 11.2928L10.7071 12.7071L14.7071 8.70706L15.4142 7.99995L14.7071 7.29285L10.7071 3.29285L9.29292 4.70706Z"/>
    </symbol>

    <symbol viewBox="0 0 16 16" fill="none" id="add-classname">
        <path d="M6 13L11 8L6 3" stroke="currentColor" stroke-width="2"/>
    </symbol>

    <symbol viewBox="0 0 13 16" id="deleteFill">
        <path d="M10.167 16C11.175 16 12 15.23 12 14.286V4H1v10.286C1 15.23 1.825 16 2.833 16h7.334zM1.177 1h10.646C12.473 1 13 1.444 13 2v2H0V2c0-.552.526-1 1.177-1zM4 .5V1h5V.5a.5.5 0 0 0-.5-.5h-4a.5.5 0 0 0-.5.5zM0 3v1h13V3H0z" />
    </symbol>

    <symbol viewBox="0 0 14 16" id="delete">
        <path d="M10.667 16c1.008 0 1.833-.77 1.833-1.714V5h-11v9.286C1.5 15.23 2.325 16 3.333 16h7.334zM10 15H4c-.825 0-1.5-.62-1.5-1.375V5h9v8.625C11.5 14.38 10.825 15 10 15zM6.5 6h-1v8h1V6zm2 0h-1v8h1V6zm2 0h-1v8h1V6zm-6 0h-1v8h1V6zM1.677 2h10.646c.65 0 1.177.444 1.177 1v2H.5V3c0-.552.526-1 1.177-1zM1.5 3v1h11V3h-11zm3-3h5v2h-5V0zm1 1v1h3V1h-3z"/>
    </symbol>

    <symbol viewBox="0 0 16 16" id="settings">
        <path d="M15.5 8.76v-1.6l-1.94-.64-.45-1.09.88-1.84-1.13-1.13-1.81.91-1.09-.45L9.27 1h-1.6l-.63 1.94-1.11.45-1.84-.88-1.13 1.13.91 1.81-.45 1.09-1.92.68v1.59l1.94.64.45 1.09-.88 1.84 1.13 1.13 1.81-.91 1.09.45.69 1.95h1.59l.63-1.97 1.11-.45 1.84.88 1.13-1.13-.92-1.81.47-1.09 1.92-.69v.02zm-7 2.23c-1.66 0-3-1.34-3-3s1.34-3 3-3 3 1.34 3 3-1.34 3-3 3z"/>
    </symbol>

    <symbol viewBox="0 0 16 16" id="options">
        <path d="M5 2H7V4H16V6H7V8H5V2ZM3.5 4H0V6H3L3.5 4ZM12 10H16V12H12V14H10V8H12V10ZM8.5 10H0V12H8L8.5 10Z"/>
    </symbol>

    <symbol viewBox="0 0 14 14" id="warning">
        <path d="M7 12A5 5 0 1 0 7 2a5 5 0 0 0 0 10zm0 2A7 7 0 1 0 7 0a7 7 0 0 0 0 14zm1-4a1 1 0 1 1-2 0 1 1 0 0 1 2 0zM7 3a1 1 0 0 0-1 1v3a1 1 0 0 0 2 0V4a1 1 0 0 0-1-1z"/>
    </symbol>

    <symbol viewBox="0 0 24 20" id="page_restore">
        <path d="M14 2C9.58172 2 6 5.58172 6 10H10L5 15L0 10H4C4 4.47715 8.47715 0 14 0C19.5228 0 24 4.47715 24 10C24 15.5228 19.5228 20 14 20C11.4395 20 9.10161 19.0363 7.33309 17.4535L8.66691 15.9632C10.0829 17.2306 11.9504 18 14 18C18.4183 18 22 14.4183 22 10C22 5.58172 18.4183 2 14 2ZM13 9V5H15V9H18V11H13V9Z" />
    </symbol>

    <symbol viewBox="0 0 14 14" id="copy">
        <path d="M2 0C0.89543 0 0 0.895431 0 2V9H2V2H9V0H2Z"/>
        <path d="M4 6C4 4.89543 4.89543 4 6 4H12C13.1046 4 14 4.89543 14 6V12C14 13.1046 13.1046 14 12 14H6C4.89543 14 4 13.1046 4 12V6ZM6 6H12V12H6V6Z"/>
    </symbol>

    <symbol viewBox="0 0 14 14" id="done">
        <path d="M1 6L0 7L5 12L14 3L13 2L5 10L1 6Z"/>
    </symbol>

    <symbol viewBox="0 0 28 28" id="delete-modal" fill="#FF4747">
        <path d="M20 15.97l7.878 1.39.087-.494a.5.5 0 0 0-.405-.58l-1.477-.26-.812-1.158-1.968-.347-1.16.812-1.476-.26a.5.5 0 0 0-.58.405L20 15.97zm2 9.04h4a1 1 0 0 0 1-1v-6h-6v6a1 1 0 0 0 1 1z"/>
        <path d="M0 5a2 2 0 0 1 2-2h24a2 2 0 0 1 2 2v8h-2V5H2v18h16v2H2a2 2 0 0 1-2-2V5z"/>
        <path d="M14 14a2 2 0 1 0 0-4 2 2 0 0 0 0 4zm0 1a3 3 0 1 0 0-6 3 3 0 0 0 0 6zM17 18H7v-1h11l-1 1zM15 20H9v-1h7l-1 1z"/>
    </symbol>

    <symbol viewBox="0 0 12 12" id="triangle-error">
        <path d="M5.62242 1.52024L1.12156 9.52123C0.758087 10.1876 1.2404 11.0001 1.99946 11.0001H11C11.7591 11.0001 12.2414 10.1876 11.8779 9.52123L7.37821 1.5201C6.9992 0.82524 6.00144 0.825375 5.62242 1.52024ZM6.00032 4.00008H7.00032V7.00008H6.00032V4.00008ZM7.00032 8.00008H6.00032V9.00008H7.00032V8.00008Z" />
    </symbol>

    <symbol viewBox="0 0 16 16" id="radius-single">
        <rect x="1" y="1" width="14" height="14" rx="2" fill="none" stroke="currentColor" stroke-width="2"/>
    </symbol>

    <symbol viewBox="0 0 16 16" id="radius-multiple" fill="none">
            <path d="M6 1H3C1.89543 1 1 1.89543 1 3V6" stroke="currentColor" stroke-width="2"/>
            <path d="M6 15H3C1.89543 15 1 14.1046 1 13V10" stroke="currentColor" stroke-width="2"/>
            <path d="M10 1H13C14.1046 1 15 1.89543 15 3V6" stroke="currentColor" stroke-width="2"/>
            <path d="M10 15H13C14.1046 15 15 14.1046 15 13V10" stroke="currentColor" stroke-width="2"/>
    </symbol>

    <symbol viewBox="0 0 16 16" id="radius-top-left" fill="none">
        <path d="M6 1H3C1.89543 1 1 1.89543 1 3V6" stroke="currentColor" stroke-width="2"/>
        <path opacity="0.2" d="M6 15H3C1.89543 15 1 14.1046 1 13V10" stroke="currentColor" stroke-width="2"/>
        <path opacity="0.2" d="M10 1H13C14.1046 1 15 1.89543 15 3V6" stroke="currentColor" stroke-width="2"/>
        <path opacity="0.2" d="M10 15H13C14.1046 15 15 14.1046 15 13V10" stroke="currentColor" stroke-width="2"/>
    </symbol>

    <symbol viewBox="0 0 16 16" id="radius-top-right" fill="none">
        <path opacity="0.2" d="M6 1H3C1.89543 1 1 1.89543 1 3V6" stroke="currentColor" stroke-width="2"/>
        <path opacity="0.2" d="M6 15H3C1.89543 15 1 14.1046 1 13V10" stroke="currentColor" stroke-width="2"/>
        <path d="M10 1H13C14.1046 1 15 1.89543 15 3V6" stroke="currentColor" stroke-width="2"/>
        <path opacity="0.2" d="M10 15H13C14.1046 15 15 14.1046 15 13V10" stroke="currentColor" stroke-width="2"/>
    </symbol>

    <symbol viewBox="0 0 16 16" id="radius-bottom-right" fill="none">
        <path opacity="0.2" d="M6 1H3C1.89543 1 1 1.89543 1 3V6" stroke="currentColor" stroke-width="2"/>
        <path opacity="0.2" d="M6 15H3C1.89543 15 1 14.1046 1 13V10" stroke="currentColor" stroke-width="2"/>
        <path opacity="0.2" d="M10 1H13C14.1046 1 15 1.89543 15 3V6" stroke="currentColor" stroke-width="2"/>
        <path d="M10 15H13C14.1046 15 15 14.1046 15 13V10" stroke="currentColor" stroke-width="2"/>
    </symbol>

    <symbol viewBox="0 0 16 16" id="radius-bottom-left" fill="none">
        <path opacity="0.2" d="M6 1H3C1.89543 1 1 1.89543 1 3V6" stroke="currentColor" stroke-width="2"/>
        <path d="M6 15H3C1.89543 15 1 14.1046 1 13V10" stroke="currentColor" stroke-width="2"/>
        <path opacity="0.2" d="M10 1H13C14.1046 1 15 1.89543 15 3V6" stroke="currentColor" stroke-width="2"/>
        <path opacity="0.2" d="M10 15H13C14.1046 15 15 14.1046 15 13V10" stroke="currentColor" stroke-width="2"/>
    </symbol>

    <symbol viewBox="0 0 16 16" id="padding-left">
        <rect width="2" height="16" opacity="0.65"/>
        <g opacity="0.15">
            <path d="M14 0H16V16H14V0Z"/>
            <path d="M4 0H14V2H4V0Z"/>
            <path d="M4 14H14V16H4V14Z"/>
        </g>
    </symbol>

    <symbol viewBox="0 0 16 16" id="padding-right">
        <rect x="14" width="2" height="16" opacity="0.65"/>
        <g opacity="0.15">
            <path d="M0 2H2V14H0V2Z"/>
            <path d="M0 0H12V2H0V0Z"/>
            <path d="M0 14H12V16H0V14Z"/>
        </g>
    </symbol>

    <symbol viewBox="0 0 16 16" id="padding-top">
        <rect width="16" height="2" opacity="0.65"/>
        <g opacity="0.15">
            <path d="M0 4H2V14H0V4Z"/>
            <path d="M14 4H16V14H14V4Z"/>
            <path d="M0 14H16V16H0V14Z"/>
        </g>
    </symbol>

    <symbol viewBox="0 0 16 16" id="padding-bottom">
        <g opacity="0.15">
            <path d="M0 2H2V12H0V2Z"/>
            <path d="M14 2H16V12H14V2Z"/>
            <path d="M0 0H16V2H0V0Z"/>
        </g>
        <rect y="14" width="16" height="2" opacity="0.65"/>
    </symbol>

    <symbol viewBox="0 0 16 16" id="padding-x">
        <g opacity="0.65">
            <path d="M0 0H2V16H0V0Z"/>
            <path d="M14 0H16V16H14V0Z"/>
        </g>
        <g opacity="0.15">
            <path d="M4 0H12V2H4V0Z"/>
            <path d="M4 14H12V16H4V14Z"/>
        </g>
    </symbol>

    <symbol viewBox="0 0 16 16" id="padding-y">
        <g opacity="0.15">
            <path d="M0 4H2V12H0V4Z"/>
            <path d="M14 4H16V12H14V4Z"/>
        </g>
        <g opacity="0.65">
            <path d="M0 0H16V2H0V0Z"/>
            <path d="M0 14H16V16H0V14Z"/>
        </g>
    </symbol>

    <symbol viewBox="0 0 16 16" id="padding-m">
        <path d="M7 0H9V16H7V0Z" opacity="0.65"/>
        <g opacity="0.15">
            <path d="M0 0H2V16H0V0Z"/>
            <path d="M14 0H16V16H14V0Z"/>
            <path d="M2 0H5V2H2V0Z"/>
            <path d="M11 0H14V2H11V0Z"/>
            <path d="M11 14H14V16H11V14Z"/>
            <path d="M2 14H5V16H2V14Z"/>
        </g>
    </symbol>

    <symbol viewBox="0 0 16 16" fill="none" id="radius-rectangle">
        <path d="M14 3H3V14" stroke="currentColor" stroke-width="2"/>
    </symbol>

    <symbol viewBox="0 0 16 16" fill="none" id="radius-squared">
        <path d="M14 3H3V14" stroke="currentColor" stroke-width="2"/>
    </symbol>

    <symbol viewBox="0 0 16 16" fill="none" id="radius-medium_squared">
        <path  d="M14 3H7C4.79086 3 3 4.79086 3 7V14" stroke="currentColor" stroke-width="2"/>
    </symbol>

    <symbol viewBox="0 0 16 16" fill="none" id="radius-rounded">
        <path d="M14 3H13C7.47715 3 3 7.47715 3 13V14" stroke="currentColor" stroke-width="2"/>
    </symbol>

    <symbol viewBox="0 0 16 16" fill="none" id="size-small">
        <rect x="3" y="3" width="10" height="10" rx="1" stroke="currentColor" stroke-width="2"/>
    </symbol>

    <symbol viewBox="0 0 16 16" fill="none" id="size-medium">
        <rect x="2" y="2" width="12" height="12" rx="1" stroke="currentColor" stroke-width="2"/>
    </symbol>

    <symbol viewBox="0 0 16 16" fill="none" id="size-large">
        <rect x="1" y="1" width="14" height="14" rx="1" stroke="currentColor" stroke-width="2"/>
    </symbol>
</svg>
