<svg xmlns="http://www.w3.org/2000/svg">
    <symbol viewBox="0 0 22 28" id="empty_list">
        <path d="M10.5858 0H11H19C20.6569 0 22 1.34315 22 3V25C22 26.6569 20.6569 28 19 28H3C1.34315 28 0 26.6569 0 25V11V10.5858L0.292893 10.2929L10.2929 0.292893L10.5858 0ZM19 2H12V9C12 10.6569 10.6569 12 9 12H2V25C2 25.5523 2.44772 26 3 26H19C19.5523 26 20 25.5523 20 25V3C20 2.44772 19.5523 2 19 2ZM3.41421 10H9C9.55229 10 10 9.55229 10 9V3.41421L3.41421 10ZM16 15V17H12V23H10V17H6V15H16Z" />
    </symbol>

    <symbol viewBox="0 0 16 16" id="remove">
        <path d="M11.1667 16C12.175 16 13 15.2286 13 14.2857V4H2V14.2857C2 15.2286 2.825 16 3.83333 16H11.1667ZM2.17659 1H12.8234C13.4732 1 14 1.44386 14 2V4H1V2C1 1.44772 1.52572 1 2.17659 1ZM5.5 0C5.22386 0 5 0.223858 5 0.5V1H10V0.5C10 0.223858 9.77614 0 9.5 0H5.5ZM1 3V4H14V3H1Z"/>
    </symbol>

    <symbol viewBox="0 0 16 16" id="file">
        <path d="M14 5V9C14 12.3137 11.3137 15 8 15V15C4.68629 15 2 12.3137 2 9V5C2 2.79086 3.79086 1 6 1V1C8.20914 1 10 2.79086 10 5V8C10 9.10457 9.10457 10 8 10V10C6.89543 10 6 9.10457 6 8V5" fill="none" stroke="currentColor" stroke-width="2"/>
    </symbol>

    <symbol viewBox="0 0 16 16" id="format_woff" fill="none">
        <path d="M12 14L12 4.82843L10.5858 3.41421L9.17157 2H4V7C4 7.55228 3.55228 8 3 8C2.44772 8 2 7.55228 2 7V2C2 0.895431 2.89543 0 4 0H9.17157C9.70201 0 10.2107 0.210714 10.5858 0.585787L12 2L13.4142 3.41421C13.7893 3.78929 14 4.29799 14 4.82843V14C14 15.1046 13.1046 16 12 16V14Z" fill="#3F5CFE"/>
        <path d="M8 2H12V6H10C8.89543 6 8 5.10457 8 4V2Z" fill="#3F5CFE"/>
        <path fill-rule="nonzero" d="M3.95783 9.71265C3.79913 9.18366 3.24164 8.88348 2.71265 9.04217C2.18366 9.20087 1.88348 9.75836 2.04217 10.2873L3.95783 9.71265ZM4.5 15L3.54217 15.2873C3.66435 15.6946 4.03071 15.9801 4.45549 15.999C4.88027 16.0179 5.27056 15.7662 5.42848 15.3714L4.5 15ZM6.5 10L7.42848 9.62861C7.27661 9.24895 6.9089 9 6.5 9C6.0911 9 5.72339 9.24895 5.57152 9.62861L6.5 10ZM8.5 15L7.57152 15.3714C7.72944 15.7662 8.11973 16.0179 8.54451 15.999C8.96929 15.9801 9.33565 15.6946 9.45783 15.2873L8.5 15ZM10.9578 10.2873C11.1165 9.75836 10.8163 9.20087 10.2873 9.04217C9.75836 8.88348 9.20087 9.18366 9.04217 9.71265L10.9578 10.2873ZM2.04217 10.2873L3.54217 15.2873L5.45783 14.7127L3.95783 9.71265L2.04217 10.2873ZM5.42848 15.3714L7.42848 10.3714L5.57152 9.62861L3.57152 14.6286L5.42848 15.3714ZM5.57152 10.3714L7.57152 15.3714L9.42848 14.6286L7.42848 9.62861L5.57152 10.3714ZM9.45783 15.2873L10.9578 10.2873L9.04217 9.71265L7.54217 14.7127L9.45783 15.2873Z" fill="#3F5CFE"/>
    </symbol>

    <symbol viewBox="0 0 16 16" id="format_truetype" fill="none">
        <path d="M8 15C8 14.4477 8.44772 14 9 14H12L12 4.82843L10.5858 3.41421L9.17157 2H4V7C4 7.55228 3.55228 8 3 8V8C2.44772 8 2 7.55228 2 7V2C2 0.895431 2.89543 0 4 0H9.17157C9.70201 0 10.2107 0.210714 10.5858 0.585787L12 2L13.4142 3.41421C13.7893 3.78929 14 4.29799 14 4.82843V14C14 15.1046 13.1046 16 12 16H9C8.44772 16 8 15.5523 8 15V15Z" fill="#56B157"/>
        <path d="M8 2H12V6H10C8.89543 6 8 5.10457 8 4V2Z" fill="#56B157"/>
        <rect x="2" y="9" width="6" height="2" fill="#56B157"/>
        <rect x="4" y="11" width="2" height="5" fill="#56B157"/>
    </symbol>

    <symbol viewBox="0 0 16 16" id="format_opentype" fill="none">
        <path d="M8 15C8 14.4477 8.44772 14 9 14H12L12 4.82843L10.5858 3.41421L9.17157 2H4V7C4 7.55228 3.55228 8 3 8C2.44772 8 2 7.55228 2 7V2C2 0.895431 2.89543 0 4 0H9.17157C9.70201 0 10.2107 0.210714 10.5858 0.585787L12 2L13.4142 3.41421C13.7893 3.78929 14 4.29799 14 4.82843V14C14 15.1046 13.1046 16 12 16H9C8.44772 16 8 15.5523 8 15Z" fill="#F3AE35"/>
        <rect x="3" y="10" width="3" height="5" rx="1" stroke="#F3AE35" stroke-width="2"/>
        <path d="M8 2H12V6H10C8.89543 6 8 5.10457 8 4V2Z" fill="#F3AE35"/>
    </symbol>

    <symbol viewBox="0 0 12 12" id="edit">
        <path d="M9.76977 0C9.22586 0 8.7357 0.218213 8.30058 0.600459L1.12142 7.80916C1.06703 7.86377 1.01222 7.97213 0.957827 8.02673L0.0336094 11.3031C-0.0751721 11.5762 0.0875752 11.9044 0.41392 11.959C0.522701 12.0137 0.631483 12.0137 0.685874 11.959L3.94932 11.0856C4.0581 11.0856 4.11249 11.0305 4.22127 10.9213L11.3473 3.82246C12.2176 2.94875 12.2176 1.52856 11.3473 0.654852C10.9122 0.163393 10.3137 0 9.76977 0ZM9.76977 1.09213C10.0417 1.09213 10.3681 1.20113 10.5856 1.41956C11.0208 1.85641 11.0205 2.51211 10.6398 2.94897L9.06226 1.36516C9.27983 1.20134 9.49781 1.09213 9.76977 1.09213ZM8.2464 2.12987L9.87812 3.76806L3.94932 9.72039L2.3176 8.13659L8.2464 2.12987ZM1.77369 9.17432L2.91674 10.3208L1.3392 10.7571L1.77369 9.17432Z"/>
    </symbol>

    <symbol viewBox="0 0 14 10" id="check">
        <path d="M1 4L0 5L5 10L14 1L13 0L5 8L1 4Z"/>
    </symbol>

    <symbol viewBox="0 0 16 16" id="tab_catalogue">
        <path d="M9 2L6.5681 11.7276C6.23422 13.0631 5.03427 14 3.65767 14H2" fill="none" stroke="currentColor" stroke-width="2"/>
        <path d="M15 2L4.99185 2C4.34803 2 3.71898 2.21077 3.20393 2.59706V2.59706C2.44851 3.16362 2 4.05573 2 5V5" fill="none" stroke="currentColor" stroke-width="2"/>
        <rect x="4" y="6" width="7" height="2" fill="currentColor"/>
    </symbol>

    <symbol viewBox="0 0 16 16" id="tab_user">
        <path d="M8 6C9.1 6 10 5.1 10 4C10 2.9 9.1 2 8 2C6.9 2 6 2.9 6 4C6 5.1 6.9 6 8 6ZM8 8C5.8 8 4 6.2 4 4C4 1.8 5.8 0 8 0C10.2 0 12 1.8 12 4C12 6.2 10.2 8 8 8ZM4.5 9H11.5C13.4 9 15 10.6 15 12.5V13C15 14.7 13.7 16 12 16H4C2.3 16 1 14.7 1 13V12.5C1 10.6 2.6 9 4.5 9ZM4.5 11C3.7 11 3 11.7 3 12.5V13C3 13.6 3.4 14 4 14H12C12.6 14 13 13.6 13 13V12.5C13 11.7 12.3 11 11.5 11H4.5Z"/>
    </symbol>

    <symbol viewBox="0 0 14 14" id="search">
        <path d="M10 5.82324C10 8.30852 7.98528 10.3232 5.5 10.3232C3.01472 10.3232 1 8.30852 1 5.82324C1 3.33796 3.01472 1.32324 5.5 1.32324C7.98528 1.32324 10 3.33796 10 5.82324ZM9.01953 10.0499C8.06578 10.8449 6.83875 11.3232 5.5 11.3232C2.46243 11.3232 0 8.86081 0 5.82324C0 2.78568 2.46243 0.323242 5.5 0.323242C8.53757 0.323242 11 2.78568 11 5.82324C11 7.16199 10.5217 8.38902 9.72663 9.34277L13.3536 12.9697L12.6464 13.6768L9.01953 10.0499Z" />
    </symbol>

    <symbol viewBox="0 0 16 16" id="local_fonts">
        <rect x="5" y="3" width="2" height="10"/>
        <rect x="11" y="10" width="2" height="3"/>
        <rect x="1" y="5" width="2" height="10" transform="rotate(-90 1 5)"/>
        <rect x="9" y="10" width="2" height="6" transform="rotate(-90 9 10)"/>
    </symbol>

    <symbol viewBox="0 0 16 16" id="google_fonts">
        <path d="M8.28888 15C4.32982 15 1 11.8591 1 8C1 4.14169 4.32982 1 8.28888 1C10.4801 1 12.039 1.83693 13.2137 2.92953L11.8277 4.2778C10.9872 3.51004 9.84853 2.91224 8.28888 2.91224C5.39776 2.91224 3.13742 5.18316 3.13742 8C3.13742 10.8176 5.39776 13.0885 8.28888 13.0885C10.1635 13.0885 11.233 12.3539 11.9168 11.6884C12.4769 11.1417 12.8457 10.3566 12.9847 9.28059H8.28888V7.36835H14.8955C14.9654 7.70974 15 8.12031 15 8.56397C15 9.99796 14.5966 11.7733 13.2997 13.0374C12.0382 14.3172 10.4271 15 8.28888 15Z"/>
    </symbol>

    <symbol viewBox="0 0 16 16" id="my_fonts">
        <path d="M9 4.5C9 5.32843 8.32843 6 7.5 6C6.67157 6 6 5.32843 6 4.5C6 3.67157 6.67157 3 7.5 3C8.32843 3 9 3.67157 9 4.5ZM11 4.5C11 6.433 9.433 8 7.5 8C5.567 8 4 6.433 4 4.5C4 2.567 5.567 1 7.5 1C9.433 1 11 2.567 11 4.5ZM3 12.3659C3 11.6115 3.61151 11 4.36585 11H10.6341C11.3885 11 12 11.6115 12 12.3659C12 12.7161 11.7161 13 11.3659 13H3.63415C3.28392 13 3 12.7161 3 12.3659ZM1 12.3659C1 10.5069 2.50694 9 4.36585 9H10.6341C12.4931 9 14 10.5069 14 12.3659C14 13.8207 12.8207 15 11.3659 15H3.63415C2.17935 15 1 13.8207 1 12.3659Z"/>
    </symbol>

    <symbol viewBox="0 0 12 12" id="href">
        <path d="M8.58579 2H7V0H11C11.5523 0 12 0.447715 12 1V5H10V3.41421L6.70711 6.70711L5.29289 5.29289L8.58579 2ZM10 10V7H12V10C12 11.1046 11.1046 12 10 12H2C0.895431 12 0 11.1046 0 10V2C0 0.895431 0.895431 0 2 0H5V2H2L2 10H10Z" />
    </symbol>

    <symbol viewBox="0 0 16 16" id="save_set">
        <path d="M6 5.5C6 4.11929 7.11929 3 8.5 3C9.88071 3 11 4.11929 11 5.5V6V7H12C13.1046 7 14 7.89543 14 9C14 10.1046 13.1046 11 12 11V13C14.2091 13 16 11.2091 16 9C16 7.13053 14.7175 5.5606 12.9844 5.12203C12.7924 2.81362 10.858 1 8.5 1C6.18372 1 4.27619 2.75002 4.02746 5H4C1.79086 5 0 6.79086 0 9C0 11.2091 1.79086 13 4 13V11C2.89543 11 2 10.1046 2 9C2 7.89543 2.89543 7 4 7H5H6V6V5.5ZM11 11H9V15H7V11H5L8 8L11 11Z"/>
    </symbol>

    <symbol viewBox="0 0 16 16" id="copy-css">
        <path d="M7.5 1C6.11929 1 5 2.11929 5 3.5V5H3C1.89543 5 1 5.89543 1 7V13C1 14.1046 1.89543 15 3 15H9C10.1046 15 11 14.1046 11 13V11H12.5C13.8807 11 15 9.88071 15 8.5V7H13V8.5C13 8.77614 12.7761 9 12.5 9H11V7C11 5.89543 10.1046 5 9 5H7V3.5C7 3.22386 7.22386 3 7.5 3H9V1H7.5ZM11 3H12.5C12.7761 3 13 3.22386 13 3.5V5H15V3.5C15 2.11929 13.8807 1 12.5 1H11V3ZM3 7H9V13H3L3 7Z" />
    </symbol>
</svg>
