<svg xmlns="http://www.w3.org/2000/svg" xmlns:xlink="http://www.w3.org/1999/xlink">
    <symbol viewBox="0 0 18 18" id="aim">
        <path d="M12.116 3.14a8 8 0 0 0-8.33 13.66A8 8 0 0 0 14.862 5.884L18 4h-4V0l-1.884 3.14zM11.6 4a7 7 0 1 0 2.402 2.4L12.29 7.425a5 5 0 1 1-1.716-1.714L11.602 4zm-1.543 2.57a4 4 0 0 0-4.163 6.83 4 4 0 0 0 5.536-5.458l-1.715 1.03a2 2 0 1 1-.686-.687l1.027-1.714z"/>
    </symbol>

    <symbol viewBox="0 0 13 16" id="delete">
        <path d="M10.167 16C11.175 16 12 15.23 12 14.286V4H1v10.286C1 15.23 1.825 16 2.833 16h7.334zM1.177 1h10.646C12.473 1 13 1.444 13 2v2H0V2c0-.552.526-1 1.177-1zM4 .5V1h5V.5a.5.5 0 0 0-.5-.5h-4a.5.5 0 0 0-.5.5zM0 3v1h13V3H0z" />
    </symbol>

    <symbol viewBox="0 0 16 16" id="settings">
        <path d="M12.89 11.477c.4-.56.705-1.192.893-1.872L16 9V7l-2.188-.497c-.186-.72-.5-1.39-.92-1.98l1.472-1.473-1.414-1.414-1.473 1.473c-.52-.37-1.1-.66-1.724-.85L9 0H7l-.753 2.26c-.624.19-1.204.48-1.724.85L3.05 1.635 1.636 3.05 3.11 4.523a5.974 5.974 0 0 0-.907 1.925L0 7v2l2.202.55c.187.7.498 1.35.907 1.927L1.635 12.95l1.414 1.414 1.473-1.473c.53.378 1.125.672 1.764.862L7 16h2l.794-2.273a5.978 5.978 0 0 0 1.683-.836l1.473 1.474 1.414-1.414-1.473-1.473zM8 12a4 4 0 1 0 0-8 4 4 0 0 0 0 8z"/>
    </symbol>

    <symbol viewBox="0 0 12 12" id="settings_sm"><path d="M6 9a3 3 0 1 1 0-6 3 3 0 0 1 0 6zm4.9-4a4.964 4.964 0 0 0-.798-1.86l.726-.726L9.414 1l-.76.76A4.97 4.97 0 0 0 7 1.1V0H5v1.1c-.638.13-1.233.38-1.757.728L2.413 1 1 2.414l.828.83A4.984 4.984 0 0 0 1.1 5H0v2h1.1a4.97 4.97 0 0 0 .66 1.653l-.76.76 1.414 1.415.727-.726c.55.384 1.18.66 1.86.798V12h2v-1.1a4.984 4.984 0 0 0 1.757-.728l.657.656 1.414-1.414-.656-.657c.347-.524.598-1.12.728-1.757H12V5h-1.1z"/></symbol>

    <symbol viewBox="0 0 13 16" id="stat">
        <path d="M5 16h3V0H5v16zm5 0h3V9h-3v7zM0 16h3V5H0v11z"/>
    </symbol>

    <symbol viewBox="0 0 16 16" fill="none" id="copy-link">
        <path fill-rule="evenodd" clip-rule="evenodd" d="M3 0C1.34315 0 0 1.34315 0 3V13C0 14.6569 1.34315 16 3 16H13C14.6569 16 16 14.6569 16 13V9H14V13C14 13.5523 13.5523 14 13 14H3C2.44772 14 2 13.5523 2 13V3C2 2.44772 2.44772 2 3 2H7V0H3ZM9.99978 4.58579L12.1211 2.46447C12.5116 2.07394 13.1448 2.07394 13.5353 2.46447C13.9258 2.85499 13.9258 3.48816 13.5353 3.87868L11.414 6L9.99978 4.58579ZM8.58557 6L9.99978 4.58579L8.58557 3.17157L10.7069 1.05025C11.8785 -0.121321 13.778 -0.121321 14.9495 1.05025C16.1211 2.22182 16.1211 4.12132 14.9495 5.29289L12.8282 7.41421L11.414 6L9.99978 7.41421L8.58557 6ZM8.58557 6L7.17135 4.58579L5.05003 6.70711C3.87846 7.87868 3.87846 9.77817 5.05003 10.9497C6.2216 12.1213 8.1211 12.1213 9.29267 10.9497L11.414 8.82843L9.99978 7.41421L7.87846 9.53553C7.48793 9.92606 6.85477 9.92606 6.46424 9.53553C6.07372 9.14501 6.07372 8.51184 6.46424 8.12132L8.58557 6Z" fill="currentColor"/>
    </symbol>

    <symbol viewBox="0 0 16 16" id="copy">
        <path d="M2 0C0.895431 0 0 0.89543 0 2V12H2V2L12 2V0H2ZM6 6H14V14H6V6ZM4 6C4 4.89543 4.89543 4 6 4H14C15.1046 4 16 4.89543 16 6V14C16 15.1046 15.1046 16 14 16H6C4.89543 16 4 15.1046 4 14V6Z"/>
    </symbol>

    <symbol viewBox="0 0 12 12" id="plus-small">
        <path d="M7 0H5V5H0V7H5V12H7V7H12V5H7V0Z" fill="#119A22"/>
    </symbol>

    <symbol viewBox="0 0 18 18" id="plus">
        <path d="M10 10h8V8h-8V0H8v8H0v2h8v8h2z"/>
    </symbol>

    <symbol viewBox="0 0 28 28" id="domain">
        <path d="M2.04 15a11.983 11.983 0 0 0 4.6 8.48C5.153 21.214 4.19 18.26 4.026 15H2.04zm0-2h1.985C4.19 9.738 5.152 6.785 6.64 4.52A11.983 11.983 0 0 0 2.04 13zm23.92 0a11.983 11.983 0 0 0-4.6-8.48c1.488 2.265 2.45 5.218 2.615 8.48h1.984zm0 2h-1.985c-.165 3.262-1.127 6.215-2.616 8.48a11.983 11.983 0 0 0 4.6-8.48zM6.026 15c.275 4.996 2.59 9.125 5.694 10.506-.966-2.35-1.622-6.153-1.71-10.506H6.027zm0-2h3.983c.088-4.353.744-8.156 1.71-10.506C8.62 3.874 6.303 8.004 6.028 13zm15.946 0c-.275-4.996-2.59-9.125-5.694-10.506.966 2.35 1.622 6.153 1.71 10.506h3.983zm0 2H17.99c-.088 4.353-.744 8.156-1.71 10.506 3.102-1.38 5.418-5.51 5.693-10.506zm-9.966 0c.085 6.16.945 11 1.993 11s1.908-4.84 1.993-11h-3.986zm0-2h3.986C15.908 6.84 15.048 2 14 2s-1.908 4.84-1.993 11zM14 28C6.268 28 0 21.732 0 14S6.268 0 14 0s14 6.268 14 14-6.268 14-14 14z"/>
    </symbol>

    <symbol viewBox="0 0 28 28" id="settings_base">
        <path d="M15 5.055V2h-2v3.055a8.957 8.957 0 0 0-4.618 1.913l-2.16-2.16-1.414 1.414 2.16 2.16A8.957 8.957 0 0 0 5.055 13H2v2h3.055a8.957 8.957 0 0 0 1.913 4.618l-2.16 2.16 1.414 1.414 2.16-2.16A8.957 8.957 0 0 0 13 22.945V26h2v-3.055a8.957 8.957 0 0 0 4.618-1.913l2.16 2.16 1.414-1.414-2.16-2.16A8.957 8.957 0 0 0 22.945 15H26v-2h-3.055a8.957 8.957 0 0 0-1.913-4.618l2.16-2.16-1.414-1.414-2.16 2.16A8.957 8.957 0 0 0 15 5.055zm8.606 3.582c.414.74.745 1.53.98 2.363h2.417c.55 0 .997.45.997.99v4.02a.99.99 0 0 1-.997.99h-2.417a10.933 10.933 0 0 1-.98 2.363l1.71 1.71a.998.998 0 0 1 .004 1.406l-2.84 2.84a.99.99 0 0 1-1.406-.004l-1.71-1.71c-.74.414-1.532.745-2.364.98v2.417c0 .55-.45.997-.99.997h-4.02a.99.99 0 0 1-.99-.997v-2.417a10.933 10.933 0 0 1-2.363-.98l-1.71 1.71a.99.99 0 0 1-1.406.004l-2.84-2.84a.998.998 0 0 1 .004-1.406l1.71-1.71c-.414-.74-.745-1.532-.98-2.364H.997A.998.998 0 0 1 0 16.01v-4.02c0-.546.44-.99.997-.99h2.417c.235-.832.566-1.624.98-2.363l-1.71-1.71A.998.998 0 0 1 2.68 5.52l2.84-2.84a.99.99 0 0 1 1.406.004l1.71 1.71c.74-.414 1.532-.745 2.364-.98V.997c0-.55.45-.997.99-.997h4.02c.546 0 .99.44.99.997v2.417c.832.235 1.624.566 2.363.98l1.71-1.71a.99.99 0 0 1 1.406-.004l2.84 2.84a.998.998 0 0 1-.004 1.406l-1.71 1.71zM14 20a6 6 0 1 0 0-12 6 6 0 0 0 0 12zm0-2a4 4 0 1 0 0-8 4 4 0 0 0 0 8z"/>
    </symbol>

    <symbol viewBox="0 0 28 28" id="settings_seo">
        <path d="M14 1.01V14h12.99c.007.166.01.333.01.5C27 21.956 20.956 28 13.5 28S0 21.956 0 14.5 6.044 1 13.5 1c.167 0 .334.003.5.01zm10.037 4.527a9.7 9.7 0 0 0-1.587-1.585L18 8.402V10h1.574l4.463-4.463zm1.096 1.732c.417.847.714 1.764.867 2.73h-3.598l2.73-2.73zm-4.418-4.41A9.573 9.573 0 0 0 18 2v3.574l2.715-2.715zM12 3C6.376 3.738 2 8.584 2 14.45 2 20.83 7.17 26 13.55 26 19.415 26 24.26 21.624 25 16H12V3zm15.99 9H16V.01c.166-.006.332-.01.5-.01C22.85 0 28 5.15 28 11.5c0 .168-.004.334-.01.5z"/>
    </symbol>

    <symbol viewBox="0 0 28 28" id="settings_socials">
        <path d="M9.9 15a4.972 4.972 0 0 1-.728 1.757l2.07 2.07a5 5 0 1 1-1.414 1.414l-2.07-2.07a5 5 0 1 1-.03-8.363l2.08-2.08a5 5 0 1 1 1.404 1.424l-2.06 2.06c.358.535.616 1.14.748 1.79h8.2a5.002 5.002 0 0 1 9.9 1 5 5 0 0 1-9.9 1H9.9zM14 8a3 3 0 1 0 0-6 3 3 0 0 0 0 6zm9 9a3 3 0 1 0 0-6 3 3 0 0 0 0 6zM5 17a3 3 0 1 0 0-6 3 3 0 0 0 0 6zm9 9a3 3 0 1 0 0-6 3 3 0 0 0 0 6z"/>
    </symbol>

    <symbol viewBox="0 0 30 28" id="settings_advanced">
        <path xmlns="http://www.w3.org/2000/svg" d="M8.153 26.294L19.888.574a1.127 1.127 0 0 1 1.55-.42c.54.317.727 1.02.414 1.57L10.1 27.43c-.31.546-.998.73-1.536.42a1.147 1.147 0 0 1-.41-1.556zM2.69 13.5l5 5.614a1.133 1.133 0 0 1 0 1.563 1.04 1.04 0 0 1-1.51 0l-5.87-6.35a1.12 1.12 0 0 1-.308-.82 1.12 1.12 0 0 1 .304-.834c.05-.05 5.873-6.347 5.873-6.347a1.044 1.044 0 0 1 1.51 0 1.132 1.132 0 0 1 0 1.563l-5 5.614V13.5zm24.625 0l-5 5.614a1.133 1.133 0 0 0 0 1.563 1.04 1.04 0 0 0 1.51 0l5.87-6.35c.21-.22.32-.518.306-.822a1.12 1.12 0 0 0-.304-.833c-.05-.05-5.873-6.346-5.873-6.346a1.044 1.044 0 0 0-1.51 0 1.132 1.132 0 0 0 0 1.563l5 5.614.002-.003z"/>
    </symbol>

    <symbol viewBox="0 0 14 12" id="home">
        <path d="M6 12V9.01a1 1 0 0 1 2 0V12h2.99c.558 0 1.01-.444 1.01-1V7h2L7 0 0 7h2v4a1 1 0 0 0 1.01 1H6z"/>
    </symbol>

    <symbol viewBox="0 0 16 14" id="set-home">
        <path d="M14 10V8.82843V8H16L14 6L9.41421 1.41421L8 0L6.58579 1.41421L2 6L0 8H2V8.82843V10V12V14H4H6H10H12H14V12V10ZM10 12V10C10 8.89543 9.10457 8 8 8C6.89543 8 6 8.89543 6 10V12H4V8V6.82843L8 2.82843L12 6.82843V8V12H10Z"/>
    </symbol>

    <symbol viewBox="0 0 16 26" id="select-mobile">
        <path d="M0 1.003A1 1 0 0 1 1 0h14c.552 0 1 .45 1 1.003v23.994A1 1 0 0 1 15 26H1c-.552 0-1-.45-1-1.003V1.003zM1 1v24h14V1H1zm7 22a1 1 0 1 1 0-2 1 1 0 0 1 0 2z"/>
    </symbol>

    <symbol viewBox="0 0 34 28" id="select-pc">
        <path d="M0 1C0 .45.455 0 1 0h32a1 1 0 0 1 1 1v22c0 .552-.455 1-1 1H1a1 1 0 0 1-1-1V1zm1 0v22h32V1H1zm24 27H9v-1h16v1zm-11-4h1v3h-1v-3zm5 0h1v3h-1v-3z"/>
    </symbol>

    <!-- статистика -->
    <symbol viewBox="0 0 18 18" id="lead">
        <path d="M15.51 7.245a8 8 0 1 1-4.755-4.756l-.902 1.804a6 6 0 1 0 3.853 3.854l1.804-.902zM8.944 6.113L8 8a2 2 0 1 0 2 2l1.887-.943a4 4 0 1 1-2.943-2.944zM14 4h4L8 10l6-10v4z"/>
    </symbol>

    <symbol viewBox="0 0 13 16" id="visit">
        <path d="M5 16h3V0H5v16zm5 0h3V9h-3v7zM0 16h3V5H0v11z"/>
    </symbol>

    <!--folders nav-->
    <symbol viewBox="0 0 18 4" id="dots">
        <path d="M4 2C4 3.10457 3.10457 4 2 4C0.895431 4 0 3.10457 0 2C0 0.895431 0.895431 0 2 0C3.10457 0 4 0.895431 4 2ZM11 2C11 3.10457 10.1046 4 9 4C7.89543 4 7 3.10457 7 2C7 0.895431 7.89543 0 9 0C10.1046 0 11 0.895431 11 2ZM16 4C17.1046 4 18 3.10457 18 2C18 0.895431 17.1046 0 16 0C14.8954 0 14 0.895431 14 2C14 3.10457 14.8954 4 16 4Z"/>
    </symbol>

    <symbol viewBox="0 0 18 18" id="folder">
        <path d="M2 1H5.38197C5.76074 1 6.107 1.214 6.27639 1.55279L7 3H14C15.1046 3 16 3.89543 16 5V13C16 14.1046 15.1046 15 14 15H2C0.895431 15 0 14.1046 0 13V5V3C0 1.89543 0.895431 1 2 1ZM2 5H14V13H2V5Z"/>
    </symbol>

    <symbol viewBox="0 0 16 14" id="home-page">
        <path d="M8 0L16 8H14V14H10V12C10 10.8954 9.10457 10 8 10C6.89543 10 6 10.8954 6 12V14H2V8H0L8 0Z"/>
    </symbol>

    <symbol viewBox="0 0 16 16" id="move-to-folder">
        <path d="M2 0H5.38197C5.76074 0 6.107 0.214002 6.27639 0.552786L7 2H14C15.1046 2 16 2.89543 16 4V9H14V4H2V12H7V14H2C0.895431 14 0 13.1046 0 12V4V2C0 0.895431 0.895431 0 2 0ZM9 13L12 16V14H16V12H12V10L9 13Z"/>
    </symbol>

    <symbol viewBox="0 0 18 18" id="move-to-root">
        <path d="M5.38208 0H2C0.895508 0 0 0.895432 0 2V12C0 13.1046 0.895508 14 2 14H5V12H2V4H14V8L16 10V4C16 2.89543 15.1045 2 14 2H7L6.27637 0.55278C6.10693 0.214005 5.76074 0 5.38208 0Z"/>
        <path d="M13 16L16 13L13 10V12H9V14H13V16Z"/>
        <path d="M7 8H9V14C7.89543 14 7 13.1046 7 12V8Z"/>
    </symbol>

    <symbol viewBox="0 0 18 18" id="rename">
        <path d="M1.01 16c-.12-1.52.796-4.377 2.093-5.844L7.758 4.75l3.36 3.188-4.655 5.406C5.166 14.81 2.725 16 1.01 16zM14.247 3.203c.36.34.402.848.096 1.187l-2.52 2.86-3.428-3.22 2.61-2.776c.305-.34.806-.34 1.167 0l2.075 1.95zM17 15H8l-1 1h10v-1z"/>
    </symbol>

    <symbol viewBox="0 0 6 10" id="arrow-right">
        <path d="M4 5L0 1L1 0L6 5L1 10L0 9L4 5Z"/>
    </symbol>

    <symbol viewBox="0 0 10 10" id="arrow-bottom">
        <path d="M5 6l4-4 1 1-5 5-5-5 1-1 4 4z"/>
    </symbol>

    <symbol viewBox="0 0 28 28" id="home-page-confirm">
        <path d="M14.49 2.52L27.21 17H23v9H5v-9H.662L14.49 2.52zM21 15h1.79L14.43 5.48 5.338 15H7v9h5v-4a2 2 0 0 1 4 0v4h5v-9z" fill="#56B157"/>
    </symbol>

    <symbol viewBox="0 0 28 28" id="delete-page-confirm">
        <path d="M5 3a2 2 0 0 1 2-2h10.414l.293.293 5 5 .293.293V14h-2V8h-5V3H7v22h8v2H7a2 2 0 0 1-2-2V3z" fill="#FF4747"/>
        <path d="M24.414 22l3.293-3.293-1.414-1.414L23 20.586l-3.293-3.293-1.414 1.414L21.586 22l-3.293 3.293 1.414 1.414L23 23.414l3.293 3.293 1.414-1.414L24.414 22z" fill="#FF4747"/>
    </symbol>

    <symbol viewBox="0 0 28 28" id="empty-folder">
        <path d="M7 0H6v10H4a2 2 0 0 0-2 2v14a2 2 0 0 0 2 2h20a2 2 0 0 0 2-2V15a2 2 0 0 0-2-2h-2V5.586l-.293-.293-5-5L16.414 0H7zm13 13V7h-5V2H8v8h3.37a2 2 0 0 1 1.64.858L14.5 13H20zm-1.414-8L17 3.414V5h1.586zM4 26V12h7.05a1 1 0 0 1 .833.445L13.586 15H24v11H4z"/>
    </symbol>

    <symbol viewBox="0 0 28 28" id="remove-folder-confirm">
        <path d="M26 14H28V8C28 6.89543 27.1046 6 26 6H15.2361C14.4785 6 13.786 5.572 13.4472 4.89443L12.5528 3.10557C12.214 2.428 11.5215 2 10.7639 2H2C0.895431 2 0 2.89543 0 4V22C0 23.1046 0.895431 24 2 24H16V22H2V4L10.7639 4L11.6584 5.78885C12.3359 7.14399 13.721 8 15.2361 8H26V14ZM4 10H11V11H4V10ZM4 13H24V14H4V13ZM18 17V16H4V17H18ZM21 26L20 25L23 22L20 19L21 18L24 21L27 18L28 19L25 22L28 25L27 26L24 23L21 26Z" fill="#FF4747"/>
    </symbol>

    <symbol viewBox="0 0 28 22" id="old-theme">
        <path fill-rule="evenodd"
              d="M26 2H2v2h24V2zM0 4a2 2 0 0 0 2 2v14a2 2 0 0 0 2 2h20a2 2 0 0 0 2-2V6a2 2 0 0 0 2-2V2a2 2 0 0 0-2-2H2a2 2 0 0 0-2 2v2zm4 2h20v14H4V6zm7 4H9v2a2 2 0 0 0 2 2h6a2 2 0 0 0 2-2v-2h-2v2h-6v-2z"/>
    </symbol>

    <symbol viewBox="0 0 16 10" id="sizer">
        <path d="M6 1H4V3H3V1H1V9H15V1H13V4H12V1H10V3H9V1H7V4H6V1ZM1 0H0V1V9V10H1H15H16V9V1V0H15H1Z" fill="currentColor"/>
    </symbol>

    <symbol viewBox="0 0 16 16" fill="none" id="info">
        <path d="M8 14C4.68629 14 2 11.3137 2 8C2 4.68629 4.68629 2 8 2C11.3137 2 14 4.68629 14 8C14 11.3137 11.3137 14 8 14ZM0 8C0 3.58172 3.58172 0 8 0C12.4183 0 16 3.58172 16 8C16 12.4183 12.4183 16 8 16C3.58172 16 0 12.4183 0 8ZM8 4C7.44772 4 7 4.44772 7 5C7 5.55228 7.44772 6 8 6C8.55229 6 9 5.55228 9 5C9 4.44772 8.55229 4 8 4ZM8 7H7H6V8C6 8 6.99951 8 7 8.99927V10C7 11 6 11 6 11V12L7 12H9H10V11C10 11 9 11 9 10L9 8C9 7.44772 8.55229 7 8 7Z" fill="currentColor"/>
    </symbol>

    <symbol viewBox="0 0 18 18" id="facebook">
        <path d="M9 0C13.9706 0 18 4.05406 18 9.055C18 13.5746 14.7088 17.3207 10.4062 18V18V11.6725H12.5033L12.5033 11.6724L12.9023 9.055V9.05496H10.4062V7.35643C10.4062 7.35083 10.4063 7.34524 10.4063 7.33965C10.407 7.25577 10.4124 7.17221 10.4234 7.09007C10.5054 6.47675 10.8947 5.94235 11.8729 5.94235H13.0078V5.94231V3.71397V3.71393C13.0078 3.71393 11.9779 3.53707 10.9932 3.53707C9.06586 3.53707 7.76447 4.63884 7.60934 6.64652C7.599 6.78035 7.59375 6.91821 7.59375 7.06003C7.59375 7.06005 7.59375 7.06006 7.59375 7.06007V9.05496H5.30859V9.055V11.6724V11.6725H7.59375V18V18C3.29117 17.3207 0 13.5746 0 9.055C0 4.05406 4.02943 0 9 0Z"/>
    </symbol>

    <symbol viewBox="0 0 18 18" id="instagram">
        <path d="M9.00002 0C6.55575 0 6.24926 0.0103604 5.28931 0.0541599C4.33137 0.0978523 3.67712 0.250007 3.10466 0.472506C2.51283 0.702472 2.01092 1.01021 1.51055 1.51055C1.01021 2.01092 0.702472 2.51283 0.472506 3.10466C0.250007 3.67712 0.0978523 4.33137 0.0541599 5.28931C0.0103604 6.24926 0 6.55575 0 9.00002C0 11.4443 0.0103604 11.7507 0.0541599 12.7107C0.0978523 13.6686 0.250007 14.3229 0.472506 14.8953C0.702472 15.4872 1.01021 15.9891 1.51055 16.4895C2.01092 16.9898 2.51283 17.2975 3.10466 17.5275C3.67712 17.75 4.33137 17.9021 5.28931 17.9458C6.24926 17.9896 6.55575 18 9.00002 18C11.4443 18 11.7507 17.9896 12.7107 17.9458C13.6686 17.9021 14.3229 17.75 14.8953 17.5275C15.4872 17.2975 15.9891 16.9898 16.4895 16.4895C16.9898 15.9891 17.2975 15.4872 17.5275 14.8953C17.75 14.3229 17.9021 13.6686 17.9458 12.7107C17.9896 11.7507 18 11.4443 18 9.00002C18 6.55575 17.9896 6.24926 17.9458 5.28931C17.9021 4.33137 17.75 3.67712 17.5275 3.10466C17.2975 2.51283 16.9898 2.01092 16.4895 1.51055C15.9891 1.01021 15.4872 0.702472 14.8953 0.472506C14.3229 0.250007 13.6686 0.0978523 12.7107 0.0541599C11.7507 0.0103604 11.4443 0 9.00002 0ZM8.99998 1.62164C11.4031 1.62164 11.6877 1.63082 12.6367 1.67412C13.5142 1.71413 13.9908 1.86075 14.3079 1.984C14.728 2.14727 15.0278 2.34229 15.3427 2.65725C15.6577 2.97217 15.8527 3.27198 16.016 3.69208C16.1392 4.00921 16.2859 4.48575 16.3259 5.36325C16.3692 6.31226 16.3783 6.59692 16.3783 9.00004C16.3783 11.4031 16.3692 11.6878 16.3259 12.6368C16.2859 13.5143 16.1392 13.9908 16.016 14.308C15.8527 14.7281 15.6577 15.0279 15.3427 15.3428C15.0278 15.6577 14.728 15.8528 14.3079 16.016C13.9908 16.1393 13.5142 16.2859 12.6367 16.3259C11.6879 16.3692 11.4032 16.3784 8.99998 16.3784C6.59669 16.3784 6.3121 16.3692 5.36319 16.3259C4.4857 16.2859 4.00916 16.1393 3.69202 16.016C3.27192 15.8528 2.97212 15.6577 2.65719 15.3428C2.34227 15.0279 2.14721 14.7281 1.98395 14.308C1.86069 13.9908 1.71408 13.5143 1.67406 12.6368C1.63076 11.6878 1.62158 11.4031 1.62158 9.00004C1.62158 6.59692 1.63076 6.31226 1.67406 5.36325C1.71408 4.48575 1.86069 4.00921 1.98395 3.69208C2.14721 3.27198 2.34224 2.97217 2.65719 2.65725C2.97212 2.34229 3.27192 2.14727 3.69202 1.984C4.00916 1.86075 4.4857 1.71413 5.36319 1.67412C6.3122 1.63082 6.59687 1.62164 8.99998 1.62164ZM4.37827 9.00002C4.37827 6.44753 6.44742 4.37838 8.99991 4.37838C11.5524 4.37838 13.6215 6.44753 13.6215 9.00002C13.6215 11.5525 11.5524 13.6216 8.99991 13.6216C6.44742 13.6216 4.37827 11.5525 4.37827 9.00002ZM8.99987 12C7.34299 12 5.99985 10.6569 5.99985 9.00004C5.99985 7.34316 7.34299 6.00002 8.99987 6.00002C10.6567 6.00002 11.9999 7.34316 11.9999 9.00004C11.9999 10.6569 10.6567 12 8.99987 12ZM13.8043 5.27578C14.4008 5.27578 14.8844 4.79227 14.8844 4.1958C14.8844 3.59932 14.4008 3.11578 13.8043 3.11578C13.2079 3.11578 12.7244 3.59932 12.7244 4.1958C12.7244 4.79227 13.2079 5.27578 13.8043 5.27578Z"/>
    </symbol>

    <symbol viewBox="0 0 18 18" id="telegram">
        <path d="M0.258296 8.49818C2.00767 7.51839 3.96045 6.70066 5.78503 5.87874C8.92401 4.5325 12.0755 3.20959 15.2587 1.97798C15.878 1.76813 16.9909 1.56296 17.1 2.49621C17.0403 3.81722 16.7945 5.13049 16.6259 6.44376C16.198 9.33176 15.7033 12.2099 15.2211 15.0884C15.0548 16.0471 13.8736 16.5435 13.1178 15.9299C11.3013 14.6824 9.47085 13.4469 7.67757 12.1704C7.09008 11.5634 7.63492 10.692 8.15944 10.2585C9.65554 8.75926 11.2422 7.48568 12.6601 5.90904C13.0426 4.96983 11.9125 5.76132 11.5397 6.00389C9.49155 7.43902 7.4935 8.96176 5.33409 10.223C4.23106 10.8404 2.94547 10.3128 1.84294 9.9683C0.854391 9.55214 -0.594197 9.13281 0.258171 8.49831L0.258296 8.49818Z"/>
    </symbol>

    <symbol viewBox="0 0 18 18" id="vkontakte">
        <path d="M0 8.64C0 4.5675 0 2.53069 1.26562 1.26562C2.53125 0.000562459 4.5675 0 8.64 0H9.36C13.4325 0 15.4693 0 16.7344 1.26562C17.9994 2.53125 18 4.5675 18 8.64V9.36C18 13.4325 18 15.4693 16.7344 16.7344C15.4688 17.9994 13.4325 18 9.36 18H8.64C4.5675 18 2.53069 18 1.26562 16.7344C0.000562459 15.4688 0 13.4325 0 9.36V8.64Z"/>
        <path d="M9.61394 13.1248C5.55269 13.1248 3.08894 10.3072 2.99219 5.625H5.04925C5.11337 9.06469 6.67769 10.5221 7.8775 10.8219V5.625H9.8485V8.59331C11.0056 8.46506 12.2166 7.11506 12.6239 5.625H14.5645C14.2534 7.45706 12.9349 8.80706 12.0034 9.36394C12.9361 9.8145 14.4357 10.9929 15.0145 13.1248H12.8821C12.4321 11.7 11.3284 10.5964 9.84962 10.4462V13.1248H9.61394Z" fill="white"/>
    </symbol>

    <symbol viewBox="0 0 16 16" fill="none" id="info-warning">
        <path fill-rule="evenodd" clip-rule="evenodd" d="M16 8C16 12.4183 12.4183 16 8 16C3.58172 16 0 12.4183 0 8C0 3.58172 3.58172 0 8 0C12.4183 0 16 3.58172 16 8ZM9 4V6H7V4H9ZM9 12V8H7V12H9Z" fill="#30343B"/>
    </symbol>

    <symbol viewBox="0 0 16 16" fill="none" id="locked">
        <path fill-rule="evenodd" clip-rule="evenodd" d="M12 4.81057V4C12 1.79086 10.2092 0 8 0C5.79083 0 4 1.79086 4 4V4.80919H6V4C6 2.89543 6.89545 2 8 2C9.10455 2 10 2.89543 10 4V4.81023L12 4.81057ZM11 6C12.6569 6 14 7.34315 14 9V13C14 14.6569 12.6569 16 11 16H5C3.34314 16 2 14.6569 2 13V9C2 7.34315 3.34314 6 5 6H11ZM4 9C4 8.44771 4.44769 8 5 8H11C11.5523 8 12 8.44771 12 9V13C12 13.5523 11.5523 14 11 14H5C4.44769 14 4 13.5523 4 13V9Z" fill="#30343B"/>
    </symbol>
</svg>
