<svg xmlns="http://www.w3.org/2000/svg">
    <symbol viewBox="0 0 64 64" id="logo">
        <g clip-path="url(#clip0_1601_5)">
        <rect width="64" height="64" rx="4" fill="#8E1053"/>
        <path d="M15.2828 50.6668V45.6715H28.6445V50.6668H15.2828ZM10.668 50.6668V13.3335H16.8927V50.6668H10.668ZM40.2249 18.2762V13.3335H44.7861V18.2762H40.2249ZM40.2249 36.7851V31.8424H44.7861V36.7851H40.2249ZM49.7766 26.5842V23.5344H56.0013V26.5842H49.7766ZM56.0013 23.587H49.7766C49.7766 21.9044 49.3294 20.6074 48.4351 19.6959C47.5407 18.7495 46.3065 18.2762 44.7324 18.2762V13.3335C46.9504 13.3335 48.9002 13.7717 50.5815 14.6481C52.2629 15.5244 53.5865 16.7338 54.5524 18.2762C55.5184 19.8186 56.0013 21.5889 56.0013 23.587ZM56.0013 26.5316C56.0013 28.5297 55.5184 30.3 54.5524 31.8424C53.5865 33.3848 52.2629 34.5942 50.5815 35.4706C48.9002 36.347 46.9504 36.7851 44.7324 36.7851V31.8424C46.3065 31.8424 47.5407 31.3867 48.4351 30.4753C49.3294 29.5288 49.7766 28.2142 49.7766 26.5316H56.0013ZM35.3417 50.6668V13.3335H41.5664V50.6668H35.3417Z" fill="white"/>
        </g>
        <defs>
        <clipPath id="clip0_1601_5">
        <rect width="64" height="64" fill="white"/>
        </clipPath>
        </defs>
    </symbol>

    <symbol viewBox="0 0 18 18" id="logo_p">
        <path d="M14.9984 3.31085L12.6266 0.939117C12.1101 0.422609 11.0898 0 10.3594 0H2.39062C1.66016 0 1.0625 0.597656 1.0625 1.32812V15.6719C1.0625 16.4023 1.66016 17 2.39062 17H14.6094C15.3398 17 15.9375 16.4023 15.9375 15.6719V5.57812C15.9375 4.84766 15.5149 3.82736 14.9984 3.31085ZM14.2471 4.06217C14.2991 4.11413 14.3509 4.17795 14.4012 4.25H11.6875V1.53637C11.7596 1.58668 11.8234 1.63847 11.8753 1.69044L14.2471 4.06217ZM14.875 15.6719C14.875 15.8158 14.7533 15.9375 14.6094 15.9375H2.39062C2.24666 15.9375 2.125 15.8158 2.125 15.6719V1.32812C2.125 1.18416 2.24666 1.0625 2.39062 1.0625H10.3594C10.4396 1.0625 10.5296 1.07263 10.625 1.09079V5.3125H14.8467C14.8649 5.40789 14.875 5.49787 14.875 5.57812V15.6719Z" />
        <path d="M4.449 5.61C4.563 5.61 4.641 5.634 4.683 5.682C4.731 5.724 4.755 5.802 4.755 5.916V10.947H7.338C7.452 10.947 7.53 10.971 7.572 11.019C7.62 11.061 7.644 11.139 7.644 11.253V11.694C7.644 11.808 7.62 11.889 7.572 11.937C7.53 11.979 7.452 12 7.338 12H3.936C3.822 12 3.741 11.979 3.693 11.937C3.645 11.889 3.621 11.808 3.621 11.694V5.916C3.621 5.802 3.645 5.724 3.693 5.682C3.741 5.634 3.822 5.61 3.936 5.61H4.449Z" />
        <path d="M11.321 7.61C11.975 7.61 12.491 7.796 12.869 8.168C13.253 8.54 13.445 9.05 13.445 9.698C13.445 10.346 13.253 10.856 12.869 11.228C12.491 11.594 11.975 11.777 11.321 11.777H9.755V13.694C9.755 13.808 9.731 13.889 9.683 13.937C9.641 13.979 9.563 14 9.449 14H8.936C8.822 14 8.741 13.979 8.693 13.937C8.645 13.889 8.621 13.808 8.621 13.694V7.916C8.621 7.802 8.645 7.724 8.693 7.682C8.741 7.634 8.822 7.61 8.936 7.61H11.321ZM11.213 10.724C11.543 10.724 11.798 10.634 11.978 10.454C12.164 10.274 12.257 10.022 12.257 9.698C12.257 9.374 12.164 9.122 11.978 8.942C11.798 8.756 11.543 8.663 11.213 8.663H9.755V10.724H11.213Z" />
    </symbol>

    <symbol viewBox="0 0 32 32" id="logo0">
        <path d="M12.9409 15.6787V27.1975V27.3049C12.9193 27.7665 12.757 28.1529 12.4324 28.4643C12.1078 28.7756 11.7183 28.9259 11.253 28.9259C10.8094 28.9259 10.4199 28.7756 10.1062 28.4643C9.78159 28.1529 9.6193 27.7772 9.59766 27.3371V15.6787C9.63011 15.2385 9.80323 14.8628 10.117 14.5622C10.4308 14.2616 10.8203 14.1113 11.2855 14.1113C11.7291 14.1113 12.1186 14.2616 12.454 14.5729C12.7786 14.8843 12.9409 15.2493 12.9409 15.6787ZM16.1543 17.246C15.5809 17.246 15.1048 17.3211 14.7045 17.4822C14.315 17.6432 13.9904 17.8686 13.7415 18.1692V15.1419C14.131 14.8413 14.5963 14.5944 15.1156 14.4012C15.6458 14.2079 16.295 14.1113 17.0848 14.1113C18.2208 14.1113 19.1513 14.3046 19.8654 14.691C20.5795 15.0775 21.1313 15.5713 21.5424 16.1725C21.9428 16.7737 22.2132 17.4285 22.3431 18.1263C22.4729 18.8241 22.5486 19.4789 22.5486 20.0801V27.2727C22.5486 27.7343 22.3864 28.1207 22.0618 28.4428C21.7372 28.7648 21.3477 28.9259 20.8824 28.9259C20.4172 28.9259 20.0169 28.7648 19.6923 28.4428C19.3569 28.1207 19.1946 27.7343 19.1946 27.2727V20.9067C19.1946 20.3914 19.1405 19.9083 19.0431 19.4574C18.9457 19.0066 18.7834 18.6201 18.5454 18.2873C18.3182 17.9653 18.0044 17.7076 17.6041 17.5144C17.2363 17.3319 16.7494 17.246 16.1543 17.246Z" />
        <path d="M16 5.50385C22.2342 5.50385 27 10.2111 27 16H30C30 8.82897 23.7119 3 16 3C8.28814 3 2 8.82897 2 16H5C4.98921 10.2111 9.76579 5.50385 16 5.50385Z"/>
        <path d="M3.5 18C4.32843 18 5 17.1046 5 16C5 14.8954 4.32843 14 3.5 14C2.67157 14 2 14.8954 2 16C2 17.1046 2.67157 18 3.5 18Z"/>
        <path d="M28.5 18C29.3284 18 30 17.1046 30 16C30 14.8954 29.3284 14 28.5 14C27.6716 14 27 14.8954 27 16C27 17.1046 27.6716 18 28.5 18Z"/>
    </symbol>

    <symbol viewBox="0 0 12 16" id="alert">
        <path d="M1 6c0-2.42 1.72-4.44 4.005-4.9a1 1 0 1 1 1.99 0A5.002 5.002 0 0 1 11 6v5H9V6a3 3 0 0 0-6 0v5H1V6zm6.732 7a2 2 0 1 1-3.465 0H0v-1c0-.552.456-1 1.002-1h9.996A1 1 0 0 1 12 12v1H7.732z"/>
    </symbol>

    <symbol viewBox="0 0 18 18" id="leads">
        <path d="M10.756 2.49a8 8 0 1 0 4.755 4.756l-1.805.9a6 6 0 1 1-3.852-3.854l.902-1.804zM8.944 6.112a4 4 0 1 0 2.943 2.944L10 10a2 2 0 1 1-2-2l.944-1.887zM14 4V0L8 10l10-6h-4z"/>
    </symbol>

    <symbol viewBox="0 0 13 16" id="pages">
        <path d="M3 3V1a1 1 0 0 1 1-1h8a1 1 0 0 1 1 1v11a1 1 0 0 1-1 1h-2v2.07a.92.92 0 0 1-.91.93H.91a.92.92 0 0 1-.91-.93V3.93C0 3.414.406 3 .91 3H3zm7 9h1.5c.27 0 .5-.224.5-.5v-10c0-.27-.224-.5-.5-.5h-7c-.27 0-.5.224-.5.5V3h5.09c.503 0 .91.415.91.93V12z"/>
    </symbol>

    <symbol viewBox="0 0 16 16" id="preview">
        <path fill-rule="evenodd" clip-rule="evenodd" d="M8 2C4.36364 2 1.23636 4.48 0 8C1.23636 11.52 4.36364 14 8 14C11.6364 14 14.7636 11.52 16 8C14.7636 4.48 11.6364 2 8 2ZM8 12C5.76 12 4 10.24 4 8C4 5.76 5.76 4 8 4C10.24 4 12 5.76 12 8C12 10.24 10.24 12 8 12ZM7 8C6.44 8 6 7.56 6 7C6 6.44 6.44 6 7 6C7.56 6 8 6.44 8 7C8 7.56 7.56 8 7 8Z" fill="white"/>
    </symbol>

    <symbol viewBox="0 0 18 16" id="restore">
        <path d="M10 8V5H9v4h4V8h-3zM2.062 7A8 8 0 0 1 18 8a8 8 0 0 1-13.846 5.46L5.38 11.83A6 6 0 1 0 4.083 7H2.06zM6 7l-3 4-3-4h6z"/>
    </symbol>

    <symbol viewBox="0 0 18 18" id="plus">
        <path d="M10 10h8V8h-8V0H8v8H0v2h8v8h2z"/>
    </symbol>

    <symbol viewBox="0 0 16 16" id="settings">
        <path d="M12.89 11.477c.4-.56.705-1.192.893-1.872L16 9V7l-2.188-.497c-.186-.72-.5-1.39-.92-1.98l1.472-1.473-1.414-1.414-1.473 1.473c-.52-.37-1.1-.66-1.724-.85L9 0H7l-.753 2.26c-.624.19-1.204.48-1.724.85L3.05 1.635 1.636 3.05 3.11 4.523a5.974 5.974 0 0 0-.907 1.925L0 7v2l2.202.55c.187.7.498 1.35.907 1.927L1.635 12.95l1.414 1.414 1.473-1.473c.53.378 1.125.672 1.764.862L7 16h2l.794-2.273a5.978 5.978 0 0 0 1.683-.836l1.473 1.474 1.414-1.414-1.473-1.473zM8 12a4 4 0 1 0 0-8 4 4 0 0 0 0 8z"/>
    </symbol>

    <symbol viewBox="0 0 13 16" id="stat">
        <path d="M5 16h3V0H5v16zm5 0h3V9h-3v7zM0 16h3V5H0v11z"/>
    </symbol>

    <symbol viewBox="0 0 16 16" id="history">
        <path d="M8 8h3v1H7V5h1v3zm0 8A8 8 0 1 1 8 0a8 8 0 0 1 0 16zm0-2A6 6 0 1 0 8 2a6 6 0 0 0 0 12z"/>
    </symbol>

    <symbol viewBox="0 0 17 16" id="font">
        <path d="M14 8v8h-2V8H9V6h8v2h-3zM7 2v14H5V2H0V0h12v2H7z"/>
    </symbol>

    <symbol viewBox="0 0 18 16" id="modals">
        <path d="M0 1.994C0 .894.893 0 1.995 0h14.01C17.107 0 18 .895 18 1.994v12.012c0 1.1-.893 1.994-1.995 1.994H1.995A1.996 1.996 0 0 1 0 14.006V1.994zM3 2a1 1 0 0 0-1 1v10a1 1 0 0 0 1 1h12a1 1 0 0 0 1-1V3a1 1 0 0 0-1-1H3zm10 2c0-.56.44-1 1-1s1 .44 1 1-.44 1-1 1-1-.44-1-1z"/>
    </symbol>

    <symbol viewBox="0 0 18 16" id="widget">
        <path d="M3 2.003C3 .897 3.893 0 4.992 0h11.016C17.108 0 18 .894 18 2.003v8.994A1.998 1.998 0 0 1 16.008 13H4.992C3.892 13 3 12.106 3 10.997V2.003zM6 2a1 1 0 0 0-1 1v7a1 1 0 0 0 1 1h9a1 1 0 0 0 1-1V3a1 1 0 0 0-1-1H6zM0 14.5c0-.84.66-1.5 1.5-1.5s1.5.66 1.5 1.5S2.34 16 1.5 16 0 15.34 0 14.5z"/>
    </symbol>

    <symbol viewBox="0 0 14 14" id="done">
        <path d="M2.707107,7.29289 C2.316582,6.90237 1.683418,6.90237 1.292893,7.29289 C0.90237,7.68342 0.90237,8.31658 1.292893,8.70711 L2.707107,7.29289 Z M5,11 L4.29289,11.70711 C4.68342,12.09763 5.31658,12.09763 5.70711,11.70711 L5,11 Z M12.7071,4.707107 C13.0976,4.316582 13.0976,3.683418 12.7071,3.292893 C12.3166,2.90237 11.68342,2.90237 11.29289,3.292893 L12.7071,4.707107 Z M1.292893,8.70711 L4.29289,11.70711 L5.70711,10.29289 L2.707107,7.29289 L1.292893,8.70711 Z M5.70711,11.70711 L12.7071,4.707107 L11.29289,3.292893 L4.29289,10.29289 L5.70711,11.70711 Z" fill-rule="nonzero"></path>
    </symbol>

    <symbol viewBox="0 0 14 14" id="copy">
        <path id="path0_fill" fill-rule="evenodd" d="M 6 4L 6 2L 12 2L 12 8L 10 8L 10 5.5C 10 4.67163 9.32837 4 8.5 4L 6 4ZM 4 4L 1.5 4C 0.671631 4 0 4.67163 0 5.5L 0 12.5C 0 13.3284 0.671631 14 1.5 14L 8.5 14C 9.32837 14 10 13.3284 10 12.5L 10 10L 12.5 10C 13.3284 10 14 9.32837 14 8.5L 14 1.5C 14 0.671631 13.3284 0 12.5 0L 5.5 0C 4.67163 0 4 0.671631 4 1.5L 4 4ZM 2 12L 2 6L 8 6L 8 12L 2 12Z"/>
    </symbol>

    <symbol viewBox="0 0 18 14" id="onboarding_icon">
        <path d="M2.06 6.144L0 5l2.06-1.144L9 0l6.94 3.856L18 5l-2.06 1.144-.94.523v3.92c0 .52-.208 1.077-.678 1.46C13.576 12.657 11.64 14 9 14s-4.576-1.344-5.322-1.953A1.874 1.874 0 0 1 3 10.587v-3.92l-.94-.523zM5 7.778v2.766C5.63 11.046 7.092 12 9 12s3.37-.954 4-1.456V7.778L9 10 5 7.778zm4-.066L4.118 5 9 2.288 13.882 5 9 7.712z" fill="#fff"/>
    </symbol>

    <symbol viewBox="0 0 14 10" id="check_mark">
        <path d="M2 5l3 3 7-6" fill="none" stroke="#56B157" stroke-width="2" stroke-linecap="square"/>
    </symbol>

    <symbol viewBox="0 0 16 12" id="repeat_mark">
        <path d="M5.998 0h-1A3.006 3.006 0 0 0 2 3.006V8h2V3.506C4 2.676 4.674 2 5.506 2H9v-.002L10.494 0H5.997zM5.5 12H11c1.657 0 3-1.35 3-3.006V4h-2v4.494c0 .83-.674 1.506-1.506 1.506H7v.002L5.5 12zM10 4h6l-3-4-3 4zM6 8H0l3 4 3-4z" fill="#30343B"/>
    </symbol>

    <symbol viewBox="0 0 16 16" id="chat">
        <path d="M3 10V12L6.5 10H13C13.5523 10 14 9.55229 14 9V1C14 0.447715 13.5523 0 13 0H1C0.447715 0 0 0.447715 0 1V9C0 9.55229 0.447715 10 1 10H3Z" transform="translate(1 2)" fill="none" stroke="#56B157" stroke-width="2" stroke-linecap="square"/>
    </symbol>

    <symbol viewBox="0 0 16 16" id="help">
        <path
              d="M3.572 4.342C3.356 4.21 3.162 4.092 3 4v.572l.572-.23zM3 8.262v3.868c.417.797 2 2.87 5 2.87s4.583-2.073 5-2.87V8.26l-2 .803v2.487A3.746 3.746 0 0 1 8 13c-1.584 0-2.56-.88-3-1.45V9.063L3 8.26zm10-3.69l-.572-.23c.216-.132.41-.25.572-.342v.572z"
              fill="#56B157"/>
        <path d="M14 4h2v6h-2V4z" fill="#56B157"/>
        <path d="M13.764 4L8 6.882 2.236 4 8 1.118 13.764 4z" fill="none" stroke="#56B157" stroke-width="2"/>
    </symbol>

    <symbol viewBox="0 0 15 15" id="phone">
        <path d="M.013 3.694c.052-.91.883-2.17 1.813-2.977.303-.263.722-.214.942.07.91 1.17 2.228 3.057 1.83 3.456L3.443 5.396c-.213.555-.126 2.18 1.927 4.233 2.055 2.052 3.68 2.14 4.234 1.926l1.153-1.153c.4-.4 2.285.92 3.458 1.83.283.22.332.638.068.94-.807.93-2.066 1.762-2.976 1.814-3.146.182-5.662-1.627-7.665-3.63-2.002-2-3.81-4.518-3.63-7.663z"
              fill="#30343B" fill-opacity=".3"/>
        <path
              d="M8.925 6.066C8.258 5.4 7.41 5 6.62 5V3.57c1.255 0 2.45.62 3.316 1.486.867.866 1.487 2.06 1.487 3.31h-1.43c0-.787-.402-1.635-1.068-2.3zM11.543 3.45c-1.24-1.238-2.856-2.02-4.412-2.02V0c2.022 0 3.983 1.002 5.425 2.44C13.997 3.88 15 5.84 15 7.858h-1.43c0-1.553-.786-3.166-2.027-4.406z"
              fill="#30343B" fill-opacity=".3"/>
    </symbol>

    <symbol viewBox="0 0 16 16" id="tasks">
        <circle cx="8" cy="8" r="7" fill="none" stroke="#56B157" stroke-width="2"/>
        <path d="M8 4a4 4 0 0 0-4 4h4V4z" fill="#56B157"/>
    </symbol>

    <symbol viewBox="0 0 16 16" fill="none" id="help-flexbe">
        <path fill-rule="evenodd" clip-rule="evenodd"
              d="M14 2H2v12h12V2zM2 0a2 2 0 0 0-2 2v12a2 2 0 0 0 2 2h12a2 2 0 0 0 2-2V2a2 2 0 0 0-2-2H2zm5 4h2v1.5l-2 1V4zm2 3L7 8v4h2V7z"
              fill="#56B157"/>
    </symbol>

    <symbol viewBox="0 0 16 16" fill="none" id="hotkeys">
        <path d="M4 4V3C4 2.44772 3.55228 2 3 2C2.44772 2 2 2.44772 2 3C2 3.55228 2.44772 4 3 4H4ZM4 6H3C1.34315 6 0 4.65685 0 3C0 1.34315 1.34315 0 3 0C4.65685 0 6 1.34315 6 3V4H10V3C10 1.34315 11.3431 0 13 0C14.6569 0 16 1.34315 16 3C16 4.65685 14.6569 6 13 6H12V10H13C14.6569 10 16 11.3431 16 13C16 14.6569 14.6569 16 13 16C11.3431 16 10 14.6569 10 13V12H6V13C6 14.6569 4.65685 16 3 16C1.34315 16 0 14.6569 0 13C0 11.3431 1.34315 10 3 10H4V6ZM4 12H3C2.44772 12 2 12.4477 2 13C2 13.5523 2.44772 14 3 14C3.55228 14 4 13.5523 4 13V12ZM6 10V6H10V10H6ZM12 12V13C12 13.5523 12.4477 14 13 14C13.5523 14 14 13.5523 14 13C14 12.4477 13.5523 12 13 12H12ZM12 4H13C13.5523 4 14 3.55228 14 3C14 2.44772 13.5523 2 13 2C12.4477 2 12 2.44772 12 3V4Z" fill="#56B157"/>
    </symbol>

    <symbol viewBox="0 0 16 16" fill="none" id="updates">
        <path fill-rule="evenodd" clip-rule="evenodd"
              d="M15 0v5s1 1 1 2.5-1 2.5-1 2.5v5h-2c0-.786-.488-1.49-1.224-1.766L5.82 11H5v4H3v-4H2a2 2 0 0 1-2-2V6a2 2 0 0 1 2-2h3.82l5.956-2.234A1.886 1.886 0 0 0 13 0h2zm-2 3.443l-6 2.25v3.614l6 2.25V3.443zM5 9V6H2v3h3z"
              fill="#56B157"/>
    </symbol>

    <symbol viewBox="0 0 16 16" id="academy">
        <path
              d="M3.572 4.343C3.356 4.21 3.162 4.093 3 4v.572l.572-.23zM3 8.26v3.87c.417.797 2 2.87 5 2.87s4.583-2.072 5-2.87V8.26l-2 .803v2.487A3.745 3.745 0 0 1 8 13c-1.584 0-2.56-.88-3-1.45V9.063L3 8.26zm10-3.688l-.572-.23c.216-.132.41-.25.572-.342v.572z"
              fill="#56B157"/>
        <path d="M14 4h2v6h-2V4z" fill="#56B157"/>
        <path d="M13.764 4L8 6.882 2.236 4 8 1.118 13.764 4z" fill="none" stroke="#56B157" stroke-width="2"/>
    </symbol>

    <symbol viewBox="0 0 16 16" id="help-center">
        <mask id="ba"  x="0" y="0" width="16" height="16">
            <path fill="#C4C4C4" d="M0 0h16v16H0z"/>
        </mask>
        <g mask="url(#ba)">
            <path d="M15 8a7 7 0 0 1-10.608 6l-2.892.5.755-2.5A7 7 0 1 1 15 8z" fill="none" stroke="#56B157" stroke-width="2"/>
            <path d="M6.808 9.23v-.463c0-.35.07-.647.214-.887.144-.243.398-.48.763-.71.29-.18.498-.346.623-.493a.743.743 0 0 0 .194-.505.4.4 0 0 0-.205-.354c-.136-.09-.313-.134-.53-.134-.542 0-1.174.19-1.897.574l-.747-1.46c.892-.51 1.823-.763 2.793-.763.8 0 1.425.175 1.88.526.455.352.682.83.682 1.435 0 .433-.102.81-.306 1.128-.2.315-.523.614-.967.897-.376.244-.612.423-.71.537a.6.6 0 0 0-.138.398v.274h-1.65zm-.23 1.878c0-.33.094-.583.283-.762.195-.18.478-.27.85-.27.358 0 .632.092.822.275.193.18.29.433.29.758 0 .326-.1.58-.3.758-.198.18-.468.268-.812.268-.355 0-.632-.088-.833-.263-.2-.178-.3-.432-.3-.762z"
                  fill="#56B157"/>
        </g>
    </symbol>

    <symbol viewBox="0 0 16 16" id="domain">
        <path d="M16 9L8 1 0 9h2v6h12V9h2zM4 13V8l4-4 4 4v5H9v-2a1 1 0 0 0-2 0v2H4z"/>
    </symbol>

    <symbol viewBox="0 0 16 16" id="history-undo">
        <path d="M0 6L4 10V7H11.5C12.8807 7 14 8.11929 14 9.5C14 10.8807 12.8807 12 11.5 12H6V14H11.5C13.9853 14 16 11.9853 16 9.5C16 7.01472 13.9853 5 11.5 5H4V2L0 6Z" />
    </symbol>

    <symbol viewBox="0 0 16 16" id="history-redo">
        <path d="M16 6L12 10V7H4.5C3.11929 7 2 8.11929 2 9.5C2 10.8807 3.11929 12 4.5 12H10V14H4.5C2.01472 14 0 11.9853 0 9.5C0 7.01472 2.01472 5 4.5 5H12V2L16 6Z" />
    </symbol>

    <symbol viewBox="0 0 16 16" id="page-settings">
        <path d="M10 0H4C2.89543 0 2 0.895431 2 2V14C2 15.1046 2.89543 16 4 16H7L5.5 14H4L4 2H9V5H12V6H14V4L10 0Z" />
        <path d="M8 12.5L10 9H14L16 12.5L14 16H10L8 12.5ZM12 14.5C13.1046 14.5 14 13.6046 14 12.5C14 11.3954 13.1046 10.5 12 10.5C10.8954 10.5 10 11.3954 10 12.5C10 13.6046 10.8954 14.5 12 14.5Z" />
    </symbol>

    <symbol viewBox="0 0 16 16" id="page-config">
        <path d="M5 1H7V3H16V5H7V7H5V1ZM3.5 3H0V5H3L3.5 3ZM12 11H16V13H12V15H10V9H12V11ZM8.5 11H0V13H8L8.5 11Z" />
    </symbol>

    <symbol viewBox="0 0 16 16" id="show-grid">
        <path d="M3 2H1V14H3V2ZM7 2H5V14H7V2ZM9 2H11V14H9V2ZM15 2H13V14H15V2Z" />
    </symbol>

    <symbol viewBox="0 0 16 16" id="show-rulers">
        <path d="M6 5H7V9H9V5H10V7H12V5H14V11H2V5H4V7H6V5ZM0 5C0 3.89543 0.895431 3 2 3H14C15.1046 3 16 3.89543 16 5V11C16 12.1046 15.1046 13 14 13H2C0.895431 13 0 12.1046 0 11V5Z"/>
    </symbol>

    <symbol viewBox="0 0 16 16" fill="none" id="show-guides">
        <rect y="1" width="2" height="14" fill="white"/>
        <rect x="14" y="1" width="2" height="14" fill="white"/>
        <rect x="4" y="2" width="6" height="6" rx="1" stroke="white" stroke-width="2"/>
    </symbol>

    <symbol viewBox="0 0 14 14" id="fixes-rulers">
        <path fill-rule="evenodd" clip-rule="evenodd" d="M5 4H6V8H8V4H9V6H11V4H12V10H2V4H3V6H5V4ZM0 4C0 2.89543 0.895431 2 2 2H12C13.1046 2 14 2.89543 14 4V10C14 11.1046 13.1046 12 12 12H2C0.895431 12 0 11.1046 0 10V4Z"/>
    </symbol>

    <symbol viewBox="0 0 14 14" id="floating-rulers">
        <g clip-path="url(#clip0_6396_8421)">
            <path d="M1 13L13 1" stroke="currentColor" stroke-width="2"/>
            <path fill-rule="evenodd" clip-rule="evenodd" d="M12.8815 2.20426C12.6156 2.07346 12.3164 2 12 2H2C0.895431 2 0 2.89543 0 4V10C0 11.1046 0.895431 12 2 12H3.08579L5.08579 10H2V4H3V6H5V4H6V8H7.08579L8 7.08579V4H9V6H9.08579L11 4.08579V4H11.0858L12.8815 2.20426ZM7.91421 10H12V5.91421L13.9983 3.91595C13.9994 3.94382 14 3.97184 14 4V10C14 11.1046 13.1046 12 12 12H5.91421L7.91421 10Z" fill="currentColor"/>
        </g>
        <defs>
            <clipPath id="clip0_6396_8421">
                <rect width="14" height="14" fill="currentColor"/>
            </clipPath>
        </defs>
    </symbol>

    <symbol viewBox="0 0 16 16" id="show-distance">
        <path d="M0 5H2V7H14V5H16V11H14V9H2V11H0V5Z"/>
    </symbol>

    <symbol viewBox="0 0 16 14" id="show-layers">
        <path d="M9 2H13C13.5523 2 14 2.44772 14 3V11C14 11.5523 13.5523 12 13 12H9V2ZM7 2H3C2.44772 2 2 2.44772 2 3V11C2 11.5523 2.44772 12 3 12H7V2ZM0 3C0 1.34315 1.34315 0 3 0H13C14.6569 0 16 1.34315 16 3V11C16 12.6569 14.6569 14 13 14H3C1.34315 14 0 12.6569 0 11V3ZM3 3H6V5H3V3ZM6 6H3V8H6V6Z" />
    </symbol>

    <symbol viewBox="0 0 16 16" id="snapping-to-object">
        <path d="M2 2H0V14H2V2ZM11 4H14V12H11V4ZM9 4C9 2.89543 9.89543 2 11 2H14C15.1046 2 16 2.89543 16 4V12C16 13.1046 15.1046 14 14 14H11C9.89543 14 9 13.1046 9 12V9H6V11L3 8L6 5V7H9V4Z" />
    </symbol>

    <symbol viewBox="0 0 16 16" id="hidden-entity">
        <path d="M13.3371 4.03613L15.8275 1.87782L15.1725 1.12213L12.5294 3.41284C11.2132 2.51656 9.65964 1.99998 8 1.99998C4.36364 1.99998 1.23636 4.47998 0 7.99998C0.551858 9.57115 1.48045 10.9351 2.66289 11.9638L0.172535 14.1221L0.827465 14.8778L3.47059 12.5871C4.78677 13.4834 6.34036 14 8 14C11.6364 14 14.7636 11.52 16 7.99998C15.4481 6.4288 14.5196 5.06483 13.3371 4.03613ZM10.6839 5.01224C9.97871 4.38025 9.04121 3.99998 8 3.99998C5.76 3.99998 4 5.75998 4 7.99998C4 8.83165 4.24262 9.59715 4.66234 10.231L10.6839 5.01224ZM5.31605 10.9877L11.3377 5.76898C11.7574 6.4028 12 7.16831 12 7.99998C12 10.24 10.24 12 8 12C6.95879 12 6.02129 11.6197 5.31605 10.9877Z" />
    </symbol>

    <symbol viewBox="0 0 16 16" id="error-in-elements">
        <path d="M8 14C11.3137 14 14 11.3137 14 8C14 4.68629 11.3137 2 8 2C4.68629 2 2 4.68629 2 8C2 11.3137 4.68629 14 8 14ZM8 16C12.4183 16 16 12.4183 16 8C16 3.58172 12.4183 0 8 0C3.58172 0 0 3.58172 0 8C0 12.4183 3.58172 16 8 16ZM7 11C7 10.4477 7.44772 10 8 10C8.55229 10 9 10.4477 9 11C9 11.5523 8.55229 12 8 12C7.44772 12 7 11.5523 7 11ZM8 4C7.44772 4 7 4.44772 7 5V8C7 8.55229 7.44772 9 8 9C8.55229 9 9 8.55229 9 8V5C9 4.44772 8.55229 4 8 4Z" />
    </symbol>

    <symbol viewBox="0 0 16 16" id="auto-reposition">
        <path d="M2 3L2 2L3 2V0H2C0.895431 0 0 0.89543 0 2L0 3H2ZM2 5H0L0 7H2L2 5ZM2 9H0L0 11H2L2 9ZM2 13H0L0 14C0 15.1046 0.895431 16 2 16H3V14H2L2 13ZM5 14V16H7V14H5ZM9 14V16H11V14L9 14ZM13 14V16H14C15.1046 16 16 15.1046 16 14V13H14V14H13ZM14 11H16V9H14V11ZM14 7H16V5H14V7ZM14 3H16V2C16 0.89543 15.1046 0 14 0H13V2L14 2V3ZM11 2V0H9V2H11ZM7 2V0H5V2H7Z"/>
        <path d="M10.5 11L8.35156 5H7.67188L5.5 11M6.37502 9.5H9.62507" fill="none" stroke="currentColor" stroke-width="2" stroke-linecap="round"/>
    </symbol>

    <symbol viewBox="0 0 16 16" id="pay">
        <path d="M14 4H2V5H14V4ZM2 12V8H14V12H2ZM2 2C0.895431 2 0 2.89543 0 4V12C0 13.1046 0.895431 14 2 14H14C15.1046 14 16 13.1046 16 12V4C16 2.89543 15.1046 2 14 2H2ZM13 10H10V11H13V10Z" />
    </symbol>

    <symbol viewBox="0 0 16 16" id="support">
        <path d="M2 8C2 4.68617 4.68617 2 8 2C11.3138 2 14 4.68617 14 8C14 11.3138 11.3138 14 8 14C4.68617 14 2 11.3138 2 8ZM0 8C0 3.5816 3.5816 0 8 0C12.4184 0 16 3.5816 16 8C16 12.4184 12.4184 16 8 16C3.5816 16 0 12.4184 0 8ZM5.2168 6.52199C5.2498 5.12499 6.1298 4.00299 7.9008 4.00299C9.7158 4.00299 10.5958 5.01499 10.5958 6.29099C10.5958 7.36899 10.0018 7.84199 9.2648 8.33699C8.7478 8.68899 8.5608 8.87599 8.5608 9.34899V9.63499H6.9878V9.34899C6.9878 8.46899 7.3068 8.08399 8.0658 7.52299C8.12444 7.47991 8.18138 7.43904 8.23631 7.39962C8.68627 7.0767 9.0008 6.85098 9.0008 6.30199C9.0008 5.78499 8.6488 5.36699 7.9448 5.36699C7.2298 5.36699 6.8228 5.69699 6.7898 6.52199H5.2168ZM8.6048 10.328V12H6.9218V10.328H8.6048Z" />
    </symbol>

    <symbol viewBox="0 0 16 16" id="fb">
        <path d="M16 8.04889C16 3.60361 12.4183 0 8 0C3.58172 0 0 3.60361 0 8.04889C0 12.0663 2.92548 15.3962 6.75 16V10.3755H4.71875V8.04889H6.75V6.27562C6.75 4.25837 7.94434 3.1441 9.77172 3.1441C10.647 3.1441 11.5625 3.3013 11.5625 3.3013V5.28208H10.5537C9.55992 5.28208 9.25 5.90252 9.25 6.53905V8.04889H11.4687L11.1141 10.3755H9.25V16C13.0745 15.3962 16 12.0663 16 8.04889Z"/>
    </symbol>

    <symbol viewBox="0 0 16 16" id="insta">
        <path d="M8 1.438c1.02 0 2.094.02 3.22.062.56.02 1.06.104 1.5.25.353.146.655.344.905.594.27.27.47.573.594.906.165.417.26.917.28 1.5.042 1.167.063 2.25.063 3.25 0 1.02-.02 2.094-.063 3.22a5.373 5.373 0 0 1-.25 1.5 2.74 2.74 0 0 1-.594.905c-.27.27-.573.47-.906.594-.417.165-.917.26-1.5.28-1.167.042-2.25.063-3.25.063-1.02 0-2.094-.02-3.22-.063a5.372 5.372 0 0 1-1.5-.25 2.74 2.74 0 0 1-.905-.594c-.27-.27-.47-.573-.594-.906-.165-.417-.26-.917-.28-1.5A91.457 91.457 0 0 1 1.437 8c0-1.02.02-2.094.063-3.22.02-.56.104-1.06.25-1.5a2.74 2.74 0 0 1 .594-.905c.27-.27.573-.47.906-.594.417-.165.917-.26 1.5-.28A91.455 91.455 0 0 1 8 1.437zM11.28.063A88.7 88.7 0 0 0 8 0C6.937 0 5.844.02 4.72.063c-.793.02-1.44.135-1.94.343a4.298 4.298 0 0 0-1.436.938A4.298 4.298 0 0 0 .406 2.78C.198 3.324.083 3.97.062 4.72A88.703 88.703 0 0 0 0 8c0 1.063.02 2.156.063 3.28.02.793.135 1.44.343 1.94.23.56.542 1.04.938 1.436.396.396.875.71 1.437.938.543.208 1.19.323 1.94.344A88.63 88.63 0 0 0 8 16c1.063 0 2.156-.02 3.28-.063.793-.02 1.44-.135 1.94-.343a4.298 4.298 0 0 0 1.436-.938c.396-.396.71-.875.938-1.437.208-.543.323-1.19.344-1.94.04-1.124.062-2.217.062-3.28 0-1.063-.02-2.156-.063-3.28-.02-.793-.135-1.44-.343-1.94a4.298 4.298 0 0 0-.938-1.436A4.298 4.298 0 0 0 13.22.406c-.543-.208-1.19-.323-1.94-.344zm-.374 5.03c-.79-.812-1.76-1.218-2.906-1.218-1.146 0-2.125.406-2.938 1.22-.79.79-1.187 1.76-1.187 2.905 0 1.146.396 2.125 1.188 2.938.812.79 1.79 1.187 2.937 1.187 1.146 0 2.115-.396 2.906-1.188.813-.812 1.22-1.79 1.22-2.937 0-1.146-.407-2.115-1.22-2.906zm-1.03 4.813c-.522.52-1.147.78-1.876.78-.73.002-1.365-.26-1.906-.78-.52-.54-.782-1.177-.782-1.906 0-.73.26-1.354.782-1.875.54-.542 1.177-.813 1.906-.813.73 0 1.354.27 1.875.813.542.52.813 1.146.813 1.875 0 .73-.27 1.365-.813 1.906zm3.062-6.844c.187.167.28.386.28.657 0 .27-.093.5-.28.686a.836.836 0 0 1-.657.282c-.27 0-.5-.094-.686-.282a.935.935 0 0 1-.28-.687c-.002-.272.092-.49.28-.658a.935.935 0 0 1 .687-.28c.272 0 .49.093.658.28z"/>
    </symbol>

    <symbol viewBox="0 0 20 20" id="vk">
        <path d="M1.40625 1.40625C0 2.81188 0 5.075 0 9.6V10.4C0 14.925 0.000624955 17.1875 1.40625 18.5938C2.81188 20 5.075 20 9.6 20H10.4C14.925 20 17.1875 19.9994 18.5938 18.5938C20 17.1881 20 14.925 20 10.4V9.6C20 5.075 19.9994 2.8125 18.5938 1.40625C17.1881 0 14.925 0 10.4 0H9.6C5.075 0 2.8125 0.000624955 1.40625 1.40625ZM3.32495 6.25C3.43245 11.4525 6.16995 14.5831 10.6825 14.5831H10.9443V11.6069C12.5875 11.7737 13.8137 13 14.3137 14.5831H16.6831C16.04 12.2144 14.3737 10.905 13.3375 10.4044C14.3725 9.78562 15.8375 8.28563 16.1831 6.25H14.0268C13.5743 7.90562 12.2287 9.40563 10.9431 9.54813V6.25H8.75308V12.0244C7.41995 11.6912 5.68183 10.0719 5.61058 6.25H3.32495Z" fill="currentColor"/>
    </symbol>

    <symbol viewBox="0 0 16 16" id="yt">
        <path d="M14.2602 2.33647C14.9456 2.51765 15.4859 3.04824 15.6704 3.72118C16.0131 4.95059 15.9999 7.51294 15.9999 7.51294C15.9999 7.51294 15.9999 10.0624 15.6704 11.2918C15.4859 11.9647 14.9456 12.4953 14.2602 12.6765C13.0082 13 7.99997 13 7.99997 13C7.99997 13 3.00493 13 1.7397 12.6635C1.05436 12.4824 0.514001 11.9518 0.329488 11.2788C0 10.0624 0 7.5 0 7.5C0 7.5 0 4.95059 0.329488 3.72118C0.514001 3.04824 1.06754 2.50471 1.7397 2.32353C2.99175 2 7.99997 2 7.99997 2C7.99997 2 13.0082 2 14.2602 2.33647ZM6 5L11 7.5L6 10V5Z" />
    </symbol>

    <symbol viewBox="0 0 28 28" id="empty-history">
        <path d="M24.5662 1H3.43381L0 6.72302V27H28V6.72302L24.5662 1ZM2.76619 6L4.56619 3H23.4338L25.2338 6H2.76619ZM2 8H26V25H2V8ZM19 11H9V13H19V11Z"/>
    </symbol>

    <symbol viewBox="0 0 18 18" id="ecommerce">
        <path d="M2.82837 10L9.82837 3H14.9999V8.17157L7.99994 15.1716L2.82837 10ZM8.99994 1H14.9999H16.9999V3V9L9.41416 16.5858C8.63311 17.3668 7.36678 17.3668 6.58573 16.5858L1.41416 11.4142C0.633108 10.6332 0.633106 9.36684 1.41415 8.58579L8.99994 1ZM11.9999 7C12.5522 7 12.9999 6.55228 12.9999 6C12.9999 5.44772 12.5522 5 11.9999 5C11.4477 5 10.9999 5.44772 10.9999 6C10.9999 6.55228 11.4477 7 11.9999 7Z" />
    </symbol>

    <symbol viewBox="0 0 16 16" fill="none" id="recent">
        <path d="M14 8C14 11.3137 11.3137 14 8 14C5.027 14 2.55904 11.8377 2.08296 9H0.0618938C0.553992 12.9463 3.92038 16 8 16C12.4183 16 16 12.4183 16 8C16 3.58172 12.4183 0 8 0C5.53627 0 3.33266 1.11371 1.86515 2.86515L0 1V6H0.252035H2.34141H5L3.28675 4.28675C4.3855 2.89401 6.08835 2 8 2C11.3137 2 14 4.68629 14 8ZM7 5H8V8H11V9H8H7V5Z" fill="#989a9d"/>
    </symbol>

    <symbol viewBox="0 0 16 16" id="zoom">
        <circle cx="7" cy="7" r="5" fill="none" stroke="currentColor" stroke-width="2"/>
        <path d="M14 14L10 10" fill="none" stroke="currentColor" stroke-width="2"/>
        <rect x="5" y="6" width="4" height="2" fill="currentColor"/>
    </symbol>

    <symbol viewBox="0 0 18 18" id="device-emulation">
        <path d="M3 5H9H11H13C13 3.89543 12.1046 3 11 3H3C1.89543 3 1 3.89543 1 5V10C1 11.1046 1.89543 12 3 12H9V10H3L3 5ZM15 8H12V14H15V8ZM12 6C10.8954 6 10 6.89543 10 8V14C10 15.1046 10.8954 16 12 16H15C16.1046 16 17 15.1046 17 14V8C17 6.89543 16.1046 6 15 6H12ZM9 13H0V15H9V13Z"/>
    </symbol>

    <symbol viewBox="0 0 18 18" fill="none" id="animation-mode">
        <path d="M5.01232 12C5.14312 6.8004 6.29066 4.31326 7.26822 3.14018C7.78321 2.5222 8.27006 2.24401 8.59014 2.11598C8.75317 2.05076 8.87995 2.02177 8.95412 2.00906C8.97289 2.00584 8.98828 2.00367 9 2.00222C9.01172 2.00367 9.0271 2.00584 9.04588 2.00906C9.12005 2.02177 9.24683 2.05076 9.40986 2.11598C9.72993 2.24401 10.2168 2.5222 10.7318 3.14018C11.7093 4.31326 12.8569 6.8004 12.9877 12H5.01232Z" stroke="currentColor" stroke-width="2"/>
        <path d="M2 12C2 10.3431 3.34315 9 5 9V12H2Z" stroke="currentColor" stroke-width="2"/>
        <path d="M16 12C16 10.3431 14.6569 9 13 9V12H16Z" stroke="currentColor" stroke-width="2"/>
        <rect x="8" y="14" width="2" height="3" fill="currentColor"/>
        <rect x="5" y="14" width="2" height="2" fill="currentColor"/>
        <rect x="11" y="14" width="2" height="2" fill="currentColor"/>
        <rect x="8" y="7" width="2" height="2" fill="currentColor"/>
    </symbol>

    <symbol viewBox="0 0 16 16" fill="none" id="website">
        <path fill-rule="evenodd" clip-rule="evenodd" d="M11.5858 3H9V1H13C14.1046 1 15 1.89543 15 3V7H13V4.41421L7.70711 9.70711L6.29289 8.29289L11.5858 3ZM13 12V9H15V12C15 13.6569 13.6569 15 12 15H4C2.34315 15 1 13.6569 1 12V4C1 2.34315 2.34315 1 4 1H7V3H4C3.44772 3 3 3.44772 3 4V12C3 12.5523 3.44772 13 4 13H12C12.5523 13 13 12.5523 13 12Z" fill="currentColor"/>
    </symbol>

    <symbol viewBox="0 0 16 16" fill="none" id="panel-code">
        <path d="M4 1C2.89543 1 2 1.89543 2 3V6H0V10H2V13C2 14.1046 2.89543 15 4 15H6V13H4V10C4 8.89543 3.10457 8 2 8C3.10457 8 4 7.10457 4 6V3H6V1H4Z" fill="white"/>
        <path d="M12 1C13.1046 1 14 1.89543 14 3V6H16V10H14V13C14 14.1046 13.1046 15 12 15H10V13H12V10C12 8.89543 12.8954 8 14 8C12.8954 8 12 7.10457 12 6V3H10V1H12Z" fill="white"/>
    </symbol>

    <symbol viewBox="0 0 16 16" fill="none" id="chevron-left">
        <path fill-rule="evenodd" clip-rule="evenodd" d="M4 8.50005L10.5455 15L11.9999 13.5558L6.90866 8.50005L11.9999 3.44431L10.5455 2.0001L4 8.50005Z" fill="currentColor"/>
    </symbol>

    <symbol viewBox="0 0 16 16" fill="none" id="hide-editor">
        <path fill-rule="evenodd" clip-rule="evenodd" d="M7 3H14L14 7H12V5L9 8L12 11V9H14V13H7V3ZM16 9V13C16 14.1046 15.1046 15 14 15H6.85714H2C0.89543 15 0 14.1046 0 13V3C0 1.89543 0.895431 1 2 1H14C15.1046 1 16 1.89543 16 3V7V8V9ZM5 3H2V5H5V3ZM5 7H2V9H5V7ZM5 11H2V13L5 13V11Z" fill="white"/>
    </symbol>

    <symbol id="zoom-decrease" viewBox="0 0 12 12">
        <path d="M2 5H10V7H2V5Z"/>
    </symbol>

    <symbol id="zoom-increase" viewBox="0 0 12 12">
        <path d="M7 2H5V5H2V7H5V10H7V7H10V5H7V2Z" />
    </symbol>

    <symbol viewBox="0 0 14 14" fill="none" id="global-mark">
        <path d="M2.06066 5.93934L5.93934 2.06066C6.52513 1.47487 7.47487 1.47487 8.06066 2.06066L11.9393 5.93934C12.5251 6.52513 12.5251 7.47487 11.9393 8.06066L8.06066 11.9393C7.47487 12.5251 6.52513 12.5251 5.93934 11.9393L2.06066 8.06066C1.47487 7.47487 1.47487 6.52513 2.06066 5.93934Z" stroke="currentColor" stroke-width="1.5"/>
    </symbol>

    <symbol viewBox="0 0 16 16" id="legacy-mark">
        <path d="M2.00409 8C2.00409 11.3137 4.69038 14 8.00409 14C11.3178 14 14.0041 11.3137 14.0041 8C14.0041 4.68629 11.3178 2 8.00409 2C4.69038 2 2.00409 4.68629 2.00409 8ZM8.00409 0C3.58581 0 0.00408936 3.58172 0.00408936 8C0.00408936 12.4183 3.58581 16 8.00409 16C12.4224 16 16.0041 12.4183 16.0041 8C16.0041 3.58172 12.4224 0 8.00409 0ZM7.00409 5C7.00409 4.44772 7.4518 4 8.00409 4C8.55637 4 9.00409 4.44772 9.00409 5V8C9.00409 8.55228 8.55637 9 8.00409 9C7.4518 9 7.00409 8.55228 7.00409 8V5ZM8.00409 10C7.4518 10 7.00409 10.4477 7.00409 11C7.00409 11.5523 7.4518 12 8.00409 12C8.55637 12 9.00409 11.5523 9.00409 11C9.00409 10.4477 8.55637 10 8.00409 10Z" />
    </symbol>
</svg>
