<svg xmlns="http://www.w3.org/2000/svg" xmlns:xlink="http://www.w3.org/1999/xlink">
    <symbol width="28" height="28" id="www_big">
        <path d="M14 2C9.57 2 5.70105 4.419 3.62305 8H6.01367C7.05767 6.615 8.4495 5.50455 10.0625 4.81055C9.5385 5.70055 9.10167 6.783 8.76367 8H10.8711C11.6611 5.541 12.869 4 14 4C15.131 4 16.3389 5.541 17.1289 8H19.2363C18.8983 6.783 18.4615 5.70055 17.9375 4.81055C19.5515 5.50455 20.9443 6.615 21.9883 8H24.377C22.298 4.419 18.43 2 14 2ZM1.18555 11L2.75391 17H4.19141L5.17773 13.3242H5.25195L6.25391 17H7.68359L9.25195 11H7.67969L6.89453 14.9785H6.81836L5.82422 11H4.60352L3.64258 14.9785H3.56641L2.76953 11H1.18555ZM9.9668 11L11.5332 17H12.9727L13.959 13.3242H14.0332L15.0352 17H16.4668L18.0332 11H16.4629L15.6758 14.9785H15.6016L14.6074 11H13.3848L12.4238 14.9785H12.3477L11.5508 11H9.9668ZM18.748 11L20.3164 17H21.7559L22.7402 13.3242H22.8145L23.8164 17H25.2461L26.8145 11H25.2422L24.457 14.9785H24.3828L23.3887 11H22.166L21.2051 14.9785H21.1309L20.332 11H18.748ZM3.62305 20C5.70105 23.581 9.57 26 14 26C18.43 26 22.299 23.581 24.377 20H21.9883C20.9443 21.385 19.5525 22.4955 17.9395 23.1895C18.4635 22.2995 18.8983 21.217 19.2363 20H17.1289C16.3399 22.459 15.133 24 14.002 24C12.871 24 11.663 22.459 10.873 20H8.76367C9.10167 21.217 9.5385 22.2995 10.0625 23.1895C8.4485 22.4955 7.05767 21.385 6.01367 20H3.62305Z" fill="#56B157"/>
    </symbol>

    <symbol viewBox="0 0 28 28" id="register_big">
        <path  d="M10.6292 25.5201C5.95039 24.1533 2.45469 20.0136 2.04107 15H6.02761C6.26518 19.2676 7.99721 22.409 9.72807 24.5108C10.031 24.8787 10.334 25.2149 10.6292 25.5201ZM17.3708 25.5201C22.0496 24.1533 25.5453 20.0136 25.9589 15H21.9724C21.7348 19.2676 20.0028 22.409 18.2719 24.5108C17.969 24.8787 17.666 25.2149 17.3708 25.5201ZM21.9724 13H25.9589C25.5453 7.98628 22.0495 3.84652 17.3706 2.47984C17.6658 2.7851 17.9689 3.12141 18.2719 3.48939C20.0028 5.59112 21.7348 8.73252 21.9724 13ZM10.6294 2.47984C5.95052 3.84652 2.4547 7.98628 2.04107 13H6.02763C6.26524 8.73252 7.99723 5.59112 9.72807 3.48939C10.0311 3.12141 10.3342 2.7851 10.6294 2.47984ZM8.03118 15C8.26434 18.703 9.76757 21.4127 11.2719 23.2394C11.8759 23.9728 12.4797 24.5629 13 25.0148V15H8.03118ZM13 13H8.0312C8.26439 9.29709 9.7676 6.5875 11.2719 4.76081C11.8759 4.02737 12.4797 3.43727 13 2.98537V13ZM15 13V2.98537C15.5203 3.43727 16.1241 4.02737 16.7281 4.76081C18.2324 6.5875 19.7356 9.29709 19.9688 13H15ZM15 15H19.9688C19.7357 18.703 18.2324 21.4127 16.7281 23.2394C16.1241 23.9728 15.5203 24.5629 15 25.0148V15ZM28 14C28 21.732 21.732 28 14 28C6.26801 28 0 21.732 0 14C0 6.26801 6.26801 0 14 0C21.732 0 28 6.26801 28 14Z" fill="#56B157"/>
    </symbol>

    <symbol viewBox="0 0 28 28" id="transfer_big">
        <path d="M23 4V8H8V10H23V14L28 9L23 4ZM0 8V10H2V8H0ZM4 8V10H6V8H4ZM5 14L0 19L5 24V20H20V18H5V14ZM22 18V20H24V18H22ZM26 18V20H28V18H26Z" fill="#56B157"/>
    </symbol>

    <symbol viewBox="0 0 28 28" id="coins_big">
        <path d="M5 3H6H19H20V4V8V9H19H18V12V13H17V13.8027C17.8825 13.2922 18.9071 13 20 13C23.3137 13 26 15.6863 26 19C26 22.3137 23.3137 25 20 25C19.6593 25 19.3252 24.9716 19 24.917V25H18H5H4V24V20V19H5H6V17H3H2V16V12V11H3V8V7H4H5V4V3ZM15.5278 23C15.0113 22.4229 14.6048 21.7452 14.3414 21H7H6V23H15.5278ZM14 19C14 18.2987 14.1203 17.6256 14.3414 17H8V19H14ZM5 9V11H16V9H6H5ZM18 7H17H7V5H18V7ZM15 13H4V15H7H15V13ZM24 19C24 21.2091 22.2091 23 20 23C17.7909 23 16 21.2091 16 19C16 16.7909 17.7909 15 20 15C22.2091 15 24 16.7909 24 19Z" fill="#56B157"/>
    </symbol>

    <symbol viewBox="0 0 28 28" id="done_big">
        <path d="M26 14C26 20.6274 20.6274 26 14 26C7.37258 26 2 20.6274 2 14C2 7.37258 7.37258 2 14 2C20.6274 2 26 7.37258 26 14ZM28 14C28 21.732 21.732 28 14 28C6.26801 28 0 21.732 0 14C0 6.26801 6.26801 0 14 0C21.732 0 28 6.26801 28 14ZM20.7071 11.7071C21.0976 11.3166 21.0976 10.6834 20.7071 10.2929C20.3166 9.90237 19.6834 9.90237 19.2929 10.2929L13 16.5858L10.7071 14.2929C10.3166 13.9024 9.68342 13.9024 9.29289 14.2929C8.90237 14.6834 8.90237 15.3166 9.29289 15.7071L12.2929 18.7071C12.6834 19.0976 13.3166 19.0976 13.7071 18.7071L20.7071 11.7071Z" fill="#56B157"/>
    </symbol>

    <svg viewBox="0 0 28 28" id="info_big">
        <path d="M26 14C26 20.6274 20.6274 26 14 26C7.37258 26 2 20.6274 2 14C2 7.37258 7.37258 2 14 2C20.6274 2 26 7.37258 26 14ZM28 14C28 21.732 21.732 28 14 28C6.26801 28 0 21.732 0 14C0 6.26801 6.26801 0 14 0C21.732 0 28 6.26801 28 14ZM13 16V7H15V16H13ZM13 20V18H15V20H13Z" fill="#acaeb1"/>
    </svg>


    <symbol viewBox="0 0 16 16" id="globe">
        <path d="M8 13.2795L8.44974 12.6499C9.23953 11.5442 9.71537 10.2876 9.87726 9H6.12274C6.28463 10.2876 6.76047 11.5442 7.55026 12.6499L8 13.2795ZM10.2488 13.5643C12.1508 12.7949 13.5683 11.0787 13.917 9H11.8899C11.7293 10.6007 11.1823 12.171 10.2488 13.5643ZM11.8899 7H13.917C13.5683 4.92133 12.1508 3.20508 10.2488 2.43566C11.1823 3.82895 11.7293 5.39926 11.8899 7ZM9.87726 7H6.12274C6.28463 5.71244 6.76047 4.45581 7.55026 3.35009L8 2.72047L8.44974 3.35009C9.23953 4.45581 9.71537 5.71244 9.87726 7ZM4.11014 9C4.27068 10.6007 4.81769 12.171 5.75117 13.5643C3.84924 12.7949 2.43169 11.0787 2.08296 9H4.11014ZM4.11014 7C4.27068 5.39926 4.81769 3.82895 5.75117 2.43566C3.84924 3.20508 2.43169 4.92133 2.08296 7H4.11014ZM16 8C16 12.4183 12.4183 16 8 16C3.58172 16 0 12.4183 0 8C0 3.58172 3.58172 0 8 0C12.4183 0 16 3.58172 16 8Z" fill="#56B157"/>
    </symbol>

    <symbol viewBox="0 0 16 14" id="gift">
        <path d="M2.76578 5C2.28976 4.46883 1.99988 3.76758 1.99988 3C1.99988 1.346 3.34588 0 4.99988 0C5.76746 0 6.46871 0.289883 6.99988 0.765904V0.765015L7.00875 0.773882C7.08479 0.842571 7.15731 0.915091 7.226 0.991133L7.99988 1.76501L8.77376 0.991133C8.84245 0.915091 8.91497 0.842571 8.99101 0.773882L8.99988 0.765015V0.765904C9.53105 0.289883 10.2323 0 10.9999 0C12.6539 0 13.9999 1.346 13.9999 3C13.9999 3.76758 13.71 4.46883 13.234 5H14H16V7H14V12C14 13.1046 13.1046 14 12 14H9H7H4C2.89543 14 2 13.1046 2 12V7H0V5H2H2.76578ZM9 12H12V7H9V12ZM7 7V12H4V7H7ZM3.99988 3C3.99988 2.449 4.44788 2 4.99988 2C5.55188 2 5.99988 2.449 5.99988 3C5.99988 3.551 5.55188 4 4.99988 4C4.44788 4 3.99988 3.551 3.99988 3ZM9.99988 3C9.99988 2.449 10.4479 2 10.9999 2C11.5519 2 11.9999 2.449 11.9999 3C11.9999 3.551 11.5519 4 10.9999 4C10.4479 4 9.99988 3.551 9.99988 3Z" />
    </symbol>

    <symbol viewBox="0 0 16 16" id="price_tip">
        <path d="M2 8C2 4.68617 4.68617 2 8 2C11.3138 2 14 4.68617 14 8C14 11.3138 11.3138 14 8 14C4.68617 14 2 11.3138 2 8ZM0 8C0 3.5816 3.5816 0 8 0C12.4184 0 16 3.5816 16 8C16 12.4184 12.4184 16 8 16C3.5816 16 0 12.4184 0 8ZM6.63225 9.24401L6.08025 10.02C6.48558 10.4467 7.01891 10.6973 7.68025 10.772V11.508H8.36025V10.772C8.84025 10.708 9.21891 10.524 9.49625 10.22C9.77358 9.91601 9.91225 9.55334 9.91225 9.13201C9.91225 8.84934 9.84558 8.60134 9.71225 8.38801C9.57891 8.16934 9.41091 8.00134 9.20825 7.88401C9.01091 7.76134 8.79491 7.64401 8.56025 7.53201C8.32558 7.42001 8.10691 7.32667 7.90425 7.25201C7.70691 7.17201 7.54158 7.07334 7.40825 6.95601C7.27491 6.83334 7.20825 6.70001 7.20825 6.55601C7.20825 6.35867 7.29091 6.19601 7.45625 6.06801C7.62158 5.94001 7.82691 5.87601 8.07225 5.87601C8.28558 5.87601 8.50425 5.92401 8.72825 6.02001C8.95758 6.11067 9.15491 6.22801 9.32025 6.37201L9.76825 5.53201C9.38425 5.18534 8.91491 4.99067 8.36025 4.94801V4.21201H7.68025V4.96401C7.23225 5.03867 6.86958 5.22267 6.59225 5.51601C6.31491 5.80934 6.17625 6.16134 6.17625 6.57201C6.17625 6.89201 6.26958 7.16934 6.45625 7.40401C6.64291 7.63867 6.86691 7.82267 7.12825 7.95601C7.39491 8.08934 7.65891 8.21201 7.92025 8.32401C8.18691 8.43067 8.41358 8.55334 8.60025 8.69201C8.78691 8.82534 8.88025 8.98001 8.88025 9.15601C8.88025 9.37467 8.80025 9.54534 8.64025 9.66801C8.48025 9.78534 8.28291 9.84401 8.04825 9.84401C7.80291 9.84401 7.54958 9.78801 7.28825 9.67601C7.03225 9.55867 6.81358 9.41467 6.63225 9.24401Z"/>
    </symbol>

    <symbol viewBox="0 0 16 16" id="history_tip">
        <path d="M14 8C14 11.3137 11.3137 14 8 14C5.027 14 2.55904 11.8377 2.08296 9H0.0618938C0.553992 12.9463 3.92038 16 8 16C12.4183 16 16 12.4183 16 8C16 3.58172 12.4183 0 8 0C5.53627 0 3.33266 1.11371 1.86515 2.86515L0 1V6H0.252035H2.34141H5L3.28675 4.28675C4.3855 2.89401 6.08835 2 8 2C11.3137 2 14 4.68629 14 8ZM7 5H8V8H11V9H8H7V5Z"/>
    </symbol>

    <symbol viewBox="0 0 16 16" id="wait">
        <path d="M14 8C14 11.3137 11.3137 14 8 14C4.68629 14 2 11.3137 2 8C2 4.68629 4.68629 2 8 2C11.3137 2 14 4.68629 14 8ZM16 8C16 12.4183 12.4183 16 8 16C3.58172 16 0 12.4183 0 8C0 3.58172 3.58172 0 8 0C12.4183 0 16 3.58172 16 8ZM7 5H8V8H11V9H8H7V5Z" fill="#acaeb1"/>
    </symbol>

    <symbol viewBox="0 0 16 16" id="error">
        <path d="M2 8C2 11.3137 4.68629 14 8 14C11.3137 14 14 11.3137 14 8C14 4.68629 11.3137 2 8 2C4.68629 2 2 4.68629 2 8ZM8 0C3.58172 0 0 3.58172 0 8C0 12.4183 3.58172 16 8 16C12.4183 16 16 12.4183 16 8C16 3.58172 12.4183 0 8 0ZM7 5C7 4.44772 7.44772 4 8 4C8.55229 4 9 4.44772 9 5V8C9 8.55229 8.55229 9 8 9C7.44772 9 7 8.55229 7 8V5ZM8 10C7.44772 10 7 10.4477 7 11C7 11.5523 7.44772 12 8 12C8.55229 12 9 11.5523 9 11C9 10.4477 8.55229 10 8 10Z" fill="#FF4747"/>
    </symbol>

    <!-- SSL -->
    <symbol viewBox="0 0 12 12" id="ssl_on">
        <path d="M6 0C4.34315 0 3 1.34315 3 3V4C1.89543 4 1 4.89543 1 6V10C1 11.1046 1.89543 12 3 12H9C10.1046 12 11 11.1046 11 10V6C11 4.89543 10.1046 4 9 4V3C9 1.34315 7.65685 0 6 0ZM8 4V3C8 1.89543 7.10457 1 6 1C4.89543 1 4 1.89543 4 3V4H8Z" fill="#56B157"/>
    </symbol>

    <symbol viewBox="0 0 12 12" id="ssl_wait">
        <path d="M6 0C4.34315 0 3 1.34315 3 3V4C1.89543 4 1 4.89543 1 6V10C1 11.1046 1.89543 12 3 12H9C10.1046 12 11 11.1046 11 10V6C11 4.89543 10.1046 4 9 4V3C9 1.34315 7.65685 0 6 0ZM8 4V3C8 1.89543 7.10457 1 6 1C4.89543 1 4 1.89543 4 3V4H8Z" fill="#acaeb1"/>
    </symbol>

    <symbol viewBox="0 0 12 12" id="ssl_error">
        <path d="M6.00003 0C4.34318 0 3.00003 1.34315 3.00003 3V4C1.89546 4 1.00003 4.89543 1.00003 6V9.2L7.50003 4H4.00003V3C4.00003 1.89543 4.89546 1 6.00003 1C7.1046 1 8.00003 1.89543 8.00003 3V3.6L8.99379 2.80499C8.89332 1.23902 7.59137 0 6.00003 0ZM3.00003 12C2.7176 12 2.44884 11.9415 2.20522 11.8358L10.738 5.00963C10.9047 5.30161 11 5.63968 11 6V10C11 11.1046 10.1046 12 9.00003 12H3.00003ZM0.816648 11.887L11.8166 2.88698L11.1834 2.11302L0.183411 11.113L0.816648 11.887Z" fill="#FF4747"/>
    </symbol>

    <symbol viewBox="0 0 12 12" id="ssl_off">
        <path d="M6 0C4.34314 0 3 1.34315 3 3V4C1.89543 4 0.999999 4.89543 0.999999 6V9.2L7.5 4H4V3C4 1.89543 4.89543 1 6 1C7.10457 1 8 1.89543 8 3V3.6L8.99376 2.80499C8.89329 1.23902 7.59134 0 6 0ZM3 12C2.71757 12 2.44881 11.9415 2.20519 11.8358L10.738 5.00963C10.9047 5.30161 11 5.63968 11 6V10C11 11.1046 10.1046 12 9 12H3ZM0.816618 11.887L11.8166 2.88698L11.1834 2.11302L0.18338 11.113L0.816618 11.887Z" fill="#acaeb1"/>
    </symbol>

    <!-- Domain actions dropdown -->
    <symbol viewBox="0 0 16 16" id="action_ssl">
        <path d="M11 5V6H5V5C5 3.34315 6.34315 2 8 2C9.65685 2 11 3.34315 11 5ZM3 6V5C3 2.23858 5.23858 0 8 0C10.7614 0 13 2.23858 13 5V6C14.1046 6 15 6.89543 15 8V14C15 15.1046 14.1046 16 13 16H3C1.89543 16 1 15.1046 1 14V8C1 6.89543 1.89543 6 3 6ZM13 8H11H5H3L3 14H13V8ZM7 10C7 9.44772 7.44772 9 8 9C8.55228 9 9 9.44772 9 10V12C9 12.5523 8.55228 13 8 13C7.44772 13 7 12.5523 7 12V10Z"/>
    </symbol>

    <symbol viewBox="0 0 16 16" id="action_redirect">
        <path d="M16 9H14H13L12 8L8 3.82843L4 7.82843V9V13H6L8 15H6H4H2V13V11V9.82843V9H0L2 7L6.58579 2.41421L8 1L9.41421 2.41421L14 7L16 9ZM12 12V10L9 13L12 16V14H16V12H12Z" />
    </symbol>

    <symbol viewBox="0 0 16 16" id="action_main">
        <path d="M14 11V9.82843V9H16L14 7L9.41421 2.41421L8 1L6.58579 2.41421L2 7L0 9H2V9.82843V11V13V15H4H6H10H12H14V13V11ZM10 13V11C10 9.89543 9.10457 9 8 9C6.89543 9 6 9.89543 6 11V13H4V9V7.82843L8 3.82843L12 7.82843V9V13H10Z"/>
    </symbol>

    <symbol viewBox="0 0 16 16" id="action_mail">
        <path d="M13.2795 4H2.72047L8 7.7711L13.2795 4ZM2 5.94319V12H14V5.94319L8.58124 9.81373L8 10.2289L7.41876 9.81373L2 5.94319ZM0 4C0 2.89543 0.895431 2 2 2H14C15.1046 2 16 2.89543 16 4V12C16 13.1046 15.1046 14 14 14H2C0.895431 14 0 13.1046 0 12V4Z"/>
    </symbol>

    <symbol viewBox="0 0 16 16" id="action_renew">
        <path d="M0 8C0 3.58933 3.58844 0 8 0C10.4324 0 12.6087 1.09482 14.0747 2.81424L16 1V6H11L12.5 4C11.3596 2.6 9.94231 2 8 2C4.56978 2 2 4.56889 2 8H0ZM16 8C16 12.4107 12.4116 16 8 16C5.56759 16 3.39125 14.9052 1.92535 13.1858L0 15V10H5L3.5 12C4.64044 13.4 6.05769 14 8 14C11.4302 14 14 11.4311 14 8H16Z"/>
    </symbol>

    <symbol viewBox="0 0 16 16" id="action_remove">
        <path d="M11.1667 16C12.1751 16 13.0001 15.2286 13.0001 14.2857V4H2.00006V14.2857C2.00006 15.2286 2.82506 16 3.83339 16H11.1667ZM2.17665 1H12.8235C13.4733 1 14.0001 1.44386 14.0001 2V4H1.00006V2C1.00006 1.44772 1.52578 1 2.17665 1ZM5.50006 0C5.22392 0 5.00006 0.223858 5.00006 0.5V1H10.0001V0.5C10.0001 0.223858 9.7762 0 9.50006 0H5.50006ZM1.00006 3V4H14.0001V3H1.00006Z"/>
    </symbol>

    <symbol viewBox="0 0 14 14" id="action_remove_small">
        <path d="M6 1L5 2H3a1 1 0 0 0-1 1v1h10V3a1 1 0 0 0-1-1H9L8 1H6zM3 5v7a1 1 0 0 0 1 1h6a1 1 0 0 0 1-1V5H3z"></path>
    </symbol>

    <symbol viewBox="0 0 16 16" id="action_settings">
        <path d="M7 0H9L9.75342 2.26026C10.377 2.45051 10.9574 2.73959 11.4765 3.10925L12.9497 1.63604L14.364 3.05025L12.8907 4.52347C13.3106 5.11303 13.6265 5.78175 13.8117 6.50288L16 7V9L13.783 9.60487C13.5946 10.2849 13.2896 10.9164 12.8907 11.4765L14.364 12.9497L12.9497 14.364L11.4765 12.8907C10.9687 13.2524 10.4022 13.5369 9.79404 13.7272L9 16H7L6.28665 13.7518C5.64787 13.5618 5.05366 13.2683 4.52347 12.8907L3.05025 14.364L1.63604 12.9497L3.10925 11.4765C2.69954 10.9012 2.38881 10.2505 2.20191 9.5492L0 9V7L2.20264 6.44806C2.38961 5.74785 2.70007 5.09806 3.10925 4.52347L1.63604 3.05025L3.05025 1.63604L4.52347 3.10925C5.04256 2.73959 5.62302 2.45051 6.24658 2.26026L7 0ZM4 8C4 10.2091 5.79086 12 8 12C10.2091 12 12 10.2091 12 8C12 5.79086 10.2091 4 8 4C5.79086 4 4 5.79086 4 8Z"/>
    </symbol>

    <symbol viewBox="0 0 16 16" id="action_dns">
        <path d="M8.44973 12.6499L7.99999 13.2795L7.55026 12.6499C7.39926 12.4385 7.25974 12.2216 7.13169 12H4.89431C5.12999 12.5398 5.41561 13.0635 5.75117 13.5643C4.89374 13.2175 4.13477 12.6782 3.52778 12H1.07025C2.45349 14.3912 5.03886 16 7.99999 16C10.9611 16 13.5465 14.3912 14.9297 12H12.4722C11.8652 12.6782 11.1062 13.2175 10.2488 13.5643C10.5844 13.0635 10.87 12.5398 11.1057 12H8.8683C8.74025 12.2216 8.60073 12.4385 8.44973 12.6499ZM14.9297 4C13.5465 1.60879 10.9611 0 7.99999 0C5.03886 0 2.45349 1.60879 1.07025 4H3.52778C4.13477 3.32182 4.89374 2.78253 5.75117 2.43566C5.41561 2.93651 5.12999 3.46022 4.89431 4H7.13169C7.25974 3.77841 7.39926 3.56149 7.55026 3.35009L7.99999 2.72047L8.44973 3.35009C8.60073 3.56149 8.74025 3.77841 8.8683 4H11.1057C10.87 3.46022 10.5844 2.93651 10.2488 2.43566C11.1062 2.78253 11.8652 3.32182 12.4722 4H14.9297ZM1 7V9H2C2.55228 9 3 8.55228 3 8C3 7.44772 2.55228 7 2 7H1ZM2 6H1H0V10H1H2C3.10457 10 4 9.10457 4 8C4 6.89543 3.10457 6 2 6ZM7 10V7.42857L8.8 10H9H10V6H9V8.57143L7.2 6H7H6V10H7ZM12 7.25C12 6.55964 12.5596 6 13.25 6H15.5V7H13.25C13.1119 7 13 7.11193 13 7.25C13 7.38807 13.1119 7.5 13.25 7.5H14.75C15.4404 7.5 16 8.05964 16 8.75C16 9.44036 15.4404 10 14.75 10H12.5V9H14.75C14.8881 9 15 8.88807 15 8.75C15 8.61193 14.8881 8.5 14.75 8.5H13.25C12.5596 8.5 12 7.94036 12 7.25Z"/>
    </symbol>

    <symbol viewBox="0 0 16 16" id="action_contacts">
        <path d="M12 2H2L2 14H12L14 16H2C0.89543 16 0 15.1046 0 14V2C0 0.89543 0.895431 0 2 0H14L12 2ZM12 5L7.29289 9.70711C7.10536 9.89464 7 10.149 7 10.4142V12H8.58579C8.851 12 9.10536 11.8946 9.29289 11.7071L14 7L12 5ZM15.2929 5.70711L15 6L13 4L13.2929 3.70711C13.6834 3.31658 14.3166 3.31658 14.7071 3.70711L15.2929 4.29289C15.6834 4.68342 15.6834 5.31658 15.2929 5.70711ZM11 4H4V5H10L11 4ZM4 6H9L8 7H4V6ZM7 8H4V9H6L7 8Z"/>
    </symbol>


    <symbol viewBox="0 0 28 28" id="remove_domain_confirm">
        <path d="M2.04107 15C2.45469 20.0136 5.95041 24.1534 10.6292 25.5201C10.3341 25.2149 10.031 24.8787 9.72807 24.5108C7.99721 22.409 6.26519 19.2676 6.02762 15H2.04107ZM25.5741 17.1802C25.7668 16.4771 25.8972 15.7483 25.9589 15H21.9724C21.9534 15.3408 21.9249 15.6745 21.8876 16.001C21.1569 16.0145 20.4581 16.1585 19.8136 16.4108C19.8854 15.9576 19.9381 15.4874 19.9688 15H15V25.0148C15.3096 24.7459 15.6488 24.428 16 24.0601V27.8582C15.3468 27.9517 14.679 28 14 28C6.26801 28 0 21.732 0 14C0 6.26801 6.26801 0 14 0C21.732 0 28 6.26801 28 14C28 15.7163 27.6912 17.3605 27.126 18.88C26.7224 18.2183 26.1942 17.6408 25.5741 17.1802ZM25.9589 13H21.9724C21.7348 8.7325 20.0028 5.59109 18.2719 3.48935C17.9689 3.12139 17.6658 2.7851 17.3706 2.47985C22.0495 3.84655 25.5453 7.9863 25.9589 13ZM2.04107 13C2.4547 7.9863 5.95049 3.84655 10.6294 2.47985C10.3342 2.7851 10.0311 3.12139 9.72807 3.48935C7.99723 5.59109 6.26523 8.7325 6.02762 13H2.04107ZM11.2719 23.2394C9.76757 21.4126 8.26435 18.703 8.03119 15H13V25.0148C12.4797 24.5629 11.8759 23.9728 11.2719 23.2394ZM8.03119 13H13V2.98533C12.4797 3.43723 11.8759 4.02733 11.2719 4.76077C9.76759 6.58747 8.26438 9.29707 8.03119 13ZM15 2.98533V13H19.9688C19.7356 9.29707 18.2324 6.58747 16.7281 4.76077C16.1241 4.02733 15.5203 3.43723 15 2.98533ZM19 22H25V26.5C25 27.3284 24.3284 28 23.5 28H20.5C19.6716 28 19 27.3284 19 26.5V22ZM18 21H26C26 20.4477 25.5523 20 25 20H24L23 19H21L20 20H19C18.4477 20 18 20.4477 18 21Z" fill="#FF4747"/>
    </symbol>

    <symbol width="28" height="28" id="make_main_confirm">
        <path d="M14 2L25.8462 13L28 15H27H25.0608H25V17V24V26H23H5H3V24V17V15H2.93923H1H0L2.15385 13L14 2ZM14 4.72928L23 13.0864V15V24H17V20C17 18.3431 15.6569 17 14 17C12.3431 17 11 18.3431 11 20V24H5V15V13.0864L14 4.72928Z" fill="#56B157"/>
    </symbol>

    <symbol viewBox="0 0 14 16" id="owner-type-1">
        <path d="M7 6C8.10457 6 9 5.10457 9 4C9 2.89543 8.10457 2 7 2C5.89543 2 5 2.89543 5 4C5 5.10457 5.89543 6 7 6ZM7 8C9.20914 8 11 6.20914 11 4C11 1.79086 9.20914 0 7 0C4.79086 0 3 1.79086 3 4C3 6.20914 4.79086 8 7 8ZM4 11C2.89543 11 2 11.8954 2 13V16H0V13C0 10.7909 1.79086 9 4 9H10C12.2091 9 14 10.7909 14 13V16H12V13C12 11.8954 11.1046 11 10 11H4ZM11 12H8V13H11V12Z" fill="#56B157"/>
    </symbol>

    <symbol viewBox="0 0 16 16" id="owner-type-2">
        <path d="M6 4C6 3.44772 6.44772 3 7 3H9C9.55228 3 10 3.44772 10 4V5H6V4ZM4 5V4C4 2.34315 5.34315 1 7 1H9C10.6569 1 12 2.34315 12 4V5H14C15.1046 5 16 5.89543 16 7V13C16 14.1046 15.1046 15 14 15H2C0.895431 15 0 14.1046 0 13V7C0 5.89543 0.895431 5 2 5H4ZM2 7H14V13H2V7Z" fill="#56B157"/>
    </symbol>

    <symbol viewBox="0 0 16 16" id="owner-type-3">
        <path d="M10 2H6V14H10V2ZM6 0H4V2V4.38197L0.552786 6.10557L0 6.38197V7V15V16H1H4H6H10H12H15H16V15V7V6.38197L15.4472 6.10557L12 4.38197V2V0H10H6ZM12 6.61803V14H14V7.61803L12 6.61803ZM2 7.61803L4 6.61803V14H2V7.61803Z" fill="#56B157"/>
    </symbol>

    <symbol viewBox="0 0 16 16" id="search">
        <path d="M11 6.5C11 8.98528 8.98528 11 6.5 11C4.01472 11 2 8.98528 2 6.5C2 4.01472 4.01472 2 6.5 2C8.98528 2 11 4.01472 11 6.5ZM10.3347 11.7489C9.25973 12.5356 7.9341 13 6.5 13C2.91015 13 0 10.0899 0 6.5C0 2.91015 2.91015 0 6.5 0C10.0899 0 13 2.91015 13 6.5C13 7.9341 12.5356 9.25973 11.7489 10.3347L15.7071 14.2929L14.2929 15.7071L10.3347 11.7489Z" />
    </symbol>

    <symbol viewBox="0 0 16 16" id="belgie">
        <path d="M9 2H4V14H12V5H9V2ZM14 4L10 0H4H2V2V14V16H4H12H14V14V4ZM6 7H10V9H6V7ZM10 10H6V12H10V10Z"/>
    </symbol>
</svg>
