<svg width="435" height="443" viewBox="0 0 435 443" fill="none" xmlns="http://www.w3.org/2000/svg">
<g clip-path="url(#clip0_102_6445)" filter="url(#filter0_d_102_6445)">
<path d="M332.318 230.196V34.967H40.93V399.202H174.968C184.584 399.202 192.451 407.069 192.451 416.685C192.451 426.301 184.584 434.168 174.968 434.168H23.446C13.83 434.168 5.963 426.301 5.963 416.685V17.483C5.963 7.867 13.831 0 23.446 0H349.8C359.416 0 367.283 7.867 367.283 17.483V230.196C367.283 239.812 359.416 247.679 349.8 247.679C340.184 247.679 332.318 239.812 332.318 230.196ZM422.357 272.739C415.072 266.328 404 266.911 397.589 274.196L301.722 380.844L253.643 334.513C246.65 327.811 235.577 328.102 228.875 335.096C222.173 342.09 222.464 353.162 229.458 359.864L290.649 418.724C293.854 421.929 298.225 423.678 302.887 423.678C303.178 423.678 303.178 423.678 303.47 423.678C308.132 423.387 312.794 421.347 315.708 417.85L423.522 297.798C430.224 290.222 429.641 279.15 422.357 272.739ZM268.212 101.986H110.863C101.247 101.986 93.38 109.853 93.38 119.469C93.38 129.085 101.247 136.952 110.863 136.952H268.212C277.828 136.952 285.695 129.085 285.695 119.469C285.695 109.853 277.828 101.986 268.212 101.986ZM285.696 215.627C285.696 206.011 277.829 198.144 268.213 198.144H110.863C101.247 198.144 93.38 206.011 93.38 215.627C93.38 225.243 101.247 233.11 110.863 233.11H268.212C277.828 233.11 285.696 225.243 285.696 215.627ZM110.863 291.388C101.247 291.388 93.38 299.255 93.38 308.871C93.38 318.487 101.247 326.354 110.863 326.354H157.485C167.101 326.354 174.968 318.487 174.968 308.871C174.968 299.255 167.101 291.388 157.485 291.388H110.863Z" fill="#ffffff"/>
</g>
<defs>
<filter id="filter0_d_102_6445" x="-4" y="0" width="442.168" height="442.168" filterUnits="userSpaceOnUse" color-interpolation-filters="sRGB">
<feFlood flood-opacity="0" result="BackgroundImageFix"/>
<feColorMatrix in="SourceAlpha" type="matrix" values="0 0 0 0 0 0 0 0 0 0 0 0 0 0 0 0 0 0 127 0" result="hardAlpha"/>
<feOffset dy="4"/>
<feGaussianBlur stdDeviation="2"/>
<feComposite in2="hardAlpha" operator="out"/>
<feColorMatrix type="matrix" values="0 0 0 0 0 0 0 0 0 0 0 0 0 0 0 0 0 0 0.25 0"/>
<feBlend mode="normal" in2="BackgroundImageFix" result="effect1_dropShadow_102_6445"/>
<feBlend mode="normal" in="SourceGraphic" in2="effect1_dropShadow_102_6445" result="shape"/>
</filter>
<clipPath id="clip0_102_6445">
<rect width="434.168" height="434.168" fill="white"/>
</clipPath>
</defs>
</svg>
