<svg id="icon" width="24" height="24" viewBox="0 0 24 24" fill="none" xmlns="http://www.w3.org/2000/svg">
<g clip-path="url(#clip0_1786_10)">
<path d="M0 11.52C0 6.0893 -1.59685e-06 3.37116 1.6867 1.6867C3.37339 0.0022325 6.0893 0 11.52 0H12.48C17.9107 0 20.6288 0 22.3133 1.6867C23.9978 3.3734 24 6.0893 24 11.52V12.48C24 17.9107 24 20.6288 22.3133 22.3133C20.6266 23.9978 17.9107 24 12.48 24H11.52C6.0893 24 3.37116 24 1.6867 22.3133C0.00223091 20.6266 0 17.9107 0 12.48V11.52Z" fill="#25D366"/>
<path d="M5.53516 18.5716L6.46167 15.187C5.74402 13.9415 5.45733 12.4939 5.64606 11.0689C5.83479 9.64381 6.4884 8.32081 7.50553 7.305C8.52267 6.28919 9.84653 5.63732 11.2718 5.45045C12.6972 5.26358 14.1443 5.55216 15.3889 6.27143C16.6335 6.99071 17.6061 8.10051 18.1558 9.42876C18.7055 10.757 18.8017 12.2295 18.4294 13.618C18.0571 15.0064 17.2371 16.2333 16.0966 17.1083C14.9561 17.9833 13.5587 18.4577 12.1212 18.4577C11.0311 18.4579 9.95836 18.1846 9.0012 17.6629L5.53516 18.5716ZM9.15525 16.4808L9.35395 16.598C10.1902 17.0938 11.1446 17.3552 12.1167 17.3548C13.3199 17.3546 14.4889 16.9546 15.44 16.2177C16.3911 15.4807 17.0703 14.4486 17.371 13.2836C17.6716 12.1186 17.5766 10.8867 17.1008 9.78155C16.6251 8.67642 15.7956 7.76069 14.7428 7.17831C13.69 6.59592 12.4734 6.3799 11.2845 6.56419C10.0955 6.74848 9.00143 7.32264 8.17429 8.19641C7.34715 9.07019 6.83381 10.1941 6.71496 11.3914C6.5961 12.5886 6.87846 13.7915 7.51767 14.8108L7.64715 15.0162L7.09906 17.02L9.15525 16.4808Z" fill="white"/>
<path fill-rule="evenodd" clip-rule="evenodd" d="M15.4083 13.4804C15.3681 13.4123 15.2587 13.3688 15.0958 13.2895C14.9328 13.2102 14.1302 12.8128 13.9795 12.7593C13.8288 12.7057 13.7216 12.6767 13.6122 12.8408C13.5028 13.0048 13.1914 13.371 13.0954 13.4804C12.9994 13.5898 12.9056 13.6032 12.7426 13.5217C12.2617 13.3292 11.8175 13.055 11.4299 12.7113C11.0732 12.3813 10.7673 12.0002 10.5224 11.5805C10.4275 11.4175 10.5123 11.3293 10.5938 11.2456C10.6753 11.1619 10.7568 11.0547 10.8383 10.9598C10.9053 10.8773 10.9602 10.7855 11.0013 10.6875C11.0232 10.6425 11.0334 10.5928 11.0311 10.5429C11.0287 10.4929 11.0139 10.4444 10.9879 10.4017C10.9477 10.3202 10.6206 9.51647 10.4855 9.18941C10.3505 8.86234 10.2176 8.9148 10.1183 8.90922C10.0189 8.90364 9.91399 8.90922 9.8046 8.90922C9.72402 8.91252 9.64494 8.93201 9.57206 8.96653C9.49918 9.00105 9.434 9.04989 9.38041 9.11015C9.19584 9.28505 9.04971 9.49646 8.95131 9.73093C8.85291 9.96539 8.80441 10.2178 8.80888 10.472C8.80888 11.2746 9.39381 12.0504 9.47864 12.1598C9.56348 12.2692 10.6295 13.9168 12.2693 14.6235C12.5732 14.7549 12.884 14.8696 13.2003 14.9673C13.5328 15.0691 13.8846 15.0913 14.2273 15.032C14.541 14.9851 15.1929 14.638 15.3291 14.2506C15.4652 13.8633 15.4541 13.5485 15.4083 13.4804Z" fill="white"/>
</g>
<defs>
<clipPath id="clip0_1786_10">
<rect width="24" height="24" fill="white"/>
</clipPath>
</defs>
</svg>
