<svg id="icon" width="24" height="24" viewBox="0 0 24 24" fill="none" xmlns="http://www.w3.org/2000/svg">
<g clip-path="url(#clip0_1786_16)">
<path d="M0 11.52C0 6.0893 -1.59685e-06 3.37116 1.6867 1.6867C3.37339 0.00223091 6.0893 0 11.52 0H12.48C17.9107 0 20.6288 -1.59685e-06 22.3133 1.6867C23.9978 3.37339 24 6.0893 24 11.52V12.48C24 17.9107 24 20.6288 22.3133 22.3133C20.6266 23.9978 17.9107 24 12.48 24H11.52C6.0893 24 3.37116 24 1.6867 22.3133C0.00223091 20.6266 0 17.9107 0 12.48V11.52Z" fill="#FF0000"/>
<path d="M18.5142 8.65109C18.4361 8.36058 18.2828 8.09579 18.0698 7.88336C17.8568 7.67094 17.5915 7.51838 17.3008 7.44104C16.2337 7.15527 11.955 7.15527 11.955 7.15527C11.955 7.15527 7.67626 7.15527 6.6091 7.44104C6.3191 7.5191 6.05468 7.67195 5.84232 7.88431C5.62996 8.09667 5.47711 8.36109 5.39906 8.65109C5.11329 9.71825 5.11328 11.9441 5.11328 11.9441C5.11328 11.9441 5.11329 14.17 5.39906 15.2371C5.47711 15.5271 5.62996 15.7915 5.84232 16.0039C6.05468 16.2163 6.3191 16.3691 6.6091 16.4472C7.67626 16.7329 11.955 16.7329 11.955 16.7329C11.955 16.7329 16.2337 16.7329 17.3008 16.4472C17.5907 16.3692 17.855 16.2163 18.0672 16.0039C18.2794 15.7915 18.432 15.5271 18.5097 15.2371C18.7955 14.17 18.7955 11.9441 18.7955 11.9441C18.7955 11.9441 18.8 9.71825 18.5142 8.65109ZM10.5886 13.9969V9.89127L14.1451 11.9441L10.5886 13.9969Z" fill="white"/>
</g>
<defs>
<clipPath id="clip0_1786_16">
<rect width="24" height="24" fill="white"/>
</clipPath>
</defs>
</svg>
