<svg width="16" height="16" viewBox="0 0 16 16" fill="none" xmlns="http://www.w3.org/2000/svg">
<rect width="16" height="16" rx="2" fill="white"/>
<path d="M4.449 4.61C4.563 4.61 4.641 4.634 4.683 4.682C4.731 4.724 4.755 4.802 4.755 4.916V9.947H7.338C7.452 9.947 7.53 9.971 7.572 10.019C7.62 10.061 7.644 10.139 7.644 10.253V10.694C7.644 10.808 7.62 10.889 7.572 10.937C7.53 10.979 7.452 11 7.338 11H3.936C3.822 11 3.741 10.979 3.693 10.937C3.645 10.889 3.621 10.808 3.621 10.694V4.916C3.621 4.802 3.645 4.724 3.693 4.682C3.741 4.634 3.822 4.61 3.936 4.61H4.449Z" fill="#A3125F"/>
<path d="M11.321 4.61C11.975 4.61 12.491 4.796 12.869 5.168C13.253 5.54 13.445 6.05 13.445 6.698C13.445 7.346 13.253 7.856 12.869 8.228C12.491 8.594 11.975 8.777 11.321 8.777H9.755V10.694C9.755 10.808 9.731 10.889 9.683 10.937C9.641 10.979 9.563 11 9.449 11H8.936C8.822 11 8.741 10.979 8.693 10.937C8.645 10.889 8.621 10.808 8.621 10.694V4.916C8.621 4.802 8.645 4.724 8.693 4.682C8.741 4.634 8.822 4.61 8.936 4.61H11.321ZM11.213 7.724C11.543 7.724 11.798 7.634 11.978 7.454C12.164 7.274 12.257 7.022 12.257 6.698C12.257 6.374 12.164 6.122 11.978 5.942C11.798 5.756 11.543 5.663 11.213 5.663H9.755V7.724H11.213Z" fill="#A3125F"/>
</svg>
