<svg xmlns="http://www.w3.org/2000/svg" xmlns:xlink="http://www.w3.org/1999/xlink">
    <symbol viewBox="0 0 14 16" id="summary-plan">
        <path d="M12 2.00007H2L2 14.0001H12V2.00007ZM2 6.86646e-05C0.895431 6.86646e-05 0 0.895499 0 2.00007V14.0001C0 15.1046 0.89543 16.0001 2 16.0001H12C13.1046 16.0001 14 15.1046 14 14.0001V2.00007C14 0.895499 13.1046 6.86646e-05 12 6.86646e-05H2ZM4 4.00007H10V6.00007H4V4.00007ZM10 8.00007H4V10.0001H10V8.00007Z" />
    </symbol>

    <symbol viewBox="0 0 16 16" id="summary-old-plan">
        <path fill="#898b8f" d="M0 3C0 1.89543 0.895431 1 2 1H14C15.1046 1 16 1.89543 16 3V5V6H15V13C15 14.1046 14.1046 15 13 15H3C1.89543 15 1 14.1046 1 13V6H0V5V3ZM2 4H3H13H14V3H2V4ZM3 6L3 13H13V6H3Z"/>
    </symbol>

    <symbol viewBox="0 0 16 16" id="summary-sum">
        <path d="M2 8.00006C2 4.68623 4.68617 2.00006 8 2.00006C11.3138 2.00006 14 4.68623 14 8.00006C14 11.3139 11.3138 14.0001 8 14.0001C4.68617 14.0001 2 11.3139 2 8.00006ZM0 8.00006C0 3.58166 3.5816 6.10352e-05 8 6.10352e-05C12.4184 6.10352e-05 16 3.58166 16 8.00006C16 12.4185 12.4184 16.0001 8 16.0001C3.5816 16.0001 0 12.4185 0 8.00006ZM8.70146 11.3801V12.4701H7.55146V11.4001C6.14146 11.1701 5.50146 10.1301 5.43146 9.31008L6.81146 9.00008C6.86146 9.58008 7.26146 10.1001 8.12146 10.1001C8.62146 10.1001 8.98146 9.86008 8.98146 9.47008C8.98146 9.18008 8.76146 8.99008 8.36146 8.90008L7.47146 8.69008C6.35146 8.42008 5.66146 7.74008 5.66146 6.79008C5.66146 5.67008 6.50146 4.90008 7.55146 4.72008V3.64008H8.70146V4.75008C9.80146 4.99008 10.3015 5.78008 10.4415 6.46008L9.05146 6.83008C8.99146 6.52008 8.82146 6.00008 8.03146 6.00008C7.47146 6.00008 7.19146 6.33008 7.19146 6.65008C7.19146 6.92008 7.39146 7.13008 7.78146 7.22008L8.65146 7.41008C9.99146 7.71008 10.5215 8.49008 10.5215 9.39008C10.5215 10.3101 9.86146 11.1701 8.70146 11.3801Z"/>
    </symbol>

    <symbol viewBox="0 0 16 12" id="promocode">
        <path d="M14 2V2.537C12.805 3.23 12 4.523 12 6C12 7.477 12.805 8.771 14 9.463V10H2V9.463C3.195 8.771 4 7.478 4 6C4 4.522 3.195 3.229 2 2.537V2H14ZM14 0H2C0.9 0 0 0.9 0 2V4C1.1 4 2 4.9 2 6C2 7.1 1.1 8 0 8V10C0 11.1 0.9 12 2 12H14C15.1 12 16 11.1 16 10V8C14.9 8 14 7.1 14 6C14 4.9 14.9 4 16 4V2C16 0.9 15.1 0 14 0Z"/>
    </symbol>

    <symbol viewBox="0 0 16 14" id="discount">
        <path opacity="0.6" d="M5.59806 13H3.56406L10.5481 1.048H12.5821L5.59806 13ZM6.19206 1.822C6.80406 2.422 7.11006 3.142 7.11006 3.982C7.11006 4.822 6.80406 5.542 6.19206 6.142C5.59206 6.742 4.84806 7.042 3.96006 7.042C3.07206 7.042 2.32206 6.742 1.71006 6.142C1.11006 5.542 0.810059 4.822 0.810059 3.982C0.810059 3.142 1.11006 2.422 1.71006 1.822C2.32206 1.222 3.07206 0.921997 3.96006 0.921997C4.84806 0.921997 5.59206 1.222 6.19206 1.822ZM4.80606 4.846C5.02206 4.606 5.13006 4.318 5.13006 3.982C5.13006 3.646 5.02206 3.358 4.80606 3.118C4.59006 2.878 4.30806 2.758 3.96006 2.758C3.61206 2.758 3.33006 2.878 3.11406 3.118C2.89806 3.358 2.79006 3.646 2.79006 3.982C2.79006 4.318 2.89806 4.606 3.11406 4.846C3.33006 5.086 3.61206 5.206 3.96006 5.206C4.30806 5.206 4.59006 5.086 4.80606 4.846ZM14.4181 7.906C15.0301 8.506 15.3361 9.226 15.3361 10.066C15.3361 10.906 15.0301 11.626 14.4181 12.226C13.8181 12.826 13.0741 13.126 12.1861 13.126C11.2981 13.126 10.5481 12.826 9.93606 12.226C9.33606 11.626 9.03606 10.906 9.03606 10.066C9.03606 9.226 9.33606 8.506 9.93606 7.906C10.5481 7.306 11.2981 7.006 12.1861 7.006C13.0741 7.006 13.8181 7.306 14.4181 7.906ZM13.0321 10.93C13.2481 10.69 13.3561 10.402 13.3561 10.066C13.3561 9.73 13.2481 9.442 13.0321 9.202C12.8161 8.962 12.5341 8.842 12.1861 8.842C11.8381 8.842 11.5561 8.962 11.3401 9.202C11.1241 9.442 11.0161 9.73 11.0161 10.066C11.0161 10.402 11.1241 10.69 11.3401 10.93C11.5561 11.17 11.8381 11.29 12.1861 11.29C12.5341 11.29 12.8161 11.17 13.0321 10.93Z" fill="currentColor"/>
    </symbol>


    <symbol viewBox="0 0 16 16" id="mycard">
        <path d="M14 4H2V5H14V4ZM2 12V8H14V12H2ZM2 2C0.895431 2 0 2.89543 0 4V12C0 13.1046 0.895431 14 2 14H14C15.1046 14 16 13.1046 16 12V4C16 2.89543 15.1046 2 14 2H2ZM13 10H10V11H13V10Z"/>
    </symbol>

    <symbol viewBox="0 0 28 28" id="remove-card-confirm">
        <path d="M24 6H2V8H24V6ZM2 20L2 12H24V14H26V6C26 4.89543 25.1046 4 24 4H2C0.895431 4 0 4.89543 0 6V20C0 21.1046 0.89543 22 2 22H18V20H2ZM8 17H4V18H8V17ZM28 17L27 16L24 19L21 16L20 17L23 20L20 23L21 24L24 21L27 24L28 23L25 20L28 17Z" fill="#FF4747"/>
    </symbol>

    <symbol viewBox="0 0 28 28" id="disable-autopay-confirm">
        <path d="M24 6H2V8H24V6ZM2 20L2 12H24V14H26V6C26 4.89543 25.1046 4 24 4H2C0.895431 4 0 4.89543 0 6V20C0 21.1046 0.89543 22 2 22H18V20H2ZM8 17H4V18H8V17ZM20.25 20H20V16L21.3484 17.3483C22.027 16.6697 22.9645 16.25 24 16.25C26.0711 16.25 27.75 17.9289 27.75 20C27.75 22.0711 26.0711 23.75 24 23.75C22.8893 23.75 21.8906 23.2662 21.205 22.5002L22.3227 21.4998C22.7358 21.9613 23.3337 22.25 24 22.25C25.2426 22.25 26.25 21.2426 26.25 20C26.25 18.7574 25.2426 17.75 24 17.75C23.3787 17.75 22.8162 18.0018 22.409 18.409L24 20H21.75H20.25Z" fill="#56B157"/>
    </symbol>

    <symbol viewBox="0 0 29 28" id="change-payment-method">
        <path d="M14.5 2C7.87258 2 2.5 7.37258 2.5 14H0.5C0.5 6.26801 6.76801 0 14.5 0C19.3903 0 23.6936 2.50758 26.1964 6.30363L28.5 4V10H22.5L24.7476 7.75241C22.6386 4.30085 18.8373 2 14.5 2ZM14.5 26C21.1274 26 26.5 20.6274 26.5 14H28.5C28.5 21.732 22.232 28 14.5 28C9.60984 28 5.30687 25.4929 2.80367 21.6963L0.5 24V18H6.5L4.25237 20.2476C6.36086 23.6986 10.1625 26 14.5 26ZM13.4686 19.09V20.98H15.3136V19.15C16.3036 19.04 17.0736 18.695 17.6236 18.115C18.1836 17.525 18.4636 16.85 18.4636 16.09C18.4636 15.33 18.1986 14.695 17.6686 14.185C17.1386 13.665 16.3436 13.335 15.2836 13.195L14.3836 13.075C13.7336 12.985 13.2686 12.84 12.9886 12.64C12.7186 12.44 12.5836 12.17 12.5836 11.83C12.5836 11.48 12.7386 11.19 13.0486 10.96C13.3686 10.72 13.7986 10.6 14.3386 10.6C14.8886 10.6 15.3636 10.705 15.7636 10.915C16.1736 11.125 16.4486 11.42 16.5886 11.8H18.5536C18.3636 11.09 17.9936 10.475 17.4436 9.955C16.8936 9.435 16.1836 9.095 15.3136 8.935V7.075H13.4686V8.92C12.5786 9.07 11.8786 9.415 11.3686 9.955C10.8686 10.485 10.6186 11.13 10.6186 11.89C10.6186 12.64 10.8686 13.28 11.3686 13.81C11.8686 14.33 12.6736 14.655 13.7836 14.785L14.7286 14.905C15.9086 15.055 16.4986 15.49 16.4986 16.21C16.4986 16.58 16.3286 16.88 15.9886 17.11C15.6486 17.33 15.1936 17.44 14.6236 17.44C13.4936 17.44 12.7286 17.04 12.3286 16.24H10.3486C10.5586 16.97 10.9236 17.59 11.4436 18.1C11.9636 18.61 12.6386 18.94 13.4686 19.09Z" />
    </symbol>

    <symbol viewBox="0 0 16 16" id="remove">
        <path d="M12.1667 16C13.175 16 14 15.2286 14 14.2857V4H3V14.2857C3 15.2286 3.825 16 4.83333 16H12.1667ZM3.17659 1H13.8234C14.4732 1 15 1.44386 15 2V4H2V2C2 1.44772 2.52572 1 3.17659 1ZM6.5 0C6.22386 0 6 0.223858 6 0.5V1H11V0.5C11 0.223858 10.7761 0 10.5 0H6.5ZM2 3V4H15V3H2Z"/>
    </symbol>


    <!-- Cards -->
    <symbol viewBox="0 0 30 20" id="card-mastercard">
        <rect width="30" height="20" rx="3" fill="#E1E1E1"/>
        <path d="M23 10C23 12.7614 20.7847 15 18.052 15C15.3193 15 13.104 12.7614 13.104 10C13.104 7.23857 15.3193 5 18.052 5C20.7847 5 23 7.23857 23 10Z" fill="#F79F1A"/>
        <path d="M16.896 10C16.896 12.7614 14.6807 15 11.948 15C9.21529 15 7 12.7614 7 10C7 7.23857 9.21529 5 11.948 5C14.6807 5 16.896 7.23857 16.896 10Z" fill="#EA001B"/>
        <path d="M15.0003 6.06396C13.8458 6.9793 13.1047 8.40168 13.1047 9.99953C13.1047 11.5974 13.8458 13.0208 15.0003 13.9362C16.1548 13.0208 16.8959 11.5974 16.8959 9.99953C16.8959 8.40168 16.1548 6.9793 15.0003 6.06396Z" fill="#FF5F01"/>
    </symbol>

    <symbol viewBox="0 0 30 20" id="card-visa">
        <rect width="30" height="20" rx="3" fill="#E1E1E1"/>
        <path d="M11.7325 7.12359L8.72136 13.8937H6.75672L5.2748 8.49057C5.18507 8.15855 5.10694 8.03634 4.8335 7.896C4.38661 7.66723 3.64866 7.45326 3 7.32012L3.04376 7.12359H6.2066C6.60913 7.12359 6.97157 7.37617 7.06365 7.81352L7.84669 11.7315L9.77976 7.12359H11.7325ZM14.3884 7.12359L12.8517 13.8937H10.9931L12.5298 7.12359H14.3884ZM19.43 11.6833C19.4377 9.89685 16.8089 9.79776 16.8261 8.99947C16.8324 8.75685 17.0776 8.49846 17.6145 8.43244C17.8805 8.40006 18.6152 8.37417 19.4474 8.73554L19.773 7.29908C19.3258 7.1467 18.7505 7 18.0347 7C16.1974 7 14.9049 7.91967 14.8946 9.23765C14.8826 10.2125 15.8177 10.7559 16.521 11.0806C17.2455 11.4122 17.4884 11.6253 17.485 11.9216C17.4799 12.3759 16.9065 12.577 16.3734 12.5844C15.4387 12.5984 14.8968 12.3464 14.4646 12.1566L14.1273 13.6407C14.5621 13.8285 15.3635 13.9917 16.1935 14C18.1467 14 19.4242 13.0909 19.43 11.6833ZM24.2816 13.8937H26L24.4987 7.12359H22.9132C22.5556 7.12359 22.2552 7.31915 22.1218 7.61989L19.333 13.8937H21.2847L21.6719 12.8824H24.0564L24.2816 13.8937ZM22.207 11.4951L23.1857 8.95269L23.7478 11.4951H22.207Z" fill="#153092"/>
    </symbol>


    <!-- Pay methods -->
    <symbol viewBox="0 0 80 40" id="method-mycard">
        <path d="M55 10H25C24.4477 10 24 10.4477 24 11V14H56V11C56 10.4477 55.5523 10 55 10ZM24 29V18H56V29C56 29.5523 55.5523 30 55 30H25C24.4477 30 24 29.5523 24 29ZM25 8C23.3431 8 22 9.34315 22 11V29C22 30.6569 23.3431 32 25 32H55C56.6569 32 58 30.6569 58 29V11C58 9.34315 56.6569 8 55 8H25ZM52 26.999H46C45.447 26.999 45 26.552 45 26C45 25.448 45.447 25 46 25H52C52.553 25 53 25.448 53 26C53 26.552 52.553 26.999 52 26.999Z"/>
    </symbol>

    <symbol viewBox="0 0 80 40" id="method-mastercard">
        <path d="M60 19.5C60 26.4035 54.4618 32 47.6301 32C40.7983 32 35.2601 26.4035 35.2601 19.5C35.2601 12.5964 40.7983 7 47.6301 7C54.4618 7 60 12.5964 60 19.5Z" fill="#F79F1A"/>
        <path d="M44.7399 19.5C44.7399 26.4035 39.2017 32 32.37 32C25.5382 32 20 26.4035 20 19.5C20 12.5964 25.5382 7 32.37 7C39.2017 7 44.7399 12.5964 44.7399 19.5Z" fill="#EA001B"/>
        <path d="M40.0006 9.66016C37.1144 11.9485 35.2617 15.5044 35.2617 19.4991C35.2617 23.4937 37.1144 27.0523 40.0006 29.3407C42.8869 27.0523 44.7395 23.4937 44.7395 19.4991C44.7395 15.5044 42.8869 11.9485 40.0006 9.66016Z" fill="#FF5F01"/>
    </symbol>

    <symbol viewBox="0 0 80 40" id="method-visa">
        <path d="M32.9665 10.3355L25.1113 28.7115H19.9862L16.1203 14.0458C15.8862 13.1446 15.6824 12.8129 14.9691 12.432C13.8033 11.811 11.8782 11.2303 10.186 10.8689L10.3002 10.3355H18.5511C19.6012 10.3355 20.5467 11.021 20.7869 12.2081L22.8296 22.8426L27.8724 10.3355H32.9665ZM39.8949 10.3355L35.8861 28.7115H31.0375L35.0463 10.3355H39.8949ZM53.0468 22.7119C53.0671 17.8629 46.2092 17.5939 46.254 15.4271C46.2705 14.7686 46.9103 14.0672 48.3109 13.8881C49.0047 13.8002 50.9213 13.7299 53.0924 14.7107L53.9417 10.8118C52.7752 10.3982 51.2742 10 49.4069 10C44.6139 10 41.2422 12.4962 41.2154 16.0736C41.184 18.7198 43.6236 20.1946 45.4583 21.0759C47.3481 21.976 47.9818 22.5545 47.973 23.3588C47.9596 24.5917 46.4639 25.1375 45.0733 25.1578C42.6348 25.1957 41.2212 24.5116 40.0937 23.9966L39.2137 28.0248C40.3481 28.5346 42.4387 28.9775 44.604 29C49.6992 29 53.0318 26.5323 53.0468 22.7119ZM65.7034 28.7115H70.186L66.2696 10.3355H62.1336C61.2007 10.3355 60.4169 10.8663 60.0691 11.6826L52.7939 28.7115H57.8854L58.8952 25.9666H65.1157L65.7034 28.7115ZM60.2913 22.201L62.8443 15.3002L64.3108 22.201H60.2913Z" fill="#153092"/>
    </symbol>

    <symbol viewBox="0 0 80 40" id="method-mir">
        <path d="M22.2174 12.3887L19.8039 20.7494H19.391L16.9775 12.3887C16.5646 10.974 15.2689 10 13.788 10H8V28.2H13.7952V17.4435H14.2081L17.5257 28.2H21.6692L24.9797 17.4435H25.3927V28.2H31.1878V10H25.3998C23.9261 10 22.6303 10.974 22.2174 12.3887ZM54.3043 28.2H60.1352V22.8182H66.0017C69.07 22.8182 71.683 21.0835 72.6938 18.645H54.3043V28.2ZM43.9742 11.9195L39.8949 20.7565H39.4819V10H33.6867V28.2H38.6062C39.902 28.2 41.0765 27.4464 41.6176 26.2805L45.697 17.4506H46.1101V28.2H51.9052V10H46.9857C45.6899 10 44.5153 10.7536 43.9742 11.9195Z" fill="#006848"/>
        <path d="M66.5783 10C68.2513 10 69.7678 10.6398 70.914 11.692C72.1955 12.858 73 14.5358 73 16.4055C73 16.7894 72.9573 17.1662 72.8932 17.5359H62.1287C58.4835 17.5359 55.3937 15.1472 54.3543 11.8484C54.3401 11.8129 54.3329 11.7702 54.3187 11.7276C54.2902 11.628 54.2689 11.5214 54.2404 11.4219C54.1336 10.9598 54.0624 10.4905 54.0339 10H66.5783Z" fill="url(#mir_gr)"/>

        <defs>
            <linearGradient id="mir_gr" x1="73" y1="33.5687" x2="54.15" y2="33.5687" gradientUnits="userSpaceOnUse">
                <stop stop-color="#1E5CD8"/>
                <stop offset="1" stop-color="#02AFFF"/>
            </linearGradient>
        </defs>
    </symbol>

    <symbol viewBox="0 0 80 40" id="method-card">
        <path d="M55 10H25C24.4477 10 24 10.4477 24 11V14H56V11C56 10.4477 55.5523 10 55 10ZM24 29V18H56V29C56 29.5523 55.5523 30 55 30H25C24.4477 30 24 29.5523 24 29ZM25 8C23.3431 8 22 9.34315 22 11V29C22 30.6569 23.3431 32 25 32H55C56.6569 32 58 30.6569 58 29V11C58 9.34315 56.6569 8 55 8H25ZM52 26.999H46C45.447 26.999 45 26.552 45 26C45 25.448 45.447 25 46 25H52C52.553 25 53 25.448 53 26C53 26.552 52.553 26.999 52 26.999Z"/>
    </symbol>

    <symbol viewBox="0 0 80 40" id="method-bank_company">
        <path d="M25 13V11.415L40 6.12091L55 11.415V13H25ZM23 13V10L40 4L57 10V13V15H55H53V28H51V15H45V28H43V15H37V28H35V15H29V28H27V15H25H23V13ZM25 34V32H55V34H25ZM23 30H25H55H57V32V34V36H55H25H23V34V32V30Z"/>
    </symbol>

    <symbol viewBox="0 0 80 40" id="method-yandex">
        <path d="M31.011 19.9749C31.0244 11.1763 38.0796 4 46.9469 4C55.7218 4 62.9837 11.1899 62.8829 20C62.8829 28.8101 55.7218 36 46.9469 36C38.1804 36 31.0245 28.9247 31.011 20.0252V31.9489H25.262L18 8.65781H31.011V19.9749ZM40.9961 20C40.9961 23.2405 43.7194 25.9747 46.9469 25.9747C50.2753 25.9747 52.8976 23.2405 52.8976 20C52.8976 16.7595 50.1744 14.0253 46.9469 14.0253C43.7194 14.0253 40.9961 16.7595 40.9961 20Z" fill="#8B3FFD"/>
    </symbol>

    <symbol viewBox="0 0 80 40" id="method-qiwi">
        <path d="M56.5383 37.8811C56.9092 38.2082 57.4068 37.7988 57.0796 37.3956C54.833 34.625 52.8107 33.2569 50.9281 32.4532C50.9246 32.38 50.9174 32.3029 50.9062 32.2225C50.8489 31.8026 50.5899 30.939 50.0121 30.6694C49.6956 30.5774 49.459 30.6459 49.3423 30.8583C49.2139 31.0914 49.2475 31.4901 49.4119 31.903C49.1234 31.8142 48.8377 31.734 48.5548 31.6588C48.1961 31.5634 47.8417 31.4763 47.4909 31.3903C47.4454 31.3793 47.3998 31.3682 47.3541 31.3567C45.211 30.8334 43.1951 30.3245 41.1471 28.2562C41.1186 28.2278 41.0905 28.1997 41.0624 28.1708C40.5027 27.5941 39.9406 26.8987 39.3724 26.0536C39.2201 25.8269 39.0673 25.5913 38.9138 25.3419C38.4792 24.6365 38.5142 26.385 38.6798 28.4896C38.6809 28.5031 38.682 28.5166 38.683 28.5301C38.6846 28.5511 38.6862 28.5721 38.6882 28.5932L38.6878 28.5932C38.5515 28.5974 38.4152 28.6017 38.2771 28.6017C35.396 28.6017 32.9871 27.5979 30.9123 25.5336C28.8375 23.4694 27.829 21.015 27.829 18.0299C27.829 15.0386 28.8097 12.5737 30.8278 10.4946C32.835 8.42566 35.2718 7.42007 38.2771 7.42007C41.2118 7.42007 43.6533 8.4246 45.7415 10.4903C47.828 12.5546 48.8422 15.0404 48.8422 18.089C48.8422 18.4808 48.8252 18.8626 48.7923 19.235C48.7572 19.2327 48.7225 19.2306 48.6878 19.2284C46.9026 19.1159 45.3496 19.1401 45.2423 19.2458C45.0585 19.4272 45.3627 19.4619 45.6704 19.497C45.7981 19.5116 45.9265 19.5263 46.0208 19.5515C46.5452 19.6924 47.0328 19.8632 47.4849 20.0613C47.8391 20.2171 48.171 20.39 48.4818 20.5803C48.4894 20.5849 48.497 20.5894 48.5046 20.594C48.5288 20.6085 48.553 20.623 48.5766 20.638C50.4734 21.8363 51.5495 23.6918 51.8975 26.135C51.9113 26.2328 51.9706 26.3659 52.0777 26.1912C53.0719 24.5299 53.6062 23.2361 53.8931 22.3221L53.9065 22.3295C53.954 22.1574 53.9984 21.9843 54.0401 21.8107C54.0959 21.5937 54.1356 21.4074 54.163 21.2538C54.3763 20.1951 54.485 19.1065 54.485 17.9917C54.485 15.1039 53.7588 12.3905 52.3265 9.92689C50.8916 7.46025 48.894 5.50074 46.3887 4.102C43.8905 2.70716 41.1218 2 38.1597 2C35.3233 2 32.6365 2.71583 30.1733 4.12749C27.7101 5.54004 25.7413 7.513 24.3215 9.99115C22.9046 12.4656 22.186 15.1834 22.186 18.0688C22.186 20.9573 22.9053 23.6636 24.3244 26.1127C25.7459 28.5674 27.7375 30.521 30.2434 31.9196C32.7404 33.3144 35.4757 34.0212 38.3746 34.0212C38.9903 34.0212 39.5972 33.9871 40.1964 33.9228C40.3485 33.9117 40.5006 33.9003 40.6516 33.8881C40.9978 33.8609 41.3401 33.8313 41.6794 33.8016C41.7727 33.7933 41.8659 33.7851 41.9588 33.7769C43.2461 33.6632 44.4933 33.553 45.7372 33.548C45.719 33.5661 45.7018 33.5851 45.6856 33.605C45.2606 34.1263 45.4517 35.0441 46.1026 35.61C46.3867 35.8568 46.7959 36.0046 47.1976 36.0046C47.6066 36.0046 47.9478 35.8518 48.1584 35.575C48.5371 35.07 48.3192 34.3542 47.6035 33.752C47.5448 33.7025 47.4845 33.6568 47.423 33.6149C50.2517 33.8658 53.1484 34.8935 56.5383 37.8811Z" fill="#FF8C00"/>
    </symbol>

    <!-- Payer type -->
    <symbol viewBox="0 0 14 16" id="payer-type-1">
        <path d="M7 6C8.10457 6 9 5.10457 9 4C9 2.89543 8.10457 2 7 2C5.89543 2 5 2.89543 5 4C5 5.10457 5.89543 6 7 6ZM7 8C9.20914 8 11 6.20914 11 4C11 1.79086 9.20914 0 7 0C4.79086 0 3 1.79086 3 4C3 6.20914 4.79086 8 7 8ZM4 11C2.89543 11 2 11.8954 2 13V16H0V13C0 10.7909 1.79086 9 4 9H10C12.2091 9 14 10.7909 14 13V16H12V13C12 11.8954 11.1046 11 10 11H4ZM11 12H8V13H11V12Z"/>
    </symbol>

    <symbol viewBox="0 0 16 16" id="payer-type-2">
        <path d="M6 4C6 3.44772 6.44772 3 7 3H9C9.55228 3 10 3.44772 10 4V5H6V4ZM4 5V4C4 2.34315 5.34315 1 7 1H9C10.6569 1 12 2.34315 12 4V5H14C15.1046 5 16 5.89543 16 7V13C16 14.1046 15.1046 15 14 15H2C0.895431 15 0 14.1046 0 13V7C0 5.89543 0.895431 5 2 5H4ZM2 7H14V13H2V7Z"/>
    </symbol>

    <symbol viewBox="0 0 16 16" id="payer-type-3">
        <path d="M10 2H6V14H10V2ZM6 0H4V2V4.38197L0.552786 6.10557L0 6.38197V7V15V16H1H4H6H10H12H15H16V15V7V6.38197L15.4472 6.10557L12 4.38197V2V0H10H6ZM12 6.61803V14H14V7.61803L12 6.61803ZM2 7.61803L4 6.61803V14H2V7.61803Z"/>
    </symbol>

    <!-- Pay statuses -->
    <symbol viewBox="0 0 28 28" id="pay-done">
        <path d="M2 20L2 12H24V15L26 13V6C26 4.89543 25.1046 4 24 4H2C0.895431 4 0 4.89543 0 6V20C0 21.1046 0.89543 22 2 22H17L15 20H2ZM24 6H2V8H24V6ZM8 17H4V18H8V17ZM18 20L19 19L21 21L27 15L28 16L21 23L18 20Z" fill="#56B157"/>
    </symbol>

    <symbol viewBox="0 0 28 28" id="pay-error">
        <path d="M24 6H2V8H24V6ZM2 20L2 12H24V14H26V6C26 4.89543 25.1046 4 24 4H2C0.895431 4 0 4.89543 0 6V20C0 21.1046 0.89543 22 2 22H18V20H2ZM8 17H4V18H8V17ZM28 17L27 16L24 19L21 16L20 17L23 20L20 23L21 24L24 21L27 24L28 23L25 20L28 17Z" fill="#FF4747"/>
    </symbol>

    <!-- Stripe -->
    <symbol viewBox="0 0 60 42" id="cvc">
        <path d="M10 10C10 8.89543 10.8954 8 12 8H48C49.1046 8 50 8.89543 50 10V32C50 33.1046 49.1046 34 48 34H12C10.8954 34 10 33.1046 10 32V10Z" fill="#C1C1C1"/>
        <path opacity="0.7" fill-rule="evenodd" clip-rule="evenodd" d="M29 22H13V23H29V22ZM23 25H13V26H23V25Z" fill="white"/>
        <rect x="10" y="12" width="40" height="5" fill="#30343B"/>
        <circle cx="50" cy="32" r="10" fill="#30343B"/>
        <path d="M40 22V32L50 22H40Z" fill="#30343B"/>
        <path d="M45.2023 33.28H44.0023V34H47.2023V33.28H46.0023V30H44.0823V30.72H45.2023V33.28ZM49.2008 31.24C49.2008 30.928 49.4648 30.68 49.9608 30.68C50.4568 30.68 50.7208 30.848 50.7208 31.16C50.7208 31.392 50.5368 31.528 49.9048 31.776C48.8648 32.184 48.2808 32.784 48.2808 33.44V34H51.6408V33.28H49.2008C49.2008 32.976 49.6088 32.696 50.2088 32.464C51.2088 32.072 51.5608 31.736 51.5608 31.16C51.5608 30.4 50.9448 29.92 49.9608 29.92C48.9288 29.92 48.3608 30.44 48.3608 31.24H49.2008ZM54.3992 33.32C53.8472 33.32 53.5592 33.152 53.5592 32.84H52.7192C52.7192 33.64 53.3112 34.08 54.3992 34.08C55.4792 34.08 56.0792 33.64 56.0792 32.84C56.0792 32.448 55.8952 32.152 55.5352 31.976C55.8152 31.792 55.9592 31.52 55.9592 31.16C55.9592 30.36 55.3912 29.92 54.3592 29.92C53.3272 29.92 52.7592 30.36 52.7592 31.16H53.5992C53.5992 30.848 53.8632 30.68 54.3592 30.68C54.8552 30.68 55.1192 30.848 55.1192 31.16C55.1192 31.472 54.8712 31.64 54.3992 31.64H53.7992V32.36H54.3992C54.9512 32.36 55.2392 32.528 55.2392 32.84C55.2392 33.152 54.9432 33.32 54.3992 33.32Z" fill="white"/>
    </symbol>

    <!--  Download  -->
    <symbol viewBox="0 0 16 16" id="download_invoice">
        <path d="M14 14V12H16V14C16 15.1046 15.1046 16 14 16H2C0.895431 16 0 15.1046 0 14V12H2V14H14ZM9 0V8.3L11.6 5.6L13 7L8 12L3 7L4.4 5.6L7 8.3V0H9Z" />
    </symbol>

    <!--  Open  -->
    <symbol viewBox="0 0 16 16" id="open_invoice">
        <path fill-rule="evenodd" clip-rule="evenodd" d="M2 2H14V4H2V2ZM2 6H14V14H11V16H14C15.1046 16 16 15.1046 16 14V2C16 0.895431 15.1046 0 14 0H2C0.895431 0 0 0.895431 0 2V14C0 15.1046 0.895431 16 2 16H5V14H2V6ZM8.70711 7.29289C8.31658 6.90237 7.68342 6.90237 7.29289 7.29289L4.29289 10.2929C3.90237 10.6834 3.90237 11.3166 4.29289 11.7071C4.68342 12.0976 5.31658 12.0976 5.70711 11.7071L7 10.4142V16H9V10.4142L10.2929 11.7071C10.6834 12.0976 11.3166 12.0976 11.7071 11.7071C12.0976 11.3166 12.0976 10.6834 11.7071 10.2929L8.70711 7.29289Z" fill="currentColor"/>
    </symbol>

    <symbol viewBox="0 0 16 16" fill="none" id="count-sites">
        <path fill-rule="evenodd" clip-rule="evenodd" d="M2 13V5H14V13H2ZM0 3C0 1.89543 0.895431 1 2 1H14C15.1046 1 16 1.89543 16 3V13C16 14.1046 15.1046 15 14 15H2C0.895431 15 0 14.1046 0 13V3Z" fill="#56B157"/>
    </symbol>
</svg>
