<svg xmlns="http://www.w3.org/2000/svg" xmlns:xlink="http://www.w3.org/1999/xlink">
    <symbol viewBox="0 0 28 28" id="search">
        <path fill-rule="evenodd" clip-rule="evenodd" d="M21 12C21 16.9706 16.9706 21 12 21C7.02944 21 3 16.9706 3 12C3 7.02944 7.02944 3 12 3C16.9706 3 21 7.02944 21 12ZM19.0391 20.4533C17.1316 22.0434 14.6775 23 12 23C5.92487 23 1 18.0751 1 12C1 5.92487 5.92487 1 12 1C18.0751 1 23 5.92487 23 12C23 14.6775 22.0434 17.1316 20.4533 19.0391L26.7071 25.2929L25.2929 26.7071L19.0391 20.4533Z" />
    </symbol>

    <symbol viewBox="0 0 16 16" fill="none" id="project">
        <path d="M15 3V13C15 13.5523 14.5523 14 14 14H2C1.44772 14 1 13.5523 1 13V3C1 2.44772 1.44772 2 2 2H14C14.5523 2 15 2.44772 15 3Z" stroke="currentColor" stroke-width="2"/>
        <rect x="2" y="3" width="12" height="2" fill="currentColor"/>
    </symbol>

    <symbol viewBox="0 0 16 16" id="icon-info">
        <path d="M16 8C16 12.4183 12.4183 16 8 16C3.58172 16 0 12.4183 0 8C0 3.58172 3.58172 0 8 0C12.4183 0 16 3.58172 16 8ZM9 4V6H7V4H9ZM9 12V8H7V12H9Z"/>
    </symbol>

    <symbol viewBox="0 0 18 4" id="more">
        <path d="M4 2C4 3.10457 3.10457 4 2 4C0.895431 4 0 3.10457 0 2C0 0.895431 0.895431 0 2 0C3.10457 0 4 0.895431 4 2ZM11 2C11 3.10457 10.1046 4 9 4C7.89543 4 7 3.10457 7 2C7 0.895431 7.89543 0 9 0C10.1046 0 11 0.895431 11 2ZM16 4C17.1046 4 18 3.10457 18 2C18 0.895431 17.1046 0 16 0C14.8954 0 14 0.895431 14 2C14 3.10457 14.8954 4 16 4Z"/>
    </symbol>

    <symbol viewBox="0 0 18 18" id="analytics">
        <path d="M7 17h3V1H7v16zm5 0h3v-7h-3v7zM2 17h3V6H2v11z"/>
    </symbol>

    <symbol viewBox="0 0 18 18" id="delete">
        <path d="M12.167 17C13.175 17 14 16.23 14 15.286V5H3v10.286C3 16.23 3.825 17 4.833 17h7.334zM3.177 2h10.646C14.473 2 15 2.444 15 3v2H2V3c0-.552.526-1 1.177-1zM6.5 1a.5.5 0 0 0-.5.5V2h5v-.5a.5.5 0 0 0-.5-.5h-4zM2 4v1h13V4H2z"/>
    </symbol>

    <symbol viewBox="0 0 16 16" fill="none" id="apply">
        <path d="M0.911621 7.48312L5.74874 12.3148L15.1384 2.93054" stroke="currentColor" stroke-width="2"/>
    </symbol>

    <symbol viewBox="0 0 18 18" id="leads">
        <path d="M14 0v4h4L8 10l6-10z"/>
        <path d="M1.2 5.787a8.002 8.002 0 0 1 9.556-3.298l-.903 1.803a6 6 0 1 0 3.853 3.854l1.804-.902A8 8 0 1 1 1.2 5.787z"/>
        <path d="M4.6 7.894a4 4 0 0 1 4.344-1.78L8 8a2 2 0 1 0 2 2l1.886-.943A4 4 0 1 1 4.6 7.894z"/>
    </symbol>

    <symbol viewBox="0 0 18 18" id="pages">
        <path d="M15 13V2a1 1 0 0 0-1-1H6a1 1 0 0 0-1 1v2H2.91a.918.918 0 0 0-.91.93v11.14c0 .514.406.93.91.93h8.18a.92.92 0 0 0 .91-.93V14h2a1 1 0 0 0 1-1zm-3 0h1.5a.5.5 0 0 0 .5-.5v-10a.5.5 0 0 0-.5-.5h-7a.5.5 0 0 0-.5.5V4h5.09c.503 0 .91.415.91.93V13z"/>
    </symbol>

    <symbol viewBox="0 0 18 18" id="settings">
        <path d="M10.794 14.727a5.975 5.975 0 0 0 1.682-.836l1.474 1.474 1.414-1.414-1.473-1.473c.4-.56.705-1.192.893-1.872L17 10V8l-2.188-.497c-.185-.72-.5-1.39-.92-1.98l1.472-1.473-1.414-1.414-1.473 1.473c-.52-.37-1.1-.66-1.724-.85L10 1H8l-.753 2.26c-.624.19-1.204.48-1.724.85L4.05 2.635 2.636 4.05 4.11 5.523a5.974 5.974 0 0 0-.907 1.925L1 8v2l2.202.55c.187.7.498 1.35.907 1.926L2.635 13.95l1.414 1.414 1.473-1.473c.53.378 1.125.672 1.764.862L8 17h2l.794-2.273zM13 9a4 4 0 1 1-8 0 4 4 0 0 1 8 0z"/>
    </symbol>

    <symbol viewBox="0 0 16 16" id="globe">
        <path d="M0 8C0 3.58172 3.58172 0 8 0C12.4183 0 16 3.58172 16 8C16 12.4183 12.4183 16 8 16L7.99497 16C3.579 15.9973 0 12.4166 0 8ZM8.4653 13.7382C8.23343 13.967 8.0778 13.9996 8.00128 14H8C7.92395 14 7.76787 13.9683 7.5347 13.7382C7.29723 13.5038 7.03751 13.1151 6.79782 12.5558C6.40914 11.6489 6.12491 10.4144 6.03237 9H9.96763C9.87509 10.4144 9.59086 11.6489 9.20218 12.5558C8.96249 13.1151 8.70277 13.5038 8.4653 13.7382ZM9.96763 7H6.03237C6.12491 5.58559 6.40914 4.35111 6.79782 3.44418C7.03751 2.88491 7.29723 2.4962 7.5347 2.26185C7.76787 2.03173 7.92395 2 8 2C8.07605 2 8.23213 2.03173 8.4653 2.26185C8.70277 2.4962 8.96249 2.88491 9.20218 3.44418C9.59086 4.35111 9.87509 5.58559 9.96763 7ZM11.9714 9C11.8822 10.5464 11.5877 11.9709 11.1336 13.1177C12.5825 12.2287 13.6249 10.7415 13.917 9H11.9714ZM13.917 7H11.9714C11.8822 5.45361 11.5877 4.02907 11.1336 2.88228C12.5825 3.77134 13.6249 5.25848 13.917 7ZM4.02863 7C4.11784 5.45361 4.41228 4.02907 4.86644 2.88228C3.41752 3.77135 2.37513 5.25848 2.08296 7H4.02863ZM2.08296 9C2.37513 10.7415 3.41752 12.2287 4.86644 13.1177C4.41228 11.9709 4.11783 10.5464 4.02863 9H2.08296Z"/>
    </symbol>

    <symbol viewBox="0 0 16 16" id="globe-green">
        <path d="M0 8C0 3.58172 3.58172 0 8 0C12.4183 0 16 3.58172 16 8C16 12.4183 12.4183 16 8 16L7.99497 16C3.579 15.9973 0 12.4166 0 8ZM8.4653 13.7382C8.23343 13.967 8.0778 13.9996 8.00128 14H8C7.92395 14 7.76787 13.9683 7.5347 13.7382C7.29723 13.5038 7.03751 13.1151 6.79782 12.5558C6.40914 11.6489 6.12491 10.4144 6.03237 9H9.96763C9.87509 10.4144 9.59086 11.6489 9.20218 12.5558C8.96249 13.1151 8.70277 13.5038 8.4653 13.7382ZM9.96763 7H6.03237C6.12491 5.58559 6.40914 4.35111 6.79782 3.44418C7.03751 2.88491 7.29723 2.4962 7.5347 2.26185C7.76787 2.03173 7.92395 2 8 2C8.07605 2 8.23213 2.03173 8.4653 2.26185C8.70277 2.4962 8.96249 2.88491 9.20218 3.44418C9.59086 4.35111 9.87509 5.58559 9.96763 7ZM11.9714 9C11.8822 10.5464 11.5877 11.9709 11.1336 13.1177C12.5825 12.2287 13.6249 10.7415 13.917 9H11.9714ZM13.917 7H11.9714C11.8822 5.45361 11.5877 4.02907 11.1336 2.88228C12.5825 3.77134 13.6249 5.25848 13.917 7ZM4.02863 7C4.11784 5.45361 4.41228 4.02907 4.86644 2.88228C3.41752 3.77135 2.37513 5.25848 2.08296 7H4.02863ZM2.08296 9C2.37513 10.7415 3.41752 12.2287 4.86644 13.1177C4.41228 11.9709 4.11783 10.5464 4.02863 9H2.08296Z" fill="#56B157"/>
    </symbol>

    <symbol viewBox="0 0 18 18" id="renouncement">
            <path d="M9 0a4 4 0 0 0-4 4v1H3a1 1 0 0 0-1 1v9a1 1 0 0 0 1 1h4v-2H4V7h10v1h2V6a1 1 0 0 0-1-1h-2V4a4 4 0 0 0-4-4zm2 5V4a2 2 0 0 0-4 0v1h4z"/>
            <path d="M14.707 13.293L17 11l-1.414-1.414-2.293 2.293L11 9.585 9.586 11l2.293 2.293-2.294 2.293L11 17l2.293-2.293L15.586 17 17 15.586l-2.293-2.293z"/>
    </symbol>

    <symbol viewBox="0 0 18 18" id="pay-old">
        <path d="M15 5H3v1h12V5zM3 13V9h12v4H3zM3 3a2 2 0 0 0-2 2v8a2 2 0 0 0 2 2h12a2 2 0 0 0 2-2V5a2 2 0 0 0-2-2H3zm11 8h-3v1h3v-1z"/>
    </symbol>

    <symbol viewBox="0 0 28 28" id="refuse-access">
        <path d="M2 23V7h24v16H2zM0 5a2 2 0 0 1 2-2h24a2 2 0 0 1 2 2v18a2 2 0 0 1-2 2H2a2 2 0 0 1-2-2V5zm14 13a3 3 0 0 0 2.708-4.293l-4 4c.39.188.83.293 1.292.293zm-2.708-1.707l4-4a3 3 0 0 0-4 4zM14 20a5 5 0 1 0 0-10 5 5 0 0 0 0 10z"
              fill="#FF4747"/>
    </symbol>

    <symbol viewBox="0 0 28 28" id="delete-project">
        <path d="M26 12V7H2v16h13v2H2a2 2 0 0 1-2-2V5a2 2 0 0 1 2-2h24a2 2 0 0 1 2 2v7h-2zm-3 10.414l-3.293 3.293-1.414-1.414L21.586 21l-3.293-3.293 1.414-1.414L23 19.586l3.293-3.293 1.414 1.414L24.414 21l3.293 3.293-1.414 1.414L23 22.414z"
              fill="#FF4747"/>
    </symbol>

    <symbol viewBox="0 0 28 28" id="group-shared">
        <path d="M9 11C10.6569 11 12 9.65685 12 8C12 6.34315 10.6569 5 9 5C7.34315 5 6 6.34315 6 8C6 9.65685 7.34315 11 9 11ZM9 13C11.7614 13 14 10.7614 14 8C14 5.23858 11.7614 3 9 3C6.23858 3 4 5.23858 4 8C4 10.7614 6.23858 13 9 13ZM0 19C0 16.7909 1.79086 15 4 15H14C16.2091 15 18 16.7909 18 19V25H16V19C16 17.8954 15.1046 17 14 17H4C2.89543 17 2 17.8954 2 19V25H0V19ZM23 11C23 11.5523 22.5523 12 22 12C21.4477 12 21 11.5523 21 11C21 10.4477 21.4477 10 22 10C22.5523 10 23 10.4477 23 11ZM25 11C25 12.6569 23.6569 14 22 14C20.3431 14 19 12.6569 19 11C19 9.34315 20.3431 8 22 8C23.6569 8 25 9.34315 25 11ZM26 20C26 18.8954 25.1046 18 24 18H20L19 16H24C26.2091 16 28 17.7909 28 20V25H26V20ZM14 21V19H10V21C10 22.1046 10.8954 23 12 23C13.1046 23 14 22.1046 14 21Z"/>
    </symbol>

    <symbol viewBox="0 0 28 28" id="group-old">
        <path d="M26 6H16V22H26V6ZM16 4C14.8954 4 14 4.89543 14 6V22C14 23.1046 14.8954 24 16 24H26C27.1046 24 28 23.1046 28 22V6C28 4.89543 27.1046 4 26 4H16ZM6 8C6 6.89543 6.89543 6 8 6H13V8H8V20H13V22H8C6.89543 22 6 21.1046 6 20V8ZM2 8C0.89543 8 0 8.89543 0 10V18C0 19.1046 0.895431 20 2 20H5V18H2V10H5V8H2Z"/>
    </symbol>

    <symbol viewBox="0 0 16 16" id="transfer">
        <path d="M12 0l4 4-4 4V5H4V3h8V0zM4 8l-4 4 4 4v-3h8v-2H4V8z"/>
    </symbol>

    <symbol class="fliexbe-icon size-28" viewBox="0 0 28 28" id="transfer-big">
        <path d="M26 14c0 6.627-5.373 12-12 12S2 20.627 2 14 7.373 2 14 2s12 5.373 12 12zm2 0c0 7.732-6.268 14-14 14S0 21.732 0 14 6.268 0 14 0s14 6.268 14 14zm-8-4l-4-4v3h-6v2h6v3l4-4zm-8 4v3h6v2h-6v3l-4-4 4-4z" fill="#fff"/>
    </symbol>

    <symbol viewBox="0 0 28 28" id="transfer-progress-big">
        <path fill-rule="evenodd" clip-rule="evenodd" d="M14 26C20.6274 26 26 20.6274 26 14C26 7.37258 20.6274 2 14 2C7.37258 2 2 7.37258 2 14C2 20.6274 7.37258 26 14 26ZM14 28C21.732 28 28 21.732 28 14C28 6.26801 21.732 0 14 0C6.26801 0 0 6.26801 0 14C0 21.732 6.26801 28 14 28Z" />
        <path fill-rule="evenodd" clip-rule="evenodd" d="M6 14C6 9.58933 9.58844 6 14 6C16.4324 6 18.6087 7.09482 20.0747 8.81424L22 7V12H17L18.5 10C17.3596 8.6 15.9423 8 14 8C10.5698 8 8 10.5689 8 14H6ZM22 14C22 18.4107 18.4116 22 14 22C11.5676 22 9.39125 20.9052 7.92535 19.1858L6 21V16H11L9.5 18C10.6404 19.4 12.0577 20 14 20C17.4302 20 20 17.4311 20 14H22Z" />
    </symbol>

    <symbol viewBox="0 0 16 16" id="draft">
        <path fill-rule="evenodd" clip-rule="evenodd" d="M3.53518 1C2.86648 1 2.24201 1.3342 1.87108 1.8906L0.335899 4.19338C0.116876 4.52191 0 4.90793 0 5.30278V13C0 14.1046 0.895431 15 2 15H14C15.1046 15 16 14.1046 16 13V5.30278C16 4.90793 15.8831 4.52191 15.6641 4.19338L14.1289 1.8906C13.758 1.3342 13.1335 1 12.4648 1H3.53518ZM2.86852 4L3.53518 3H12.4648L13.1315 4H2.86852ZM2 6H14V13H2V6ZM11 8H5V10H11V8Z" fill="currentColor"/>
    </symbol>

    <symbol viewBox="0 0 16 16" id="upgrade">
        <path d="M14 4H2V5H14V4ZM2 12V8H14V12H2ZM2 2C0.895431 2 0 2.89543 0 4V12C0 13.1046 0.895431 14 2 14H14C15.1046 14 16 13.1046 16 12V4C16 2.89543 15.1046 2 14 2H2ZM13 10H10V11H13V10Z" />
    </symbol>

    <symbol viewBox="0 0 28 28" id="draft-light">
        <path d="M24.5662 1H3.43381L0 6.72302V27H28V6.72302L24.5662 1ZM2.76619 6L4.56619 3H23.4338L25.2338 6H2.76619ZM2 8H26V25H2V8ZM19 11H9V13H19V11Z" />
    </symbol>

    <symbol viewBox="0 0 28 28" id="published-light">
        <path fill-rule="evenodd" clip-rule="evenodd" d="M26 5H2V9H26V5ZM2 23V11H26V23H2ZM2 3C0.895431 3 0 3.89543 0 5V23C0 24.1046 0.895431 25 2 25H26C27.1046 25 28 24.1046 28 23V5C28 3.89543 27.1046 3 26 3H2ZM4 8C4.55228 8 5 7.55228 5 7C5 6.44772 4.55228 6 4 6C3.44772 6 3 6.44772 3 7C3 7.55228 3.44772 8 4 8ZM8 7C8 7.55228 7.55228 8 7 8C6.44772 8 6 7.55228 6 7C6 6.44772 6.44772 6 7 6C7.55228 6 8 6.44772 8 7ZM10 8C10.5523 8 11 7.55228 11 7C11 6.44772 10.5523 6 10 6C9.44771 6 9 6.44772 9 7C9 7.55228 9.44771 8 10 8Z" />
    </symbol>

    <symbol viewBox="0 0 12 12" id="plus">
        <path d="M6 0C5.44772 0 5 0.447715 5 1V5H1C0.447715 5 0 5.44772 0 6C0 6.55228 0.447715 7 1 7H5V11C5 11.5523 5.44772 12 6 12C6.55228 12 7 11.5523 7 11V7H11C11.5523 7 12 6.55228 12 6C12 5.44771 11.5523 5 11 5H7V1C7 0.447715 6.55228 0 6 0Z" />
    </symbol>

    <symbol viewBox="0 0 16 16" id="replace-project">
        <path d="M13 4C12.4477 4 12 3.55228 12 3C12 2.44772 12.4477 2 13 2C13.5523 2 14 2.44772 14 3C14 3.55228 13.5523 4 13 4ZM13 6C11.6938 6 10.5825 5.16519 10.1707 4L4 4L4 6L6 6L4 8L3 9L2 8L-2.62268e-07 6L2 6L2 4C2 2.89543 2.89543 2 4 2L10.1707 2C10.5825 0.834807 11.6938 -1.88231e-07 13 -1.31134e-07C14.6569 -5.87108e-08 16 1.34315 16 3C16 4.65685 14.6569 6 13 6ZM3 14C2.44772 14 2 13.5523 2 13C2 12.4477 2.44772 12 3 12C3.55228 12 4 12.4477 4 13C4 13.5523 3.55228 14 3 14ZM3 16C1.34314 16 -6.40671e-07 14.6569 -5.68248e-07 13C-4.95825e-07 11.3431 1.34314 10 3 10C4.30622 10 5.41746 10.8348 5.82929 12L12 12L12 10L10 10L13 7L16 10L14 10L14 12C14 13.1046 13.1046 14 12 14L5.82929 14C5.41746 15.1652 4.30622 16 3 16Z" />
    </symbol>

    <symbol viewBox="0 0 28 28" id="make-draft">
        <path fill-rule="evenodd" clip-rule="evenodd" d="M2.8512 0.971008C3.21265 0.368598 3.86367 0 4.56619 0H23.4338C24.1363 0 24.7873 0.368598 25.1488 0.971009L28 5.72302V24C28 25.1046 27.1046 26 26 26H14L16 24H26V7H2V20H0V5.72302L2.8512 0.971008ZM23.4338 2L25.2338 5H2.76619L4.56619 2H23.4338ZM19 10H9V12H19V10ZM8 20L12 24L8 28V25H0V23H8V20Z" fill="#ACAEB1"/>
    </symbol>

    <symbol viewBox="0 0 28 28" id="remove-from-draft">
        <path fill-rule="evenodd" clip-rule="evenodd" d="M2.8512 0.933662C3.21265 0.354421 3.86367 0 4.56619 0H23.4338C24.1363 0 24.7873 0.354421 25.1488 0.933662L28 5.5029V23.0769C28 24.139 27.1046 25 26 25H14.5V23L26 23.0769V7H2V17.5L0 19.5V5.5029L2.8512 0.933662ZM23.4338 1.92308L25.3538 5H2.64619L4.56619 1.92308H23.4338ZM19 10H9V12H19V10ZM4 28L0 24L4 20L4 23H12V25H4L4 28Z" fill="#ACAEB1"/>
    </symbol>

    <symbol viewBox="0 0 16 16" fill="none" id="publish">
        <path fill-rule="evenodd" clip-rule="evenodd" d="M14 13V5H2V13H5V15H2C0.895431 15 0 14.1046 0 13V3C0 1.89543 0.895431 1 2 1H14C15.1046 1 16 1.89543 16 3V13C16 14.1046 15.1046 15 14 15H11V13H14ZM9 11H12L9 8L8 7L7 8L4 11H7V15H9V11Z" fill="currentColor"/>
    </symbol>

    <symbol viewBox="0 0 17 17" fill="none" id="ecommerce">
        <path d="M2.12132 8.2929L9.41421 1H16V7.58579L8.70711 14.8787C8.31658 15.2692 7.68342 15.2692 7.29289 14.8787L2.12132 9.70711L1.41421 10.4142L2.12132 9.70711C1.7308 9.31658 1.7308 8.68342 2.12132 8.2929Z" stroke="currentColor" stroke-width="2"/>
        <circle cx="12" cy="5" r="1" fill="currentColor"/>
    </symbol>

    <symbol viewBox="0 0 16 16" fill="none" id="rename">
        <path d="M11.2968 2.2072L10.5039 3.00009L13.0039 5.50009L13.7968 4.7072C14.1873 4.31668 14.1873 3.68351 13.7968 3.29299L12.711 2.2072C12.3205 1.81668 11.6873 1.81668 11.2968 2.2072Z" fill="currentColor" />
        <path d="M2.95711 10.5469L9.50391 4.00009L12.0039 6.50009L5.45711 13.0469C5.16236 13.3416 4.78287 13.5369 4.3717 13.6055L2.00391 14.0001L2.39854 11.6323C2.46707 11.2211 2.66236 10.8416 2.95711 10.5469Z" fill="currentColor" />
        <path d="M15.0039 13H8.00386L7.00391 14H15.0039V13Z" fill="currentColor" />
    </symbol>
</svg>
