<svg xmlns="http://www.w3.org/2000/svg" xmlns:xlink="http://www.w3.org/1999/xlink">
    <symbol viewBox="0 0 10 10" id="arrow-next">
        <path d="M6 5L2 1L3 0L8 5L3 10L2 9L6 5Z" />
    </symbol>

    <symbol viewBox="0 0 12 12" id="to-link">
        <path d="M8 1h2.293L4.646 6.646l.708.708L11 1.707V4h1V0H8v1zM2 2h3V1H2a2 2 0 0 0-2 2v7a2 2 0 0 0 2 2h7a2 2 0 0 0 2-2V7h-1v3a1 1 0 0 1-1 1H2a1 1 0 0 1-1-1V3a1 1 0 0 1 1-1z"/>
    </symbol>

    <symbol viewBox="0 0 16 16" id="to-link-bold">
        <path d="M12.2929 2.29289L10 0H16V6L13.7071 3.70711L7.70711 9.70711L6.29289 8.29289L12.2929 2.29289ZM7 4H2L2 14H12V9H14V14C14 15.1046 13.1046 16 12 16H2C0.89543 16 0 15.1046 0 14V4C0 2.89543 0.895431 2 2 2H7V4Z"/>
    </symbol>

    <symbol viewBox="0 0 16 16" id="action-remove">
        <path d="M11.1667 16C12.1751 16 13.0001 15.2286 13.0001 14.2857V4H2.00006V14.2857C2.00006 15.2286 2.82506 16 3.83339 16H11.1667ZM2.17665 1H12.8235C13.4733 1 14.0001 1.44386 14.0001 2V4H1.00006V2C1.00006 1.44772 1.52578 1 2.17665 1ZM5.50006 0C5.22392 0 5.00006 0.223858 5.00006 0.5V1H10.0001V0.5C10.0001 0.223858 9.7762 0 9.50006 0H5.50006ZM1.00006 3V4H14.0001V3H1.00006Z"/>
    </symbol>

    <symbol viewBox="0 0 16 16" id="action-resume">
        <path d="M3 3.44636C3 2.67854 3.82948 2.19717 4.49614 2.57812L12.465 7.13176C13.1368 7.51565 13.1368 8.48435 12.465 8.86824L4.49614 13.4219C3.82948 13.8028 3 13.3215 3 12.5536V3.44636Z" fill="none" stroke="currentColor" stroke-width="2"/>
    </symbol>

    <symbol viewBox="0 0 16 16" id="action-pause">
        <path d="M3 3H5V13H3L3 3ZM1 3C1 1.89543 1.89543 1 3 1H5C6.10457 1 7 1.89543 7 3V13C7 14.1046 6.10457 15 5 15H3C1.89543 15 1 14.1046 1 13V3ZM11 3H13V13H11V3ZM9 3C9 1.89543 9.89543 1 11 1H13C14.1046 1 15 1.89543 15 3V13C15 14.1046 14.1046 15 13 15H11C9.89543 15 9 14.1046 9 13V3Z"/>
    </symbol>

    <symbol viewBox="0 0 28 28" id="remove_confirm_big">
        <path d="M26 14C26 20.6274 20.6274 26 14 26C7.37258 26 2 20.6274 2 14C2 7.37258 7.37258 2 14 2C20.6274 2 26 7.37258 26 14ZM28 14C28 21.732 21.732 28 14 28C6.26801 28 0 21.732 0 14C0 6.26801 6.26801 0 14 0C21.732 0 28 6.26801 28 14ZM13 16V7H15V16H13ZM13 20V18H15V20H13Z" fill="#FF4747"/>
    </symbol>

    <symbol viewBox="0 0 12 12" id="plus">
        <path d="M7 0H5v5H0v2h5v5h2V7h5V5H7V0z"/>
    </symbol>

    <symbol viewBox="0 0 16 16" id="icon-instruction">
        <path d="M4 0h6l4 4v10a2 2 0 0 1-2 2H4a2 2 0 0 1-2-2V2a2 2 0 0 1 2-2zm8 5H9V2H4v12h8V5z"/>
        <path d="M6 7h4v2H6zM6 10h4v2H6z"/>
    </symbol>
</svg>
