<svg xmlns="http://www.w3.org/2000/svg" xmlns:xlink="http://www.w3.org/1999/xlink">
    <!-- Common icons  -->
    <symbol viewBox="0 0 18 4" id="dots">
        <path d="M4 2C4 3.10457 3.10457 4 2 4C0.895431 4 0 3.10457 0 2C0 0.895431 0.895431 0 2 0C3.10457 0 4 0.895431 4 2ZM11 2C11 3.10457 10.1046 4 9 4C7.89543 4 7 3.10457 7 2C7 0.895431 7.89543 0 9 0C10.1046 0 11 0.895431 11 2ZM16 4C17.1046 4 18 3.10457 18 2C18 0.895431 17.1046 0 16 0C14.8954 0 14 0.895431 14 2C14 3.10457 14.8954 4 16 4Z"/>
    </symbol>

    <symbol viewBox="0 0 16 16" id="remove">
        <path d="M11.1667 16C12.1751 16 13.0001 15.2286 13.0001 14.2857V4H2.00006V14.2857C2.00006 15.2286 2.82506 16 3.83339 16H11.1667ZM2.17665 1H12.8235C13.4733 1 14.0001 1.44386 14.0001 2V4H1.00006V2C1.00006 1.44772 1.52578 1 2.17665 1ZM5.50006 0C5.22392 0 5.00006 0.223858 5.00006 0.5V1H10.0001V0.5C10.0001 0.223858 9.7762 0 9.50006 0H5.50006ZM1.00006 3V4H14.0001V3H1.00006Z"/>
    </symbol>

    <symbol viewBox="0 0 16 16" id="lock">
        <path fill-rule="evenodd" clip-rule="evenodd" d="M11 5V6H5V5C5 3.34315 6.34315 2 8 2C9.65685 2 11 3.34315 11 5ZM3 6V5C3 2.23858 5.23858 0 8 0C10.7614 0 13 2.23858 13 5V6C14.1046 6 15 6.89543 15 8V14C15 15.1046 14.1046 16 13 16H3C1.89543 16 1 15.1046 1 14V8C1 6.89543 1.89543 6 3 6ZM13 8H11H5H3L3 14H13V8ZM7 10C7 9.44772 7.44772 9 8 9C8.55228 9 9 9.44772 9 10V12C9 12.5523 8.55228 13 8 13C7.44772 13 7 12.5523 7 12V10Z" fill="currentColor"/>
    </symbol>

    <symbol viewBox="0 0 12 12" id="lock-filled">
        <path fill-rule="evenodd" clip-rule="evenodd" d="M6 0C4.34315 0 3 1.34315 3 3V4C1.89543 4 1 4.89543 1 6V10C1 11.1046 1.89543 12 3 12H9C10.1046 12 11 11.1046 11 10V6C11 4.89543 10.1046 4 9 4V3C9 1.34315 7.65685 0 6 0ZM8 4V3C8 1.89543 7.10457 1 6 1C4.89543 1 4 1.89543 4 3V4H8Z" fill="currentColor"/>
    </symbol>

    <symbol viewBox="0 0 18 18" id="QR">
        <path d="M1 0C0.448 0 0 0.448 0 1V5C0 5.552 0.448 6 1 6H5C5.552 6 6 5.552 6 5V1C6 0.448 5.552 0 5 0H1ZM8 0V2H10V0H8ZM13 0C12.448 0 12 0.448 12 1V5C12 5.552 12.448 6 13 6H17C17.552 6 18 5.552 18 5V1C18 0.448 17.552 0 17 0H13ZM2 2H4V4H2V2ZM14 2H16V4H14V2ZM8 4V6H10V4H8ZM0 8V10H2V8H0ZM4 8V10H6V8H4ZM8 8V10H10V8H8ZM10 10V12H12V10H10ZM12 10H14V8H12V10ZM14 10V12H16V10H14ZM16 10H18V8H16V10ZM16 12V14H18V12H16ZM16 14H14V16H16V14ZM16 16V18H18V16H16ZM14 16H12V18H14V16ZM12 16V14H10V16H12ZM10 16H8V18H10V16ZM10 14V12H8V14H10ZM12 14H14V12H12V14ZM1 12C0.448 12 0 12.448 0 13V17C0 17.552 0.448 18 1 18H5C5.552 18 6 17.552 6 17V13C6 12.448 5.552 12 5 12H1ZM2 14H4V16H2V14Z" fill="currentColor"/>
    </symbol>

    <symbol viewBox="0 0 16 16" id="box">
        <path fill-rule="evenodd" clip-rule="evenodd" d="M13.618 0H2.38197L0 4.76393V16H16V4.76393L13.618 0ZM2.61803 4L3.61803 2H12.382L13.382 4H2.61803ZM2 6H14V14H2V6ZM11 8H5V9H11V8Z" fill="currentColor"/>
    </symbol>

    <symbol viewBox="0 0 16 16" id="phone">
        <path fill-rule="evenodd" clip-rule="evenodd" d="M5 2H11V14H5L5 2ZM3 2C3 0.895431 3.89543 0 5 0H11C12.1046 0 13 0.895431 13 2V14C13 15.1046 12.1046 16 11 16H5C3.89543 16 3 15.1046 3 14V2ZM8 13C8.55228 13 9 12.5523 9 12C9 11.4477 8.55228 11 8 11C7.44772 11 7 11.4477 7 12C7 12.5523 7.44772 13 8 13Z" fill="currentColor"/>
    </symbol>

    <symbol viewBox="0 0 16 16" id="warning">
        <path fill-rule="evenodd" clip-rule="evenodd" d="M8.86378 1.49613C8.68457 1.18891 8.35567 1 8 1C7.64433 1 7.31543 1.18891 7.13622 1.49613L0.136221 13.4961C-0.0441976 13.8054 -0.0454804 14.1876 0.132858 14.4981C0.311196 14.8086 0.641935 15 1 15H15C15.3581 15 15.6888 14.8086 15.8671 14.4981C16.0455 14.1876 16.0442 13.8054 15.8638 13.4961L8.86378 1.49613ZM8 3.98464L13.259 13H2.74104L8 3.98464ZM7.5 10V7H8.5V10H7.5ZM7.5 12V11H8.5V12H7.5Z" fill="#FF4747"/>
    </symbol>

    <symbol viewBox="0 0 16 16" id="settings">
        <path d="M7 0H9L9.75342 2.26026C10.377 2.45051 10.9574 2.73958 11.4765 3.10923L12.9497 1.63603L14.3639 3.05025L12.8907 4.52343C13.3106 5.11301 13.6265 5.78174 13.8117 6.50288L16 7V9L13.783 9.60487C13.5947 10.2849 13.2896 10.9164 12.8908 11.4765L14.364 12.9498L12.9498 14.364L11.4766 12.8907C10.9687 13.2524 10.4022 13.5369 9.79404 13.7272L9 16H7L6.28664 13.7518C5.64786 13.5618 5.05365 13.2683 4.52345 12.8907L3.05022 14.364L1.636 12.9498L3.10925 11.4765C2.69954 10.9012 2.38882 10.2505 2.20193 9.5492L0 9V7L2.20266 6.44806C2.38963 5.74784 2.70009 5.09805 3.10928 4.52345L1.63608 3.05025L3.05029 1.63603L4.5235 3.10924C5.04258 2.73959 5.62303 2.45051 6.24658 2.26026L7 0ZM12 8.00967C11.9948 10.2144 10.2059 12 8.00001 12C5.79087 12 4.00001 10.2091 4.00001 8C4.00001 5.79086 5.79087 4 8.00001 4C10.2059 4 11.9948 5.78564 12 7.99033V8.00967Z"/>
    </symbol>

    <symbol viewBox="0 0 16 16" id="api">
        <path d="M9 2H4V14H12V5H9V2ZM14 4L10 0H4H2V2V14V16H4H12H14V14V4ZM6 7H10V9H6V7ZM10 10H6V12H10V10Z"/>
    </symbol>

    <symbol viewBox="0 0 16 16" id="user">
        <path fill-rule="evenodd" clip-rule="evenodd" d="M8 6C9.10457 6 10 5.10457 10 4C10 2.89543 9.10457 2 8 2C6.89543 2 6 2.89543 6 4C6 5.10457 6.89543 6 8 6ZM8 8C10.2091 8 12 6.20914 12 4C12 1.79086 10.2091 0 8 0C5.79086 0 4 1.79086 4 4C4 6.20914 5.79086 8 8 8ZM5 11C3.89543 11 3 11.8954 3 13V16H1V13C1 10.7909 2.79086 9 5 9H11C13.2091 9 15 10.7909 15 13V16H13V13C13 11.8954 12.1046 11 11 11H5ZM12 12H9V13H12V12Z" fill="currentColor"/>
    </symbol>

    <symbol viewBox="0 0 16 16" id="icon-check">
        <path d="M1 8L0 9l5 5L16 3l-1-1L5 12 1 8z"/>
    </symbol>

    <symbol viewBox="0 0 6 14" id="draggable">
        <path d="M0 0h2v2H0V0zm0 4h2v2H0V4zm0 4h2v2H0V8zm0 4h2v2H0v-2zm4 0h2v2H4v-2zM4 0h2v2H4V0zm0 4h2v2H4V4zm0 4h2v2H4"/>
    </symbol>

    <symbol viewBox="0 0 16 12" fill="none" id="params">
        <path fill-rule="evenodd" clip-rule="evenodd" d="M5 0H7V2H16V4H7V6H5V0ZM3.5 2H0V4H3L3.5 2ZM12 8H16V10H12V12H10V6H12V8ZM8.5 8H0V10H8L8.5 8Z" fill="currentColor"/>
    </symbol>

    <symbol viewBox="0 0 14 14" id="error">
        <path fill-rule="evenodd" clip-rule="evenodd" d="M13 7C13 10.3137 10.3137 13 7 13C3.68629 13 1 10.3137 1 7C1 3.68629 3.68629 1 7 1C10.3137 1 13 3.68629 13 7ZM14 7C14 10.866 10.866 14 7 14C3.13401 14 0 10.866 0 7C0 3.13401 3.13401 0 7 0C10.866 0 14 3.13401 14 7ZM6.42538 3.51V5.413L6.62338 8.262H7.25038L7.43738 5.413V3.51H6.42538ZM6.48038 9.901C6.60505 10.0183 6.75905 10.077 6.94238 10.077C7.12571 10.077 7.27971 10.0183 7.40438 9.901C7.52905 9.78367 7.59138 9.64067 7.59138 9.472C7.59138 9.296 7.52905 9.153 7.40438 9.043C7.28705 8.92567 7.13305 8.867 6.94238 8.867C6.75171 8.867 6.59405 8.92567 6.46938 9.043C6.35205 9.153 6.29338 9.296 6.29338 9.472C6.29338 9.64067 6.35571 9.78367 6.48038 9.901Z" fill="#FF4747"/>
    </symbol>

    <symbol viewBox="0 0 16 16" id="book">
        <g opacity="0.5">
            <path d="M13 2C13 1.44772 13.4477 1 14 1C14.5523 1 15 1.44772 15 2C15 2.55228 14.5523 3 14 3C13.4477 3 13 2.55228 13 2ZM9 16H7C7 14.8954 6.10457 14 5 14H3C1.89543 14 1 13.1046 1 12V4V2H3H6C6.76835 2 7.46924 2.28885 8 2.76389C8.53076 2.28885 9.23165 2 10 2H11V4H10C9.44772 4 9 4.44772 9 5V12.5351C9.58835 12.1948 10.2714 12 11 12H13V11H15V13V14H14H11C9.89543 14 9 14.8954 9 16ZM7 5C7 4.44772 6.55228 4 6 4H3V12H5C5.72857 12 6.41165 12.1948 7 12.5351V5ZM13 4V9H15V4H13Z"/>
        </g>
    </symbol>

    <symbol viewBox="0 0 16 16" fill="none" id="code">
        <path fill-rule="evenodd" clip-rule="evenodd" d="M14 3H2V13H14V3ZM2 1C0.895431 1 0 1.89543 0 3V13C0 14.1046 0.895431 15 2 15H14C15.1046 15 16 14.1046 16 13V3C16 1.89543 15.1046 1 14 1H2ZM3.5 8.5L6 6L7 7L5.5 8.5L7 10L6 11L3.5 8.5ZM10 6L12.5 8.5L10 11L9 10L10.5 8.5L9 7L10 6Z" fill="black"/>
    </symbol>

    <symbol viewBox="0 0 12 12" fill="none" id="add-code">
        <path fill-rule="evenodd" clip-rule="evenodd" d="M6 0C5.44772 0 5 0.447715 5 1V5H1C0.447715 5 0 5.44772 0 6C0 6.55228 0.447715 7 1 7H5V11C5 11.5523 5.44772 12 6 12C6.55228 12 7 11.5523 7 11V7H11C11.5523 7 12 6.55228 12 6C12 5.44772 11.5523 5 11 5H7V1C7 0.447715 6.55228 0 6 0Z" fill="currentColor"/>
    </symbol>

    <symbol viewBox="0 0 16 16" fill="none" id="settings-code">
        <path d="M15 8.76V7.16L13.06 6.52L12.61 5.43L13.49 3.59L12.36 2.46L10.55 3.37L9.46 2.92L8.77 1H7.17L6.54 2.94L5.43 3.39L3.59 2.51L2.46 3.64L3.37 5.45L2.92 6.54L1 7.22V8.81L2.94 9.45L3.39 10.54L2.51 12.38L3.64 13.51L5.45 12.6L6.54 13.05L7.23 15H8.82L9.45 13.03L10.56 12.58L12.4 13.46L13.53 12.33L12.61 10.52L13.08 9.43L15 8.74V8.76ZM8 10.99C6.34 10.99 5 9.65 5 7.99C5 6.33 6.34 4.99 8 4.99C9.66 4.99 11 6.33 11 7.99C11 9.65 9.66 10.99 8 10.99Z" fill="currentColor"/>
    </symbol>

    <symbol viewBox="0 0 16 16" fill="none" id="edit-code-name">
        <path fill-rule="evenodd" clip-rule="evenodd" d="M12.2929 2.2072L11.5 3.00009L14 5.50009L14.7929 4.7072C15.1834 4.31668 15.1834 3.68351 14.7929 3.29299L13.7071 2.2072C13.3166 1.81668 12.6834 1.81668 12.2929 2.2072ZM3.95321 10.5469L10.5 4.00009L13 6.50009L6.45321 13.0469C6.15845 13.3416 5.77896 13.5369 5.36779 13.6055L3 14.0001L3.39463 11.6323C3.46316 11.2211 3.65845 10.8416 3.95321 10.5469ZM16 13H8.99995L8 14H16V13Z" fill="currentColor"/>
    </symbol>

    <symbol viewBox="0 0 16 16" fill="none" id="remove-code">
        <path fill-rule="evenodd" clip-rule="evenodd" d="M6 2V1.5C6 1.22386 6.22386 1 6.5 1H9.5C9.77614 1 10 1.22386 10 1.5V2H13C13.5523 2 14 2.44772 14 3V4H2V3C2 2.44772 2.44772 2 3 2H6ZM3 5H13V13.5C13 14.3284 12.3284 15 11.5 15H4.5C3.67157 15 3 14.3284 3 13.5V5Z" fill="currentColor"/>
    </symbol>

    <symbol viewBox="0 0 16 16" fill="none" id="save-code">
        <path d="M7 12L3.5 8.5L4.5 7.5L7 10L12.5 4.5L13.5 5.5L7 12Z" fill="currentColor"/>
    </symbol>

    <symbol viewBox="0 0 22 22" fill="none" id="empty-code">
        <path fill-rule="evenodd" clip-rule="evenodd" d="M3.70724 4.29303L3.00012 3.58594L1.58594 5.00018L2.29306 5.70727L7.586 11L2.29305 16.2928L1.58594 16.9999L3.00013 18.4141L3.70725 17.707L9.70733 11.7071L10.4145 11L9.70732 10.2929L3.70724 4.29303ZM21.0002 17.9999H11.0002V19.9999H21.0002V17.9999Z" fill="#30343B"/>
    </symbol>

    <symbol viewBox="0 0 16 16" fill="none" id="try-again-save-code">
        <g clip-path="url(#clip0_1638_2111)">
            <path fill-rule="evenodd" clip-rule="evenodd" d="M8 14C11.3137 14 14 11.3137 14 8C14 4.68629 11.3137 2 8 2C6.08835 2 4.3855 2.89401 3.28675 4.28675L5 6H2.34141H0.252035H0V1L1.86515 2.86515C3.33266 1.11371 5.53627 0 8 0C12.4183 0 16 3.58172 16 8C16 12.4183 12.4183 16 8 16C3.92038 16 0.553992 12.9463 0.0618938 9H2.08296C2.55904 11.8377 5.027 14 8 14Z" fill="currentColor"/>
        </g>
        <defs>
            <clipPath id="clip0_1638_2111">
                <rect width="16" height="16" fill="white"/>
            </clipPath>
        </defs>
    </symbol>

    <symbol viewBox="0 0 12 12" id="open-global-code">
        <path d="M8.58579 2H7V0H11C11.5523 0 12 0.447715 12 1V5H10V3.41421L6.70711 6.70711L5.29289 5.29289L8.58579 2ZM10 10V7H12V10C12 11.1046 11.1046 12 10 12H2C0.895431 12 0 11.1046 0 10V2C0 0.895431 0.895431 0 2 0H5V2H2L2 10H10Z"/>
    </symbol>
</svg>
