<svg xmlns="http://www.w3.org/2000/svg" xmlns:xlink="http://www.w3.org/1999/xlink">
    <!-- SETTINGS -->
    <symbol viewBox="0 0 16 16" id="general">
        <path d="M2 2H5V5H2L2 2ZM0 2C0 0.89543 0.895431 0 2 0H5C6.10457 0 7 0.895431 7 2V5C7 6.10457 6.10457 7 5 7H2C0.89543 7 0 6.10457 0 5V2ZM11 2H14V5H11V2ZM9 2C9 0.89543 9.89543 0 11 0H14C15.1046 0 16 0.895431 16 2V5C16 6.10457 15.1046 7 14 7H11C9.89543 7 9 6.10457 9 5V2ZM5 11H2L2 14H5V11ZM2 9C0.895431 9 0 9.89543 0 11V14C0 15.1046 0.89543 16 2 16H5C6.10457 16 7 15.1046 7 14V11C7 9.89543 6.10457 9 5 9H2ZM11 11H14V14H11V11ZM9 11C9 9.89543 9.89543 9 11 9H14C15.1046 9 16 9.89543 16 11V14C16 15.1046 15.1046 16 14 16H11C9.89543 16 9 15.1046 9 14V11Z"/>
    </symbol>

    <symbol viewBox="0 0 16 16" id="localization">
        <path d="M8 13.2795L8.44974 12.6499C9.23953 11.5442 9.71537 10.2876 9.87726 9H6.12274C6.28463 10.2876 6.76047 11.5442 7.55026 12.6499L8 13.2795ZM10.2488 13.5643C12.1508 12.7949 13.5683 11.0787 13.917 9H11.8899C11.7293 10.6007 11.1823 12.171 10.2488 13.5643ZM11.8899 7H13.917C13.5683 4.92133 12.1508 3.20508 10.2488 2.43566C11.1823 3.82895 11.7293 5.39926 11.8899 7ZM9.87726 7H6.12274C6.28463 5.71244 6.76047 4.45581 7.55026 3.35009L8 2.72047L8.44974 3.35009C9.23953 4.45581 9.71537 5.71244 9.87726 7ZM4.11014 9C4.27068 10.6007 4.81769 12.171 5.75117 13.5643C3.84924 12.7949 2.43169 11.0787 2.08296 9H4.11014ZM4.11014 7C4.27068 5.39926 4.81769 3.82895 5.75117 2.43566C3.84924 3.20508 2.43169 4.92133 2.08296 7H4.11014ZM16 8C16 12.4183 12.4183 16 8 16C3.58172 16 0 12.4183 0 8C0 3.58172 3.58172 0 8 0C12.4183 0 16 3.58172 16 8Z"/>
    </symbol>

    <symbol viewBox="0 0 16 16" id="notification">
        <path d="M7.00006 1C7.00006 0.447715 7.44778 0 8.00006 0C8.55235 0 9.00006 0.447715 9.00006 1V2.10002C11.2823 2.56329 13.0001 4.58104 13.0001 7V11H13L15 13H9.7325C9.90267 13.2942 10.0001 13.6357 10.0001 14C10.0001 15.1046 9.10463 16 8.00006 16C6.89549 16 6.00006 15.1046 6.00006 14C6.00006 13.6357 6.09746 13.2942 6.26763 13H1L3.00006 10.9999V7C3.00006 4.58104 4.71782 2.56329 7.00006 2.10002V1ZM5.00006 11H11.0001V7C11.0001 5.34315 9.65692 4 8.00006 4C6.34321 4 5.00006 5.34315 5.00006 7V11Z"/>
    </symbol>

    <symbol viewBox="0 0 16 16" id="optimization">
        <path fill-rule="evenodd" clip-rule="evenodd" d="M9.28979 0.0428636C9.71154 0.170562 10 0.559288 10 0.999956V5.99996H13C13.3788 5.99996 13.725 6.21396 13.8944 6.55274C14.0638 6.89153 14.0273 7.29694 13.8 7.59996L7.8 15.6C7.54174 15.9443 7.09212 16.0848 6.68377 15.9486C6.27543 15.8125 6 15.4304 6 15V11H3C2.63121 11 2.29235 10.797 2.11833 10.4718C1.94431 10.1467 1.96338 9.75211 2.16795 9.44526L8.16795 0.445255C8.41239 0.0785982 8.86803 -0.0848347 9.28979 0.0428636ZM4.86852 8.99996H8V12L11 7.99996H8V4.30273L4.86852 8.99996Z"/>
    </symbol>

    <symbol viewBox="0 0 16 16" id="confirm-rights">
        <path d="M2 2H14V14H2V2ZM0 2C0 0.895431 0.895431 0 2 0H14C15.1046 0 16 0.895431 16 2V14C16 15.1046 15.1046 16 14 16H2C0.895431 16 0 15.1046 0 14V2ZM12.7071 6.70711C13.0976 6.31658 13.0976 5.68342 12.7071 5.29289C12.3166 4.90237 11.6834 4.90237 11.2929 5.29289L7 9.58579L5.70711 8.29289C5.31658 7.90237 4.68342 7.90237 4.29289 8.29289C3.90237 8.68342 3.90237 9.31658 4.29289 9.70711L6.29289 11.7071C6.68342 12.0976 7.31658 12.0976 7.70711 11.7071L12.7071 6.70711Z"/>
    </symbol>

    <symbol viewBox="0 0 16 16" id="robots">
        <path d="M9 3.73244C9.5978 3.38663 10 2.74028 10 2C10 0.895431 9.10457 0 8 0C6.89543 0 6 0.895431 6 2C6 2.74028 6.4022 3.38663 7 3.73244V4H4C2.34315 4 1 5.34315 1 7V10H0V12H1V14C1 15.1046 1.89543 16 3 16H13C14.1046 16 15 15.1046 15 14V12H16V10H15V7C15 5.34315 13.6569 4 12 4H9V3.73244ZM4 6H12C12.5523 6 13 6.44772 13 7V14H10V12H6V14H3L3 7C3 6.44772 3.44772 6 4 6ZM7 9C7 9.55229 6.55228 10 6 10C5.44772 10 5 9.55229 5 9C5 8.44771 5.44772 8 6 8C6.55228 8 7 8.44771 7 9ZM10 10C10.5523 10 11 9.55229 11 9C11 8.44771 10.5523 8 10 8C9.44771 8 9 8.44771 9 9C9 9.55229 9.44771 10 10 10Z"/>
    </symbol>

    <symbol viewBox="0 0 16 16" id="users">
        <path d="M6 5C6 5.55228 5.55228 6 5 6C4.44772 6 4 5.55228 4 5C4 4.44772 4.44772 4 5 4C5.55228 4 6 4.44772 6 5ZM8 5C8 6.65685 6.65685 8 5 8C3.34315 8 2 6.65685 2 5C2 3.34315 3.34315 2 5 2C6.65685 2 8 3.34315 8 5ZM8 12C8 11.4477 7.55228 11 7 11H3C2.44772 11 2 11.4477 2 12V13V15H0V13V12C0 10.3431 1.34315 9 3 9H7C8.65685 9 10 10.3431 10 12V13V15H8V13V12ZM11 11L10 9H13C14.6569 9 16 10.3431 16 12V15H14V12C14 11.4477 13.5523 11 13 11H11ZM13 5.5C13 5.77614 12.7761 6 12.5 6C12.2239 6 12 5.77614 12 5.5C12 5.22386 12.2239 5 12.5 5C12.7761 5 13 5.22386 13 5.5ZM15 5.5C15 6.88071 13.8807 8 12.5 8C11.1193 8 10 6.88071 10 5.5C10 4.11929 11.1193 3 12.5 3C13.8807 3 15 4.11929 15 5.5Z"/>
    </symbol>

    <symbol viewBox="0 0 16 16" fill="none" id="redirects">
        <path fill-rule="evenodd" clip-rule="evenodd" d="M12 0L16 4L12 8V5H4V3H12V0ZM4 8L0 12L4 16V13H12V11H4V8Z" fill="currentColor"/>
    </symbol>

    <symbol viewBox="0 0 16 16" id="notification-visitor">
        <path d="M2 11V4.94319L8 9.2289L14 4.94319V7L16 9V3C16 1.89543 15.1046 1 14 1H2C0.895431 1 0 1.89543 0 3V11C0 12.1046 0.895431 13 2 13H8V11H2ZM8 6.7711L2.72047 3H13.2795L8 6.7711Z"/>
        <path d="M13 15V13H10V11H13V9L16 12L13 15Z"/>
    </symbol>

    <symbol viewBox="0 0 16 16" id="counters">
        <path d="M7 1H9V15H7V1ZM3 9H5V15H3V9ZM13 6H11V15H13V6Z"/>
    </symbol>

    <symbol viewBox="0 0 16 16" id="mailing">
        <path d="M0 5L2.15499 4.32656L13.6778 0.725673L16 0L15.2743 2.32215L11.6734 13.845L11 16L9.40352 14.4035L5.5 10.5L1.59648 6.59648L0 5ZM6.03256 8.20413L3.75147 5.92305L12.9522 3.04783L10.077 12.2485L7.79587 9.96744L10 6L6.03256 8.20413Z"/>
    </symbol>

    <symbol viewBox="0 0 16 16" id="crm">
        <path d="M16 1H0L1 3H15L16 1ZM14 5H2L3 7H13L14 5ZM4 9H12L11 11H5L4 9ZM10 13H6L7 15H9L10 13Z"/>
    </symbol>

    <symbol viewBox="0 0 16 16" id="code">
        <path d="M14.0001 3H2.00006V13H14.0001V3ZM2.00006 1C0.895492 1 6.10352e-05 1.89543 6.10352e-05 3V13C6.10352e-05 14.1046 0.895492 15 2.00006 15H14.0001C15.1046 15 16.0001 14.1046 16.0001 13V3C16.0001 1.89543 15.1046 1 14.0001 1H2.00006ZM7.00006 10L6.00006 11L3.00006 8L6.00006 5L7.00006 6L5.00006 8L7.00006 10ZM10.0001 11L9.00006 10L11.0001 8L9.00006 6L10.0001 5L13.0001 8L10.0001 11Z"/>
    </symbol>

    <symbol viewBox="0 0 16 16" id="pay">
        <path d="M10.0001 2H2.50006C2.22392 2 2.00006 2.22386 2.00006 2.5C2.00006 2.77614 2.22392 3 2.50006 3H11.0001C11.0001 2.44772 10.5523 2 10.0001 2ZM2.50006 0C1.11935 0 6.10352e-05 1.11929 6.10352e-05 2.5V12C6.10352e-05 13.6569 1.34321 15 3.00006 15H13.0001C14.6569 15 16.0001 13.6569 16.0001 12V6C16.0001 4.34315 14.6569 3 13.0001 3C13.0001 1.34315 11.6569 0 10.0001 0H2.50006ZM14.0001 6C14.0001 5.44772 13.5523 5 13.0001 5H12.0001H11.0001H2.50006C2.32883 5 2.16162 4.98278 2.00006 4.94999V12C2.00006 12.5523 2.44778 13 3.00006 13H13.0001C13.5523 13 14.0001 12.5523 14.0001 12V6ZM12.0001 10C12.5523 10 13.0001 9.55229 13.0001 9C13.0001 8.44771 12.5523 8 12.0001 8C11.4478 8 11.0001 8.44771 11.0001 9C11.0001 9.55229 11.4478 10 12.0001 10Z"/>
    </symbol>

    <symbol viewBox="0 0 16 16" id="ssl">
        <path d="M1 3V7.27273C1 12.9673 6.00811 15.6262 8 16C9.99189 15.6262 15 12.9673 15 7.27273V3L8 0L1 3ZM8 2.17594L3 4.31879V4.32702V4.33692V4.34684V4.35679V4.36675V4.37674V4.38675V4.39677V4.40682V4.41689V4.42697V4.43708V4.44721V4.45735V4.46752V4.4777V4.4879V4.49812V4.50836V4.51862V4.52889V4.53919V4.5495V4.55982V4.57017V4.58053V4.59091V4.6013V4.61172V4.62214V4.63259V4.64305V4.65352V4.66402V4.67452V4.68504V4.69558V4.70613V4.7167V4.72728V4.73787V4.74848V4.75911V4.76974V4.78039V4.79105V4.80173V4.81242V4.82312V4.83384V4.84456V4.8553V4.86605V4.87681V4.88759V4.89837V4.90917V4.91998V4.9308V4.94163V4.95247V4.96332V4.97418V4.98505V4.99593V5.00682V5.01771V5.02862V5.03954V5.05047V5.0614V5.07234V5.08329V5.09425V5.10522V5.11619V5.12718V5.13816V5.14916V5.16016V5.17118V5.18219V5.19321V5.20424V5.21528V5.22632V5.23737V5.24842V5.25948V5.27054V5.28161V5.29268V5.30375V5.31483V5.32592V5.33701V5.3481V5.3592V5.3703V5.3814V5.3925V5.40361V5.41472V5.42584V5.43695V5.44807V5.45919V5.47031V5.48143V5.49256V5.50368V5.51481V5.52594V5.53706V5.54819V5.55932V5.57045V5.58158V5.5927V5.60383V5.61496V5.62608V5.63721V5.64833V5.65945V5.67057V5.68169V5.69281V5.70392V5.71503V5.72614V5.73724V5.74835V5.75945V5.77054V5.78164V5.79273V5.80381V5.81489V5.82597V5.83704V5.84811V5.85917V5.87023V5.88128V5.89233V5.90337V5.91441V5.92544V5.93646V5.94748V5.95849V5.96949V5.98049V5.99148V6.00246V6.01344V6.0244V6.03536V6.04631V6.05726V6.06819V6.07912V6.09004V6.10095V6.11185V6.12274V6.13362V6.14449V6.15535V6.1662V6.17704V6.18787V6.19869V6.2095V6.2203V6.23108V6.24186V6.25262V6.26337V6.27411V6.28484V6.29556V6.30626V6.31695V6.32763V6.33829V6.34894V6.35958V6.3702V6.38081V6.39141V6.40199V6.41256V6.42311V6.43365V6.44417V6.45468V6.46517V6.47565V6.48611V6.49656V6.50699V6.5174V6.5278V6.53818V6.54854V6.55889V6.56921V6.57953V6.58982V6.6001V6.61036V6.6206V6.63082V6.64102V6.65121V6.66137V6.67152V6.68165V6.69176V6.70184V6.71191V6.72196V6.73199V6.742V6.75199V6.76195V6.7719V6.78183V6.79173V6.80161V6.81147V6.82131V6.83113V6.84092V6.85069V6.86044V6.87017V6.87987V6.88955V6.89921V6.90884V6.91845V6.92804V6.9376V6.94714V6.95665V6.96614V6.9756V6.98504V6.99445V7.00384V7.0132V7.02254V7.03185V7.04113V7.05039V7.05962V7.06883V7.07801V7.08716V7.09628V7.10538V7.11444V7.12348V7.1325V7.14148V7.15044V7.15936V7.16826V7.17713V7.18597V7.19478V7.20356V7.21231V7.22104V7.22973V7.23839V7.24702V7.25562V7.26419V7.27273C3 9.46904 3.94576 11.0582 5.12917 12.1803C6.15755 13.1555 7.3008 13.7122 8 13.9371C8.6992 13.7122 9.84245 13.1555 10.8708 12.1803C12.0542 11.0582 13 9.46904 13 7.27273V7.26419V7.25562V7.24702V7.23839V7.22973V7.22104V7.21231V7.20356V7.19478V7.18597V7.17713V7.16826V7.15936V7.15044V7.14148V7.1325V7.12348V7.11444V7.10538V7.09628V7.08716V7.07801V7.06883V7.05962V7.05039V7.04113V7.03185V7.02254V7.0132V7.00384V6.99445V6.98504V6.9756V6.96614V6.95665V6.94714V6.9376V6.92804V6.91845V6.90884V6.89921V6.88955V6.87987V6.87017V6.86044V6.85069V6.84092V6.83113V6.82131V6.81147V6.80161V6.79173V6.78183V6.7719V6.76195V6.75199V6.742V6.73199V6.72196V6.71191V6.70184V6.69176V6.68165V6.67152V6.66137V6.65121V6.64102V6.63082V6.6206V6.61036V6.6001V6.58982V6.57953V6.56921V6.55889V6.54854V6.53818V6.5278V6.5174V6.50699V6.49656V6.48611V6.47565V6.46517V6.45468V6.44417V6.43365V6.42311V6.41256V6.40199V6.39141V6.38081V6.3702V6.35958V6.34894V6.33829V6.32763V6.31695V6.30626V6.29556V6.28484V6.27411V6.26337V6.25262V6.24186V6.23108V6.2203V6.2095V6.19869V6.18787V6.17704V6.1662V6.15535V6.14449V6.13362V6.12274V6.11185V6.10095V6.09004V6.07912V6.06819V6.05726V6.04631V6.03536V6.0244V6.01344V6.00246V5.99148V5.98049V5.96949V5.95849V5.94748V5.93646V5.92544V5.91441V5.90337V5.89233V5.88128V5.87023V5.85917V5.84811V5.83704V5.82597V5.81489V5.80381V5.79273V5.78164V5.77054V5.75945V5.74835V5.73724V5.72614V5.71503V5.70392V5.69281V5.68169V5.67057V5.65945V5.64833V5.63721V5.62608V5.61496V5.60383V5.5927V5.58158V5.57045V5.55932V5.54819V5.53706V5.52594V5.51481V5.50368V5.49256V5.48143V5.47031V5.45919V5.44807V5.43695V5.42584V5.41472V5.40361V5.3925V5.3814V5.3703V5.3592V5.3481V5.33701V5.32592V5.31483V5.30375V5.29268V5.28161V5.27054V5.25948V5.24842V5.23737V5.22632V5.21528V5.20424V5.19321V5.18219V5.17118V5.16016V5.14916V5.13816V5.12718V5.11619V5.10522V5.09425V5.08329V5.07234V5.0614V5.05047V5.03954V5.02862V5.01771V5.00682V4.99593V4.98505V4.97418V4.96332V4.95247V4.94163V4.9308V4.91998V4.90917V4.89837V4.88759V4.87681V4.86605V4.8553V4.84456V4.83384V4.82312V4.81242V4.80173V4.79105V4.78039V4.76974V4.75911V4.74848V4.73787V4.72728V4.7167V4.70613V4.69558V4.68504V4.67452V4.66402V4.65352V4.64305V4.63259V4.62214V4.61172V4.6013V4.59091V4.58053V4.57017V4.55982V4.5495V4.53919V4.52889V4.51862V4.50836V4.49812V4.4879V4.4777V4.46752V4.45735V4.44721V4.43708V4.42697V4.41689V4.40682V4.39677V4.38675V4.37674V4.36675V4.35679V4.34684V4.33692V4.32702V4.31879L8 2.17594Z"/>
    </symbol>

    <symbol viewBox="0 0 16 16" id="ecommerce_old">
        <path d="M1 1C0.447715 1 0 1.44772 0 2C0 2.55228 0.447715 3 1 3H2.78181L3.20782 4.56083C3.21352 4.58532 3.22012 4.60946 3.22758 4.63323L4.28569 8.50995L4.28597 8.51097C4.42664 9.02911 4.78676 9.41515 5.19281 9.65486C5.59763 9.89383 6.07006 10.005 6.52986 9.99983H12.7029C13.1627 10.005 13.6351 9.89383 14.0399 9.65486C14.4462 9.415 14.8066 9.0286 14.947 8.50995L14.9471 8.50996L14.9496 8.5002L15.9678 4.58496C16.0457 4.28533 15.9805 3.96651 15.7911 3.72159C15.6017 3.47667 15.3096 3.33328 15 3.33328H4.94593L4.51017 1.73669C4.39145 1.30173 3.99633 1 3.54545 1H1ZM6.19957 7.92639L5.49181 5.33328H13.7067L13.0322 7.92704L13.0232 7.93256C12.965 7.96694 12.8582 8.00182 12.7231 7.99993L12.7231 7.99983H12.7091H6.52364V7.99973L6.50958 7.99993C6.37456 8.00182 6.26776 7.96694 6.20952 7.93256L6.19957 7.92639ZM5 13C5 11.8954 5.89543 11 7 11C8.10457 11 9 11.8954 9 13C9 14.1046 8.10457 15 7 15C5.89543 15 5 14.1046 5 13ZM10 13C10 11.8954 10.8954 11 12 11C13.1046 11 14 11.8954 14 13C14 14.1046 13.1046 15 12 15C10.8954 15 10 14.1046 10 13Z" />
    </symbol>

    <symbol viewBox="0 0 16 16" id="ecommerce">
        <path d="M6 3a1 1 0 0 0-2 0h2zM7 .764A3 3 0 0 0 2 3a2 2 0 0 0-2 2v9a2 2 0 0 0 2 2h11a2 2 0 0 0 2-2V5a2 2 0 0 0-2-2h-1A3 3 0 0 0 7 .764zM6 5H5v9h8V5h-1v4h-2V5H8v4H6V5zm4-2a1 1 0 0 0-2 0h2zM2 5h1v9H2V5z"
              fill="currentColor"/>
    </symbol>

    <symbol viewBox="0 0 16 16" id="delivery">
        <path d="M8 16l8-4V4L8 0 0 4v8l8 4zm1-2.736l5-2.5V6.118l-1.303.652V10h-2V7.77L9 8.618v4.646zM8 6.882l1.417-.708-4.76-2.266-1.303.65L8 6.883zm-6-.764v4.646l5 2.5V8.618l-5-2.5zm4.926-3.345l4.76 2.266.96-.48L8 2.235l-1.074.537z"
              fill="currentColor"/>
    </symbol>

    <symbol viewBox="0 0 16 12" id="promo">
        <path d="M14 2H2V3C3.65685 3 5 4.34315 5 6C5 7.65685 3.65685 9 2 9V10H14V9C12.3431 9 11 7.65685 11 6C11 4.34315 12.3431 3 14 3V2ZM14 7H16V10C16 11.1046 15.1046 12 14 12H2C0.895431 12 0 11.1046 0 10V7H2C2.55228 7 3 6.55228 3 6C3 5.44772 2.55228 5 2 5H0V2C0 0.89543 0.895431 0 2 0H14C15.1046 0 16 0.895431 16 2V5H14C13.4477 5 13 5.44772 13 6C13 6.55228 13.4477 7 14 7Z" fill="#currentColor"/>
    </symbol>


    <symbol viewBox="0 0 16 16" id="apps">
        <path d="M3.00006 2H7.00006V4H9.00006V2H13.0001V4H14.0001H16.0001V6V12V14H14.0001H2.00006H6.10352e-05V12V6V4H2.00006H3.00006V2ZM14.0001 6H2.00006V12H14.0001V6Z"/>
    </symbol>

    <symbol viewBox="0 0 16 16" id="mail">
        <path d="M13.2795 4H2.72047L8 7.7711L13.2795 4ZM2 5.94319V12H14V5.94319L8.58124 9.81373L8 10.2289L7.41876 9.81373L2 5.94319ZM0 4C0 2.89543 0.895431 2 2 2H14C15.1046 2 16 2.89543 16 4V12C16 13.1046 15.1046 14 14 14H2C0.895431 14 0 13.1046 0 12V4Z"/>
    </symbol>

    <symbol viewBox="0 0 16 16" id="api">
        <path d="M9 2H4V14H12V5H9V2ZM14 4L10 0H4H2V2V14V16H4H12H14V14V4ZM6 7H10V9H6V7ZM10 10H6V12H10V10Z"/>
    </symbol>

    <symbol viewBox="0 0 16 16" id="transfer">
        <path d="M12 0L16 4L12 8V5H4V3H12V0ZM4 8L0 12L4 16V13H12V11H4V8Z"/>
    </symbol>

    <symbol viewBox="0 0 14 16" id="remove-project">
        <path d="M4 1L5 0H9L10 1H14V3H12H2H0V1H4ZM3 7L3 14H11V7V5H13V7V14C13 15.1046 12.1046 16 11 16H3C1.89543 16 1 15.1046 1 14V7V5H3V7Z"/>
    </symbol>


    <!-- STAT -->
    <symbol viewBox="0 0 16 16" id="stat-list">
        <path d="M0 0V14C0 15.1046 0.895431 16 2 16H16V14H2V0H0ZM11.7071 9.70711L15.7071 5.70711L14.2929 4.29289L11 7.58579L8.70711 5.29289L8 4.58579L7.29289 5.29289L3.29289 9.29289L4.70711 10.7071L8 7.41421L10.2929 9.70711L11 10.4142L11.7071 9.70711Z"/>
    </symbol>

    <symbol viewBox="0 0 16 16" id="stat-utm">
        <path d="M15 0V5C15 5 16 6 16 7.5C16 9 15 10 15 10V15H13C13 14.2138 12.5123 13.5101 11.7762 13.2341L5.81867 11H5V15H3V11H2C0.895431 11 0 10.1046 0 9V6C0 4.89543 0.89543 4 2 4H5.81867L11.7762 1.76592C12.5123 1.48988 13 0.786169 13 0H15ZM13 3.443L7 5.693V9.307L13 11.557V3.443ZM5 9V6H2V9H5Z"/>
    </symbol>

    <!-- USER -->
    <symbol viewBox="0 0 16 16" id="user-profile">
        <path d="M9 4C9 4.55228 8.55228 5 8 5C7.44772 5 7 4.55228 7 4C7 3.44772 7.44772 3 8 3C8.55228 3 9 3.44772 9 4ZM11 4C11 5.65685 9.65685 7 8 7C6.34315 7 5 5.65685 5 4C5 2.34315 6.34315 1 8 1C9.65685 1 11 2.34315 11 4ZM3.4453 12.2383L3.5624 12.1603C6.2496 10.3688 9.75041 10.3688 12.4376 12.1603L12.5547 12.2383C12.8133 12.4107 12.9759 12.6926 12.9975 13H3.00247C3.02412 12.6926 3.18672 12.4107 3.4453 12.2383ZM13.547 10.4962C10.188 8.25682 5.81199 8.25682 2.453 10.4962L2.3359 10.5742C1.5013 11.1306 1 12.0673 1 13.0704V14V15H2H14H15V14V13.0704C15 12.0673 14.4987 11.1306 13.6641 10.5742L13.547 10.4962Z"/>
    </symbol>

    <symbol viewBox="0 0 16 16" id="user-pay">
        <path d="M5 3H14V4H5V3ZM5 6V9H14V6H5ZM3 3C3 1.89543 3.89543 1 5 1H14C15.1046 1 16 1.89543 16 3V9C16 10.1046 15.1046 11 14 11H13V13C13 14.1046 12.1046 15 11 15H2C0.89543 15 0 14.1046 0 13V7C0 5.89543 0.895431 5 2 5H3V3ZM3 7H2V8H3V7ZM2 13L2 10H3.26756C3.61337 10.5978 4.25972 11 5 11H11V13H2Z"/>
    </symbol>

    <symbol viewBox="0 0 16 16" id="user-pay-plan">
        <path d="M2 8C2 4.68617 4.68617 2 8 2C11.3138 2 14 4.68617 14 8C14 11.3138 11.3138 14 8 14C4.68617 14 2 11.3138 2 8ZM0 8C0 3.5816 3.5816 0 8 0C12.4184 0 16 3.5816 16 8C16 12.4184 12.4184 16 8 16C3.5816 16 0 12.4184 0 8ZM8.70146 11.38V12.47H7.55146V11.4C6.14146 11.17 5.50146 10.13 5.43146 9.31001L6.81146 9.00002C6.86146 9.58002 7.26146 10.1 8.12146 10.1C8.62146 10.1 8.98146 9.86001 8.98146 9.47001C8.98146 9.18001 8.76146 8.99002 8.36146 8.90001L7.47146 8.69001C6.35146 8.42001 5.66146 7.74002 5.66146 6.79001C5.66146 5.67001 6.50146 4.90001 7.55146 4.72001V3.64001H8.70146V4.75001C9.80146 4.99001 10.3015 5.78001 10.4415 6.46001L9.05146 6.83001C8.99146 6.52001 8.82146 6.00001 8.03146 6.00001C7.47146 6.00001 7.19146 6.33001 7.19146 6.65001C7.19146 6.92001 7.39146 7.13001 7.78146 7.22001L8.65146 7.41001C9.99146 7.71001 10.5215 8.49002 10.5215 9.39001C10.5215 10.31 9.86146 11.17 8.70146 11.38Z"/>
    </symbol>

    <symbol viewBox="0 0 16 16" id="user-pay-invoices">
        <path fill-rule="evenodd" clip-rule="evenodd" d="M14 8C14 11.3137 11.3137 14 8 14C5.027 14 2.55904 11.8377 2.08296 9H0.0618938C0.553992 12.9463 3.92038 16 8 16C12.4183 16 16 12.4183 16 8C16 3.58172 12.4183 0 8 0C5.53627 0 3.33266 1.11371 1.86515 2.86515L0 1V6H0.252035H2.34141H5L3.28675 4.28675C4.3855 2.89401 6.08835 2 8 2C11.3137 2 14 4.68629 14 8ZM9 7V4H7V8C7 8.55228 7.44772 9 8 9H12V7H9Z"/>
    </symbol>

    <symbol viewBox="0 0 16 16" id="user-access">
        <path d="M6 5C6 5.55228 5.55228 6 5 6C4.44772 6 4 5.55228 4 5C4 4.44772 4.44772 4 5 4C5.55228 4 6 4.44772 6 5ZM8 5C8 6.65685 6.65685 8 5 8C3.34315 8 2 6.65685 2 5C2 3.34315 3.34315 2 5 2C6.65685 2 8 3.34315 8 5ZM8 12C8 11.4477 7.55228 11 7 11H3C2.44772 11 2 11.4477 2 12V13V15H0V13V12C0 10.3431 1.34315 9 3 9H7C8.65685 9 10 10.3431 10 12V13V15H8V13V12ZM11 11L10 9H13C14.6569 9 16 10.3431 16 12V15H14V12C14 11.4477 13.5523 11 13 11H11ZM13 5.5C13 5.77614 12.7761 6 12.5 6C12.2239 6 12 5.77614 12 5.5C12 5.22386 12.2239 5 12.5 5C12.7761 5 13 5.22386 13 5.5ZM15 5.5C15 6.88071 13.8807 8 12.5 8C11.1193 8 10 6.88071 10 5.5C10 4.11929 11.1193 3 12.5 3C13.8807 3 15 4.11929 15 5.5Z"/>
    </symbol>

    <symbol viewBox="0 0 16 16" id="legal">
        <path fill-rule="evenodd"
              d="M1 3v4.273C1 12.967 6.008 15.626 8 16c1.992-.374 7-3.033 7-8.727V3L8 0 1 3zm7-.824L3 4.32V7.274c0 2.195.946 3.784 2.13 4.906 1.028.976 2.17 1.532 2.87 1.757.7-.225 1.842-.78 2.87-1.757C12.055 11.058 13 9.47 13 7.273V4.316L8 2.177z"/>
    </symbol>

    <symbol viewBox="0 0 16 16" id="fonts">
        <path d="M14 1V2C14 3.65685 12.6569 5 11 5H9V8H12V10H9V12C9 13.6569 7.65685 15 6 15H5C3.34315 15 2 13.6569 2 12V11H4V12C4 12.5523 4.44772 13 5 13H6C6.55228 13 7 12.5523 7 12V10H5V8H7V5H5C4.44772 5 4 5.44772 4 6V7H2V6C2 4.34315 3.34315 3 5 3H11C11.5523 3 12 2.55228 12 2V1H14Z"/>
    </symbol>

    <symbol viewBox="0 0 16 16" id="ai">
        <path d="M1.69344 0.21344C1.79874 -0.071147 2.20126 -0.0711467 2.30656 0.213441L2.65414 1.15274C2.68724 1.24221 2.75779 1.31276 2.84726 1.34586L3.78656 1.69344C4.07115 1.79874 4.07115 2.20126 3.78656 2.30656L2.84726 2.65414C2.75779 2.68724 2.68724 2.75779 2.65414 2.84726L2.30656 3.78656C2.20126 4.07115 1.79874 4.07115 1.69344 3.78656L1.34586 2.84726C1.31276 2.75779 1.24221 2.68724 1.15274 2.65414L0.21344 2.30656C-0.071147 2.20126 -0.0711466 1.79874 0.213441 1.69344L1.15274 1.34586C1.24221 1.31276 1.31276 1.24221 1.34586 1.15274L1.69344 0.21344ZM5.98917 1.4C6.6799 -0.466672 9.3201 -0.466665 10.0108 1.40001L11.2273 4.68755C11.2419 4.72699 11.273 4.75808 11.3125 4.77267L14.6 5.98917C16.4667 6.6799 16.4667 9.3201 14.6 10.0108L11.3125 11.2273C11.273 11.2419 11.2419 11.273 11.2273 11.3125L10.0108 14.6C9.32009 16.4667 6.6799 16.4667 5.98917 14.6L4.77267 11.3125C4.75808 11.273 4.72699 11.2419 4.68755 11.2273L1.4 10.0108C-0.466672 9.32009 -0.466665 6.6799 1.40001 5.98917L4.68755 4.77267C4.72698 4.75808 4.75808 4.72699 4.77267 4.68755L5.98917 1.4ZM7.91477 2.02273C7.9021 2.03105 7.88222 2.0472 7.86488 2.09408L6.64837 5.38162C6.43121 5.96849 5.9685 6.43121 5.38162 6.64838L2.09408 7.86488C2.0472 7.88222 2.03105 7.9021 2.02273 7.91477C2.01083 7.93289 2 7.96239 2 8C2 8.03761 2.01083 8.06711 2.02273 8.08523C2.03105 8.0979 2.0472 8.11778 2.09408 8.13512L5.38162 9.35163C5.9685 9.56879 6.43121 10.0315 6.64837 10.6184L7.86487 13.9059C7.88222 13.9528 7.9021 13.969 7.91477 13.9773C7.93289 13.9892 7.96239 14 8 14C8.03761 14 8.06711 13.9892 8.08523 13.9773C8.0979 13.969 8.11778 13.9528 8.13512 13.9059L9.35163 10.6184C9.56879 10.0315 10.0315 9.56879 10.6184 9.35163L13.9059 8.13513C13.9528 8.11778 13.969 8.0979 13.9773 8.08523C13.9892 8.06711 14 8.03761 14 8C14 7.96239 13.9892 7.93289 13.9773 7.91477C13.969 7.9021 13.9528 7.88222 13.9059 7.86488L10.6184 6.64838C10.0315 6.43121 9.56879 5.9685 9.35163 5.38162L8.13513 2.09408C8.11778 2.0472 8.0979 2.03105 8.08523 2.02273C8.06711 2.01083 8.03761 2 8 2C7.96239 2 7.93289 2.01083 7.91477 2.02273ZM13.6934 12.2134C13.7987 11.9289 14.2013 11.9289 14.3066 12.2134L14.6541 13.1527C14.6872 13.2422 14.7578 13.3128 14.8473 13.3459L15.7866 13.6934C16.0711 13.7987 16.0711 14.2013 15.7866 14.3066L14.8473 14.6541C14.7578 14.6872 14.6872 14.7578 14.6541 14.8473L14.3066 15.7866C14.2013 16.0711 13.7987 16.0711 13.6934 15.7866L13.3459 14.8473C13.3128 14.7578 13.2422 14.6872 13.1527 14.6541L12.2134 14.3066C11.9289 14.2013 11.9289 13.7987 12.2134 13.6934L13.1527 13.3459C13.2422 13.3128 13.3128 13.2422 13.3459 13.1527L13.6934 12.2134Z" />
    </symbol>

    <symbol viewBox="0 0 16 16" id="lab">
        <path d="M12 0H4V2H5V6.7132L0.152002 14.47C-0.0406658 14.7783 -0.0508676 15.1668 0.125358 15.4848C0.301584 15.8027 0.636475 16 1 16H15C15.3635 16 15.6984 15.8027 15.8746 15.4848C16.0509 15.1668 16.0407 14.7783 15.848 14.47L11 6.7132V2H12V0ZM9 2H7V6H9V2ZM6.55425 8H9.44575L13.1958 14H2.80425L6.55425 8Z" />
    </symbol>
</svg>
