<svg width="82" height="28" viewBox="0 0 82 28" fill="none" xmlns="http://www.w3.org/2000/svg">
<path fill-rule="evenodd" clip-rule="evenodd" d="M8.5 3C7.11929 3 6 4.11929 6 5.5V8H10V11H6H3H0V8H3V5.5C3 2.46243 5.46243 0 8.5 0H10V3H8.5ZM6 11V22H3V14L6 11ZM54 0H51V22H54V19.5988C55.2705 21.0806 57.0413 22 59 22C62.866 22 66 18.4183 66 14C66 9.58172 62.866 6 59 6C57.0413 6 55.2705 6.91939 54 8.40116V0ZM58.5 19C55.873 19 54 16.627 54 14C54 11.373 55.873 9 58.5 9C61.127 9 63 11.373 63 14C63 16.627 61.127 19 58.5 19ZM48.9463 6H45.4463L41.4463 11.5652L39.6963 14L33.9463 22H37.4463L41.4463 16.4348L45.4463 22H48.9463L43.1963 14L48.9463 6ZM37.4463 6L40.5805 10.3606L38.8213 12.7826L33.9463 6H37.4463ZM12 0V18.5C12 20.433 13.567 22 15.5 22H17V19H15.5C15.2239 19 15 18.7761 15 18.5V0H12ZM21.9375 7.22434C22.9879 6.46054 24.334 6 26 6C27.666 6 29.012 6.46054 30.0623 7.22445C31.0965 7.97669 31.756 8.95827 32.1761 9.87541C32.595 10.7898 32.7967 11.6844 32.8961 12.3366C32.9464 12.6664 32.972 12.9442 32.985 13.1448C32.9916 13.2454 32.995 13.3273 32.9969 13.3875C32.9978 13.4176 32.9983 13.4423 32.9985 13.4613L32.9988 13.4854L32.9988 13.4942L32.9989 13.4977V13.4993C32.9989 13.5 32.9989 13.5007 31.4989 13.5001C31.4989 15.0001 31.4988 15.0001 31.4988 15.0001H31.4984H31.4979H31.4971H31.4962H31.495H31.4936H31.492H31.4902H31.4881H31.4859H31.4834H31.4808H31.4779H31.4748H31.4716H31.4681H31.4644H31.4605H31.4564H31.4521H31.4476H31.4429H31.438H31.433H31.4277H31.4222H31.4165H31.4106H31.4045H31.3983H31.3918H31.3852H31.3783H31.3713H31.3641H31.3566H31.349H31.3412H31.3333H31.3251H31.3168H31.3082H31.2995H31.2906H31.2815H31.2723H31.2628H31.2532H31.2434H31.2334H31.2232H31.2129H31.2024H31.1917H31.1808H31.1698H31.1586H31.1472H31.1357H31.1239H31.1121H31.1H31.0878H31.0754H31.0628H31.0501H31.0372H31.0241H31.0109H30.9975H30.984H30.9703H30.9564H30.9424H30.9282H30.9138H30.8993H30.8847H30.8699H30.8549H30.8398H30.8245H30.8091H30.7935H30.7778H30.7619H30.7459H30.7297H30.7134H30.6969H30.6803H30.6635H30.6466H30.6295H30.6123H30.595H30.5775H30.5599H30.5421H30.5242H30.5062H30.488H30.4697H30.4513H30.4327H30.414H30.3951H30.3761H30.357H30.3377H30.3184H30.2989H30.2792H30.2595H30.2396H30.2195H30.1994H30.1791H30.1587H30.1382H30.1176H30.0968H30.0759H30.0549H30.0338H30.0125H29.9912H29.9697H29.9481H29.9264H29.9046H29.8826H29.8606H29.8384H29.8161H29.7937H29.7712H29.7486H29.7259H29.7031H29.6801H29.6571H29.6339H29.6107H29.5873H29.5639H29.5403H29.5167H29.4929H29.469H29.4451H29.421H29.3968H29.3726H29.3482H29.3238H29.2993H29.2746H29.2499H29.2251H29.2002H29.1752H29.1501H29.1249H29.0996H29.0742H29.0488H29.0233H28.9977H28.972H28.9462H28.9203H28.8944H28.8683H28.8422H28.816H28.7898H28.7634H28.737H28.7105H28.6839H28.6572H28.6305H28.6037H28.5769H28.5499H28.5229H28.4958H28.4686H28.4414H28.4141H28.3868H28.3593H28.3318H28.3043H28.2767H28.249H28.2212H28.1934H28.1656H28.1376H28.1096H28.0816H28.0535H28.0253H27.9971H27.9688H27.9405H27.9121H27.8837H27.8552H27.8266H27.7981H27.7694H27.7407H27.712H27.6832H27.6544H27.6255H27.5966H27.5676H27.5386H27.5095H27.4804H27.4513H27.4221H27.3929H27.3636H27.3343H27.305H27.2756H27.2462H27.2168H27.1873H27.1578H27.1282H27.0986H27.069H27.0394H27.0097H26.98H26.9503H26.9206H26.8908H26.861H26.8311H26.8013H26.7714H26.7415H26.7116H26.6817H26.6517H26.6217H26.5917H26.5617H26.5316H26.5016H26.4715H26.4414H26.4113H26.3812H26.3511H26.321H26.2908H26.2607H26.2305H26.2003H26.1702H26.14H26.1098H26.0796H26.0494H26.0192H25.9889H25.9587H25.9285H25.8983H25.8681H25.8379H25.8077H25.7774H25.7472H25.717H25.6868H25.6566H25.6264H25.5963H25.5661H25.5359H25.5058H25.4756H25.4455H25.4154H25.3853H25.3552H25.3251H25.295H25.265H25.2349H25.2049H25.1749H25.1449H25.115H25.085H25.0551H25.0252H24.9953H24.9655H24.9357H24.9059H24.8761H24.8463H24.8166H24.7869H24.7572H24.7276H24.698H24.6684H24.6389H24.6094H24.5799H24.5505H24.5211H24.4917H24.4624H24.4331H24.4038H24.3746H24.3454H24.3163H24.2872H24.2581H24.2291H24.2001H24.1712H24.1423H24.1135H24.0847H24.056H24.0273H23.9987H23.9701H23.9416H23.9131H23.8846H23.8563H23.8279H23.7997H23.7714H23.7433H23.7152H23.6871H23.6592H23.6312H23.6034H23.5756H23.5478H23.5201H23.4925H23.465H23.4375H23.4101H23.3827H23.3554H23.3282H23.3011H23.274H23.247H23.22H23.1932H23.1664H23.1396H23.113H23.0864H23.0599H23.0335H23.0072H22.9809H22.9547H22.9286H22.9026H22.8766H22.8508H22.825H22.7993H22.7737H22.7482H22.7227H22.6974H22.6721H22.647H22.6219H22.5969H22.572H22.5472H22.5224H22.4978H22.4733H22.4488H22.4245H22.4002H22.3761H22.352H22.3281H22.3042H22.2805H22.2568H22.2333H22.2098H22.1865H22.1632H22.1401H22.1171H22.0941H22.0713H22.0486H22.0424C22.2973 16.4755 23.2021 17.6118 24.4204 18.221C25.9855 19.0036 28.2643 18.998 30.6165 17.2871L32.3812 19.7132C29.2341 22.0023 25.7635 22.2467 23.0787 20.9043C20.4158 19.5728 18.7195 16.7607 18.9999 13.4225L19.0009 13.3869C19.0027 13.3267 19.0062 13.2448 19.0128 13.1443C19.0259 12.9436 19.0516 12.6659 19.102 12.336C19.2017 11.6839 19.4038 10.7894 19.8229 9.87498C20.2433 8.95791 20.9031 7.97647 21.9375 7.22434ZM31.4989 13.5001L32.9989 13.5007L32.9983 15.0001H31.4989V13.5001ZM22.2351 12.0001H22.2568H22.2805H22.3042H22.3281H22.352H22.3761H22.4002H22.4245H22.4488H22.4733H22.4978H22.5224H22.5472H22.572H22.5969H22.6219H22.647H22.6721H22.6974H22.7227H22.7482H22.7737H22.7993H22.825H22.8508H22.8766H22.9026H22.9286H22.9547H22.9809H23.0072H23.0335H23.0599H23.0864H23.113H23.1396H23.1664H23.1932H23.22H23.247H23.274H23.3011H23.3282H23.3554H23.3827H23.4101H23.4375H23.465H23.4925H23.5201H23.5478H23.5756H23.6034H23.6312H23.6592H23.6871H23.7152H23.7433H23.7714H23.7997H23.8279H23.8563H23.8846H23.9131H23.9416H23.9701H23.9987H24.0273H24.056H24.0847H24.1135H24.1423H24.1712H24.2001H24.2291H24.2581H24.2872H24.3163H24.3454H24.3746H24.4038H24.4331H24.4624H24.4917H24.5211H24.5505H24.5799H24.6094H24.6389H24.6684H24.698H24.7276H24.7572H24.7869H24.8166H24.8463H24.8761H24.9059H24.9357H24.9655H24.9953H25.0252H25.0551H25.085H25.115H25.1449H25.1749H25.2049H25.2349H25.265H25.295H25.3251H25.3552H25.3853H25.4154H25.4455H25.4756H25.5058H25.5359H25.5661H25.5963H25.6264H25.6566H25.6868H25.717H25.7472H25.7774H25.8077H25.8379H25.8681H25.8983H25.9285H25.9587H25.9889H26.0192H26.0494H26.0796H26.1098H26.14H26.1702H26.2003H26.2305H26.2607H26.2908H26.321H26.3511H26.3812H26.4113H26.4414H26.4715H26.5016H26.5316H26.5617H26.5917H26.6217H26.6517H26.6817H26.7116H26.7415H26.7714H26.8013H26.8311H26.861H26.8908H26.9206H26.9503H26.98H27.0097H27.0394H27.069H27.0986H27.1282H27.1578H27.1873H27.2168H27.2462H27.2756H27.305H27.3343H27.3636H27.3929H27.4221H27.4513H27.4804H27.5095H27.5386H27.5676H27.5966H27.6255H27.6544H27.6832H27.712H27.7407H27.7694H27.7981H27.8266H27.8552H27.8837H27.9121H27.9405H27.9688H27.9971H28.0253H28.0535H28.0816H28.1096H28.1376H28.1656H28.1934H28.2212H28.249H28.2767H28.3043H28.3318H28.3593H28.3868H28.4141H28.4414H28.4686H28.4958H28.5229H28.5499H28.5769H28.6037H28.6305H28.6572H28.6839H28.7105H28.737H28.7634H28.7898H28.816H28.8422H28.8683H28.8944H28.9203H28.9462H28.972H28.9977H29.0233H29.0488H29.0742H29.0996H29.1249H29.1501H29.1752H29.2002H29.2251H29.2499H29.2746H29.2993H29.3238H29.3482H29.3726H29.3968H29.421H29.4451H29.469H29.4929H29.5167H29.5403H29.5639H29.5873H29.6107H29.6339H29.6571H29.6801H29.7031H29.7259H29.7486H29.7634C29.6854 11.7161 29.5829 11.4179 29.4486 11.1247C29.1816 10.5418 28.8102 10.0234 28.2977 9.65059C27.8012 9.28948 27.0846 9 26 9C24.9154 9 24.1986 9.28948 23.7018 9.6507C23.189 10.0236 22.8173 10.5422 22.5501 11.1251C22.4157 11.4182 22.3131 11.7162 22.2351 12.0001ZM75 6C73.334 6 71.9879 6.46054 70.9375 7.22434C69.9031 7.97647 69.2433 8.95791 68.8229 9.87498C68.4038 10.7894 68.2017 11.6839 68.102 12.336C68.0516 12.6659 68.0259 12.9436 68.0128 13.1443C68.0062 13.2448 68.0027 13.3267 68.0009 13.3869L67.9999 13.4225C67.7195 16.7607 69.4158 19.5728 72.0787 20.9043C74.7635 22.2467 78.2341 22.0023 81.3812 19.7132L79.6165 17.2871C77.2643 18.998 74.9855 19.0036 73.4204 18.221C72.2021 17.6118 71.2973 16.4755 71.0424 15.0001H71.0486H71.0713H71.0941H71.1171H71.1401H71.1632H71.1865H71.2098H71.2333H71.2568H71.2805H71.3042H71.3281H71.352H71.3761H71.4002H71.4245H71.4488H71.4733H71.4978H71.5224H71.5472H71.572H71.5969H71.6219H71.647H71.6721H71.6974H71.7227H71.7482H71.7737H71.7993H71.825H71.8508H71.8766H71.9026H71.9286H71.9547H71.9809H72.0072H72.0335H72.0599H72.0864H72.113H72.1396H72.1664H72.1932H72.22H72.247H72.274H72.301H72.3282H72.3554H72.3827H72.4101H72.4375H72.465H72.4925H72.5201H72.5478H72.5756H72.6034H72.6312H72.6592H72.6871H72.7152H72.7433H72.7714H72.7997H72.8279H72.8563H72.8846H72.9131H72.9416H72.9701H72.9987H73.0273H73.056H73.0847H73.1135H73.1423H73.1712H73.2001H73.2291H73.2581H73.2872H73.3163H73.3454H73.3746H73.4038H73.4331H73.4624H73.4917H73.5211H73.5505H73.5799H73.6094H73.6389H73.6684H73.698H73.7276H73.7572H73.7869H73.8166H73.8463H73.8761H73.9059H73.9357H73.9655H73.9953H74.0252H74.0551H74.085H74.115H74.1449H74.1749H74.2049H74.2349H74.265H74.295H74.3251H74.3552H74.3853H74.4154H74.4455H74.4756H74.5058H74.5359H74.5661H74.5963H74.6264H74.6566H74.6868H74.717H74.7472H74.7774H74.8077H74.8379H74.8681H74.8983H74.9285H74.9587H74.9889H75.0192H75.0494H75.0796H75.1098H75.14H75.1702H75.2003H75.2305H75.2607H75.2908H75.321H75.3511H75.3812H75.4113H75.4414H75.4715H75.5016H75.5316H75.5617H75.5917H75.6217H75.6517H75.6816H75.7116H75.7415H75.7714H75.8013H75.8311H75.861H75.8908H75.9206H75.9503H75.98H76.0097H76.0394H76.069H76.0986H76.1282H76.1578H76.1873H76.2168H76.2462H76.2756H76.305H76.3343H76.3636H76.3929H76.4221H76.4513H76.4804H76.5095H76.5386H76.5676H76.5966H76.6255H76.6544H76.6832H76.712H76.7407H76.7694H76.798H76.8266H76.8552H76.8837H76.9121H76.9405H76.9688H76.9971H77.0253H77.0535H77.0816H77.1096H77.1376H77.1656H77.1934H77.2212H77.249H77.2767H77.3043H77.3318H77.3593H77.3868H77.4141H77.4414H77.4686H77.4958H77.5229H77.5499H77.5769H77.6037H77.6305H77.6572H77.6839H77.7105H77.737H77.7634H77.7898H77.816H77.8422H77.8683H77.8944H77.9203H77.9462H77.972H77.9977H78.0233H78.0488H78.0742H78.0996H78.1249H78.1501H78.1752H78.2002H78.2251H78.2499H78.2746H78.2993H78.3238H78.3482H78.3726H78.3969H78.421H78.4451H78.469H78.4929H78.5167H78.5403H78.5639H78.5873H78.6107H78.6339H78.6571H78.6801H78.7031H78.7259H78.7486H78.7712H78.7937H78.8161H78.8384H78.8606H78.8826H78.9046H78.9264H78.9481H78.9697H78.9912H79.0125H79.0338H79.0549H79.0759H79.0968H79.1176H79.1382H79.1587H79.1791H79.1994H79.2195H79.2396H79.2595H79.2792H79.2989H79.3184H79.3378H79.357H79.3761H79.3951H79.414H79.4327H79.4513H79.4697H79.488H79.5062H79.5242H79.5421H79.5599H79.5775H79.595H79.6123H79.6295H79.6466H79.6635H79.6803H79.6969H79.7134H79.7297H79.7459H79.7619H79.7778H79.7935H79.8091H79.8245H79.8398H79.8549H79.8699H79.8847H79.8993H79.9138H79.9282H79.9424H79.9564H79.9703H79.984H79.9975H80.0109H80.0241H80.0372H80.0501H80.0628H80.0754H80.0878H80.1H80.1121H80.1239H80.1357H80.1472H80.1586H80.1698H80.1808H80.1917H80.2024H80.2129H80.2232H80.2334H80.2434H80.2532H80.2628H80.2723H80.2815H80.2906H80.2995H80.3082H80.3168H80.3251H80.3333H80.3412H80.349H80.3566H80.3641H80.3713H80.3783H80.3852H80.3918H80.3983H80.4045H80.4106H80.4165H80.4222H80.4277H80.433H80.438H80.4429H80.4476H80.4521H80.4564H80.4605H80.4644H80.4681H80.4716H80.4748H80.4779H80.4808H80.4834H80.4859H80.4881H80.4902H80.492H80.4936H80.495H80.4962H80.4971H80.4979H80.4984H80.4987C80.4988 15.0001 80.4989 15.0001 80.4989 13.5001V15.0001H81.9983L81.9989 13.5007L80.4989 13.5001C81.9989 13.5007 81.9989 13.5 81.9989 13.4993L81.9989 13.4977L81.9988 13.4942L81.9988 13.4854L81.9985 13.4613C81.9983 13.4423 81.9978 13.4176 81.9969 13.3875C81.995 13.3273 81.9916 13.2454 81.985 13.1448C81.972 12.9442 81.9464 12.6664 81.8961 12.3366C81.7967 11.6844 81.595 10.7898 81.1761 9.87541C80.756 8.95827 80.0965 7.97669 79.0623 7.22445C78.012 6.46054 76.666 6 75 6ZM71.2568 12.0001H71.2351C71.3131 11.7162 71.4157 11.4182 71.5501 11.1251C71.8173 10.5422 72.189 10.0236 72.7018 9.6507C73.1986 9.28948 73.9154 9 75 9C76.0846 9 76.8012 9.28948 77.2977 9.65059C77.8102 10.0234 78.1816 10.5418 78.4486 11.1247C78.5829 11.4179 78.6854 11.7161 78.7634 12.0001H78.7486H78.7259H78.7031H78.6801H78.6571H78.6339H78.6107H78.5873H78.5639H78.5403H78.5167H78.4929H78.469H78.4451H78.421H78.3969H78.3726H78.3482H78.3238H78.2993H78.2746H78.2499H78.2251H78.2002H78.1752H78.1501H78.1249H78.0996H78.0742H78.0488H78.0233H77.9977H77.972H77.9462H77.9203H77.8944H77.8683H77.8422H77.816H77.7898H77.7634H77.737H77.7105H77.6839H77.6572H77.6305H77.6037H77.5769H77.5499H77.5229H77.4958H77.4686H77.4414H77.4141H77.3868H77.3593H77.3318H77.3043H77.2767H77.249H77.2212H77.1934H77.1656H77.1376H77.1096H77.0816H77.0535H77.0253H76.9971H76.9688H76.9405H76.9121H76.8837H76.8552H76.8266H76.798H76.7694H76.7407H76.712H76.6832H76.6544H76.6255H76.5966H76.5676H76.5386H76.5095H76.4804H76.4513H76.4221H76.3929H76.3636H76.3343H76.305H76.2756H76.2462H76.2168H76.1873H76.1578H76.1282H76.0986H76.069H76.0394H76.0097H75.98H75.9503H75.9206H75.8908H75.861H75.8311H75.8013H75.7714H75.7415H75.7116H75.6816H75.6517H75.6217H75.5917H75.5617H75.5316H75.5016H75.4715H75.4414H75.4113H75.3812H75.3511H75.321H75.2908H75.2607H75.2305H75.2003H75.1702H75.14H75.1098H75.0796H75.0494H75.0192H74.9889H74.9587H74.9285H74.8983H74.8681H74.8379H74.8077H74.7774H74.7472H74.717H74.6868H74.6566H74.6264H74.5963H74.5661H74.5359H74.5058H74.4756H74.4455H74.4154H74.3853H74.3552H74.3251H74.295H74.265H74.2349H74.2049H74.1749H74.1449H74.115H74.085H74.0551H74.0252H73.9953H73.9655H73.9357H73.9059H73.8761H73.8463H73.8166H73.7869H73.7572H73.7276H73.698H73.6684H73.6389H73.6094H73.5799H73.5505H73.5211H73.4917H73.4624H73.4331H73.4038H73.3746H73.3454H73.3163H73.2872H73.2581H73.2291H73.2001H73.1712H73.1423H73.1135H73.0847H73.056H73.0273H72.9987H72.9701H72.9416H72.9131H72.8846H72.8563H72.8279H72.7997H72.7714H72.7433H72.7152H72.6871H72.6592H72.6312H72.6034H72.5756H72.5478H72.5201H72.4925H72.465H72.4375H72.4101H72.3827H72.3554H72.3282H72.301H72.274H72.247H72.22H72.1932H72.1664H72.1396H72.113H72.0864H72.0599H72.0335H72.0072H71.9809H71.9547H71.9286H71.9026H71.8766H71.8508H71.825H71.7993H71.7737H71.7482H71.7227H71.6974H71.6721H71.647H71.6219H71.5969H71.572H71.5472H71.5224H71.4978H71.4733H71.4488H71.4245H71.4002H71.3761H71.352H71.3281H71.3042H71.2805H71.2568Z" fill="black"/>
</svg>
