<svg width="112" height="22" viewBox="0 0 112 22" fill="none" xmlns="http://www.w3.org/2000/svg">
<rect width="64" height="22" rx="2" fill="white"/>
<path d="M12.356 7.748C12.5147 7.748 12.6267 7.78067 12.692 7.846C12.7573 7.902 12.79 8.00933 12.79 8.168V14.566C12.79 14.7247 12.7573 14.8367 12.692 14.902C12.6267 14.9673 12.5147 15 12.356 15H11.6C11.4413 15 11.3293 14.9673 11.264 14.902C11.1987 14.8367 11.166 14.7247 11.166 14.566V9.246H9.038V10.352C9.038 11.192 8.982 11.9107 8.87 12.508C8.758 13.1053 8.59 13.5767 8.366 13.922C8.142 14.258 7.92733 14.5147 7.722 14.692C7.51667 14.86 7.26467 15.014 6.966 15.154C6.73267 15.2567 6.55533 15.182 6.434 14.93L6.07 14.202C5.958 13.9873 6.014 13.8193 6.238 13.698C6.41533 13.6047 6.55533 13.516 6.658 13.432C6.77 13.3387 6.896 13.18 7.036 12.956C7.176 12.7227 7.27867 12.382 7.344 11.934C7.41867 11.4767 7.456 10.9167 7.456 10.254V8.168C7.456 8.00933 7.48867 7.902 7.554 7.846C7.61933 7.78067 7.73133 7.748 7.89 7.748H12.356ZM14.1616 10.562C14.1616 9.582 14.4369 8.83533 14.9876 8.322C15.5476 7.79933 16.3549 7.538 17.4096 7.538C18.4736 7.538 19.2762 7.80867 19.8176 8.35C20.3682 8.89133 20.6436 9.58667 20.6436 10.436V11.29C20.6436 11.6913 20.4336 11.892 20.0136 11.892H15.7856V12.41C15.7856 12.8673 15.9209 13.2173 16.1916 13.46C16.4716 13.6933 16.8682 13.81 17.3816 13.81C18.1656 13.81 18.7162 13.5627 19.0336 13.068C19.1456 12.9093 19.2482 12.8207 19.3416 12.802C19.4442 12.774 19.5796 12.8067 19.7476 12.9L20.2376 13.166C20.5549 13.3153 20.6109 13.5487 20.4056 13.866C19.8549 14.762 18.8469 15.21 17.3816 15.21C16.2896 15.21 15.4776 14.9393 14.9456 14.398C14.4229 13.8567 14.1616 13.1287 14.1616 12.214V10.562ZM19.0196 10.338C19.0196 9.88067 18.8842 9.53067 18.6136 9.288C18.3429 9.036 17.9416 8.91 17.4096 8.91C16.8869 8.91 16.4856 9.036 16.2056 9.288C15.9256 9.53067 15.7856 9.88067 15.7856 10.338V10.646H19.0196V10.338ZM27.6871 7.748C27.8458 7.748 27.9531 7.78067 28.0091 7.846C28.0744 7.902 28.1071 8.00933 28.1071 8.168V14.566C28.1071 14.7247 28.0744 14.8367 28.0091 14.902C27.9531 14.9673 27.8458 15 27.6871 15H26.9171C26.7584 15 26.6464 14.9673 26.5811 14.902C26.5158 14.8367 26.4831 14.7247 26.4831 14.566V12.06H23.5571V14.566C23.5571 14.7247 23.5244 14.8367 23.4591 14.902C23.3938 14.9673 23.2818 15 23.1231 15H22.3531C22.1944 15 22.0824 14.9673 22.0171 14.902C21.9611 14.8367 21.9331 14.7247 21.9331 14.566V8.168C21.9331 8.00933 21.9611 7.902 22.0171 7.846C22.0824 7.78067 22.1944 7.748 22.3531 7.748H23.1231C23.2818 7.748 23.3938 7.78067 23.4591 7.846C23.5244 7.902 23.5571 8.00933 23.5571 8.168V10.548H26.4831V8.168C26.4831 8.00933 26.5158 7.902 26.5811 7.846C26.6464 7.78067 26.7584 7.748 26.9171 7.748H27.6871ZM36.9221 13.488C37.0807 13.488 37.1927 13.5207 37.2581 13.586C37.3234 13.6513 37.3561 13.768 37.3561 13.936V16.512C37.3561 16.6707 37.3234 16.7827 37.2581 16.848C37.1927 16.9133 37.0807 16.946 36.9221 16.946H36.2221C36.0634 16.946 35.9467 16.9133 35.8721 16.848C35.8067 16.7827 35.7741 16.6707 35.7741 16.512V15H30.7901V16.512C30.7901 16.6707 30.7574 16.7827 30.6921 16.848C30.6267 16.9133 30.5147 16.946 30.3561 16.946H29.6421C29.4834 16.946 29.3714 16.9133 29.3061 16.848C29.2501 16.7827 29.2221 16.6707 29.2221 16.512V13.936C29.2221 13.768 29.2501 13.6513 29.3061 13.586C29.3714 13.5207 29.4834 13.488 29.6421 13.488H29.9501C30.5287 13.04 30.8181 11.948 30.8181 10.212V8.168C30.8181 8.00933 30.8461 7.902 30.9021 7.846C30.9674 7.78067 31.0794 7.748 31.2381 7.748H35.8441C36.0027 7.748 36.1147 7.78067 36.1801 7.846C36.2454 7.902 36.2781 8.00933 36.2781 8.168V13.488H36.9221ZM32.3861 10.324C32.3861 11.752 32.1947 12.8067 31.8121 13.488H34.6541V9.246H32.3861V10.324ZM39.584 7.748C39.7427 7.748 39.8547 7.78067 39.92 7.846C39.9854 7.902 40.018 8.00933 40.018 8.168V10.842C40.018 11.5047 39.92 12.186 39.724 12.886H39.766C39.9527 12.438 40.214 11.9667 40.55 11.472L43.028 7.958C43.1307 7.818 43.2707 7.748 43.448 7.748H44.218C44.3767 7.748 44.484 7.78067 44.54 7.846C44.6054 7.902 44.638 8.00933 44.638 8.168V14.566C44.638 14.7247 44.6054 14.8367 44.54 14.902C44.484 14.9673 44.3767 15 44.218 15H43.448C43.2894 15 43.1774 14.9673 43.112 14.902C43.0467 14.8367 43.014 14.7247 43.014 14.566V11.934C43.014 11.2807 43.1167 10.5947 43.322 9.876H43.28C43.1307 10.24 42.86 10.7113 42.468 11.29L40.018 14.776C39.906 14.9253 39.7614 15 39.584 15H38.814C38.6554 15 38.5434 14.9673 38.478 14.902C38.422 14.8367 38.394 14.7247 38.394 14.566V8.168C38.394 8.00933 38.422 7.902 38.478 7.846C38.5434 7.78067 38.6554 7.748 38.814 7.748H39.584ZM52.0094 7.748C52.168 7.748 52.2754 7.78067 52.3314 7.846C52.3967 7.902 52.4294 8.00933 52.4294 8.168V14.566C52.4294 14.7247 52.3967 14.8367 52.3314 14.902C52.2754 14.9673 52.168 15 52.0094 15H51.2394C51.0807 15 50.9687 14.9673 50.9034 14.902C50.838 14.8367 50.8054 14.7247 50.8054 14.566V12.06H47.8794V14.566C47.8794 14.7247 47.8467 14.8367 47.7814 14.902C47.716 14.9673 47.604 15 47.4454 15H46.6754C46.5167 15 46.4047 14.9673 46.3394 14.902C46.2834 14.8367 46.2554 14.7247 46.2554 14.566V8.168C46.2554 8.00933 46.2834 7.902 46.3394 7.846C46.4047 7.78067 46.5167 7.748 46.6754 7.748H47.4454C47.604 7.748 47.716 7.78067 47.7814 7.846C47.8467 7.902 47.8794 8.00933 47.8794 8.168V10.548H50.8054V8.168C50.8054 8.00933 50.838 7.902 50.9034 7.846C50.9687 7.78067 51.0807 7.748 51.2394 7.748H52.0094ZM58.6263 7.748C58.785 7.748 58.897 7.78067 58.9623 7.846C59.0277 7.902 59.0603 8.00933 59.0603 8.168V8.812C59.0603 8.97067 59.0277 9.08267 58.9623 9.148C58.897 9.21333 58.785 9.246 58.6263 9.246H55.6723V14.566C55.6723 14.7247 55.6397 14.8367 55.5743 14.902C55.509 14.9673 55.397 15 55.2383 15H54.4683C54.3097 15 54.1977 14.9673 54.1323 14.902C54.0763 14.8367 54.0483 14.7247 54.0483 14.566V8.168C54.0483 8.00933 54.0763 7.902 54.1323 7.846C54.1977 7.78067 54.3097 7.748 54.4683 7.748H58.6263Z" fill="#119A22"/>
<path d="M72.96 7.73C73.14 7.73 73.26 7.765 73.32 7.835C73.39 7.895 73.425 8.01 73.425 8.18V15.035C73.425 15.205 73.39 15.325 73.32 15.395C73.26 15.465 73.14 15.5 72.96 15.5H72.15C71.98 15.5 71.86 15.465 71.79 15.395C71.72 15.325 71.685 15.205 71.685 15.035V9.335H68.61V15.035C68.61 15.205 68.575 15.325 68.505 15.395C68.435 15.465 68.315 15.5 68.145 15.5H67.32C67.15 15.5 67.03 15.465 66.96 15.395C66.9 15.325 66.87 15.205 66.87 15.035V8.18C66.87 8.01 66.9 7.895 66.96 7.835C67.03 7.765 67.15 7.73 67.32 7.73H72.96ZM74.891 10.745C74.891 9.695 75.186 8.895 75.776 8.345C76.376 7.785 77.241 7.505 78.371 7.505C79.511 7.505 80.371 7.795 80.951 8.375C81.541 8.955 81.836 9.7 81.836 10.61V11.525C81.836 11.955 81.611 12.17 81.161 12.17H76.631V12.725C76.631 13.215 76.776 13.59 77.066 13.85C77.366 14.1 77.791 14.225 78.341 14.225C79.181 14.225 79.771 13.96 80.111 13.43C80.231 13.26 80.341 13.165 80.441 13.145C80.551 13.115 80.696 13.15 80.876 13.25L81.401 13.535C81.741 13.695 81.801 13.945 81.581 14.285C80.991 15.245 79.911 15.725 78.341 15.725C77.171 15.725 76.301 15.435 75.731 14.855C75.171 14.275 74.891 13.495 74.891 12.515V10.745ZM80.096 10.505C80.096 10.015 79.951 9.64 79.661 9.38C79.371 9.11 78.941 8.975 78.371 8.975C77.811 8.975 77.381 9.11 77.081 9.38C76.781 9.64 76.631 10.015 76.631 10.505V10.835H80.096V10.505ZM88.9777 5.18C88.8077 5.67 88.5177 6.05 88.1077 6.32C87.7077 6.59 87.2227 6.725 86.6527 6.725C86.0927 6.725 85.6077 6.59 85.1977 6.32C84.7877 6.05 84.5027 5.67 84.3427 5.18C84.2727 4.98 84.3427 4.84 84.5527 4.76L85.1377 4.52C85.3677 4.45 85.5227 4.505 85.6027 4.685C85.7727 5.205 86.1227 5.465 86.6527 5.465C87.1827 5.465 87.5327 5.205 87.7027 4.685C87.7727 4.515 87.9027 4.455 88.0927 4.505L88.7827 4.76C88.9027 4.81 88.9727 4.865 88.9927 4.925C89.0227 4.985 89.0177 5.07 88.9777 5.18ZM84.4927 7.73C84.6627 7.73 84.7827 7.765 84.8527 7.835C84.9227 7.895 84.9577 8.01 84.9577 8.18V11.045C84.9577 11.755 84.8527 12.485 84.6427 13.235H84.6877C84.8877 12.755 85.1677 12.25 85.5277 11.72L88.1827 7.955C88.2927 7.805 88.4427 7.73 88.6327 7.73H89.4577C89.6277 7.73 89.7427 7.765 89.8027 7.835C89.8727 7.895 89.9077 8.01 89.9077 8.18V15.035C89.9077 15.205 89.8727 15.325 89.8027 15.395C89.7427 15.465 89.6277 15.5 89.4577 15.5H88.6327C88.4627 15.5 88.3427 15.465 88.2727 15.395C88.2027 15.325 88.1677 15.205 88.1677 15.035V12.215C88.1677 11.515 88.2777 10.78 88.4977 10.01H88.4527C88.2927 10.4 88.0027 10.905 87.5827 11.525L84.9577 15.26C84.8377 15.42 84.6827 15.5 84.4927 15.5H83.6677C83.4977 15.5 83.3777 15.465 83.3077 15.395C83.2477 15.325 83.2177 15.205 83.2177 15.035V8.18C83.2177 8.01 83.2477 7.895 83.3077 7.835C83.3777 7.765 83.4977 7.73 83.6677 7.73H84.4927ZM99.3505 13.88C99.5205 13.88 99.6405 13.915 99.7105 13.985C99.7805 14.055 99.8155 14.18 99.8155 14.36V17.12C99.8155 17.29 99.7805 17.41 99.7105 17.48C99.6405 17.55 99.5205 17.585 99.3505 17.585H98.6005C98.4305 17.585 98.3055 17.55 98.2255 17.48C98.1555 17.41 98.1205 17.29 98.1205 17.12V15.5H92.7805V17.12C92.7805 17.29 92.7455 17.41 92.6755 17.48C92.6055 17.55 92.4855 17.585 92.3155 17.585H91.5505C91.3805 17.585 91.2605 17.55 91.1905 17.48C91.1305 17.41 91.1005 17.29 91.1005 17.12V14.36C91.1005 14.18 91.1305 14.055 91.1905 13.985C91.2605 13.915 91.3805 13.88 91.5505 13.88H91.8805C92.5005 13.4 92.8105 12.23 92.8105 10.37V8.18C92.8105 8.01 92.8405 7.895 92.9005 7.835C92.9705 7.765 93.0905 7.73 93.2605 7.73H98.1955C98.3655 7.73 98.4855 7.765 98.5555 7.835C98.6255 7.895 98.6605 8.01 98.6605 8.18V13.88H99.3505ZM94.4905 10.49C94.4905 12.02 94.2855 13.15 93.8755 13.88H96.9205V9.335H94.4905V10.49ZM106.073 7.73C106.263 7.73 106.393 7.765 106.463 7.835C106.533 7.895 106.568 8.015 106.568 8.195V10.73H107.018H107.198L108.893 8.075C108.993 7.915 109.098 7.82 109.208 7.79C109.318 7.75 109.513 7.73 109.793 7.73H110.528C110.968 7.73 111.068 7.91 110.828 8.27L108.773 11.21C109.083 11.41 109.378 11.78 109.658 12.32L110.963 14.945C111.063 15.145 111.093 15.29 111.053 15.38C111.013 15.46 110.883 15.5 110.663 15.5H109.913C109.653 15.5 109.473 15.475 109.373 15.425C109.273 15.375 109.183 15.26 109.103 15.08L108.173 13.085C107.963 12.595 107.568 12.35 106.988 12.35H106.568V15.02C106.568 15.2 106.533 15.325 106.463 15.395C106.393 15.465 106.263 15.5 106.073 15.5H105.308C105.118 15.5 104.988 15.465 104.918 15.395C104.858 15.325 104.828 15.2 104.828 15.02V12.35H104.393C103.823 12.35 103.428 12.595 103.208 13.085L102.278 15.08C102.198 15.26 102.108 15.375 102.008 15.425C101.918 15.475 101.743 15.5 101.483 15.5H100.718C100.498 15.5 100.368 15.46 100.328 15.38C100.288 15.29 100.318 15.145 100.418 14.945L101.738 12.32C101.998 11.8 102.288 11.43 102.608 11.21L100.553 8.27C100.313 7.91 100.413 7.73 100.853 7.73H101.588C101.868 7.73 102.063 7.75 102.173 7.79C102.283 7.82 102.388 7.915 102.488 8.075L104.198 10.73H104.378H104.828V8.195C104.828 8.015 104.858 7.895 104.918 7.835C104.988 7.765 105.118 7.73 105.308 7.73H106.073Z" fill="white"/>
</svg>
