<svg width="92" height="22" viewBox="0 0 92 22" fill="none" xmlns="http://www.w3.org/2000/svg">
<rect width="57" height="22" rx="2" fill="white"/>
<rect width="57" height="22" rx="2" fill="white"/>
<path d="M8.478 14.566C8.478 14.7247 8.44533 14.8367 8.38 14.902C8.31467 14.9673 8.20267 15 8.044 15H7.288C7.12 15 7.00333 14.9673 6.938 14.902C6.882 14.8367 6.854 14.7247 6.854 14.566V5.074C6.854 4.91533 6.882 4.80333 6.938 4.738C7.00333 4.67267 7.12 4.64 7.288 4.64H8.044C8.20267 4.64 8.31467 4.67267 8.38 4.738C8.44533 4.80333 8.478 4.91533 8.478 5.074V14.566ZM10.0219 8.994C10.5259 8.02333 11.4919 7.538 12.9199 7.538C14.9173 7.538 15.9159 8.49933 15.9159 10.422V14.048C15.9159 14.2907 15.8786 14.4633 15.8039 14.566C15.7386 14.6687 15.6079 14.762 15.4119 14.846C14.8519 15.0887 14.0119 15.21 12.8919 15.21C11.7066 15.21 10.8899 15.028 10.4419 14.664C9.99394 14.2907 9.76994 13.7167 9.76994 12.942C9.76994 12.1113 10.0126 11.528 10.4979 11.192C10.9926 10.856 11.8093 10.688 12.9479 10.688C13.0506 10.688 13.4986 10.7113 14.2919 10.758V10.366C14.2919 9.90867 14.1846 9.56333 13.9699 9.33C13.7553 9.09667 13.3959 8.98 12.8919 8.98C12.2013 8.98 11.7113 9.204 11.4219 9.652C11.3193 9.80133 11.2306 9.89 11.1559 9.918C11.0906 9.93667 10.9786 9.918 10.8199 9.862L10.2599 9.624C9.95194 9.484 9.8726 9.274 10.0219 8.994ZM14.2919 12.088C13.3119 12.0413 12.8033 12.018 12.7659 12.018C12.2619 12.018 11.9119 12.0927 11.7159 12.242C11.5199 12.3913 11.4219 12.62 11.4219 12.928C11.4219 13.2453 11.5106 13.4833 11.6879 13.642C11.8746 13.7913 12.2246 13.866 12.7379 13.866C13.3353 13.866 13.8019 13.8287 14.1379 13.754C14.2406 13.7167 14.2919 13.6513 14.2919 13.558V12.088ZM17.9257 8.014C18.719 7.69667 19.6384 7.538 20.6837 7.538C21.6637 7.538 22.3917 7.78067 22.8677 8.266C23.353 8.75133 23.5957 9.44667 23.5957 10.352V14.566C23.5957 14.7247 23.563 14.8367 23.4977 14.902C23.4324 14.9673 23.3204 15 23.1617 15H22.3917C22.233 15 22.121 14.9673 22.0557 14.902C21.9997 14.8367 21.9717 14.7247 21.9717 14.566V10.394C21.9717 9.47933 21.463 9.022 20.4457 9.022C19.9977 9.022 19.5497 9.08267 19.1017 9.204C19.0364 9.232 19.0037 9.27867 19.0037 9.344V14.566C19.0037 14.7247 18.971 14.8367 18.9057 14.902C18.8497 14.9673 18.7424 15 18.5837 15H17.8137C17.655 15 17.543 14.9673 17.4777 14.902C17.4124 14.8367 17.3797 14.7247 17.3797 14.566V8.812C17.3797 8.588 17.4124 8.42467 17.4777 8.322C17.5524 8.21 17.7017 8.10733 17.9257 8.014ZM24.922 10.464C24.922 9.512 25.1647 8.78867 25.65 8.294C26.1447 7.79 26.8773 7.538 27.848 7.538C28.2773 7.538 28.8327 7.59867 29.514 7.72V5.074C29.514 4.91533 29.542 4.80333 29.598 4.738C29.6633 4.67267 29.7753 4.64 29.934 4.64H30.704C30.8627 4.64 30.9747 4.67267 31.04 4.738C31.1053 4.80333 31.138 4.91533 31.138 5.074V13.992C31.138 14.216 31.1007 14.3793 31.026 14.482C30.9513 14.5753 30.802 14.6687 30.578 14.762C29.7847 15.0607 28.912 15.21 27.96 15.21C25.9347 15.21 24.922 14.2673 24.922 12.382V10.464ZM29.514 9.204C28.954 9.08267 28.5013 9.022 28.156 9.022C27.0827 9.022 26.546 9.51667 26.546 10.506V12.326C26.546 13.2593 27.0687 13.726 28.114 13.726C28.6087 13.726 29.038 13.6747 29.402 13.572C29.4767 13.544 29.514 13.4927 29.514 13.418V9.204ZM33.5879 5.032C33.9145 5.032 34.1385 5.09267 34.2599 5.214C34.3812 5.33533 34.4419 5.55467 34.4419 5.872V5.998C34.4419 6.32467 34.3812 6.54867 34.2599 6.67C34.1385 6.79133 33.9145 6.852 33.5879 6.852H33.4899C33.1725 6.852 32.9485 6.79133 32.8179 6.67C32.6965 6.54867 32.6359 6.32467 32.6359 5.998V5.872C32.6359 5.55467 32.6965 5.33533 32.8179 5.214C32.9392 5.09267 33.1632 5.032 33.4899 5.032H33.5879ZM33.9239 7.748C34.0825 7.748 34.1945 7.78067 34.2599 7.846C34.3252 7.902 34.3579 8.00933 34.3579 8.168V14.566C34.3579 14.7247 34.3252 14.8367 34.2599 14.902C34.1945 14.9673 34.0825 15 33.9239 15H33.1539C32.9952 15 32.8832 14.9673 32.8179 14.902C32.7619 14.8367 32.7339 14.7247 32.7339 14.566V8.168C32.7339 8.00933 32.7619 7.902 32.8179 7.846C32.8832 7.78067 32.9952 7.748 33.1539 7.748H33.9239ZM36.4921 8.014C37.2854 7.69667 38.2048 7.538 39.2501 7.538C40.2301 7.538 40.9581 7.78067 41.4341 8.266C41.9194 8.75133 42.1621 9.44667 42.1621 10.352V14.566C42.1621 14.7247 42.1294 14.8367 42.0641 14.902C41.9988 14.9673 41.8868 15 41.7281 15H40.9581C40.7994 15 40.6874 14.9673 40.6221 14.902C40.5661 14.8367 40.5381 14.7247 40.5381 14.566V10.394C40.5381 9.47933 40.0294 9.022 39.0121 9.022C38.5641 9.022 38.1161 9.08267 37.6681 9.204C37.6028 9.232 37.5701 9.27867 37.5701 9.344V14.566C37.5701 14.7247 37.5374 14.8367 37.4721 14.902C37.4161 14.9673 37.3088 15 37.1501 15H36.3801C36.2214 15 36.1094 14.9673 36.0441 14.902C35.9788 14.8367 35.9461 14.7247 35.9461 14.566V8.812C35.9461 8.588 35.9788 8.42467 36.0441 8.322C36.1188 8.21 36.2681 8.10733 36.4921 8.014ZM43.4744 10.478C43.4744 8.518 44.5291 7.538 46.6384 7.538C47.6931 7.538 48.5377 7.68267 49.1724 7.972C49.3964 8.07467 49.5364 8.17267 49.5924 8.266C49.6577 8.35933 49.6904 8.518 49.6904 8.742V15.238C49.6904 16.1993 49.4384 16.946 48.9344 17.478C48.4397 18.0193 47.6651 18.29 46.6104 18.29C45.2104 18.29 44.2444 17.842 43.7124 16.946C43.5071 16.6473 43.5631 16.414 43.8804 16.246L44.4124 15.952C44.5804 15.868 44.7111 15.8353 44.8044 15.854C44.9071 15.882 45.0144 15.9707 45.1264 16.12C45.4251 16.596 45.9104 16.834 46.5824 16.834C47.5717 16.834 48.0664 16.33 48.0664 15.322V14.622C47.4411 14.79 46.8811 14.874 46.3864 14.874C45.4064 14.874 44.6737 14.6313 44.1884 14.146C43.7124 13.6607 43.4744 12.9653 43.4744 12.06V10.478ZM47.9404 9.176C47.5671 9.07333 47.1704 9.022 46.7504 9.022C45.6491 9.022 45.0984 9.526 45.0984 10.534V12.018C45.0984 12.4567 45.2291 12.7973 45.4904 13.04C45.7517 13.2733 46.1297 13.39 46.6244 13.39C47.0444 13.39 47.5251 13.3247 48.0664 13.194V9.344C48.0664 9.26933 48.0244 9.21333 47.9404 9.176Z" fill="#A3125F"/>
<path d="M60.425 7.94C61.215 7.65 62.185 7.505 63.335 7.505C64.395 7.505 65.185 7.765 65.705 8.285C66.235 8.805 66.5 9.555 66.5 10.535V12.59C66.5 14.68 65.385 15.725 63.155 15.725C62.795 15.725 62.27 15.635 61.58 15.455V18.335C61.58 18.505 61.545 18.625 61.475 18.695C61.415 18.765 61.3 18.8 61.13 18.8H60.305C60.135 18.8 60.015 18.765 59.945 18.695C59.875 18.625 59.84 18.505 59.84 18.335V8.795C59.84 8.555 59.875 8.38 59.945 8.27C60.025 8.15 60.185 8.04 60.425 7.94ZM64.76 10.58C64.76 9.59 64.2 9.095 63.08 9.095C62.57 9.095 62.12 9.15 61.73 9.26C61.63 9.3 61.58 9.365 61.58 9.455V13.91C62.16 14.06 62.645 14.135 63.035 14.135C64.185 14.135 64.76 13.6 64.76 12.53V10.58ZM67.8649 9.065C68.4049 8.025 69.4399 7.505 70.9699 7.505C73.1099 7.505 74.1799 8.535 74.1799 10.595V14.48C74.1799 14.74 74.1399 14.925 74.0599 15.035C73.9899 15.145 73.8499 15.245 73.6399 15.335C73.0399 15.595 72.1399 15.725 70.9399 15.725C69.6699 15.725 68.7949 15.53 68.3149 15.14C67.8349 14.74 67.5949 14.125 67.5949 13.295C67.5949 12.405 67.8549 11.78 68.3749 11.42C68.9049 11.06 69.7799 10.88 70.9999 10.88C71.1099 10.88 71.5899 10.905 72.4399 10.955V10.535C72.4399 10.045 72.3249 9.675 72.0949 9.425C71.8649 9.175 71.4799 9.05 70.9399 9.05C70.1999 9.05 69.6749 9.29 69.3649 9.77C69.2549 9.93 69.1599 10.025 69.0799 10.055C69.0099 10.075 68.8899 10.055 68.7199 9.995L68.1199 9.74C67.7899 9.59 67.7049 9.365 67.8649 9.065ZM72.4399 12.38C71.3899 12.33 70.8449 12.305 70.8049 12.305C70.2649 12.305 69.8899 12.385 69.6799 12.545C69.4699 12.705 69.3649 12.95 69.3649 13.28C69.3649 13.62 69.4599 13.875 69.6499 14.045C69.8499 14.205 70.2249 14.285 70.7749 14.285C71.4149 14.285 71.9149 14.245 72.2749 14.165C72.3849 14.125 72.4399 14.055 72.4399 13.955V12.38ZM75.5232 10.655C75.5232 8.555 76.6532 7.505 78.9132 7.505C80.0432 7.505 80.9482 7.66 81.6282 7.97C81.8682 8.08 82.0182 8.185 82.0782 8.285C82.1482 8.385 82.1832 8.555 82.1832 8.795V15.755C82.1832 16.785 81.9132 17.585 81.3732 18.155C80.8432 18.735 80.0132 19.025 78.8832 19.025C77.3832 19.025 76.3482 18.545 75.7782 17.585C75.5582 17.265 75.6182 17.015 75.9582 16.835L76.5282 16.52C76.7082 16.43 76.8482 16.395 76.9482 16.415C77.0582 16.445 77.1732 16.54 77.2932 16.7C77.6132 17.21 78.1332 17.465 78.8532 17.465C79.9132 17.465 80.4432 16.925 80.4432 15.845V15.095C79.7732 15.275 79.1732 15.365 78.6432 15.365C77.5932 15.365 76.8082 15.105 76.2882 14.585C75.7782 14.065 75.5232 13.32 75.5232 12.35V10.655ZM80.3082 9.26C79.9082 9.15 79.4832 9.095 79.0332 9.095C77.8532 9.095 77.2632 9.635 77.2632 10.715V12.305C77.2632 12.775 77.4032 13.14 77.6832 13.4C77.9632 13.65 78.3682 13.775 78.8982 13.775C79.3482 13.775 79.8632 13.705 80.4432 13.565V9.44C80.4432 9.36 80.3982 9.3 80.3082 9.26ZM83.6234 10.745C83.6234 9.695 83.9184 8.895 84.5084 8.345C85.1084 7.785 85.9734 7.505 87.1034 7.505C88.2434 7.505 89.1034 7.795 89.6834 8.375C90.2734 8.955 90.5684 9.7 90.5684 10.61V11.525C90.5684 11.955 90.3434 12.17 89.8934 12.17H85.3634V12.725C85.3634 13.215 85.5084 13.59 85.7984 13.85C86.0984 14.1 86.5234 14.225 87.0734 14.225C87.9134 14.225 88.5034 13.96 88.8434 13.43C88.9634 13.26 89.0734 13.165 89.1734 13.145C89.2834 13.115 89.4284 13.15 89.6084 13.25L90.1334 13.535C90.4734 13.695 90.5334 13.945 90.3134 14.285C89.7234 15.245 88.6434 15.725 87.0734 15.725C85.9034 15.725 85.0334 15.435 84.4634 14.855C83.9034 14.275 83.6234 13.495 83.6234 12.515V10.745ZM88.8284 10.505C88.8284 10.015 88.6834 9.64 88.3934 9.38C88.1034 9.11 87.6734 8.975 87.1034 8.975C86.5434 8.975 86.1134 9.11 85.8134 9.38C85.5134 9.64 85.3634 10.015 85.3634 10.505V10.835H88.8284V10.505Z" fill="white"/>
</svg>
