<svg width="32" height="32" viewBox="0 0 32 32" fill="none" xmlns="http://www.w3.org/2000/svg">
<g clip-path="url(#clip0_503_208)">
<path d="M30 3H2C1.46957 3 0.960859 3.21071 0.585786 3.58579C0.210714 3.96086 0 4.46957 0 5L0 24C0 24.5304 0.210714 25.0391 0.585786 25.4142C0.960859 25.7893 1.46957 26 2 26H14V28H10V29H22V28H18V26H30C30.5304 26 31.0391 25.7893 31.4142 25.4142C31.7893 25.0391 32 24.5304 32 24V5C32 4.46957 31.7893 3.96086 31.4142 3.58579C31.0391 3.21071 30.5304 3 30 3ZM17 28H15V26H17V28ZM31 24C31 24.2652 30.8946 24.5196 30.7071 24.7071C30.5196 24.8946 30.2652 25 30 25H2C1.73478 25 1.48043 24.8946 1.29289 24.7071C1.10536 24.5196 1 24.2652 1 24V5C1 4.73478 1.10536 4.48043 1.29289 4.29289C1.48043 4.10536 1.73478 4 2 4H30C30.2652 4 30.5196 4.10536 30.7071 4.29289C30.8946 4.48043 31 4.73478 31 5V24Z" fill="white"/>
<path d="M2 21H30V5H2V21ZM3 6H29V20H3V6Z" fill="white"/>
<path d="M16 24C16.5523 24 17 23.5523 17 23C17 22.4477 16.5523 22 16 22C15.4477 22 15 22.4477 15 23C15 23.5523 15.4477 24 16 24Z" fill="white"/>
</g>
<defs>
<clipPath id="clip0_503_208">
<rect width="32" height="32" fill="white"/>
</clipPath>
</defs>
</svg>
