<svg  viewBox="0 0 38 38" fill="none" xmlns="http://www.w3.org/2000/svg">
<path d="M16.2193 18.7004V29.2809V29.3795C16.1993 29.8035 16.0494 30.1585 15.7496 30.4444C15.4497 30.7304 15.0899 30.8684 14.6601 30.8684C14.2503 30.8684 13.8905 30.7304 13.6006 30.4444C13.3008 30.1585 13.1508 29.8133 13.1309 29.409V18.7004C13.1608 18.2961 13.3208 17.951 13.6106 17.6749C13.9005 17.3988 14.2603 17.2607 14.6901 17.2607C15.0999 17.2607 15.4597 17.3988 15.7696 17.6847C16.0694 17.9707 16.2193 18.306 16.2193 18.7004ZM19.1879 20.14C18.6581 20.14 18.2183 20.2091 17.8485 20.357C17.4887 20.5049 17.1889 20.712 16.959 20.9881V18.2074C17.3188 17.9313 17.7486 17.7045 18.2283 17.527C18.7181 17.3495 19.3178 17.2607 20.0474 17.2607C21.0969 17.2607 21.9565 17.4382 22.6162 17.7932C23.2758 18.1482 23.7856 18.6018 24.1654 19.154C24.5352 19.7062 24.7851 20.3077 24.905 20.9486C25.025 21.5896 25.0949 22.1911 25.0949 22.7433V29.3499C25.0949 29.7739 24.945 30.1289 24.6452 30.4247C24.3453 30.7205 23.9855 30.8684 23.5557 30.8684C23.1259 30.8684 22.7561 30.7205 22.4562 30.4247C22.1464 30.1289 21.9965 29.7739 21.9965 29.3499V23.5025C21.9965 23.0292 21.9465 22.5855 21.8565 22.1713C21.7666 21.7572 21.6167 21.4022 21.3968 21.0965C21.1869 20.8007 20.897 20.5641 20.5272 20.3866C20.1874 20.2189 19.7376 20.14 19.1879 20.14Z" fill="white"/>
<path d="M18.8701 8.47102C24.6986 8.47102 29.4381 13.1165 29.4381 18.8295H31.959C31.959 11.7525 26.0801 6 18.8701 6C11.6602 6 5.78125 11.7525 5.78125 18.8295H8.30222C8.29214 13.1165 13.0417 8.47102 18.8701 8.47102Z" fill="#E20C07"/>
<path d="M7.04792 20.54C7.74748 20.54 8.31458 19.9656 8.31458 19.2571C8.31458 18.5485 7.74748 17.9741 7.04792 17.9741C6.34836 17.9741 5.78125 18.5485 5.78125 19.2571C5.78125 19.9656 6.34836 20.54 7.04792 20.54Z" fill="#E20C07"/>
<path d="M30.6915 20.54C31.391 20.54 31.9581 19.9656 31.9581 19.2571C31.9581 18.5485 31.391 17.9741 30.6915 17.9741C29.9919 17.9741 29.4248 18.5485 29.4248 19.2571C29.4248 19.9656 29.9919 20.54 30.6915 20.54Z" fill="#E20C07"/>
</svg>
