<svg width="32" height="32" viewBox="0 0 32 32" fill="none" xmlns="http://www.w3.org/2000/svg">
<path d="M21.0909 32C21.0909 32 24 32 24 29.0909V2.90909C24 0 21.0909 0 21.0909 0H10.9091C10.9091 0 8 0 8 2.90909V29.0909C8 32 10.9091 32 10.9091 32H21.0909ZM9.45455 2.90909C9.45455 2.208 9.67273 1.88073 10.1047 1.664C10.4116 1.51127 10.7505 1.45455 10.9091 1.45455H21.0909C21.2495 1.45455 21.5884 1.51127 21.8953 1.664C22.3273 1.88073 22.5455 2.208 22.5455 2.90909V3.63636H9.45455V2.90909ZM9.45455 5.09091H22.5455V24.7273H9.45455V5.09091ZM9.45455 29.0909V26.1818H22.5455V29.0909C22.5455 29.792 22.3273 30.1193 21.8953 30.336C21.5884 30.4887 21.2495 30.5455 21.0909 30.5455H10.9091C10.7505 30.5455 10.4116 30.4887 10.1047 30.336C9.67273 30.1193 9.45455 29.792 9.45455 29.0909Z" fill="white"/>
<path d="M17.9885 2.18164H14.0118C13.9042 2.18164 13.8184 2.32273 13.8184 2.5031V2.58891C13.8184 2.76637 13.9056 2.91037 14.0118 2.91037H17.9885C18.0962 2.91037 18.182 2.76928 18.182 2.58891V2.5031C18.182 2.32564 18.0947 2.18164 17.9885 2.18164Z" fill="white"/>
<path d="M16 29.8183C16.8033 29.8183 17.4545 29.167 17.4545 28.3637C17.4545 27.5604 16.8033 26.9092 16 26.9092C15.1966 26.9092 14.5454 27.5604 14.5454 28.3637C14.5454 29.167 15.1966 29.8183 16 29.8183Z" fill="white"/>
</svg>
