<svg width="40" height="41" viewBox="0 0 40 41" fill="none" xmlns="http://www.w3.org/2000/svg">
<rect width="40" height="41" rx="10" fill="#FA1414"/>
<path d="M14.5171 28.6582C14.5171 28.8253 14.65 28.9623 14.8132 28.9623H23.5142V28.3545H14.8132C14.65 28.3546 14.5171 28.4914 14.5171 28.6582Z" fill="white"/>
<path d="M21.9148 25.8838H14.8132C14.6502 25.8838 14.5171 26.0207 14.5171 26.1873C14.5171 26.3545 14.65 26.4914 14.8132 26.4914H23.5142V26.2752H22.9506C22.5612 26.2753 22.1972 26.1314 21.9148 25.8838Z" fill="white"/>
<path d="M25.0636 10.0244H23.3252V14.1439H25.0636V10.0244Z" fill="white"/>
<path d="M12.4793 30.6621V21.7146C12.4793 21.3807 12.7465 21.1076 13.0718 21.1076H24.142L27.273 17.8976C27.5765 17.5876 27.9765 17.4187 28.4014 17.4187C28.8269 17.4187 29.2273 17.5882 29.5283 17.8967L31.6988 20.1209V13.9075C31.6988 13.6751 31.6559 13.4387 31.5637 13.2102C31.4709 12.9822 31.3391 12.7839 31.178 12.6194L27.192 8.53375C27.0314 8.36913 26.8381 8.23348 26.6155 8.13894C26.3923 8.04456 26.1619 8 25.9352 8H9.77777C9.32262 8 8.86736 8.1782 8.52089 8.53386C8.17328 8.88952 8 9.35589 8 9.82185V30.4694C8 30.9359 8.17328 31.4023 8.52084 31.7578C8.8673 32.1136 9.32262 32.2912 9.77772 32.2912H23.5142V31.2692H13.0718C12.7465 31.2692 12.4793 30.9961 12.4793 30.6621ZM13.7924 9.70073C13.7924 9.54497 13.8499 9.38958 13.9658 9.27117C14.0816 9.15218 14.2334 9.09297 14.3844 9.09297H25.3139C25.4655 9.09297 25.6174 9.15218 25.733 9.27117C25.8485 9.38958 25.9057 9.54481 25.9057 9.70073V14.4675C25.9057 14.6232 25.8485 14.7786 25.733 14.897C25.6174 15.0154 25.4653 15.0752 25.3139 15.0752H14.3844C14.2334 15.0752 14.0816 15.0155 13.9658 14.897C13.8499 14.7786 13.7924 14.6234 13.7924 14.4675V9.70073ZM9.77777 31.2692C9.34663 31.2692 8.99706 30.9112 8.99706 30.4693C8.99706 30.0277 9.34648 29.6699 9.77777 29.6699C10.2082 29.6699 10.5579 30.0278 10.5579 30.4693C10.5578 30.9113 10.2081 31.2692 9.77777 31.2692Z" fill="white"/>
<path d="M14.5171 23.7182C14.5171 23.8853 14.65 24.0223 14.8132 24.0223H21.474C21.5526 23.8252 21.6697 23.6416 21.8227 23.4847L21.8906 23.415H14.8132C14.65 23.415 14.5171 23.5514 14.5171 23.7182Z" fill="white"/>
<path d="M34.3096 24.1713L28.8586 18.5841C28.7416 18.4641 28.5799 18.3896 28.4009 18.3896C28.2219 18.3896 28.0603 18.4641 27.9426 18.5841L22.4917 24.1713C22.3121 24.3554 22.2485 24.6393 22.3518 24.8945C22.4545 25.1499 22.6961 25.3041 22.95 25.3041H24.462V32.7153C24.462 32.8846 24.5254 33.0547 24.6517 33.1838C24.7782 33.3137 24.9436 33.3783 25.1093 33.3783H31.6919C31.8577 33.3783 32.0236 33.3137 32.1501 33.1838C32.2762 33.0547 32.3398 32.8846 32.3398 32.7153V25.3041H33.8518C34.1062 25.3041 34.3465 25.1499 34.45 24.8945C34.5533 24.6393 34.4893 24.3554 34.3096 24.1713Z" fill="white"/>
</svg>
