<svg width="67" height="67" viewBox="0 0 67 67" fill="none" xmlns="http://www.w3.org/2000/svg">
<g clip-path="url(#clip0_713_2)">
<path d="M33.666 46.507C41.145 46.507 47.229 40.423 47.229 32.945C47.229 25.466 41.144 19.381 33.666 19.381C26.187 19.381 20.103 25.466 20.103 32.945C20.103 40.423 26.187 46.507 33.666 46.507ZM33.666 23.38C38.939 23.38 43.229 27.671 43.229 32.944C43.229 38.216 38.939 42.506 33.666 42.506C28.393 42.506 24.103 38.216 24.103 32.944C24.103 27.67 28.393 23.38 33.666 23.38Z" fill="white"/>
<path d="M4.349 41H9.362C9.851 43 10.485 43.938 11.256 45.344L7.69 48.881C6.063 50.506 6.062 53.14 7.69 54.769L12.303 59.375C13.092 60.162 14.14 60.592 15.255 60.592C16.37 60.592 17.419 60.156 18.205 59.369L21.906 55.667C23.255 56.37 24.618 56.931 26.021 57.362L26 62.766C26 64.989 28.076 67 30.442 67H36.965C39.229 67 41 65.047 41 62.706V57.347C42.709 56.877 44.006 56.266 45.312 55.52L49.182 59.368C49.971 60.155 51.021 60.589 52.139 60.589C53.257 60.589 54.307 60.155 55.094 59.368L59.715 54.755C61.341 53.126 61.342 50.478 59.717 48.853L55.969 45.103L55.879 45.043C56.576 43.728 57.156 42 57.611 41H63.058C65.306 41 67 39.047 67 36.613V30.09C67 27.69 65.306 26 63.059 26H57.77C57.325 24 56.742 22.995 56.026 21.605L59.72 17.881C61.346 16.254 61.346 13.591 59.719 11.963L55.106 7.343C54.318 6.554 53.27 6.117 52.155 6.117C51.042 6.117 49.993 6.549 49.204 7.337L45.643 10.897C44.194 10.113 42.627 9.454 41.007 8.949L41 4.057C41 1.71 39.266 0 36.966 0H30.443C28.034 0 26 1.766 26 3.997V8.924C24.71 9.352 23.1 9.958 21.565 10.738L18.182 7.337C17.394 6.548 16.348 6.115 15.237 6.115C14.127 6.115 13.08 6.549 12.29 7.338L7.683 11.95C6.058 13.577 6.059 16.225 7.686 17.853L11.078 21.303C10.252 22.775 9.62 24 9.15 26H4.349C1.991 26 0 27.808 0 30.09V36.613C0 38.887 2.032 41 4.349 41ZM4.349 30H10.743C11.702 30 12.526 29.26 12.707 28.318C13.2 25.758 14.005 24.09 15.318 21.963C15.827 21.139 15.672 20.054 14.951 19.408L10.515 15.032C10.447 14.963 10.446 14.849 10.514 14.781L15.119 10.168C15.144 10.142 15.332 10.145 15.35 10.162L19.115 13.948L19.623 14.549C20.262 15.306 21.36 15.482 22.202 14.96C24.329 13.647 27.096 12.741 28.556 12.318C29.412 12.07 30 11.287 30 10.396V4.07C30.071 3.993 30.26 3.881 30.442 3.881L36.975 3.857C36.982 3.868 37 3.913 37 3.997V8.881C37 8.919 37.001 8.956 37.003 8.993L37.094 10.6C37.143 11.474 37.754 12.215 38.604 12.428C40.872 12.996 43.053 13.922 44.913 15.104C45.719 15.615 46.77 15.488 47.429 14.801L52.033 10.166C52.099 10.098 52.211 10.097 52.279 10.166L56.891 14.777C56.959 14.845 56.959 14.957 56.892 15.025L53.069 18.848L52.144 19.746C51.479 20.392 51.345 21.41 51.82 22.206C52.959 24.112 53.787 26.231 54.282 28.388C54.488 29.295 55.297 30 56.229 30H62.972C62.986 30 63 29.998 63 30.09V36.613C63 36.735 62.977 37 62.954 37H56.105C55.19 37 54.392 37.562 54.167 38.448C53.656 40.462 52.852 42.357 51.775 44.144C51.352 44.845 51.4 45.72 51.898 46.373L52.869 47.641C52.923 47.712 52.981 47.776 53.045 47.838L56.888 51.682C56.955 51.749 56.953 51.859 56.887 51.926L52.267 56.538C52.2 56.605 52.08 56.609 52.006 56.533L48.114 52.666L46.98 51.578C46.324 50.946 45.324 50.84 44.548 51.316C42.589 52.519 41.255 53.283 38.618 53.796C37.679 53.979 37 54.803 37 55.76V62.706C37 62.818 36.969 63 36.984 63C36.982 63 36.976 63 36.965 63H30.442C30.263 63 30.031 62.784 30 62.766L29.999 57.989L30.079 55.941C30.117 54.982 29.468 54.126 28.534 53.909C26.483 53.43 24.543 52.635 22.604 51.483C22.287 51.294 21.934 51.2 21.583 51.2C21.079 51.2 20.579 51.389 20.196 51.758L15.375 56.54C15.308 56.607 15.196 56.604 15.13 56.539L10.519 51.927C10.451 51.86 10.45 51.749 10.519 51.681L15.185 47.007C15.841 46.345 15.953 45.318 15.453 44.529C14.248 42.628 13.357 40.623 12.807 38.447C12.58 37.559 11.781 37 10.866 37C10.864 37 10.861 37 10.859 37L4.348 36.943C4.234 36.943 4.022 36.74 3.999 36.642L3.997 30.186C4.023 30.104 4.209 30 4.349 30Z" fill="white"/>
</g>
<defs>
<clipPath id="clip0_713_2">
<rect width="67" height="67" fill="white"/>
</clipPath>
</defs>
</svg>
