<svg width="34" height="34" viewBox="0 0 34 34" fill="none" xmlns="http://www.w3.org/2000/svg">
<path fill-rule="evenodd" clip-rule="evenodd" d="M17 34C26.3888 34 34 26.3888 34 17C34 7.61116 26.3888 0 17 0C7.61116 0 0 7.61116 0 17C0 26.3888 7.61116 34 17 34ZM16.9778 13.3063L8.45742 16.9441C7.7658 17.2167 7.40347 17.4835 7.37052 17.7442C7.31476 18.185 7.87159 18.3585 8.62988 18.5948C8.73299 18.627 8.83983 18.6602 8.94934 18.6956C9.6953 18.9359 10.6988 19.2171 11.2204 19.2282C11.6936 19.2384 12.2218 19.045 12.8049 18.6481C16.7843 15.9855 18.8385 14.6397 18.9675 14.6107C19.0584 14.5905 19.1846 14.5644 19.27 14.6397C19.3554 14.715 19.3467 14.8575 19.3379 14.8958C19.2828 15.1287 17.0992 17.141 15.9677 18.1838C15.6142 18.5095 15.3635 18.7406 15.3123 18.7933C15.1977 18.9112 15.081 19.0228 14.9688 19.13C14.2758 19.7922 13.756 20.2887 14.9976 21.0996L18.2581 23.2705C18.4291 23.3816 18.5925 23.4971 18.7516 23.6095C19.3569 24.0372 19.9007 24.4215 20.5725 24.3602C20.9632 24.3246 21.3662 23.9608 21.571 22.8755C22.055 20.3108 23.0064 14.7539 23.2263 12.4641C23.2455 12.2634 23.2213 12.0066 23.2019 11.894C23.1824 11.7813 23.1418 11.6207 22.9939 11.5018C22.8189 11.361 22.5486 11.3313 22.4278 11.3334C21.8782 11.343 21.0352 11.6336 16.9778 13.3063Z" fill="white"/>
</svg>
