<svg width="34" height="34" viewBox="0 0 34 34" fill="none" xmlns="http://www.w3.org/2000/svg">
<path fill-rule="evenodd" clip-rule="evenodd" d="M17 34C26.3888 34 34 26.3888 34 17C34 7.61116 26.3888 0 17 0C7.61116 0 0 7.61116 0 17C0 26.3888 7.61116 34 17 34ZM23.9997 12.4667C24.5485 12.4667 24.666 12.7407 24.5485 13.1321C24.3522 14.0773 22.5859 16.6313 22.1766 17.2231C22.1225 17.3013 22.0922 17.3452 22.0922 17.3467C21.8962 17.6468 21.8178 17.8034 22.0922 18.1557C22.1856 18.2957 22.3983 18.5038 22.6416 18.7417C22.8746 18.9695 23.1355 19.2246 23.3464 19.4736C24.1303 20.3608 24.7183 21.1046 24.8881 21.6135C25.0449 22.1224 24.7836 22.3833 24.261 22.3833H22.4318C21.9466 22.3833 21.6987 22.1078 21.1666 21.5162C20.9395 21.2637 20.6605 20.9535 20.2891 20.5827C19.2047 19.5388 18.7474 19.4083 18.473 19.4083C18.0941 19.4083 17.9896 19.5127 17.9896 20.0346V21.6787C17.9896 22.1224 17.8459 22.3833 16.6831 22.3833C14.7494 22.3833 12.6197 21.209 11.1041 19.043C8.83074 15.8722 8.21667 13.4714 8.21667 12.9886C8.21667 12.7146 8.32119 12.4667 8.8438 12.4667H10.673C11.1433 12.4667 11.3132 12.6754 11.4961 13.1582C12.3845 15.7679 13.9001 18.0383 14.5142 18.0383C14.7494 18.0383 14.8539 17.9339 14.8539 17.3467V14.6588C14.8057 13.9048 14.5403 13.5749 14.343 13.3295C14.2192 13.1757 14.1222 13.0552 14.1222 12.8842C14.1222 12.6885 14.3052 12.4667 14.5926 12.4667H17.467C17.859 12.4667 17.9896 12.6624 17.9896 13.1321V16.7595C17.9896 17.151 18.1595 17.2815 18.277 17.2815C18.5122 17.2815 18.6951 17.151 19.1263 16.7204C20.4459 15.259 21.3735 12.9886 21.3735 12.9886C21.4911 12.7146 21.7002 12.4667 22.1705 12.4667H23.9997Z" fill="white"/>
</svg>
