<svg width="34" height="34" viewBox="0 0 34 34" fill="none" xmlns="http://www.w3.org/2000/svg">
<path fill-rule="evenodd" clip-rule="evenodd" d="M17 34C26.3889 34 34 26.3887 34 17C34 7.61127 26.3889 0 17 0C7.61113 0 0 7.61127 0 17C0 26.3887 7.61113 34 17 34ZM24.0665 13.0604C23.9882 12.931 23.8942 12.8103 23.7861 12.7024C23.7103 12.6266 23.6284 12.558 23.5416 12.4966C23.4568 12.4368 23.3673 12.3842 23.2739 12.3388C23.1694 12.2879 23.06 12.247 22.9471 12.2165C21.7855 11.9 17.1102 11.9 17.1102 11.9C17.1102 11.9 12.435 11.9094 11.2734 12.2265C11.1964 12.2475 11.121 12.273 11.0478 12.3034C10.8191 12.3975 10.6104 12.5364 10.4343 12.7124C10.3792 12.7671 10.3278 12.8253 10.2803 12.8867C10.244 12.9332 10.21 12.9813 10.1783 13.0311C10.0762 13.191 9.99858 13.3665 9.94854 13.5513C9.59715 15.6154 9.46081 18.7603 9.95809 20.7414C10.044 21.0591 10.2115 21.3485 10.4439 21.5809C10.6764 21.8134 10.9656 21.9805 11.283 22.0668C12.4445 22.3833 17.1198 22.3833 17.1198 22.3833C17.1198 22.3833 21.7951 22.3833 22.9567 22.0668C23.1423 22.0164 23.3183 21.9378 23.479 21.8355C23.5503 21.7896 23.6186 21.7392 23.6832 21.6844C23.7221 21.6518 23.7596 21.6169 23.7957 21.5809C24.0281 21.3485 24.1957 21.0591 24.2815 20.7414C24.6521 18.6746 24.7663 15.5319 24.2719 13.5419C24.226 13.372 24.1567 13.2098 24.0665 13.0604Z" fill="white"/>
</svg>
