<svg id="icon" width="24" height="24" viewBox="0 0 24 24" fill="none" xmlns="http://www.w3.org/2000/svg">
<g clip-path="url(#clip0_1786_2)">
<path d="M0 11.52C0 6.0893 -1.59685e-06 3.37116 1.6867 1.6867C3.37339 0.0022325 6.0893 0 11.52 0H12.48C17.9107 0 20.6288 0 22.3133 1.6867C23.9978 3.3734 24 6.0893 24 11.52V12.48C24 17.9107 24 20.6288 22.3133 22.3133C20.6266 23.9978 17.9107 24 12.48 24H11.52C6.0893 24 3.37116 24 1.6867 22.3133C0.00223091 20.6266 0 17.9107 0 12.48V11.52Z" fill="url(#paint0_radial_1786_2)"/>
<path fill-rule="evenodd" clip-rule="evenodd" d="M12.0007 5.30811C13.818 5.30811 14.0457 5.31592 14.7601 5.34829C15.3152 5.35956 15.8644 5.46487 16.3843 5.65973C16.829 5.83134 17.2328 6.09409 17.5698 6.43111C17.9068 6.76812 18.1695 7.17193 18.3412 7.61657C18.536 8.13647 18.6413 8.68565 18.6526 9.24076C18.685 9.95518 18.6928 10.1829 18.6928 12.0002C18.6928 13.8175 18.685 14.0452 18.6526 14.7596C18.6413 15.3147 18.536 15.8639 18.3412 16.3838C18.1695 16.8285 17.9068 17.2323 17.5698 17.5693C17.2328 17.9063 16.829 18.1691 16.3843 18.3407C15.8644 18.5355 15.3152 18.6408 14.7601 18.6521C14.0457 18.6845 13.818 18.6923 12.0007 18.6923C10.1834 18.6923 9.95566 18.6845 9.24125 18.6521C8.68614 18.6408 8.13696 18.5355 7.61706 18.3407C7.17242 18.1691 6.76861 17.9063 6.4316 17.5693C6.09459 17.2323 5.83183 16.8285 5.66022 16.3838C5.46536 15.8639 5.36005 15.3147 5.34878 14.7596C5.31641 14.0452 5.30859 13.8175 5.30859 12.0002C5.30859 10.1829 5.31641 9.95518 5.34878 9.24076C5.36005 8.68565 5.46536 8.13647 5.66022 7.61657C5.83183 7.17193 6.09459 6.76812 6.4316 6.43111C6.76861 6.09409 7.17242 5.83134 7.61706 5.65973C8.13696 5.46487 8.68614 5.35956 9.24125 5.34829C9.95566 5.31592 10.1834 5.30811 12.0007 5.30811ZM14.7043 6.55276C13.9988 6.52038 13.7879 6.51369 12.0007 6.51369C10.2135 6.51369 10.0025 6.52038 9.29706 6.55276C8.87234 6.55764 8.45165 6.63581 8.05353 6.78383C7.76504 6.89497 7.50304 7.06533 7.28443 7.28394C7.06582 7.50255 6.89545 7.76454 6.78431 8.05304C6.6363 8.45116 6.55813 8.87185 6.55325 9.29657C6.52088 10.0021 6.51418 10.213 6.51418 12.0002C6.51418 13.7874 6.52088 13.9983 6.55325 14.7038C6.55813 15.1285 6.6363 15.5492 6.78431 15.9474C6.89545 16.2359 7.06582 16.4978 7.28443 16.7165C7.50304 16.9351 7.76504 17.1054 8.05353 17.2166C8.45165 17.3646 8.87234 17.4428 9.29706 17.4476C10.0025 17.48 10.2135 17.4867 12.0007 17.4867C13.7879 17.4867 13.9988 17.48 14.7043 17.4476C15.129 17.4428 15.5497 17.3646 15.9478 17.2166C16.2363 17.1054 16.4983 16.9351 16.7169 16.7165C16.9356 16.4978 17.1059 16.2359 17.2171 15.9474C17.3651 15.5492 17.4432 15.1285 17.4481 14.7038C17.4805 13.9983 17.4872 13.7874 17.4872 12.0002C17.4872 10.213 17.4805 10.0021 17.4481 9.29657C17.4432 8.87185 17.3651 8.45116 17.2171 8.05304C17.1059 7.76454 16.9356 7.50255 16.7169 7.28394C16.4983 7.06533 16.2363 6.89497 15.9478 6.78383C15.5497 6.63581 15.129 6.55764 14.7043 6.55276ZM12.0007 14.2305C12.4422 14.2305 12.8739 14.0996 13.241 13.8543C13.6082 13.609 13.8943 13.2603 14.0633 12.8523C14.2323 12.4444 14.2765 11.9955 14.1903 11.5624C14.1042 11.1293 13.8916 10.7315 13.5793 10.4193C13.2671 10.1071 12.8693 9.89445 12.4362 9.80831C12.0032 9.72216 11.5543 9.76637 11.1463 9.93535C10.7384 10.1043 10.3897 10.3905 10.1444 10.7576C9.89907 11.1248 9.76813 11.5564 9.76813 11.998C9.76813 12.5901 10.0033 13.1579 10.422 13.5766C10.8407 13.9953 11.4086 14.2305 12.0007 14.2305ZM12.0007 8.56318C12.6805 8.56318 13.345 8.76475 13.9102 9.14242C14.4754 9.52008 14.9159 10.0569 15.1761 10.6849C15.4362 11.3129 15.5043 12.004 15.3717 12.6707C15.239 13.3374 14.9117 13.9499 14.431 14.4305C13.9504 14.9112 13.3379 15.2386 12.6712 15.3712C12.0045 15.5038 11.3134 15.4357 10.6854 15.1756C10.0574 14.9155 9.52057 14.4749 9.14291 13.9097C8.76524 13.3445 8.56366 12.68 8.56366 12.0002C8.56366 11.5488 8.65257 11.1019 8.82529 10.6849C8.99802 10.2679 9.25119 9.88901 9.57035 9.56986C10.2149 8.92529 11.0891 8.56318 12.0007 8.56318ZM16.3765 8.42811C16.3765 8.58707 16.3294 8.74246 16.241 8.87463C16.1527 9.0068 16.0272 9.10982 15.8804 9.17065C15.7335 9.23148 15.5719 9.2474 15.416 9.21638C15.2601 9.18537 15.1169 9.10882 15.0045 8.99642C14.8921 8.88402 14.8155 8.74081 14.7845 8.5849C14.7535 8.429 14.7694 8.2674 14.8302 8.12054C14.8911 7.97367 14.9941 7.84815 15.1263 7.75984C15.2584 7.67152 15.4138 7.62439 15.5728 7.62439C15.7859 7.62439 15.9904 7.70906 16.1411 7.85979C16.2918 8.01052 16.3765 8.21495 16.3765 8.42811Z" fill="white"/>
</g>
<defs>
<radialGradient id="paint0_radial_1786_2" cx="0" cy="0" r="1" gradientUnits="userSpaceOnUse" gradientTransform="translate(4.83651 24.895) rotate(-41.69) scale(39.8992 22.7425)">
<stop stop-color="#F9D27A"/>
<stop offset="0.05" stop-color="#F8C871"/>
<stop offset="0.14" stop-color="#F5AD58"/>
<stop offset="0.25" stop-color="#EF8130"/>
<stop offset="0.26" stop-color="#EF7E2D"/>
<stop offset="0.36" stop-color="#F04C3E"/>
<stop offset="0.38" stop-color="#ED4A45"/>
<stop offset="0.49" stop-color="#D43E79"/>
<stop offset="0.55" stop-color="#CA398E"/>
<stop offset="0.7" stop-color="#8D3CC8"/>
<stop offset="0.9" stop-color="#304DF0"/>
</radialGradient>
<clipPath id="clip0_1786_2">
<rect width="24" height="24" fill="white"/>
</clipPath>
</defs>
</svg>
