<svg id="icon" width="24" height="24" viewBox="0 0 24 24" fill="none" xmlns="http://www.w3.org/2000/svg">
    <g clip-path="url(#clip0_1786_6)">
        <path d="M0 11.52C0 6.0893 -1.59685e-06 3.37116 1.6867 1.6867C3.37339 0.0022325 6.0893 0 11.52 0H12.48C17.9107 0 20.6288 0 22.3133 1.6867C23.9978 3.3734 24 6.0893 24 11.52V12.48C24 17.9107 24 20.6288 22.3133 22.3133C20.6266 23.9978 17.9107 24 12.48 24H11.52C6.0893 24 3.37116 24 1.6867 22.3133C0.00223091 20.6266 0 17.9107 0 12.48V11.52Z" fill="#2AABEE"/>
        <path fill-rule="evenodd" clip-rule="evenodd" d="M4.94336 11.7208C8.78113 10.0486 11.3404 8.94608 12.6211 8.41324C16.2781 6.89176 17.0371 6.6272 17.5328 6.61938C17.7147 6.61506 17.8933 6.66861 18.0429 6.77231C18.1475 6.86356 18.2144 6.99052 18.2304 7.12841C18.2571 7.30007 18.2646 7.47416 18.2528 7.64748C18.0541 9.72934 17.1968 14.7816 16.7603 17.1124C16.5761 18.0992 16.2133 18.4307 15.8606 18.4631C15.0959 18.5334 14.5155 17.9574 13.7754 17.4718C12.6167 16.7128 11.9614 16.2439 10.8373 15.4983C9.53685 14.6421 10.3796 14.171 11.1208 13.4019C11.3151 13.1998 14.6829 10.1357 14.7488 9.85771C14.7572 9.8169 14.7561 9.77468 14.7454 9.73438C14.7347 9.69409 14.7149 9.65682 14.6874 9.62552C14.6474 9.59971 14.6018 9.58381 14.5544 9.57915C14.507 9.57449 14.4592 9.58121 14.415 9.59873C14.2989 9.62552 12.4477 10.849 8.8615 13.2691C8.33536 13.6307 7.85945 13.8067 7.43378 13.7971C6.96271 13.787 6.05852 13.5314 5.38652 13.3126C4.56271 13.0447 3.90746 12.9029 3.96439 12.4475C3.99341 12.2093 4.31973 11.9671 4.94336 11.7208Z" fill="white"/>
    </g>
    <defs>
        <clipPath id="clip0_1786_6">
        <rect width="24" height="24" fill="white"/>
        </clipPath>
    </defs>
</svg>
