<svg xmlns="http://www.w3.org/2000/svg" xmlns:xlink="http://www.w3.org/1999/xlink">
    <symbol viewBox="0 0 20 20" id="cart">
        <path d="M14.7505 5L15.4877 3.23077C15.7982 2.48548 16.5265 2 17.3339 2H19.0005C19.5528 2 20.0005 2.44772 20.0005 3C20.0005 3.55228 19.5528 4 19.0005 4H18.0444C17.6288 4 17.2586 4.26267 17.1213 4.65495L17.0005 5L14.4564 11.6325C14.1841 12.4491 13.4199 13 12.559 13H3.60487C2.66747 13 1.85585 12.3489 1.6525 11.4339L0.0242189 6.21693C-0.114562 5.59242 0.360658 5 1.00041 5H14.7505ZM2.24702 7L3.60487 11L12.559 11L14.2257 7H2.24702Z"/>
        <path d="M5.00053 18C6.1051 18 7.00053 17.1046 7.00053 16C7.00053 14.8954 6.1051 14 5.00053 14C3.89596 14 3.00053 14.8954 3.00053 16C3.00053 17.1046 3.89596 18 5.00053 18Z"/>
        <path d="M11.0005 18C12.1051 18 13.0005 17.1046 13.0005 16C13.0005 14.8954 12.1051 14 11.0005 14C9.89596 14 9.00053 14.8954 9.00053 16C9.00053 17.1046 9.89596 18 11.0005 18Z"/>
    </symbol>

    <symbol viewBox="0 0 12 10" id="filter">
        <path d="M0.0529432 0.723606C-0.113282 0.391156 0.128466 0 0.500157 0H10.8821C11.2538 0 11.4956 0.391156 11.3293 0.723607L10.8293 1.72361C10.7446 1.893 10.5715 2 10.3821 2H1.00016C0.810771 2 0.637639 1.893 0.552943 1.72361L0.0529432 0.723606ZM2.05294 4.72361C1.88672 4.39116 2.12847 4 2.50016 4H8.88212C9.25381 4 9.49556 4.39116 9.32934 4.72361L8.82934 5.72361C8.74464 5.893 8.57151 6 8.38212 6H3.00016C2.81077 6 2.63764 5.893 2.55294 5.72361L2.05294 4.72361ZM4.50016 8C4.12847 8 3.88672 8.39116 4.05294 8.72361L4.55294 9.72361C4.63764 9.893 4.81077 10 5.00016 10H6.38212C6.57151 10 6.74464 9.893 6.82934 9.72361L7.32934 8.72361C7.49556 8.39116 7.25381 8 6.88212 8H4.50016Z" />
    </symbol>

    <symbol viewBox="0 0 16 14" id="filter-reset">
        <path d="M0.500122 0C0.128418 0 -0.113342 0.391174 0.052887 0.723633L0.552887 1.72363C0.637604 1.89301 0.81073 2 1.00012 2H10.3821C10.5715 2 10.7446 1.89301 10.8293 1.72363L11.3293 0.723633C11.4955 0.391174 11.2538 0 10.8821 0H0.500122ZM9.6911 9L10.6911 8L12.6911 10L14.6911 8L15.6911 9L13.6911 11L15.6911 13L14.6911 14L12.6911 12L10.6911 14L9.6911 13L11.6911 11L9.6911 9ZM2.05292 4.72363C1.88669 4.39117 2.12842 4 2.50012 4H8.88208C9.25378 4 9.49551 4.39117 9.32928 4.72363L8.82928 5.72363C8.7446 5.89301 8.57147 6 8.38208 6H3.00012C2.81073 6 2.6376 5.89301 2.55292 5.72363L2.05292 4.72363ZM4.50012 8C4.12842 8 3.88666 8.39117 4.05289 8.72363L4.55289 9.72363C4.6376 9.89301 4.81073 10 5.00012 10H6.38208C6.57147 10 6.7446 9.89301 6.82928 9.72363L7.32928 8.72363C7.49551 8.39117 7.25375 8 6.88208 8H4.50012Z" />
    </symbol>

    <symbol viewBox="0 0 12 14" id="remove">
        <path d="M9.16667 14C10.175 14 11 13.2286 11 12.2857V4H1V12.2857C1 13.2286 1.825 14 2.83333 14H9.16667ZM1.17659 1H10.8234C11.4732 1 12 1.44386 12 2V4H0V2C0 1.44772 0.525716 1 1.17659 1ZM4.5 0C4.22386 0 4 0.223858 4 0.5V1H8V0.5C8 0.223858 7.77614 0 7.5 0H4.5ZM0 3V4H12V3H0Z" />
    </symbol>

    <symbol viewBox="0 0 6 10" id="select">
        <path d="M1 4L3 2L5 4L6 3L3 0L0 3L1 4ZM1 6L3 8L5 6L6 7L3 10L0 7L1 6Z"/>
    </symbol>

    <symbol viewBox="0 0 14 14" id="show">
        <path d="M7 2C4 2 1.08182 4.06667 0 7C1.08182 9.93333 4 12 7 12C10 12 12.9182 9.93333 14 7C12.9182 4.06667 10 2 7 2ZM7 10C5.32 10 4 8.68 4 7C4 5.32 5.32 4 7 4C8.68 4 10 5.32 10 7C10 8.68 8.68 10 7 10Z"/>
    </symbol>

    <symbol viewBox="0 0 14 14" id="hide">
        <path d="M11.2704 3.43668L13.3536 1.35353L12.6464 0.646423L10.4027 2.89018C9.35286 2.32123 8.18279 1.99998 7 1.99998C4 1.99998 1.08182 4.06664 0 6.99998C0.53346 8.44644 1.51345 9.68217 2.7296 10.5633L0.646447 12.6464L1.35355 13.3535L3.59731 11.1098C4.64714 11.6787 5.81721 12 7 12C10 12 12.9182 9.93331 14 6.99998C13.4665 5.55351 12.4865 4.31778 11.2704 3.43668ZM8.74623 4.54664C8.25715 4.20125 7.65602 3.99998 7 3.99998C5.32 3.99998 4 5.31998 4 6.99998C4 7.656 4.20128 8.25713 4.54667 8.7462L8.74623 4.54664ZM5.25378 9.45331L9.45333 5.25375C9.79872 5.74283 10 6.34395 10 6.99998C10 8.67998 8.68 9.99998 7 9.99998C6.34398 9.99998 5.74285 9.7987 5.25378 9.45331Z"/>
    </symbol>


    <!-- view -->
    <symbol viewBox="0 0 16 16" id="clock">
        <path d="M14 8C14 11.3137 11.3137 14 8 14C4.68629 14 2 11.3137 2 8C2 4.68629 4.68629 2 8 2C11.3137 2 14 4.68629 14 8ZM16 8C16 12.4183 12.4183 16 8 16C3.58172 16 0 12.4183 0 8C0 3.58172 3.58172 0 8 0C12.4183 0 16 3.58172 16 8ZM7 4V8V9H8H11V7H9V4H7Z" />
    </symbol>

    <symbol viewBox="0 0 17 17" id="call">
        <path d="M3.69238 7.69222L6.24048 5.14412C6.77614 4.60846 6.96319 3.81612 6.72363 3.09745L6.14699 1.36755C5.87477 0.55086 5.11049 0 4.24963 0H1.97039C0.882464 0 -0.070357 0.896139 0.00408936 2.06421C0.492735 9.73113 6.27296 15.5114 13.9399 16C15.108 16.0744 16.0041 15.1216 16.0041 14.0337V11.8145C16.0041 10.8967 15.3795 10.0968 14.4892 9.87419L11.9303 9.23448C11.1103 9.02948 10.25 9.36209 9.78113 10.0654L8.29139 12.3C6.38401 11.2046 4.78438 9.60205 3.69238 7.69222ZM2.00419 2C2.09481 3.33019 2.36589 4.59139 2.79501 5.76116L4.82626 3.72991L4.24963 2H2.00419ZM10.1196 13.1631C11.3239 13.6189 12.627 13.9061 14.0041 13.9999V11.8145L11.4452 11.1748L10.1196 13.1631Z"/>
        <path d="M11.0041 6C11.0041 5.44772 10.5564 5 10.0041 5V3C11.6609 3 13.0041 4.34315 13.0041 6H11.0041Z"/>
        <path d="M10.0041 2C12.2132 2 14.0041 3.79086 14.0041 6H16.0041C16.0041 2.68629 13.3178 0 10.0041 0V2Z"/>
    </symbol>

    <symbol viewBox="0 0 16 16" id="mail">
        <path d="M2 11V4.94319L8 9.2289L14 4.94319V7L16 9V3C16 1.89543 15.1046 1 14 1H2C0.895431 1 0 1.89543 0 3V11C0 12.1046 0.895431 13 2 13H8V11H2ZM8 6.7711L2.72047 3H13.2795L8 6.7711Z" />
        <path d="M13 15V13H10V11H13V9L16 12L13 15Z" />
    </symbol>


    <symbol viewBox="0 0 16 16" id="pay-edit">
        <path d="M0.0109554 15C-0.111486 13.4807 0.805558 10.6229 2.10268 9.15605L6.75788 3.74998L10.1187 6.9379L5.46348 12.344C4.1661 13.8111 1.72518 15 0.0109554 15Z"/>
        <path d="M13.2472 2.20339C13.6082 2.54237 13.6492 3.05085 13.3429 3.38983L10.8242 6.25L7.3949 3.02966L10.0039 0.254237C10.3102 -0.0847458 10.8107 -0.0847458 11.1716 0.254237L13.2472 2.20339Z"/>
        <path d="M16 14H7L6 15H16V14Z"/>
    </symbol>


    <symbol viewBox="0 0 12 16" id="geo">
        <path d="M10.5 10.9999C11.4797 9.53583 11.9997 7.86975 12 6.00165V5.99994C12 2.68622 9.31371 -6.10352e-05 6 -6.10352e-05C2.68629 -6.10352e-05 0 2.68622 0 5.99994V6.0033C0.00062561 7.87073 0.520607 9.53625 1.5 10.9999C2.47998 12.4645 3.87872 14.1312 6 15.9999C8.12128 14.1312 9.52002 12.4645 10.5 10.9999ZM9 5.99994C9 7.6568 7.65686 8.99994 6 8.99994C4.34314 8.99994 3 7.6568 3 5.99994C3 4.34308 4.34314 2.99994 6 2.99994C7.65686 2.99994 9 4.34308 9 5.99994Z"/>
    </symbol>

    <symbol viewBox="0 0 16 17" id="ip">
        <path d="M3.79995 12.8V4.79999H2.19995V12.8H3.79995Z"/>
        <path d="M7.79995 9.51999H11.96C13.4 9.51999 14.36 8.57599 14.36 7.19999C14.36 5.75999 13.4 4.79999 11.96 4.79999H6.19995V12.8H7.79995V9.51999ZM7.79995 6.23999H11.96C12.44 6.23999 12.76 6.55999 12.76 7.03999V7.27999C12.76 7.75999 12.44 8.07999 11.96 8.07999H7.79995V6.23999Z"/>
    </symbol>

    <symbol viewBox="0 0 12 17" id="iphone">
        <path d="M7.98 3.01182C8.48366 2.41409 8.73634 1.7683 8.73634 1.07666V1.07665C8.73634 0.984916 8.73207 0.892448 8.72183 0.799988C8.37098 0.818188 7.99793 0.924485 7.60354 1.1167C7.20829 1.31182 6.88237 1.55641 6.6261 1.85059C6.11279 2.43159 5.82374 3.14217 5.82374 3.80615C5.82374 3.89791 5.82963 3.98524 5.83979 4.06822C6.63702 4.13301 7.3722 3.7224 7.98 3.01182ZM9.70354 14.0719C9.95024 13.8576 10.2704 13.4718 10.6613 12.9143C10.9482 12.5054 11.1957 12.0607 11.4049 11.5775C11.4911 11.3726 11.5722 11.1592 11.649 10.9364C11.2948 10.7879 10.9763 10.5787 10.6912 10.3081C10.0621 9.72507 9.74195 8.99076 9.73256 8.10833C9.72232 6.97544 10.2371 6.09233 11.2777 5.46182C10.6963 4.63548 9.8222 4.1768 8.65866 4.0829C8.22927 4.04645 7.70512 4.13899 7.08409 4.36248C6.42737 4.60346 6.03998 4.72434 5.92567 4.72434C5.77278 4.72434 5.42406 4.62096 4.88096 4.41711C4.33633 4.21394 3.89806 4.11056 3.56385 4.11056C2.95306 4.12072 2.38589 4.2795 1.86098 4.59109C1.33606 4.90267 0.916659 5.32711 0.601402 5.86517C0.200268 6.53504 0 7.3344 0 8.26122C0 9.07032 0.148537 9.90605 0.444841 10.7691C0.721512 11.5681 1.07467 12.269 1.50423 12.8734C1.9046 13.4393 2.2388 13.8389 2.506 14.0719C2.92463 14.4612 3.34404 14.6464 3.7648 14.6285C4.04148 14.6191 4.40334 14.5243 4.85254 14.3425C5.30105 14.1615 5.72037 14.0719 6.11134 14.0719C6.48413 14.0719 6.89184 14.1615 7.33549 14.3425C7.77768 14.5243 8.15756 14.614 8.47256 14.614C8.91134 14.6037 9.3211 14.4236 9.70354 14.0719Z"/>
    </symbol>


    <symbol viewBox="0 0 16 13" id="desktop">
        <path d="M0 0.999939C0 0.447632 0.447723 -6.10352e-05 1 -6.10352e-05H15C15.5523 -6.10352e-05 16 0.447632 16 0.999939V9.99994C16 10.5522 15.5523 10.9999 15 10.9999H1C0.447723 10.9999 0 10.5522 0 9.99994V0.999939ZM1 1.49994C1 1.22382 1.22385 0.999939 1.5 0.999939H14.5C14.7762 0.999939 15 1.22382 15 1.49994V9.49994C15 9.77606 14.7762 9.99994 14.5 9.99994H1.5C1.22385 9.99994 1 9.77606 1 9.49994V1.49994ZM5.5 11.9999C5.22385 11.9999 5 12.2238 5 12.4999C5 12.7761 5.22385 12.9999 5.5 12.9999H10.5C10.7762 12.9999 11 12.7761 11 12.4999C11 12.2238 10.7762 11.9999 10.5 11.9999H5.5Z"/>
    </symbol>

    <symbol viewBox="0 0 10 16" id="android">
        <path d="M0 0.999939C0 0.447632 0.447754 -6.10352e-05 1 -6.10352e-05H9C9.55225 -6.10352e-05 10 0.447632 10 0.999939V14.9999C10 15.5522 9.55225 15.9999 9 15.9999H1C0.447754 15.9999 0 15.5522 0 14.9999V0.999939ZM1 1.49994C1 1.22382 1.22388 0.999939 1.5 0.999939H8.5C8.77612 0.999939 9 1.22382 9 1.49994V14.4999C9 14.7761 8.77612 14.9999 8.5 14.9999H1.5C1.22388 14.9999 1 14.7761 1 14.4999V1.49994ZM4.5 12.9999C4.22388 12.9999 4 13.2238 4 13.4999C4 13.7761 4.22388 13.9999 4.5 13.9999H5.5C5.77612 13.9999 6 13.7761 6 13.4999C6 13.2238 5.77612 12.9999 5.5 12.9999H4.5Z"/>
    </symbol>

    <symbol viewBox="0 0 10 16" id="mobile">
        <path d="M0 0.999939C0 0.447632 0.447754 -6.10352e-05 1 -6.10352e-05H9C9.55225 -6.10352e-05 10 0.447632 10 0.999939V14.9999C10 15.5522 9.55225 15.9999 9 15.9999H1C0.447754 15.9999 0 15.5522 0 14.9999V0.999939ZM1 1.49994C1 1.22382 1.22388 0.999939 1.5 0.999939H8.5C8.77612 0.999939 9 1.22382 9 1.49994V14.4999C9 14.7761 8.77612 14.9999 8.5 14.9999H1.5C1.22388 14.9999 1 14.7761 1 14.4999V1.49994ZM4.5 12.9999C4.22388 12.9999 4 13.2238 4 13.4999C4 13.7761 4.22388 13.9999 4.5 13.9999H5.5C5.77612 13.9999 6 13.7761 6 13.4999C6 13.2238 5.77612 12.9999 5.5 12.9999H4.5Z"/>
    </symbol>

    <!-- Not payed -->
    <symbol viewBox="0 0 20 20" id="pay-status-0">
        <path d="M16 10C16 13.3137 13.3137 16 10 16C6.68629 16 4 13.3137 4 10C4 6.68629 6.68629 4 10 4C13.3137 4 16 6.68629 16 10ZM18 10C18 14.4183 14.4183 18 10 18C5.58172 18 2 14.4183 2 10C2 5.58172 5.58172 2 10 2C14.4183 2 18 5.58172 18 10ZM9 6V10V11H10H13V9H11V6H9Z"/>
    </symbol>

    <!-- Payed -->
    <symbol viewBox="0 0 20 14" id="pay-status-2">
        <path d="M2 6V10H7L9 12H2C0.895431 12 0 11.1046 0 10V2C0 0.895431 0.895431 0 2 0H14C15.1046 0 16 0.895431 16 2V7H14V6H2ZM2 2H14V3H2V2ZM13 12L10 9L9 10L13 14L20 7L19 6L13 12Z"/>
    </symbol>

    <!-- Error -->
    <symbol viewBox="0 0 20 20" id="pay-status-3">
        <path d="M3 9V13H11V15H3C1.89543 15 1 14.1046 1 13V5C1 3.89543 1.89543 3 3 3H15C16.1046 3 17 3.89543 17 5V10H15V9H3ZM3 5H15V6H3V5ZM19 12L18 11L16 13L14 11L13 12L15 14L13 16L14 17L16 15L18 17L19 16L17 14L19 12Z"/>
    </symbol>

    <!-- Image placeholder -->
    <symbol viewBox="0 0 22 16" id="placeholder-product">
        <path d="M21.5 16C21.7759 16 22 15.776 22 15.5V0.5C22 0.223999 21.7759 0 21.5 0H0.5C0.224121 0 0 0.223999 0 0.5V15.5C0 15.776 0.224121 16 0.5 16H21.5ZM1 1H21V15H1V1ZM11 12C8.79419 12 7 10.2057 7 8C7 5.79431 8.79419 4 11 4C13.2058 4 15 5.79431 15 8C15 10.2057 13.2058 12 11 12ZM8 8C8 6.34644 9.34521 5 11 5C12.6548 5 14 6.34644 14 8C14 9.65356 12.6548 11 11 11C9.34521 11 8 9.65356 8 8ZM4.5 6C3.67285 6 3 5.32715 3 4.5C3 3.67285 3.67285 3 4.5 3C5.32715 3 6 3.67285 6 4.5C6 5.32715 5.32715 6 4.5 6ZM4 4.5C4 4.2244 4.2242 4 4.5 4C4.7758 4 5 4.2244 5 4.5C5 4.7756 4.7758 5 4.5 5C4.2242 5 4 4.7756 4 4.5Z"/>
    </symbol>

    <symbol viewBox="0 0 22 22" id="placeholder-delivery">
        <path d="M0 5H13V6.5V9.5V14H8.50018C8.04408 13.3928 7.31791 13 6.5 13C5.68209 13 4.95592 13.3928 4.49982 14H1V12H0V14.5V15H0.5H4.05001C4.01722 15.1616 4 15.3288 4 15.5C4 16.8807 5.11929 18 6.5 18C7.88071 18 9 16.8807 9 15.5C9 15.3288 8.98279 15.1616 8.94999 15H13.5H15.05C15.0172 15.1616 15 15.3288 15 15.5C15 16.8807 16.1193 18 17.5 18C18.8807 18 20 16.8807 20 15.5C20 15.3288 19.9828 15.1616 19.95 15H21.5H22V14.5V9.5V9.29289L21.8536 9.14645L18.8536 6.14645L18.7071 6H18.5H14V4.5V4H13.5H0V5ZM19.5002 14H21V10H14V14H15.4998C15.9559 13.3928 16.6821 13 17.5 13C18.3179 13 19.0441 13.3928 19.5002 14ZM20.2929 9H14V7H18.2929L20.2929 9ZM0 8H6V7H0V8ZM6.5 17C7.32843 17 8 16.3284 8 15.5C8 14.6716 7.32843 14 6.5 14C5.67157 14 5 14.6716 5 15.5C5 16.3284 5.67157 17 6.5 17ZM19 15.5C19 16.3284 18.3284 17 17.5 17C16.6716 17 16 16.3284 16 15.5C16 14.6716 16.6716 14 17.5 14C18.3284 14 19 14.6716 19 15.5Z"/>
    </symbol>

    <symbol viewBox="0 0 15 12" id="apply">
        <path d="M2 5L5 8L13 0L15 2L5 12L0 7L2 5Z" fill="#56B157"/>
    </symbol>

    <symbol viewBox="0 0 14 14" id="promocode-link">
        <path d="M10.5858 2H8V0H13C13.5523 0 14 0.447715 14 1V6H12V3.41421L7.70711 7.70711L6.29289 6.29289L10.5858 2ZM12 12V8H14V12C14 13.1046 13.1046 14 12 14H2C0.89543 14 0 13.1046 0 12V2C0 0.89543 0.895431 0 2 0H6V2H2L2 12H12Z" fill="currentColor"/>
    </symbol>

    <symbol viewBox="0 0 12 12" id="plus">
        <path d="M7 0H5V5H0V7H5V12H7V7H12V5H7V0Z"/>
    </symbol>

    <symbol viewBox="0 0 16 16" fill="none" id="filter-lead">
        <path d="M2 2H14C14.5523 2 15 2.44772 15 3V4.17157C15 4.43679 14.8946 4.69114 14.7071 4.87868L10.8787 8.70711C10.3161 9.26972 10 10.0328 10 10.8284V13C10 13.5523 9.55229 14 9 14H7C6.44772 14 6 13.5523 6 13V10.8284C6 10.0328 5.68393 9.26972 5.12132 8.70711L1.29289 4.87868C1.10536 4.69114 1 4.43679 1 4.17157V3C1 2.44772 1.44772 2 2 2Z" stroke="currentColor" stroke-width="2"/>
    </symbol>

    <symbol viewBox="0 0 16 16" fill="none" id="file-download">
        <g clip-path="url(#clip0_2519_3208)">
            <path fill-rule="evenodd" clip-rule="evenodd" d="M7.29282 10.7071C7.68335 11.0976 8.31651 11.0976 8.70704 10.7071L12.071 7.34315C12.4615 6.95262 12.4615 6.31946 12.071 5.92893C11.6805 5.53841 11.0473 5.53841 10.6568 5.92893L8.99993 7.58579L8.99993 0H6.99993L6.99993 7.58579L5.34308 5.92893C4.95255 5.53841 4.31939 5.53841 3.92886 5.92893C3.53834 6.31946 3.53834 6.95262 3.92886 7.34314L7.29282 10.7071ZM2 10V13C2 13.5523 2.44772 14 3 14H13C13.5523 14 14 13.5523 14 13V10H16V13C16 14.6569 14.6569 16 13 16H3C1.34315 16 0 14.6569 0 13V10H2Z" fill="currentColor"/>
        </g>
        <defs>
            <clipPath id="clip0_2519_3208">
                <rect width="16" height="16" fill="white"/>
            </clipPath>
        </defs>
    </symbol>

    <symbol viewBox="0 0 29 34" fill="none" id="file-xlsx">
        <g clip-path="url(#clip0_2519_3166)">
            <path fill-rule="evenodd" clip-rule="evenodd" d="M7 0C5.34315 0 4 1.34315 4 3V31C4 32.6569 5.34315 34 7 34H26C27.6569 34 29 32.6569 29 31V9H22C20.8954 9 20 8.10457 20 7V0H7Z" fill="white"/>
            <path fill-rule="evenodd" clip-rule="evenodd" d="M7 0C5.34315 0 4 1.34315 4 3V31C4 32.6569 5.34315 34 7 34H26C27.6569 34 29 32.6569 29 31V9H22C20.8954 9 20 8.10457 20 7V0H7Z" fill="#30343B" fill-opacity="0.15"/>
            <path opacity="0.1" d="M20.5 8L29 16V9L20.5 8Z" fill="#30343B"/>
            <path d="M29 9L20 0V7C20 8.10457 20.8954 9 22 9H29Z" fill="white"/>
            <path d="M29 9L20 0V7C20 8.10457 20.8954 9 22 9H29Z" fill="#30343B" fill-opacity="0.45"/>
            <path d="M0 18C0 16.8954 0.89543 16 2 16H23C24.1046 16 25 16.8954 25 18V26C25 27.1046 24.1046 28 23 28H2C0.89543 28 0 27.1046 0 26V18Z" fill="#109D59"/>
            <path d="M3.23044 25H1.87044L4.00644 22.128L1.99044 19.32H3.33444L4.70244 21.232L6.07844 19.32H7.42244L5.39844 22.128L7.54244 25H6.18244L4.70244 23.032L3.23044 25ZM8.44856 25V19.32H9.60856V23.896H12.0406V25H8.44856ZM14.8973 25.096C14.2519 25.096 13.7319 24.912 13.3373 24.544C12.9426 24.1707 12.7346 23.736 12.7133 23.24H13.8733C13.9159 23.4907 14.0306 23.6853 14.2173 23.824C14.4039 23.9573 14.6306 24.024 14.8973 24.024C15.1373 24.024 15.3319 23.9733 15.4813 23.872C15.6306 23.7653 15.7053 23.624 15.7053 23.448C15.7053 23.1333 15.4519 22.904 14.9453 22.76L14.3453 22.584C13.8813 22.4507 13.5186 22.2427 13.2573 21.96C12.9959 21.6773 12.8626 21.3253 12.8573 20.904C12.8573 20.3867 13.0306 19.9787 13.3773 19.68C13.7239 19.376 14.1853 19.224 14.7613 19.224C15.3426 19.224 15.8146 19.4 16.1773 19.752C16.5399 20.0987 16.7319 20.4987 16.7533 20.952H15.6013C15.5426 20.728 15.4359 20.5627 15.2813 20.456C15.1266 20.3493 14.9533 20.296 14.7613 20.296C14.5479 20.296 14.3719 20.344 14.2333 20.44C14.0999 20.5307 14.0306 20.6587 14.0253 20.824C14.0199 20.9947 14.0759 21.1333 14.1933 21.24C14.3106 21.3467 14.4919 21.4347 14.7373 21.504L15.4013 21.688C16.3826 21.96 16.8733 22.5333 16.8733 23.408C16.8733 23.8987 16.6893 24.304 16.3213 24.624C15.9586 24.9387 15.4839 25.096 14.8973 25.096ZM18.8154 25H17.4554L19.5914 22.128L17.5754 19.32H18.9194L20.2874 21.232L21.6634 19.32H23.0074L20.9834 22.128L23.1274 25H21.7674L20.2874 23.032L18.8154 25Z" fill="white"/>
        </g>
        <defs>
            <clipPath id="clip0_2519_3166">
                <rect width="29" height="34" fill="white"/>
            </clipPath>
        </defs>
    </symbol>

    <symbol viewBox="0 0 29 34" fill="none" id="file-csv">
        <g clip-path="url(#clip0_3037_1172)">
            <path fill-rule="evenodd" clip-rule="evenodd" d="M7 0C5.34315 0 4 1.34315 4 3V31C4 32.6569 5.34315 34 7 34H26C27.6569 34 29 32.6569 29 31V9H22C20.8954 9 20 8.10457 20 7V0H7Z" fill="white"/>
            <path fill-rule="evenodd" clip-rule="evenodd" d="M7 0C5.34315 0 4 1.34315 4 3V31C4 32.6569 5.34315 34 7 34H26C27.6569 34 29 32.6569 29 31V9H22C20.8954 9 20 8.10457 20 7V0H7Z" fill="#30343B" fill-opacity="0.1"/>
            <path opacity="0.07" d="M20.5 8L29 16V9L20.5 8Z" fill="#30343B"/>
            <path d="M29 9L20 0V7C20 8.10457 20.8954 9 22 9H29Z" fill="white"/>
            <path d="M29 9L20 0V7C20 8.10457 20.8954 9 22 9H29Z" fill="#30343B" fill-opacity="0.35"/>
            <rect y="16" width="25" height="12" rx="2" fill="#53575C"/>
            <path d="M7.18266 25.096C6.32932 25.096 5.61999 24.8133 5.05466 24.248C4.48932 23.6827 4.20666 22.9867 4.20666 22.16C4.20666 21.3333 4.48932 20.6373 5.05466 20.072C5.61999 19.5067 6.32932 19.224 7.18266 19.224C7.82799 19.224 8.40666 19.4133 8.91866 19.792C9.43599 20.1653 9.77466 20.6533 9.93466 21.256H8.67866C8.56666 20.9787 8.36932 20.7573 8.08666 20.592C7.80932 20.4267 7.50799 20.344 7.18266 20.344C6.64932 20.344 6.21466 20.5173 5.87866 20.864C5.54266 21.2107 5.37466 21.6427 5.37466 22.16C5.37466 22.6773 5.54266 23.1093 5.87866 23.456C6.21466 23.8027 6.64932 23.976 7.18266 23.976C7.50799 23.976 7.80932 23.8933 8.08666 23.728C8.36932 23.5627 8.56666 23.3413 8.67866 23.064H9.93466C9.77466 23.6667 9.43599 24.1573 8.91866 24.536C8.40666 24.9093 7.82799 25.096 7.18266 25.096ZM12.9208 25.096C12.2755 25.096 11.7555 24.912 11.3608 24.544C10.9662 24.1707 10.7582 23.736 10.7368 23.24H11.8968C11.9395 23.4907 12.0542 23.6853 12.2408 23.824C12.4275 23.9573 12.6542 24.024 12.9208 24.024C13.1608 24.024 13.3555 23.9733 13.5048 23.872C13.6542 23.7653 13.7288 23.624 13.7288 23.448C13.7288 23.1333 13.4755 22.904 12.9688 22.76L12.3688 22.584C11.9048 22.4507 11.5422 22.2427 11.2808 21.96C11.0195 21.6773 10.8862 21.3253 10.8808 20.904C10.8808 20.3867 11.0542 19.9787 11.4008 19.68C11.7475 19.376 12.2088 19.224 12.7848 19.224C13.3662 19.224 13.8382 19.4 14.2008 19.752C14.5635 20.0987 14.7555 20.4987 14.7768 20.952H13.6248C13.5662 20.728 13.4595 20.5627 13.3048 20.456C13.1502 20.3493 12.9768 20.296 12.7848 20.296C12.5715 20.296 12.3955 20.344 12.2568 20.44C12.1235 20.5307 12.0542 20.6587 12.0488 20.824C12.0435 20.9947 12.0995 21.1333 12.2168 21.24C12.3342 21.3467 12.5155 21.4347 12.7608 21.504L13.4248 21.688C14.4062 21.96 14.8968 22.5333 14.8968 23.408C14.8968 23.8987 14.7128 24.304 14.3448 24.624C13.9822 24.9387 13.5075 25.096 12.9208 25.096ZM17.6997 25L15.3557 19.32H16.6117L18.2197 23.264L19.8037 19.32H21.0837L18.7317 25H17.6997Z" fill="white"/>
        </g>
        <defs>
            <clipPath id="clip0_3037_1172">
                <rect width="29" height="34" fill="white"/>
            </clipPath>
        </defs>
    </symbol>

    <symbol viewBox="0 0 16 16" fill="none" id="equal">
        <path fill-rule="evenodd" clip-rule="evenodd" d="M13 5H3V7H13V5ZM13 9H3V11H13V9Z" fill="currentColor"/>
    </symbol>

    <symbol viewBox="0 0 16 16" fill="none" id="contains">
        <path fill-rule="evenodd" clip-rule="evenodd" d="M8 13C5.23858 13 3 10.7614 3 8C3 5.23858 5.23858 3 8 3C10.7614 3 13 5.23858 13 8C13 10.7614 10.7614 13 8 13ZM1 8C1 4.13401 4.13401 1 8 1C11.866 1 15 4.13401 15 8C15 11.866 11.866 15 8 15C4.13401 15 1 11.866 1 8ZM8 9C7.44772 9 7 8.55228 7 8C7 7.44772 7.44772 7 8 7C8.55228 7 9 7.44772 9 8C9 8.55228 8.55228 9 8 9ZM5 8C5 6.34315 6.34315 5 8 5C9.65685 5 11 6.34315 11 8C11 9.65685 9.65685 11 8 11C6.34315 11 5 9.65685 5 8Z" fill="currentColor"/>
    </symbol>

    <symbol viewBox="0 0 16 16" fill="none" id="not-contains">
        <g clip-path="url(#clip0_837_922)">
            <path fill-rule="evenodd" clip-rule="evenodd" d="M13.6064 3.80783L15.7071 1.70711C16.0976 1.31658 16.0976 0.683417 15.7071 0.292893C15.3166 -0.0976311 14.6834 -0.0976311 14.2929 0.292893L12.1922 2.39362C11.0236 1.5184 9.57234 1 8 1C4.13401 1 1 4.13401 1 8C1 9.57234 1.5184 11.0236 2.39362 12.1922L0.292893 14.2929C-0.0976311 14.6834 -0.0976311 15.3166 0.292893 15.7071C0.683417 16.0976 1.31658 16.0976 1.70711 15.7071L3.80783 13.6064C4.97641 14.4816 6.42766 15 8 15C11.866 15 15 11.866 15 8C15 6.42767 14.4816 4.97641 13.6064 3.80783ZM10.7574 3.8284C9.96696 3.30488 9.01908 3 8 3C5.23858 3 3 5.23858 3 8C3 9.01908 3.30488 9.96696 3.8284 10.7574L5.29237 9.29342C5.10495 8.90178 5 8.46315 5 8C5 6.34315 6.34315 5 8 5C8.46315 5 8.90178 5.10495 9.29342 5.29237L10.7574 3.8284ZM10.7076 6.70658L12.1716 5.24261C12.6951 6.03304 13 6.98092 13 8C13 10.7614 10.7614 13 8 13C6.98092 13 6.03304 12.6951 5.24261 12.1716L6.70658 10.7076C7.09822 10.895 7.53685 11 8 11C9.65685 11 11 9.65685 11 8C11 7.53685 10.895 7.09822 10.7076 6.70658Z" fill="currentColor"/>
        </g>
        <defs>
            <clipPath id="clip0_837_922">
                <rect width="16" height="16" fill="white"/>
            </clipPath>
        </defs>
    </symbol>

    <symbol viewBox="0 0 16 16" fill="none" id="empty">
        <rect x="2" y="2" width="12" height="12" rx="6" stroke="currentColor" stroke-width="2"/>
    </symbol>

    <symbol viewBox="0 0 12 7" fill="none" id="arrow-desc">
        <path d="M9 4L6 1L3 4" stroke="currentColor" stroke-width="2" stroke-linecap="round" stroke-linejoin="round"/>
    </symbol>

    <symbol viewBox="0 0 12 7" fill="none" id="arrow-asc">
        <path d="M3 3L6 6L9 3" stroke="currentColor" stroke-width="2" stroke-linecap="round" stroke-linejoin="round"/>
    </symbol>

    <symbol viewBox="0 0 16 16" fill="none" id="Read">
        <g clip-path="url(#clip0_697_806)">
            <path d="M0.666748 8.00002C0.666748 8.00002 3.33341 2.66669 8.00008 2.66669C12.6667 2.66669 15.3334 8.00002 15.3334 8.00002C15.3334 8.00002 12.6667 13.3334 8.00008 13.3334C3.33341 13.3334 0.666748 8.00002 0.666748 8.00002Z" stroke="#30343B" stroke-width="2" stroke-linecap="round" stroke-linejoin="round"/>
            <path d="M8 10C9.10457 10 10 9.10457 10 8C10 6.89543 9.10457 6 8 6C6.89543 6 6 6.89543 6 8C6 9.10457 6.89543 10 8 10Z" stroke="#30343B" stroke-width="2" stroke-linecap="round" stroke-linejoin="round"/>
        </g>
        <defs>
            <clipPath id="clip0_697_806">
                <rect width="16" height="16" fill="white"/>
            </clipPath>
        </defs>
    </symbol>

    <symbol viewBox="0 0 16 16" fill="none" id="LeadStatus">
        <path d="M6 7.33335L8 9.33335L14.6667 2.66669" stroke="#30343B" stroke-width="2" stroke-linecap="round" stroke-linejoin="round"/>
        <path d="M14 8V12.6667C14 13.0203 13.8595 13.3594 13.6095 13.6095C13.3594 13.8595 13.0203 14 12.6667 14H3.33333C2.97971 14 2.64057 13.8595 2.39052 13.6095C2.14048 13.3594 2 13.0203 2 12.6667V3.33333C2 2.97971 2.14048 2.64057 2.39052 2.39052C2.64057 2.14048 2.97971 2 3.33333 2H10.6667" stroke="#30343B" stroke-width="2" stroke-linecap="round" stroke-linejoin="round"/>
    </symbol>

    <symbol viewBox="0 0 16 16" fill="none" id="PaymentStatus">
        <path fill-rule="evenodd" clip-rule="evenodd" d="M2 4H14V6H2V4ZM2 8V12H14V8H2ZM0 4C0 2.89543 0.895431 2 2 2H14C15.1046 2 16 2.89543 16 4V12C16 13.1046 15.1046 14 14 14H2C0.895431 14 0 13.1046 0 12V4Z" fill="#30343B"/>
    </symbol>

    <symbol viewBox="0 0 16 16" fill="none" id="Date">
        <path d="M12.6667 2.66669H3.33333C2.59695 2.66669 2 3.26364 2 4.00002V13.3334C2 14.0697 2.59695 14.6667 3.33333 14.6667H12.6667C13.403 14.6667 14 14.0697 14 13.3334V4.00002C14 3.26364 13.403 2.66669 12.6667 2.66669Z" stroke="#30343B" stroke-width="2" stroke-linecap="round" stroke-linejoin="round"/>
        <path d="M10.6667 1.33331V3.99998" stroke="#30343B" stroke-width="2" stroke-linecap="round" stroke-linejoin="round"/>
        <path d="M5.33325 1.33331V3.99998" stroke="#30343B" stroke-width="2" stroke-linecap="round" stroke-linejoin="round"/>
        <path d="M2 6.66669H14" stroke="#30343B" stroke-width="2" stroke-linecap="round" stroke-linejoin="round"/>
    </symbol>

    <symbol viewBox="0 0 16 16" fill="none" id="Number">
        <path d="M2.66675 6H13.3334" stroke="#30343B" stroke-width="2" stroke-linecap="round" stroke-linejoin="round"/>
        <path d="M2.66675 10H13.3334" stroke="#30343B" stroke-width="2" stroke-linecap="round" stroke-linejoin="round"/>
        <path d="M6.66659 2L5.33325 14" stroke="#30343B" stroke-width="2" stroke-linecap="round" stroke-linejoin="round"/>
        <path d="M10.6666 2L9.33325 14" stroke="#30343B" stroke-width="2" stroke-linecap="round" stroke-linejoin="round"/>
    </symbol>

    <symbol viewBox="0 0 16 16" fill="none" id="ClientName">
        <path d="M13.3334 14V12.6667C13.3334 11.9594 13.0525 11.2811 12.5524 10.781C12.0523 10.281 11.374 10 10.6667 10H5.33341C4.62617 10 3.94789 10.281 3.4478 10.781C2.9477 11.2811 2.66675 11.9594 2.66675 12.6667V14" stroke="#30343B" stroke-width="2" stroke-linecap="round" stroke-linejoin="round"/>
        <path d="M7.99992 7.33333C9.47268 7.33333 10.6666 6.13943 10.6666 4.66667C10.6666 3.19391 9.47268 2 7.99992 2C6.52716 2 5.33325 3.19391 5.33325 4.66667C5.33325 6.13943 6.52716 7.33333 7.99992 7.33333Z" stroke="#30343B" stroke-width="2" stroke-linecap="round" stroke-linejoin="round"/>
    </symbol>

    <symbol viewBox="0 0 16 16" fill="none" id="ClientEmail">
        <g clip-path="url(#clip0_697_800)">
            <path d="M7.99992 10.6666C9.47268 10.6666 10.6666 9.47274 10.6666 7.99998C10.6666 6.52722 9.47268 5.33331 7.99992 5.33331C6.52716 5.33331 5.33325 6.52722 5.33325 7.99998C5.33325 9.47274 6.52716 10.6666 7.99992 10.6666Z" stroke="#30343B" stroke-width="2" stroke-linecap="round" stroke-linejoin="round"/>
            <path d="M10.6666 5.33333V8.66666C10.6666 9.19709 10.8773 9.7058 11.2524 10.0809C11.6275 10.4559 12.1362 10.6667 12.6666 10.6667C13.197 10.6667 13.7057 10.4559 14.0808 10.0809C14.4559 9.7058 14.6666 9.19709 14.6666 8.66666V7.99999C14.6665 6.49535 14.1574 5.03498 13.2221 3.85635C12.2868 2.67772 10.9803 1.85014 9.51502 1.50819C8.04974 1.16624 6.51188 1.33002 5.15149 1.9729C3.7911 2.61579 2.68819 3.69996 2.0221 5.04914C1.356 6.39832 1.1659 7.93315 1.4827 9.40407C1.7995 10.875 2.60458 12.1955 3.76701 13.1508C4.92945 14.1062 6.38088 14.6402 7.8853 14.6661C9.38973 14.692 10.8587 14.2082 12.0533 13.2933" stroke="#30343B" stroke-width="2" stroke-linecap="round" stroke-linejoin="round"/>
        </g>
        <defs>
            <clipPath id="clip0_697_800">
                <rect width="16" height="16" fill="white"/>
            </clipPath>
        </defs>
    </symbol>

    <symbol viewBox="0 0 14 14" fill="none" id="Amount">
        <path fill-rule="evenodd" clip-rule="evenodd" d="M8 0H6V2H3C1.89543 2 1 2.89543 1 4V6C1 7.10457 1.89543 8 3 8H6V10H1V12H6V14H8V12H11C12.1046 12 13 11.1046 13 10V8C13 6.89543 12.1046 6 11 6H8V4H13V2H8V0ZM6 4H3V6H6V4ZM8 8V10H11V8H8Z" fill="#30343B"/>
    </symbol>

    <symbol viewBox="0 0 16 16" fill="none" id="ClientPhone">
        <g clip-path="url(#clip0_697_813)">
            <path d="M14.6667 11.28V13.28C14.6675 13.4657 14.6294 13.6494 14.555 13.8195C14.4807 13.9897 14.3716 14.1424 14.2348 14.2679C14.0979 14.3934 13.9364 14.489 13.7605 14.5485C13.5847 14.6079 13.3983 14.63 13.2134 14.6133C11.1619 14.3904 9.19137 13.6894 7.46004 12.5667C5.84926 11.5431 4.48359 10.1774 3.46004 8.56665C2.33336 6.82745 1.6322 4.84731 1.41337 2.78665C1.39671 2.60229 1.41862 2.41649 1.4777 2.24107C1.53679 2.06564 1.63175 1.90444 1.75655 1.76773C1.88134 1.63102 2.03324 1.52179 2.20256 1.447C2.37189 1.37221 2.55493 1.33349 2.74004 1.33332H4.74004C5.06357 1.33013 5.37723 1.4447 5.62254 1.65567C5.86786 1.86664 6.02809 2.15961 6.07337 2.47998C6.15779 3.12003 6.31434 3.74847 6.54004 4.35332C6.62973 4.59193 6.64915 4.85126 6.59597 5.10057C6.5428 5.34988 6.41928 5.57872 6.24004 5.75998L5.39337 6.60665C6.34241 8.27568 7.72434 9.65761 9.39337 10.6067L10.24 9.75998C10.4213 9.58074 10.6501 9.45722 10.8994 9.40405C11.1488 9.35088 11.4081 9.37029 11.6467 9.45998C12.2516 9.68568 12.88 9.84224 13.52 9.92665C13.8439 9.97234 14.1396 10.1355 14.3511 10.385C14.5625 10.6345 14.6748 10.953 14.6667 11.28Z" stroke="#30343B" stroke-width="2" stroke-linecap="round" stroke-linejoin="round"/>
        </g>
        <defs>
            <clipPath id="clip0_697_813">
                <rect width="16" height="16" fill="white"/>
            </clipPath>
        </defs>
    </symbol>

    <symbol viewBox="0 0 16 16" fill="none" id="sorting">
        <g clip-path="url(#clip0_253_1268)">
            <rect y="1" width="3" height="2" fill="#30343B"/>
            <rect y="5" width="6" height="2" fill="#30343B"/>
            <rect y="9" width="9" height="2" fill="#30343B"/>
            <rect y="13" width="16" height="2" fill="#30343B"/>
            <path fill-rule="evenodd" clip-rule="evenodd" d="M12.7071 0.292893C12.3166 -0.0976311 11.6834 -0.0976311 11.2929 0.292893L8.29289 3.29289C7.90237 3.68342 7.90237 4.31658 8.29289 4.70711C8.68342 5.09763 9.31658 5.09763 9.70711 4.70711L11 3.41421V11H13V3.41421L14.2929 4.70711C14.6834 5.09763 15.3166 5.09763 15.7071 4.70711C16.0976 4.31658 16.0976 3.68342 15.7071 3.29289L12.7071 0.292893Z" fill="#30343B"/>
        </g>
        <defs>
            <clipPath id="clip0_253_1268">
                <rect width="16" height="16" fill="white"/>
            </clipPath>
        </defs>
    </symbol>

    <symbol viewBox="0 0 6 6" fill="none" id="indicator">
        <circle cx="3" cy="3" r="3"/>
    </symbol>

    <symbol viewBox="0 0 20 14" fill="none" id="range">
        <path fill-rule="evenodd" clip-rule="evenodd" d="M5 3H9V6V8V10.0885L7 11.5329L5 10.0885V8V6V3ZM3 6V3C3 1.89543 3.89543 1 5 1H9C10.1046 1 11 1.89543 11 3V6V8V10.0885C11 10.7307 10.6916 11.3338 10.171 11.7098L8.17098 13.1543C7.47195 13.6591 6.52805 13.6591 5.82902 13.1543L3.82902 11.7098C3.30839 11.3338 3 10.7307 3 10.0885V8H0V6H3ZM20 8H12V6H20V8Z" fill="currentColor"/>
    </symbol>
</svg>

